<svg xmlns="http://www.w3.org/2000/svg" viewBox="0 0 25.78 32"><defs><style>.cls-1{fill:#412208;}.cls-2{fill:#eadec4;}</style></defs><title>0_Bug_Closed</title><g id="Layer_2" data-name="Layer 2"><g id="Layer_1-2" data-name="Layer 1"><path class="cls-1" d="M25.77,19.71a12.58,12.58,0,0,1-4.22,9A.91.91,0,0,1,20,28.61c-.62-.76-1.22-1.55-1.81-2.34-.18-.24-.29-.35-.63-.18a10.32,10.32,0,0,1-9.43.13c-.28-.13-.41-.12-.6.14-.54.75-1.11,1.48-1.7,2.2s-1,.68-1.62.1A13.17,13.17,0,0,1,0,18.71,12.71,12.71,0,0,1,7.78,7.33a1.05,1.05,0,0,0,.63-.61,4.39,4.39,0,0,1,1.93-2.17c.4-.21.35-.39.16-.71a3.84,3.84,0,0,0-3.66-2A3.86,3.86,0,0,0,3.29,4.46c0,.07,0,.15-.06.22a.92.92,0,0,1-1.16.69.91.91,0,0,1-.56-1.22A5.77,5.77,0,0,1,11,1.54a5.9,5.9,0,0,1,1.32,1.81c.11.22.1.51.51.51s.47-.23.59-.49a5.77,5.77,0,0,1,11,2.25.9.9,0,0,1-.85,1c-.57,0-.93-.33-1-1A3.9,3.9,0,0,0,19,1.84,4,4,0,0,0,15.07,4c-.1.22-.1.33.13.45a4.74,4.74,0,0,1,2.2,2.45c.11.27.32.31.53.4A12.83,12.83,0,0,1,25.77,19.71Z"/><circle class="cls-1" cx="12.91" cy="19.13" r="12.87"/><circle class="cls-2" cx="12.91" cy="19.13" r="11.12"/><path class="cls-1" d="M6.12,10.32a1.21,1.21,0,0,0,.36.42,8.77,8.77,0,0,0,6.35,2.54,9,9,0,0,0,6.4-2.85l.22-.3c.76.61,1.34,1.16,1.34,1.16A10.75,10.75,0,0,1,12.89,15,10.53,10.53,0,0,1,5.2,11.82l-.31-.4A14.67,14.67,0,0,1,6.12,10.32Z"/><rect class="cls-1" x="11.86" y="14.54" width="1.96" height="15.93"/></g></g></svg>