<svg width="36" height="36" viewBox="0 0 36 36" fill="none" xmlns="http://www.w3.org/2000/svg">
<g id="Bug_Open 1">
<g id="Layer 1">
<path id="Vector" d="M23.85 30.67C23.7657 30.6871 23.6847 30.7175 23.61 30.76C21.9179 31.714 20.0139 32.2293 18.0716 32.2589C16.1293 32.2886 14.2105 31.8318 12.49 30.93C12.28 30.83 12.15 30.8 12.03 30.87C12.45 30.23 12.9 29.55 13.32 28.87C13.3414 28.9015 13.3685 28.9286 13.4 28.95C13.4783 29.0108 13.5661 29.0581 13.66 29.09C14.9688 29.7229 16.4063 30.0446 17.86 30.03C19.4538 30.0613 21.0317 29.708 22.46 29C22.5303 28.9626 22.5972 28.9191 22.66 28.87C23 29.45 23.46 30.07 23.85 30.67Z" fill="#412208"/>
<path id="wing2" d="M30.24 23.08C30.24 23.47 30.24 23.85 30.18 24.22C30.1639 24.408 30.1372 24.595 30.1 24.78C30.05 25.15 29.98 25.51 29.91 25.87C29.7419 26.5759 29.511 27.2653 29.22 27.93C29.0122 28.4372 28.7613 28.9257 28.47 29.39C28.0898 30.0354 27.6513 30.6446 27.16 31.21C26.82 31.59 26.69 31.52 26.43 31.21C24.3468 28.4829 22.6631 25.4726 21.43 22.27C20.9967 21.2004 20.6195 20.1089 20.3 19C20.2968 18.94 20.2968 18.88 20.3 18.82C20.273 18.744 20.2691 18.6617 20.2886 18.5834C20.3082 18.5051 20.3504 18.4344 20.41 18.38C20.4543 18.3388 20.5049 18.305 20.56 18.28L20.81 18.2C22.6701 17.7398 24.3747 16.7943 25.75 15.46C25.96 15.26 26.14 15.07 26.33 14.86C26.62 14.54 26.76 14.55 27.05 14.86C29.1009 17.1065 30.2386 20.0381 30.24 23.08Z" fill="#EADEC4"/>
<path id="bugpath" d="M29.34 14.43C27.7469 12.4566 25.7075 10.8902 23.39 9.86C23.39 9.86 23.16 9.77 22.6 8.67C22.04 7.57 20.76 7.02 20.49 6.67C20.22 6.32 22 3.48 25.11 4C28.22 4.52 28.42 6.4 28.56 6.86C28.7 7.32 28.93 8.33 30.22 7.69C31.51 7.05 29.57 2.69 25.78 2.11C24.4696 1.84169 23.1083 1.9861 21.8834 2.52334C20.6585 3.06059 19.6302 3.96426 18.94 5.11C18.19 6.56 18.22 6.43 18.01 6.43C17.8 6.43 17.82 6.56 17.01 5.11C16.3198 3.96426 15.2915 3.06059 14.0666 2.52334C12.8417 1.9861 11.4804 1.84169 10.17 2.11C6.43 2.63 4.48 7 5.78 7.67C7.08 8.34 7.28 7.29 7.44 6.84C7.6 6.39 7.78 4.48 10.89 4C14 3.52 15.77 6.26 15.51 6.65C15.25 7.04 13.96 7.58 13.41 8.65C12.86 9.72 12.61 9.84 12.61 9.84C10.2937 10.8722 8.25471 12.4383 6.66 14.41C4.45915 17.3205 3.50254 20.9851 4 24.6C4.54 29.99 8.76 35.26 10.26 33.36C10.74 32.75 11.37 31.86 12.06 30.87C12.48 30.23 12.93 29.55 13.35 28.87C14.2292 27.5276 15.0112 26.1241 15.69 24.67C16.35 23.04 17.31 20.09 17.69 19C17.69 19 17.69 18.95 17.69 18.93C17.6857 18.9069 17.6857 18.8831 17.69 18.86C17.6851 18.8336 17.6851 18.8064 17.69 18.78V18.69V18.6C17.69 18.6 17.69 18.44 17.93 18.44C18.17 18.44 18.16 18.6 18.16 18.6C18.162 18.6333 18.162 18.6667 18.16 18.7C18.1643 18.7231 18.1643 18.7469 18.16 18.77C18.1644 18.8032 18.1644 18.8368 18.16 18.87C18.47 19.81 19.49 22.98 20.16 24.68C20.8384 26.1143 21.6135 27.5009 22.48 28.83C22.86 29.46 23.28 30.08 23.67 30.68C24.39 31.76 25.09 32.68 25.59 33.37C27.09 35.27 31.31 30 31.85 24.61C32.3929 21.0182 31.4904 17.3577 29.34 14.43ZM15.73 18.74C14.8853 21.9936 13.5356 25.0946 11.73 27.93C11.124 28.9939 10.4528 30.0192 9.72 31C9.18 31.67 9.19 31.68 8.67 31C6.94852 29.0588 5.93668 26.5909 5.8 24C5.66681 22.375 5.86395 20.7399 6.37953 19.1932C6.89512 17.6464 7.71847 16.2201 8.8 15C9.09 14.66 9.26 14.63 9.55 15C9.79786 15.2878 10.0616 15.5616 10.34 15.82C11.8371 17.0432 13.6015 17.8963 15.49 18.31C15.74 18.37 15.8 18.47 15.73 18.74ZM11.73 14.43C10.39 13.48 10.36 13.35 11.73 12.57C13.6065 11.4319 15.757 10.8251 17.9517 10.8145C20.1463 10.804 22.3026 11.39 24.19 12.51C24.36 12.61 24.53 12.76 24.7 12.88C24.87 13 25.35 13.01 24.97 13.48C23.3019 15.3029 20.9988 16.4173 18.5342 16.594C16.0696 16.7707 13.631 15.9963 11.72 14.43H11.73ZM30.19 24.22C30.1739 24.408 30.1472 24.595 30.11 24.78C30.06 25.15 29.99 25.51 29.92 25.87C29.7519 26.5759 29.521 27.2653 29.23 27.93C29.0222 28.4372 28.7713 28.9257 28.48 29.39C28.0998 30.0354 27.6613 30.6446 27.17 31.21C26.83 31.59 26.7 31.52 26.44 31.21C24.3568 28.4829 22.6731 25.4726 21.44 22.27C21.0033 21.2006 20.6228 20.1091 20.3 19C20.2968 18.94 20.2968 18.88 20.3 18.82C20.273 18.744 20.2691 18.6617 20.2886 18.5834C20.3082 18.5051 20.3504 18.4344 20.41 18.38C20.4543 18.3388 20.5049 18.305 20.56 18.28L20.81 18.2C22.6701 17.7398 24.3747 16.7943 25.75 15.46C25.96 15.26 26.14 15.07 26.33 14.86C26.62 14.54 26.76 14.55 27.05 14.86C29.1198 17.1162 30.2657 20.0682 30.26 23.13C30.23 23.47 30.22 23.85 30.18 24.22H30.19Z" fill="#412208"/>
<path id="wing1" d="M15.73 18.74C14.8853 21.9936 13.5356 25.0946 11.73 27.93C11.124 28.9939 10.4528 30.0192 9.72 31C9.18 31.67 9.19 31.68 8.67 31C6.94852 29.0588 5.93668 26.5909 5.8 24C5.66682 22.375 5.86395 20.7399 6.37953 19.1932C6.89512 17.6464 7.71847 16.2201 8.8 15C9.09 14.66 9.26 14.63 9.55 15C9.79786 15.2878 10.0616 15.5616 10.34 15.82C11.8371 17.0432 13.6015 17.8963 15.49 18.31C15.74 18.37 15.8 18.47 15.73 18.74Z" fill="#EADEC4"/>
<path id="Vector_2" d="M22.66 28.82C22.5972 28.8691 22.5303 28.9126 22.46 28.95C21.0334 29.6649 19.4555 30.0251 17.86 30C16.4063 30.0146 14.9688 29.6929 13.66 29.06C13.5708 29.0532 13.4832 29.033 13.4 29C13.3685 28.9786 13.3414 28.9515 13.32 28.92C14.1992 27.5776 14.9812 26.174 15.66 24.72C16.32 23.09 17.28 20.14 17.66 19.05C17.66 19.05 17.66 19 17.66 18.98C17.6557 18.9569 17.6557 18.9331 17.66 18.91C17.6551 18.8836 17.6551 18.8564 17.66 18.83V18.74V18.65C17.66 18.65 17.66 18.49 17.9 18.49C18.14 18.49 18.13 18.65 18.13 18.65C18.132 18.6833 18.132 18.7167 18.13 18.75C18.1343 18.7731 18.1343 18.7969 18.13 18.82C18.1344 18.8532 18.1344 18.8868 18.13 18.92C18.44 19.86 19.46 23.03 20.13 24.73C20.8786 26.1497 21.7239 27.5163 22.66 28.82Z" fill="#EADEC4"/>
<path id="Vector_3" d="M25 13.48C23.3319 15.3029 21.0288 16.4173 18.5642 16.594C16.0996 16.7707 13.661 15.9963 11.75 14.43C10.41 13.48 10.38 13.35 11.75 12.57C13.6265 11.4319 15.777 10.8251 17.9717 10.8145C20.1663 10.804 22.3226 11.39 24.21 12.51C24.38 12.61 24.55 12.76 24.72 12.88C24.89 13 25.35 13 25 13.48Z" fill="#EADEC4"/>
</g>
</g>
</svg>
