<svg xmlns="http://www.w3.org/2000/svg" viewBox="0 0 28.37 32"><defs><style>.cls-1{fill:#412208;}.cls-2{fill:#eadec4;}.cls-3{fill:#e0e4cf;}</style></defs><title>0_Bug_Open</title><g id="Layer_2" data-name="Layer 2"><g id="Layer_1-2" data-name="Layer 1"><path class="cls-1" d="M19.73,8c-.23-.1-.47-.14-.58-.43a5.2,5.2,0,0,0-2.42-2.7c-.25-.14-.26-.25-.15-.5A4.37,4.37,0,0,1,20.9,2a4.29,4.29,0,0,1,3.92,4.22c.05.71.45,1.12,1.07,1.08a1,1,0,0,0,.93-1.14,6.26,6.26,0,0,0-2.36-4.76,6.33,6.33,0,0,0-9.75,2.29c-.13.29-.2.55-.65.54s-.44-.32-.55-.56a6.72,6.72,0,0,0-1.47-2A6.34,6.34,0,0,0,1.66,4.57a1,1,0,1,0,1.9.58,2.1,2.1,0,0,1,.06-.24A4.24,4.24,0,0,1,7.53,2a4.19,4.19,0,0,1,4,2.22c.21.34.26.54-.17.78A4.82,4.82,0,0,0,9.25,7.4a1.2,1.2,0,0,1-.69.67A14,14,0,0,0,0,20.59a14.49,14.49,0,0,0,4.64,11c.68.63,1.2.61,1.78-.11S7.7,29.84,8.3,29c.21-.28.35-.3.66-.15a11.38,11.38,0,0,0,10.38-.15c.37-.19.49-.06.69.2.65.87,1.3,1.74,2,2.58a1,1,0,0,0,1.69.1,13.87,13.87,0,0,0,4.65-9.9A14.1,14.1,0,0,0,19.73,8ZM7.93,10.57a12.09,12.09,0,0,1,12.45-.06,6,6,0,0,1,.51.37c.28.11.66.13.27.6a9.65,9.65,0,0,1-13.24.95C6.57,11.48,6.55,11.35,7.93,10.57ZM8,25.93A29.73,29.73,0,0,1,5.91,29c-.54.67-.53.68-1,0A11.45,11.45,0,0,1,2,22a12.11,12.11,0,0,1,3-9c.3-.34.47-.37.75,0a10.32,10.32,0,0,0,.8.82,12.3,12.3,0,0,0,5.15,2.49c.27.05.33.15.26.42A32.43,32.43,0,0,1,8,25.93ZM18.26,27.1a9.51,9.51,0,0,1-4.28,1,9.29,9.29,0,0,1-3.93-.83c-.32-.14-.46-.23-.22-.62a35.57,35.57,0,0,0,4-9.61c0-.18,0-.44.34-.45s.34.27.39.48a35.51,35.51,0,0,0,3.89,9.38C18.67,26.77,18.65,26.92,18.26,27.1Zm5.09,2.11c-.32.38-.46.31-.73,0A35.38,35.38,0,0,1,16.51,17c-.14-.49-.05-.67.46-.8a11,11,0,0,0,5.54-3.34c.29-.32.43-.31.71,0a12.25,12.25,0,0,1,3.22,8.27A12.42,12.42,0,0,1,23.35,29.21Z"/><path class="cls-2" d="M26.44,21.08a12.42,12.42,0,0,1-3.09,8.13c-.32.37-.46.31-.73,0a35.34,35.34,0,0,1-6.11-12.23c-.14-.49-.05-.67.46-.79a11,11,0,0,0,5.54-3.34c.29-.32.43-.31.71,0A12.24,12.24,0,0,1,26.44,21.08Z"/><path class="cls-2" d="M11.93,16.74A32.43,32.43,0,0,1,8,25.93,29.73,29.73,0,0,1,5.91,29c-.54.67-.53.68-1,0A11.45,11.45,0,0,1,2,22a12.11,12.11,0,0,1,3-9c.3-.34.47-.37.75,0a10.32,10.32,0,0,0,.8.82,12.3,12.3,0,0,0,5.15,2.49C11.94,16.37,12,16.47,11.93,16.74Z"/><path class="cls-3" d="M14,28.05a9.13,9.13,0,0,1-3.93-.82c-.32-.14-.46-.23-.22-.63a35.51,35.51,0,0,0,4-9.6c0-.19,0-.44.34-.46s.34.28.39.48a35.43,35.43,0,0,0,3.89,9.39c.21.36.19.51-.2.69A9.37,9.37,0,0,1,14,28.05Z"/><path class="cls-2" d="M21.16,11.48a9.65,9.65,0,0,1-13.24.95c-1.35-.95-1.37-1.08,0-1.86a12.09,12.09,0,0,1,12.45-.06,6,6,0,0,1,.51.37C21.17,11,21.55,11,21.16,11.48Z"/></g></g></svg>