<svg xmlns="http://www.w3.org/2000/svg" viewBox="0 0 15.94 19.81"><defs><style>.cls-1{fill:#fff;}</style></defs><title>1_Bug_Close</title><g id="Layer_2" data-name="Layer 2"><g id="Layer_1-2" data-name="Layer 1"><path class="cls-1" d="M14.73,10.57a6.1,6.1,0,0,0-.32-1.13"/><path class="cls-1" d="M14.73,10.57a6.1,6.1,0,0,0-.32-1.13M12.64,7.21l-.31.32q.21-.19.33-.33ZM1.11,12.27v.12a.77.77,0,0,0,0,.15A2.45,2.45,0,0,1,1.11,12.27Z"/><path class="cls-1" d="M12.64,7.21l-.31.32q.21-.19.33-.33ZM1.11,12.27v.12a.77.77,0,0,0,0,.15A2.45,2.45,0,0,1,1.11,12.27ZM12.64,7.21l-.31.32q.21-.19.33-.33ZM1.11,12.27v.12a.77.77,0,0,0,0,.15A2.45,2.45,0,0,1,1.11,12.27Z"/><path class="cls-1" d="M1.11,12.27v.12a.77.77,0,0,0,0,.15A2.45,2.45,0,0,1,1.11,12.27ZM12.64,7.21l-.31.32q.21-.19.33-.33ZM1.11,12.27v.12a.77.77,0,0,0,0,.15A2.45,2.45,0,0,1,1.11,12.27ZM12.64,7.21l-.31.32q.21-.19.33-.33Z"/><path class="cls-1" d="M1.11,12.27v.12a.77.77,0,0,0,0,.15A2.45,2.45,0,0,1,1.11,12.27ZM12.64,7.21l-.31.32q.21-.19.33-.33ZM1.11,12.27v.12a.77.77,0,0,0,0,.15A2.45,2.45,0,0,1,1.11,12.27ZM12.64,7.21l-.31.32q.21-.19.33-.33Z"/><path class="cls-1" d="M15.77,10.2c0-.12,0-.23-.08-.35s-.07-.25-.11-.38-.17-.49-.27-.73l-.15-.35L15,8l-.19-.33a8.32,8.32,0,0,0-.95-1.26l-.31-.32c-.14-.13-.28-.26-.43-.38a9.2,9.2,0,0,0-.95-.69,6.36,6.36,0,0,0-1.07-.55h0l-.18-.07h0a.31.31,0,0,1-.13-.16A3,3,0,0,0,9.39,2.74c-.14-.07-.15-.14-.08-.27a2.44,2.44,0,0,1,2.42-1.33,2.41,2.41,0,0,1,2.21,2.37c0,.4.25.63.6.61a.56.56,0,0,0,.53-.64A3.57,3.57,0,0,0,8.26,2.09c-.08.16-.12.3-.37.3s-.25-.18-.31-.31A3.84,3.84,0,0,0,6.75,1,3.56,3.56,0,0,0,.92,2.57a.56.56,0,0,0,.34.75A.57.57,0,0,0,2,2.9s0-.09,0-.14A2.38,2.38,0,0,1,4.21,1.13,2.38,2.38,0,0,1,6.48,2.38c.11.19.15.31-.1.44A2.68,2.68,0,0,0,5.19,4.16a.72.72,0,0,1-.27.32l0,0-.07,0a9.44,9.44,0,0,0-2,1.26,7.49,7.49,0,0,0-.7.68A7.9,7.9,0,0,0,.16,10.23c0,.13,0,.26-.07.39A8.25,8.25,0,0,0,0,11.84v.09a7.88,7.88,0,0,0,.59,2.92.36.36,0,0,0,0,.09l.15.36a6.79,6.79,0,0,0,.41.75c.16.24.32.48.5.71s.25.3.38.44a3.45,3.45,0,0,0,.26.28,3.19,3.19,0,0,0,.26.26l.19.15a8,8,0,0,0,10.38,0l0,0a3.89,3.89,0,0,0,.36-.34l.15-.14c.14-.15.29-.31.42-.48a5.41,5.41,0,0,0,.46-.61l.21-.32a7.25,7.25,0,0,0,1-2.43c0-.22.08-.44.11-.67a6.12,6.12,0,0,0,.06-.63c0-.14,0-.27,0-.41A8.07,8.07,0,0,0,15.77,10.2ZM7.32,18.69a6.61,6.61,0,0,1-3.46-1.34A4.9,4.9,0,0,1,3,16.58a2.18,2.18,0,0,1-.25-.28l0,0c-.06-.06-.11-.13-.17-.2a6.22,6.22,0,0,1-1.42-3.54.77.77,0,0,1,0-.15v-.12a2.61,2.61,0,0,1,0-.4v0a5.07,5.07,0,0,1,0-.68,4.92,4.92,0,0,1,.1-.67.13.13,0,0,1,0-.06c0-.21.1-.41.16-.62a4.75,4.75,0,0,1,.23-.63c.08-.18.16-.35.25-.52L2,8.49a2.92,2.92,0,0,1,.24-.37,2.13,2.13,0,0,1,.28-.41,3.92,3.92,0,0,1,.25-.32l0-.06.11-.12h0c.1-.06.18,0,.29.12l.09.1a6.27,6.27,0,0,0,.85.71,2.9,2.9,0,0,0,.29.19,3.07,3.07,0,0,0,.36.2l.42.2.42.18L6,9l.24.07h0a6.43,6.43,0,0,0,1,.18Zm.6-10.46-.45,0a1.55,1.55,0,0,1-.37,0L6.66,8.1a6.11,6.11,0,0,1-1-.33l-.12,0-.34-.18a5.25,5.25,0,0,1-1.07-.78L4,6.65c-.16-.16-.16-.27,0-.4a.49.49,0,0,1,.14-.11L4.38,6a.09.09,0,0,1,.06,0,6.4,6.4,0,0,1,2.46-.9,1.54,1.54,0,0,1,.3,0A4.9,4.9,0,0,1,8,5a5.07,5.07,0,0,1,.68,0,3.2,3.2,0,0,1,.62.09,6.33,6.33,0,0,1,2.17.82.44.44,0,0,1,.15.1,1.1,1.1,0,0,1,.25.15.47.47,0,0,1,.12.09.14.14,0,0,1,0,.11l-.07.1a3.37,3.37,0,0,1-.27.28l-.16.15a1.41,1.41,0,0,1-.18.14L11,7.22a3.68,3.68,0,0,1-1,.57.77.77,0,0,1-.25.1L9.31,8l-.26.07a4.08,4.08,0,0,1-.64.1A3.91,3.91,0,0,1,7.92,8.23Zm6.93,3.61a6.39,6.39,0,0,1-.19,1.58c0,.15-.07.3-.11.44l0,.09c-.06.18-.12.35-.19.52a4.59,4.59,0,0,1-.24.5,1.16,1.16,0,0,1-.14.27,4.21,4.21,0,0,1-.28.45,4.62,4.62,0,0,1-.37.5.1.1,0,0,1,0,0,4.12,4.12,0,0,1-.28.31,5.26,5.26,0,0,1-.9.8A6.6,6.6,0,0,1,8.54,18.7V9.28a5.57,5.57,0,0,0,.85-.15h0l.13,0L10,9l.14-.05c.25-.1.49-.2.71-.31l0,0,.37-.21.29-.19.38-.28.21-.18.22-.19.31-.32h0l.1-.09a.13.13,0,0,1,.18,0,.31.31,0,0,1,.1.1q.23.25.42.51t.33.48a.17.17,0,0,1,.07.1,4.82,4.82,0,0,1,.27.5c.09.18.17.35.24.53a.25.25,0,0,1,0,.11,6.1,6.1,0,0,1,.32,1.13,3.72,3.72,0,0,1,.08.57c0,.2,0,.41,0,.62Z"/><path class="cls-1" d="M12.66,7.2q-.12.13-.33.33l.31-.32Z"/><path class="cls-1" d="M14.73,10.57a6.1,6.1,0,0,0-.32-1.13"/><path class="cls-1" d="M12.66,7.2q-.12.13-.33.33l.31-.32Z"/></g></g></svg>