<svg xmlns="http://www.w3.org/2000/svg" viewBox="0 0 15.96 18"><defs><style>.cls-1{fill:#fffdfa;}</style></defs><title>1_Bug_Open</title><g id="Layer_2" data-name="Layer 2"><g id="Layer_1-2" data-name="Layer 1"><path class="cls-1" d="M0,11.58a7.85,7.85,0,0,1,4.82-7,.72.72,0,0,0,.39-.38A2.64,2.64,0,0,1,6.4,2.82c.25-.14.22-.25.1-.44A2.34,2.34,0,0,0,4.24,1.13,2.37,2.37,0,0,0,2,2.76s0,.09,0,.14A.56.56,0,1,1,.94,2.57,3.57,3.57,0,0,1,6.78,1,3.64,3.64,0,0,1,7.6,2.07c.06.14.06.31.31.32s.29-.14.37-.31a3.57,3.57,0,0,1,6.81,1.39.57.57,0,0,1-.53.65c-.35,0-.57-.21-.59-.61a2.43,2.43,0,0,0-2.21-2.38A2.46,2.46,0,0,0,9.33,2.46c-.06.14-.06.21.08.28a2.89,2.89,0,0,1,1.36,1.52c.07.16.2.19.33.24A7.92,7.92,0,0,1,16,12.2a7.77,7.77,0,0,1-2.61,5.56.56.56,0,0,1-.95-.05c-.39-.47-.76-1-1.12-1.45-.11-.15-.18-.22-.39-.11A6.4,6.4,0,0,1,5,16.23c-.17-.08-.25-.07-.37.09-.34.46-.69.91-1,1.36a.58.58,0,0,1-1,.06A8.14,8.14,0,0,1,0,11.58ZM4.46,7a5.43,5.43,0,0,0,7.44-.53c.22-.27,0-.28-.15-.34a2.16,2.16,0,0,0-.29-.21,6.81,6.81,0,0,0-7,0C3.69,6.38,3.7,6.46,4.46,7Zm-.79.79c-.15-.16-.32-.3-.45-.46s-.25-.19-.42,0a6.77,6.77,0,0,0-1.67,5.06,6.44,6.44,0,0,0,1.61,3.9c.29.4.28.4.59,0a18.48,18.48,0,0,0,1.16-1.72A18,18,0,0,0,6.71,9.41c0-.15,0-.2-.14-.23A6.94,6.94,0,0,1,3.67,7.78Zm11.21,4.07A6.94,6.94,0,0,0,13.07,7.2c-.16-.17-.24-.18-.41,0A6.12,6.12,0,0,1,9.55,9.08c-.29.07-.34.17-.26.45a20.05,20.05,0,0,0,3.44,6.88c.15.19.22.23.41,0A7,7,0,0,0,14.88,11.85Zm-7,3.93a5.31,5.31,0,0,0,2.41-.54c.22-.1.23-.18.1-.39A19.69,19.69,0,0,1,8.2,9.57c0-.11,0-.27-.22-.26s-.17.15-.19.25A19.75,19.75,0,0,1,5.53,15c-.13.23-.06.28.12.36A5.2,5.2,0,0,0,7.87,15.78Z"/></g></g></svg>