<svg xmlns="http://www.w3.org/2000/svg" viewBox="0 0 302.95 283.26"><defs><style>.cls-1{fill:#d76c38;}.cls-2,.cls-3{fill:none;stroke:#233560;stroke-linecap:round;}.cls-2,.cls-5{stroke-miterlimit:10;}.cls-3{stroke-linejoin:round;}.cls-4{fill:#233560;}.cls-5{fill:#faf5d0;stroke:#3f3f3f;}</style></defs><title>1_Developer</title><g id="Layer_2" data-name="Layer 2"><g id="Layer_1-2" data-name="Layer 1"><path class="cls-1" d="M127.65,114.81c-9.42,18.5-6.75,37.47-6.75,37.47-10.73-.68-23.55-2.89-28-9.21l1.46-4.66L82,132.22,79.52,131c9-32.38,23-53,25.77-56.08s14.26-4,14.26-4c.63,7.9,8.1,8.67,8.1,8.67S133.54,103.23,127.65,114.81Z"/><path class="cls-1" d="M133.43,175.37c.14,2.6-36.57,37.14-36.57,37.14-30.35-15.46-18.74-57.57-18.74-57.57,3.75,1.79,20.08,8.5,47.52,4.75C125.64,159.69,133.29,172.77,133.43,175.37Z"/><path class="cls-2" d="M150,25.89a44.47,44.47,0,0,1,22-23.3,2.68,2.68,0,0,1,2.45.07L177,4A.69.69,0,0,1,177,5.28a44.41,44.41,0,0,0-22.42,22.33"/><path class="cls-3" d="M181.79,39s-1.29,6.72-2,7.94"/><path class="cls-2" d="M174,59.06s1.09,13-.65,13.54-6.94-1.73-7.51-1.15-6.36,12.14-10.41,12.72-12.14-23.71-11.56-25.44a31.21,31.21,0,0,1,2.31-4.63"/><path class="cls-2" d="M143.81,60.94s-12.11,9.93-16.16,18.6"/><path class="cls-2" d="M131.82,50.9s-5.33,14.19-12.27,20"/><circle class="cls-4" cx="148.46" cy="36.76" r="7.52"/><circle class="cls-2" cx="148.46" cy="36.76" r="10.98"/><polyline class="cls-4" points="159.45 36.76 181.42 47.74 180.26 50.06 159.37 38.03"/><polygon class="cls-3" points="180.01 49.91 173.97 59.06 172.33 58.04 178.86 49.25 180.01 49.91"/><path class="cls-2" d="M120.9,152.28s-2.67-19,6.75-37.47c5.89-11.58,0-35.27,0-35.27s-7.47-.77-8.1-8.67c0,0-11.46,1-14.26,4S88.48,98.62,79.52,131l17.92,9s17.2-38.88,18.93-39.89"/><path class="cls-2" d="M82,132.22s-4.57,15.54-4.68,22.3c0,0,21.75,12.22,62,2.59,0,0,8.5-3.13,9.26-3.13s10.08,3,10.51,3.1-.57-3.83-1.59-5-9.9-5.93-10.69-5.64-8.75,5.71-9.47,5.86-36.35,2.24-44.44-9.26l1.46-4.65"/><path class="cls-2" d="M140.18,150.64s3.46-5,4.23-5.09,1,1.76,1,1.76"/><path class="cls-2" d="M120.76,140.24s11.56,7.6,21,7.85"/><path class="cls-2" d="M120.76,150.83a38.63,38.63,0,0,0,11,1.71"/><path class="cls-2" d="M151.86,148.63s5.66-1.13,8.31-.54,6.41,5.69,6.17,6.08-1.16.24-2.17-.39a24.55,24.55,0,0,0-4-2c-.34,0-2.68.31-2.68.31"/><path class="cls-2" d="M152.88,148.45a12.34,12.34,0,0,0,1.94-2.42c.07-.51-4.63,1.75-4.63,1.75"/><path class="cls-4" d="M141.31,158.46h67.38a0,0,0,0,1,0,0v3a1.12,1.12,0,0,1-1.12,1.12H141.31a1.13,1.13,0,0,1-1.13-1.13v-1.89A1.13,1.13,0,0,1,141.31,158.46Z"/><path class="cls-4" d="M191.34,126.51h67.34a1.16,1.16,0,0,1,1.16,1.16v1.82a1.16,1.16,0,0,1-1.16,1.16H192.44a1.1,1.1,0,0,1-1.1-1.1v-3a0,0,0,0,1,0,0Z" transform="translate(10.98 274.77) rotate(-63.94)"/><path class="cls-4" d="M208.68,160.73a1.63,1.63,0,0,0,1.79-1.41l-1.79-.88v2.09"/><path class="cls-2" d="M78.12,154.94s-11.61,42.11,18.74,57.57c0,0,36.71-34.54,36.57-37.14s-7.8-15.68-7.8-15.68"/><path class="cls-2" d="M128.17,164.15s71.82-3.57,82.91,1.63,14.51,14.07,14.51,14.07l-20.76,24.86s-9.25-6.75-14.26-6.94-87.41,17-89.76,11"/><line class="cls-2" x1="224.04" y1="181.71" x2="259.39" y2="247.28"/><path class="cls-2" d="M211.88,196.27s4.13,12.68,15.5,17.5c8.78,3.72,26.07,36.58,26.07,36.58"/><line class="cls-2" x1="224.36" y1="212.22" x2="219.92" y2="249.41"/><path class="cls-2" d="M209.88,198.66s-.17,11.39,2.76,18.91c2.55,6.57.62,31.53.62,31.53"/><path d="M129.05,42.16h0Z"/><path d="M129.05,42.16h0Z"/><polygon class="cls-4" points="162.99 76.45 157.39 73.36 163.73 74.59 162.99 76.45"/><path class="cls-3" d="M257.29,268.41s1.21,7.57,2.7,8.89,13.81-5.8,14.94-6.34,21.18-10.77,24.25-15.28-.78-3.86-5.32-2.81-13.34,2.58-14.84,2.66-9.63-.95-10.42.42-3.21,7.57-4.05,8.17S257,267,257.29,268.41Z"/><path class="cls-3" d="M260.57,277.46s.72,2.88,1.63,3.1,13.24-6.71,14.73-7.37c1.86-.83,13.81-7.6,18.39-11.08,2.29-1.74,7.27-6.09,7.12-6.83s-1.85-2.61-2.16-2.13"/><path class="cls-3" d="M271.9,255.24a6.12,6.12,0,0,1-.41,3.12,9.43,9.43,0,0,1-.9,1.67"/><path class="cls-3" d="M273.76,255.26a5.69,5.69,0,0,1-.43,3,8.72,8.72,0,0,1-.91,1.67"/><path class="cls-3" d="M275.93,255.36a4.67,4.67,0,0,1-.46,2.59,10.1,10.1,0,0,1-.9,1.67"/><path class="cls-3" d="M277.69,255.44a4,4,0,0,1-.47,2.33,9.43,9.43,0,0,1-.9,1.67"/><path class="cls-3" d="M253.45,250.35s4.55-1.21,5.55-2.53,1.2-2.15,1.65-1.55,1.84,3.07,1.57,3.44a14.22,14.22,0,0,1-8.92,4s-.79.12-1.47-2.92C251.83,250.8,251.88,250.17,253.45,250.35Z"/><path class="cls-3" d="M254.53,253.6s4.51,9.86,4.47,13.12"/><path class="cls-3" d="M261.31,250.54s3.32,7.65,5.6,8"/><path class="cls-3" d="M207.58,266.67s-2.73,7.16-2.1,9.05,14.87,1.86,16.12,2,23.73,1.23,28.64-1.14,1.25-3.74-3.21-5.1-12.85-4.42-14.19-5.1-7.87-5.62-9.24-4.83-6.56,5-7.58,5.06S208.07,265.29,207.58,266.67Z"/><path class="cls-3" d="M205.91,276.15s-.82,2.85-.14,3.5,14.82.79,16.45,1c2,.21,15.76.31,21.47-.43,2.85-.37,9.34-1.65,9.58-2.37s-.31-3.18-.81-2.92"/><path class="cls-3" d="M226.82,262.54a6.07,6.07,0,0,1-1.92,2.5,9.24,9.24,0,0,1-1.61,1"/><path class="cls-3" d="M228.41,263.49a5.65,5.65,0,0,1-1.85,2.35,10.36,10.36,0,0,1-1.61,1"/><path class="cls-3" d="M230.25,264.66a4.66,4.66,0,0,1-1.69,2,8.9,8.9,0,0,1-1.62,1"/><path class="cls-3" d="M231.73,265.6a4,4,0,0,1-1.57,1.79,9.93,9.93,0,0,1-1.62,1"/><path class="cls-3" d="M213.26,249.1s4.55,1.22,6.08.57,2.11-1.26,2.2-.51.06,3.57-.36,3.76a14.23,14.23,0,0,1-9.72-1s-.76-.29.18-3.27C211.64,248.68,212,248.16,213.26,249.1Z"/><path class="cls-3" d="M212.58,252.46s-1,10.79-2.67,13.59"/><path class="cls-3" d="M220,253.19s-.93,8.28.86,9.73"/><path class="cls-5" d="M211.88,220.61c-.53,14.32-24.95,32.46-66.56,32.46s-76.64,5.28-76.64-9,13.12-29,66.84-37.11C183.88,199.58,212.7,198.33,211.88,220.61Z"/><path class="cls-5" d="M77.28,158.77c-5.42-7.63-6.29-33-6.15-61.88S42.81,57,26,56.7,2.77,70.87,2.77,70.87s-10.7,25.52,14.36,69.37,36.08,96,41.57,95.83a84.39,84.39,0,0,0,12.18-1.49"/><path class="cls-4" d="M18,57.24a39.29,39.29,0,0,1,9.35,2.07A49.74,49.74,0,0,1,36,63.25,50.37,50.37,0,0,1,50.14,75.62a61.46,61.46,0,0,1,5.17,7.85c.71,1.4,1.48,2.76,2.09,4.2l1,2.14L59.19,92a85.7,85.7,0,0,1,4.57,18.09,85.87,85.87,0,0,0-5-17.91L57.84,90l-1-2.09c-.63-1.42-1.44-2.74-2.17-4.1a60.55,60.55,0,0,0-5.29-7.59A49.29,49.29,0,0,0,35.26,64.56,47.69,47.69,0,0,0,26.84,61,38,38,0,0,0,18,59.24H17.9a1,1,0,1,1,.11-2Z"/><polyline class="cls-2" points="75.94 251.88 71.57 280.76 75.94 280.76 87.18 253.71"/><polyline class="cls-2" points="193.4 242.54 199.18 280.76 194.81 280.76 181.11 247.78"/><path class="cls-4" d="M166.22,6A44.37,44.37,0,0,0,150,25.89c-.26,0-.51-.07-.78-.09h-.34l-.46,0H148l-.26,0a3.15,3.15,0,0,0-.44,0l-.51.07a5.4,5.4,0,0,0-.58.1l-.51.11-.09,0-.46.13-.38.13-.22.07c-.3.11-.59.24-.88.38h0c-.29.14-.57.29-.85.45l-.16.11a2,2,0,0,0-.36.23h0l-.41.29c-.29.22-.56.45-.83.7-.11.09-.21.19-.32.3a10.13,10.13,0,0,0-1.1,1.26c-.06.1-.13.19-.2.29l-.23.34c-.06.08-.11.17-.16.25s-.17.29-.24.44-.17.31-.25.46-.15.33-.22.5a2,2,0,0,0-.1.26l-.06.14c0,.09-.07.19-.1.28a10.67,10.67,0,0,0-.58,2.89,1.62,1.62,0,0,0,0,.22c0,.16,0,.32,0,.48s0,.51,0,.76,0,.24,0,.36l.06.46.06.34a3.58,3.58,0,0,0,.09.45,1.37,1.37,0,0,0,.07.29,5.91,5.91,0,0,0,.19.69,2.83,2.83,0,0,0,.11.31,1.27,1.27,0,0,0,.06.18c.05.14.11.29.17.43a8.52,8.52,0,0,0,.47,1c0,.08.08.16.13.24l.14.25c.07.12.15.23.23.35a7,7,0,0,0,.57.77,4.14,4.14,0,0,1-.3.5,5.32,5.32,0,0,1,.16,1.33A5.86,5.86,0,1,1,129,42.15h0v0h0a7.7,7.7,0,0,1-1.24-11.87,5.85,5.85,0,0,1,1.34-11,7.58,7.58,0,0,1-1.11-4,7.7,7.7,0,0,1,11.58-6.65A5.86,5.86,0,0,1,143.88,6a7,7,0,0,1,12.17-3.6A5.86,5.86,0,0,1,166.22,6Z"/><path class="cls-4" d="M190.9,34.23a5.8,5.8,0,0,1-11.59.34,5.81,5.81,0,0,1-8.1-5.33V29a5.71,5.71,0,0,1-2.7.67,5.8,5.8,0,0,1-3.58-1.22,5.74,5.74,0,0,1-3.56,1.22A5.65,5.65,0,0,1,160,29.5a5.79,5.79,0,0,1-2.25.45,5.53,5.53,0,0,1-.71,0,10.76,10.76,0,0,0-2.51-2.3,44.32,44.32,0,0,1,20.08-21.2,5.81,5.81,0,0,1,4.81,3.77l.28,0a3.77,3.77,0,0,1,3.77,3.78,3.66,3.66,0,0,1-.3,1.48,5.81,5.81,0,0,1,4.92,5.73,5.68,5.68,0,0,1-.51,2.36,3.76,3.76,0,0,1,1.82,3.22,3.8,3.8,0,0,1-1.09,2.66A5.81,5.81,0,0,1,190.9,34.23Z"/><path class="cls-4" d="M13.73,280.76c23.32-1,46.64-1.58,70-1.94,11.66-.23,23.32-.29,35-.42l35-.14,35,.13c11.66.14,23.32.19,35,.42,23.32.36,46.63.91,69.95,1.95-23.32,1-46.63,1.58-69.95,1.95-11.66.23-23.32.28-35,.42l-35,.13-35-.14c-11.66-.14-23.32-.19-35-.42C60.37,282.34,37.05,281.79,13.73,280.76Z"/></g></g></svg>