<svg width="303" height="284" viewBox="0 0 303 284" fill="none" xmlns="http://www.w3.org/2000/svg">

<style>
            .translate-from-left
         {
             animation:  dash1 3s ease forwards; ;
             opacity: 1;

         }  
        @keyframes transFromLeft {
           0% {
             transform: translate(-16vh,0vh);
             opacity: 0;
           }
           100% {
             transform: translate(0vh,0vh);
             opacity: 1;
           }
         }

        .stroker 
        {
            stroke-dashoffset: 300;
            stroke-dasharray: 300;
            animation: dash1 3s ease forwards;
        }

             @keyframes dash1 {
            0% {
              stroke-dashoffset: 300;
              stroke-dasharray: 300;
              stroke-opacity: 0.5;
              fill-opacity: 0;
              fill: none;
             

            }
           40%
            {
                fill-opacity: 0.1;
                fill: none;
            }
            100%{
              stroke-dashoffset: 0;   
               fill-opacity: 1;                  
            }
         }



        .shoeAnimation 
        {
            transform-box: fill-box;
            transform-origin: center;
            animation:  dash1 3s ease forwards, tapper 2s linear infinite;
        }


        @keyframes tapper{
            0%
            {
                transform: rotate(0deg) translateX(0vw) translateY(0vh);
            }
            50%
            {
                transform: rotate(-8deg) translateX(+0.2vw) translateY(-0.3vh);
            }
            100%
            {
                transform: rotate(0deg) translateX(0vw) translateY(0vh);
            }
        }
</style>
<g id="Layer 2">
<g id="Layer 1">
<path id="Vector" class="stroker" d="M127.65 114.81C118.23 133.31 120.9 152.28 120.9 152.28C110.17 151.6 97.35 149.39 92.9 143.07L94.36 138.41L82 132.22L79.52 131C88.52 98.62 102.52 78 105.29 74.92C108.06 71.84 119.55 70.92 119.55 70.92C120.18 78.82 127.65 79.59 127.65 79.59C127.65 79.59 133.54 103.23 127.65 114.81Z" fill="#D76C38"/>
<path id="Vector_2" class="stroker" d="M133.43 175.37C133.57 177.97 96.86 212.51 96.86 212.51C66.51 197.05 78.12 154.94 78.12 154.94C81.87 156.73 98.2 163.44 125.64 159.69C125.64 159.69 133.29 172.77 133.43 175.37Z" fill="#D76C38"/>
<g id="hands" class="stroker">
<path id="Vector_3" d="M82 132.22C82 132.22 77.43 147.76 77.32 154.52C77.32 154.52 99.07 166.74 139.32 157.11C139.32 157.11 147.82 153.98 148.58 153.98C149.34 153.98 158.66 156.98 159.09 157.08C159.52 157.18 158.52 153.25 157.5 152.08C156.48 150.91 147.6 146.15 146.81 146.44C146.02 146.73 138.06 152.15 137.34 152.3C136.62 152.45 100.99 154.54 92.9 143.04L94.36 138.39" stroke="#233560" stroke-miterlimit="10" stroke-linecap="round"/>
<path id="Vector_4" d="M140.18 150.64C140.18 150.64 143.64 145.64 144.41 145.55C145.18 145.46 145.41 147.31 145.41 147.31" stroke="#233560" stroke-miterlimit="10" stroke-linecap="round"/>
<path id="Vector_5" d="M120.76 140.24C120.76 140.24 132.32 147.84 141.76 148.09" stroke="#233560" stroke-miterlimit="10" stroke-linecap="round"/>
<path id="Vector_6" d="M120.76 150.83C124.325 151.928 128.03 152.504 131.76 152.54" stroke="#233560" stroke-miterlimit="10" stroke-linecap="round"/>
<path id="Vector_7" d="M151.86 148.63C151.86 148.63 157.52 147.5 160.17 148.09C162.82 148.68 166.58 153.78 166.34 154.17C166.1 154.56 165.18 154.41 164.17 153.78C162.9 152.993 161.561 152.324 160.17 151.78C159.83 151.78 157.49 152.09 157.49 152.09" stroke="#233560" stroke-miterlimit="10" stroke-linecap="round"/>
<path id="Vector_8" d="M152.88 148.45C153.626 147.728 154.278 146.915 154.82 146.03C154.89 145.52 150.19 147.78 150.19 147.78" stroke="#233560" stroke-miterlimit="10" stroke-linecap="round"/>
</g>
<g id="Laptop" class="stroker">
<path id="Vector_9" d="M141.31 158.46H208.69V161.46C208.69 161.757 208.572 162.042 208.362 162.252C208.152 162.462 207.867 162.58 207.57 162.58H141.31C141.01 162.58 140.723 162.461 140.511 162.249C140.299 162.037 140.18 161.75 140.18 161.45V159.56C140.188 159.266 140.31 158.986 140.521 158.78C140.732 158.575 141.015 158.46 141.31 158.46Z" fill="#233560"/>
<path id="Vector_10" d="M208.686 158.46L238.27 97.9662C238.405 97.6899 238.644 97.4785 238.935 97.3786C239.226 97.2788 239.545 97.2986 239.821 97.4338L241.456 98.2333C241.733 98.3685 241.944 98.6079 242.044 98.8989C242.144 99.1899 242.124 99.5086 241.989 99.785L212.889 159.291C212.76 159.553 212.533 159.753 212.257 159.848C211.982 159.943 211.679 159.924 211.417 159.796L208.722 158.478L208.686 158.46Z" fill="#233560"/>
<path id="Vector_11" d="M208.68 160.73C209.103 160.775 209.528 160.653 209.862 160.39C210.197 160.126 210.415 159.742 210.47 159.32L208.68 158.44V160.53" fill="#233560"/>
</g> 
<g id="Shirt" class="stroker">
<path id="Vector_12" d="M180.01 49.91L173.97 59.06L172.33 58.04L178.86 49.25L180.01 49.91Z" stroke="#233560" stroke-linecap="round" stroke-linejoin="round"/>
<path id="Vector_13" d="M120.9 152.28C120.9 152.28 118.23 133.28 127.65 114.81C133.54 103.23 127.65 79.54 127.65 79.54C127.65 79.54 120.18 78.77 119.55 70.87C119.55 70.87 108.09 71.87 105.29 74.87C102.49 77.87 88.48 98.62 79.52 131L97.44 140C97.44 140 114.64 101.12 116.37 100.11" stroke="#233560" stroke-miterlimit="10" stroke-linecap="round"/>
<path id="Vector_14" d="M78.12 154.94C78.12 154.94 66.51 197.05 96.86 212.51C96.86 212.51 133.57 177.97 133.43 175.37C133.29 172.77 125.63 159.69 125.63 159.69" stroke="#233560" stroke-miterlimit="10" stroke-linecap="round"/>
</g>
<g id="Trouser" class="stroker">
<path id="Vector_15" d="M128.17 164.15C128.17 164.15 199.99 160.58 211.08 165.78C222.17 170.98 225.59 179.85 225.59 179.85L204.83 204.71C204.83 204.71 195.58 197.96 190.57 197.77C185.56 197.58 103.16 214.77 100.81 208.77" stroke="#233560" stroke-miterlimit="10" stroke-linecap="round"/>
</g>
<g id="Legs "  class="stroker" >
<path id="Vector_16" d="M224.04 181.71L259.39 247.28" stroke="#233560" stroke-miterlimit="10" stroke-linecap="round"/>
<path id="Vector_17" d="M211.88 196.27C211.88 196.27 216.01 208.95 227.38 213.77C236.16 217.49 253.45 250.35 253.45 250.35" stroke="#233560" stroke-miterlimit="10" stroke-linecap="round"/>
<path id="Vector_18" d="M224.36 212.22L219.92 249.41" stroke="#233560" stroke-miterlimit="10" stroke-linecap="round"/>
<path id="Vector_19" d="M209.88 198.66C209.88 198.66 209.71 210.05 212.64 217.57C215.19 224.14 213.26 249.1 213.26 249.1" stroke="#233560" stroke-miterlimit="10" stroke-linecap="round"/>
</g>
<path id="Vector_20" d="M162.99 76.45L157.39 73.36L163.73 74.59L162.99 76.45Z" fill="#233560"/>
<g id="Shoe"  class="stroker">
<path id="Vector_21" d="M258.315 271.059C258.315 271.059 259.816 278.577 261.356 279.839C262.895 281.101 274.932 273.512 276.041 272.929C277.149 272.346 296.79 261.352 299.685 256.727C302.579 252.102 298.757 252.9 294.26 254.124C289.764 255.348 281.03 257.215 279.534 257.353C278.038 257.49 269.874 256.774 269.138 258.173C268.401 259.573 266.221 265.861 265.405 266.493C264.589 267.125 257.971 269.662 258.315 271.059Z" stroke="#233560" stroke-linecap="round" stroke-linejoin="round"/>
<path id="Vector_22" d="M261.387 278.919C261.387 278.919 262.071 281.808 262.978 282.039C263.885 282.271 276.3 275.493 277.798 274.852C279.668 274.045 291.701 267.423 296.323 264C298.635 262.288 303.668 258 303.527 257.258C303.386 256.516 301.71 254.625 301.394 255.102" stroke="#233560" stroke-linecap="round" stroke-linejoin="round"/>
<path id="Vector_23" d="M272.408 257.337C272.586 258.389 272.486 259.469 272.118 260.47C271.898 261.065 271.618 261.635 271.283 262.174" stroke="#233560" stroke-linecap="round" stroke-linejoin="round"/>
<path id="Vector_24" d="M274.267 257.285C274.437 258.3 274.328 259.342 273.953 260.3C273.734 260.897 273.451 261.468 273.108 262.003" stroke="#233560" stroke-linecap="round" stroke-linejoin="round"/>
<path id="Vector_25" d="M276.44 257.302C276.572 258.187 276.447 259.091 276.08 259.908C275.855 260.5 275.576 261.071 275.244 261.611" stroke="#233560" stroke-linecap="round" stroke-linejoin="round"/>
<path id="Vector_26" d="M278.201 257.314C278.315 258.117 278.183 258.935 277.821 259.66C277.601 260.255 277.321 260.825 276.986 261.364" stroke="#233560" stroke-linecap="round" stroke-linejoin="round"/>
<path id="Vector_27" d="M253.783 253.16C253.783 253.16 258.283 251.776 259.232 250.419C260.18 249.061 260.348 248.224 260.821 248.806C261.294 249.389 262.778 251.803 262.522 252.183C260.207 254.62 257.104 256.158 253.763 256.524C253.763 256.524 252.978 256.674 252.182 253.662C252.182 253.672 252.208 253.041 253.783 253.16Z" stroke="#233560" stroke-linecap="round" stroke-linejoin="round"/>
<path id="Vector_28" d="M254.988 256.366C254.988 256.366 259.874 266.046 259.959 269.305" stroke="#233560" stroke-linecap="round" stroke-linejoin="round"/>
<path id="Vector_29" d="M261.31 250.54C261.31 250.54 264.63 258.19 266.91 258.54" stroke="#233560" stroke-linecap="round" stroke-linejoin="round"/>

</g>
<g id="LeftShoe"  class="shoeAnimation">
<path id="Vector_30" d="M207.58 266.67C207.58 266.67 204.85 273.83 205.48 275.72C206.11 277.61 220.35 277.58 221.6 277.72C222.85 277.86 245.33 278.95 250.24 276.58C255.15 274.21 251.49 272.84 247.03 271.48C242.57 270.12 234.18 267.06 232.84 266.38C231.5 265.7 224.97 260.76 223.6 261.55C222.23 262.34 217.04 266.55 216.02 266.61C215 266.67 208.07 265.29 207.58 266.67Z" stroke="#233560" stroke-linecap="round" stroke-linejoin="round"/>
<path id="Vector_31" d="M205.91 276.15C205.91 276.15 205.09 279 205.77 279.65C206.45 280.3 220.59 280.44 222.22 280.65C224.22 280.86 237.98 280.96 243.69 280.22C246.54 279.85 253.03 278.57 253.27 277.85C253.51 277.13 252.96 274.67 252.46 274.93" stroke="#233560" stroke-linecap="round" stroke-linejoin="round"/>
<path id="Vector_32" d="M226.82 262.54C226.411 263.528 225.749 264.39 224.9 265.04C224.399 265.428 223.86 265.763 223.29 266.04" stroke="#233560" stroke-linecap="round" stroke-linejoin="round"/>
<path id="Vector_33" d="M228.41 263.49C228.016 264.425 227.377 265.237 226.56 265.84C226.055 266.222 225.516 266.557 224.95 266.84" stroke="#233560" stroke-linecap="round" stroke-linejoin="round"/>
<path id="Vector_34" d="M230.25 264.66C229.889 265.474 229.303 266.169 228.56 266.66C228.057 267.05 227.514 267.386 226.94 267.66" stroke="#233560" stroke-linecap="round" stroke-linejoin="round"/>
<path id="Vector_35" d="M231.73 265.6C231.4 266.342 230.853 266.967 230.16 267.39C229.653 267.774 229.111 268.109 228.54 268.39" stroke="#233560" stroke-linecap="round" stroke-linejoin="round"/>
<path id="Vector_36" d="M213.26 249.1C213.26 249.1 217.81 250.32 219.34 249.67C220.87 249.02 221.45 248.41 221.54 249.16C221.63 249.91 221.6 252.73 221.18 252.92C217.924 253.744 214.48 253.39 211.46 251.92C211.46 251.92 210.7 251.63 211.64 248.65C211.64 248.68 212 248.16 213.26 249.1Z" stroke="#233560" stroke-linecap="round" stroke-linejoin="round"/>
<path id="Vector_37" d="M212.58 252.46C212.58 252.46 211.58 263.25 209.91 266.05" stroke="#233560" stroke-linecap="round" stroke-linejoin="round"/>
<path id="Vector_38" d="M220 253.19C220 253.19 219.07 261.47 220.86 262.92" stroke="#233560" stroke-linecap="round" stroke-linejoin="round"/>
</g>
<g id="Sofa" class="translate-from-left" >
<path id="Vector_39" d="M211.88 220.61C211.35 234.93 186.93 253.07 145.32 253.07C103.71 253.07 68.68 258.35 68.68 244.07C68.68 229.79 81.8 215.07 135.52 206.96C183.88 199.58 212.7 198.33 211.88 220.61Z" fill="#FAF5D0" stroke="#3F3F3F" stroke-miterlimit="10"/>
<g id="Vector_40">
<path d="M77.28 158.77C71.86 151.14 70.99 125.77 71.13 96.89C71.27 68.01 42.81 57 26 56.7C9.18999 56.4 2.76999 70.87 2.76999 70.87C2.76999 70.87 -7.93001 96.39 17.13 140.24C42.19 184.09 53.21 236.24 58.7 236.07C62.7908 235.87 66.8615 235.372 70.88 234.58" fill="#FAF5D0"/>
<path d="M77.28 158.77C71.86 151.14 70.99 125.77 71.13 96.89C71.27 68.01 42.81 57 26 56.7C9.18999 56.4 2.76999 70.87 2.76999 70.87C2.76999 70.87 -7.93001 96.39 17.13 140.24C42.19 184.09 53.21 236.24 58.7 236.07C62.7908 235.87 66.8615 235.372 70.88 234.58" stroke="#3F3F3F" stroke-miterlimit="10"/>
</g>
<path id="Vector_41" d="M18 57.24C21.1894 57.5462 24.3294 58.2414 27.35 59.31C30.3525 60.3442 33.2491 61.6636 36 63.25C41.4474 66.4501 46.2442 70.6464 50.14 75.62C52.0612 78.1009 53.7896 80.7252 55.31 83.47C56.02 84.87 56.79 86.23 57.4 87.67L58.4 89.81L59.19 92C61.3672 97.8457 62.8996 103.912 63.76 110.09C62.7465 103.957 61.0701 97.9515 58.76 92.18L57.84 90L56.84 87.91C56.21 86.49 55.4 85.17 54.67 83.81C53.1028 81.1488 51.3343 78.6114 49.38 76.22C45.443 71.4855 40.6537 67.5306 35.26 64.56C32.5738 63.1065 29.7542 61.9143 26.84 61C23.9736 60.0647 21.0061 59.4739 18 59.24H17.9C17.7687 59.2328 17.6401 59.1998 17.5215 59.1429C17.4029 59.0859 17.2968 59.0062 17.209 58.9083C17.0318 58.7104 16.9404 58.4503 16.955 58.185C16.9696 57.9198 17.0889 57.6713 17.2868 57.494C17.4846 57.3168 17.7448 57.2255 18.01 57.24H18Z" fill="#233560"/>
<path id="Vector_42" d="M75.94 251.88L71.57 280.76H75.94L87.18 253.71" stroke="#233560" stroke-miterlimit="10" stroke-linecap="round"/>
<path id="Vector_43" d="M193.4 242.54L199.18 280.76H194.81L181.11 247.78" stroke="#233560" stroke-miterlimit="10" stroke-linecap="round"/>
</g>
<g id="Hair"  class="stroker">
<path id="Vector_44" d="M193.37 32.78C193.37 34.2887 192.782 35.738 191.731 36.8204C190.68 37.9027 189.248 38.5328 187.74 38.5771C186.232 38.6213 184.766 38.0762 183.653 37.0573C182.541 36.0385 181.869 34.6261 181.78 33.12C180.897 33.4987 179.934 33.6525 178.977 33.5676C178.02 33.4828 177.099 33.1619 176.296 32.6338C175.494 32.1057 174.835 31.3868 174.378 30.5415C173.921 29.6961 173.682 28.7508 173.68 27.79V27.55C172.849 27.9925 171.921 28.2227 170.98 28.22C169.684 28.2248 168.423 27.7953 167.4 27C166.384 27.7952 165.13 28.2249 163.84 28.22C163.378 28.2195 162.918 28.1625 162.47 28.05C161.758 28.3486 160.993 28.5016 160.22 28.5C159.984 28.5152 159.746 28.5152 159.51 28.5C158.801 27.605 157.953 26.8286 157 26.2C161.106 17.068 168.184 9.59554 177.08 5C178.153 5.11953 179.171 5.53558 180.021 6.20148C180.87 6.86738 181.518 7.7568 181.89 8.77H182.17C182.666 8.77 183.157 8.86784 183.615 9.05793C184.073 9.24801 184.489 9.5266 184.839 9.87774C185.19 10.2289 185.467 10.6457 185.656 11.1042C185.845 11.5628 185.941 12.0541 185.94 12.55C185.944 13.0588 185.842 13.5629 185.64 14.03C187.008 14.2421 188.256 14.936 189.158 15.9865C190.06 17.0371 190.557 18.3753 190.56 19.76C190.561 20.5741 190.387 21.379 190.05 22.12C190.605 22.4544 191.064 22.9266 191.383 23.4907C191.702 24.0549 191.87 24.6919 191.87 25.34C191.869 26.3352 191.478 27.2903 190.78 28C191.569 28.5251 192.217 29.2352 192.669 30.0684C193.12 30.9015 193.361 31.8324 193.37 32.78V32.78Z" fill="#233560"/>
<path id="Vector_45" d="M165.777 4.96625C158.529 9.85364 152.886 16.7732 149.557 24.8563C149.297 24.8563 149.047 24.7863 148.777 24.7663H148.437H147.977H147.557H147.297C147.15 24.756 147.003 24.756 146.857 24.7663L146.347 24.8363C146.152 24.859 145.958 24.8924 145.767 24.9363L145.257 25.0463H145.167L144.707 25.1763L144.327 25.3063L144.107 25.3763C143.807 25.4863 143.517 25.6163 143.227 25.7563C142.937 25.8963 142.657 26.0463 142.377 26.2063L142.217 26.3163C142.089 26.3798 141.968 26.457 141.857 26.5463V26.5463L141.447 26.8363C141.157 27.0563 140.887 27.2863 140.617 27.5363C140.507 27.6263 140.407 27.7263 140.297 27.8363C139.896 28.2252 139.528 28.6466 139.197 29.0963C139.137 29.1963 139.067 29.2863 138.997 29.3863L138.767 29.7263C138.707 29.8063 138.657 29.8963 138.607 29.9763C138.557 30.0563 138.437 30.2663 138.367 30.4163C138.297 30.5663 138.197 30.7263 138.117 30.8763C138.037 31.0263 137.967 31.2063 137.897 31.3763C137.857 31.4605 137.824 31.5474 137.797 31.6363L137.737 31.7763C137.737 31.8663 137.667 31.9663 137.637 32.0563C137.311 32.9881 137.115 33.9607 137.057 34.9463C137.052 35.0195 137.052 35.093 137.057 35.1663C137.057 35.3263 137.057 35.4863 137.057 35.6463C137.057 35.8063 137.057 36.1563 137.057 36.4063C137.057 36.6563 137.057 36.6463 137.057 36.7663L137.117 37.2263L137.177 37.5663C137.197 37.718 137.227 37.8683 137.267 38.0163C137.279 38.1152 137.303 38.2124 137.337 38.3063C137.386 38.5399 137.449 38.7703 137.527 38.9963C137.557 39.1016 137.594 39.2051 137.637 39.3063C137.652 39.3677 137.672 39.4278 137.697 39.4863C137.747 39.6263 137.807 39.7763 137.867 39.9163C138.002 40.2594 138.159 40.5934 138.337 40.9163C138.337 40.9963 138.417 41.0763 138.467 41.1563L138.607 41.4063C138.677 41.5263 138.757 41.6363 138.837 41.7563C139.009 42.0256 139.199 42.2829 139.407 42.5263C139.319 42.6998 139.218 42.8668 139.107 43.0263C139.216 43.4611 139.27 43.908 139.267 44.3563C139.274 45.275 139.066 46.1827 138.658 47.006C138.25 47.8293 137.654 48.5452 136.919 49.0958C136.183 49.6465 135.329 50.0165 134.424 50.176C133.519 50.3354 132.589 50.2799 131.71 50.0138C130.831 49.7478 130.026 49.2787 129.361 48.6444C128.697 48.0101 128.19 47.2284 127.883 46.3624C127.577 45.4964 127.478 44.5704 127.595 43.6591C127.711 42.7478 128.041 41.8767 128.557 41.1163V41.1163C127.601 40.4901 126.797 39.659 126.202 38.6834C125.607 37.7078 125.237 36.6121 125.118 35.4757C125 34.3393 125.135 33.1907 125.516 32.1132C125.896 31.0358 126.511 30.0565 127.317 29.2463C126.214 28.7167 125.306 27.855 124.719 26.7822C124.131 25.7095 123.895 24.4798 124.043 23.2658C124.191 22.0519 124.715 20.9148 125.543 20.0145C126.371 19.1141 127.459 18.4957 128.657 18.2463C127.922 17.0422 127.537 15.6569 127.547 14.2463C127.547 12.8918 127.904 11.5613 128.583 10.3891C129.262 9.2169 130.238 8.24447 131.412 7.56994C132.587 6.89542 133.918 6.54266 135.273 6.54728C136.627 6.5519 137.957 6.91373 139.127 7.59625C139.604 6.86433 140.238 6.24831 140.984 5.79326C141.73 5.33821 142.568 5.05565 143.437 4.96625C143.634 3.64779 144.203 2.41294 145.077 1.40696C145.952 0.400968 147.096 -0.334335 148.374 -0.712476C149.653 -1.09062 151.012 -1.09587 152.294 -0.727627C153.575 -0.359379 154.724 0.367059 155.607 1.36625C156.384 0.518061 157.393 -0.082688 158.509 -0.361112C159.625 -0.639537 160.799 -0.583322 161.883 -0.199475C162.967 0.184372 163.915 0.878874 164.607 1.79746C165.3 2.71606 165.706 3.81811 165.777 4.96625V4.96625Z" fill="#233560"/>
</g>
<g id="Floor"  class="stroker">
<path id="Vector_46" d="M13.73 280.76C37.05 279.76 60.37 279.18 83.73 278.82C95.39 278.59 107.05 278.53 118.73 278.4L153.73 278.26L188.73 278.39C200.39 278.53 212.05 278.58 223.73 278.81C247.05 279.17 270.36 279.72 293.68 280.76C270.36 281.76 247.05 282.34 223.73 282.71C212.07 282.94 200.41 282.99 188.73 283.13L153.73 283.26L118.73 283.12C107.07 282.98 95.41 282.93 83.73 282.7C60.37 282.34 37.05 281.79 13.73 280.76Z" fill="#233560"/>
</g>
<g id="Face"  class="stroker">
<path id="Vector_47" d="M150 25.89C154.183 15.6592 162.026 7.3528 172 2.59004C172.384 2.40602 172.807 2.31637 173.233 2.32855C173.66 2.34072 174.077 2.45436 174.45 2.66004L177 4.00004C177.128 4.05146 177.237 4.13988 177.314 4.25392C177.391 4.36797 177.432 4.50243 177.432 4.64004C177.432 4.77764 177.391 4.9121 177.314 5.02615C177.237 5.14019 177.128 5.22861 177 5.28004C167.038 9.71813 159.058 17.6664 154.58 27.61" stroke="#233560" stroke-miterlimit="10" stroke-linecap="round"/>
<path id="Vector_48" d="M181.79 39C181.79 39 180.5 45.72 179.79 46.94" stroke="#233560" stroke-linecap="round" stroke-linejoin="round"/>
<path id="Vector_49" d="M174 59.06C174 59.06 175.09 72.06 173.35 72.6C171.61 73.14 166.41 70.87 165.84 71.45C165.27 72.03 159.48 83.59 155.43 84.17C151.38 84.75 143.29 60.46 143.87 58.73C144.511 57.1254 145.283 55.5767 146.18 54.1" stroke="#233560" stroke-miterlimit="10" stroke-linecap="round"/>
<path id="Vector_50" d="M143.81 60.94C143.81 60.94 131.7 70.87 127.65 79.54" stroke="#233560" stroke-miterlimit="10" stroke-linecap="round"/>
<path id="Vector_51" d="M131.82 50.9C131.82 50.9 126.49 65.09 119.55 70.9" stroke="#233560" stroke-miterlimit="10" stroke-linecap="round"/>
<path id="Vector_52" d="M148.46 44.28C152.613 44.28 155.98 40.9132 155.98 36.76C155.98 32.6068 152.613 29.24 148.46 29.24C144.307 29.24 140.94 32.6068 140.94 36.76C140.94 40.9132 144.307 44.28 148.46 44.28Z" fill="#233560"/>
<path id="Vector_53" d="M148.46 47.74C154.524 47.74 159.44 42.8241 159.44 36.76C159.44 30.6959 154.524 25.78 148.46 25.78C142.396 25.78 137.48 30.6959 137.48 36.76C137.48 42.8241 142.396 47.74 148.46 47.74Z" stroke="#233560" stroke-miterlimit="10" stroke-linecap="round"/>
<path id="Vector_54" d="M159.45 36.76L181.42 47.74L180.26 50.06L159.37 38.03" fill="#233560"/>
</g>
</g>
</g>
</svg>