<svg xmlns="http://www.w3.org/2000/svg" viewBox="0 0 216.86 349.98"><defs><style>.cls-1{fill:#d76c38;}.cls-2{fill:#f9dab9;}</style></defs><title>1_Right_BG</title><g id="Layer_2" data-name="Layer 2"><g id="Layer_1-2" data-name="Layer 1"><g id="_1_Right_BG" data-name="1_Right_BG"><path class="cls-1" d="M33.44,202.58a1.3,1.3,0,1,0-1.84.14A1.3,1.3,0,0,0,33.44,202.58Z"/><path class="cls-1" d="M46.73,187.18a1.3,1.3,0,1,0-1.84.14A1.3,1.3,0,0,0,46.73,187.18Z"/><path class="cls-1" d="M60,171.78a1.3,1.3,0,1,0-1.84.14A1.3,1.3,0,0,0,60,171.78Z"/><path class="cls-1" d="M73.3,156.38a1.3,1.3,0,0,0-2-1.71,1.3,1.3,0,1,0,2,1.71Z"/><circle class="cls-1" cx="85.6" cy="140.12" r="1.31"/><path class="cls-1" d="M99.88,125.58a1.31,1.31,0,1,0-1.84.13A1.31,1.31,0,0,0,99.88,125.58Z"/><circle class="cls-1" cx="112.18" cy="109.32" r="1.31"/><path class="cls-1" d="M126.45,94.77a1.3,1.3,0,1,0-1.84.14A1.31,1.31,0,0,0,126.45,94.77Z"/><path class="cls-1" d="M139.74,79.37a1.31,1.31,0,1,0-1.84.14A1.3,1.3,0,0,0,139.74,79.37Z"/><path class="cls-1" d="M153,64a1.31,1.31,0,1,0-1.84.13A1.3,1.3,0,0,0,153,64Z"/><path class="cls-1" d="M166.31,48.57a1.3,1.3,0,1,0-1.84.13A1.3,1.3,0,0,0,166.31,48.57Z"/><path class="cls-1" d="M48.92,215.94a1.3,1.3,0,1,0-1.84.14A1.31,1.31,0,0,0,48.92,215.94Z"/><circle class="cls-1" cx="61.22" cy="199.69" r="1.31"/><path class="cls-1" d="M75.5,185.14a1.31,1.31,0,1,0-1.84.14A1.3,1.3,0,0,0,75.5,185.14Z"/><path class="cls-1" d="M88.79,169.74a1.31,1.31,0,1,0-1.85.13A1.32,1.32,0,0,0,88.79,169.74Z"/><path class="cls-1" d="M102.07,154.34a1.32,1.32,0,0,0-.13-1.85,1.31,1.31,0,1,0,.13,1.85Z"/><path class="cls-1" d="M115.36,138.93a1.3,1.3,0,1,0-1.84.14A1.31,1.31,0,0,0,115.36,138.93Z"/><path class="cls-1" d="M128.65,123.53a1.3,1.3,0,1,0-1.84.14A1.3,1.3,0,0,0,128.65,123.53Z"/><path class="cls-1" d="M141.94,108.13a1.31,1.31,0,0,0-2-1.71,1.31,1.31,0,1,0,2,1.71Z"/><circle class="cls-1" cx="154.24" cy="91.88" r="1.31"/><path class="cls-1" d="M168.51,77.33a1.31,1.31,0,1,0-1.84.13A1.31,1.31,0,0,0,168.51,77.33Z"/><path class="cls-1" d="M181.8,61.93a1.31,1.31,0,1,0-1.84.13A1.31,1.31,0,0,0,181.8,61.93Z"/><path class="cls-1" d="M64.41,229.3a1.3,1.3,0,1,0-1.84.14A1.3,1.3,0,0,0,64.41,229.3Z"/><path class="cls-1" d="M77.69,213.9a1.29,1.29,0,0,0-.13-1.84,1.31,1.31,0,1,0,.13,1.84Z"/><path class="cls-1" d="M91,198.5a1.3,1.3,0,1,0-1.84.13A1.31,1.31,0,0,0,91,198.5Z"/><circle class="cls-1" cx="103.28" cy="182.24" r="1.31"/><path class="cls-1" d="M117.56,167.69a1.3,1.3,0,1,0-1.84.14A1.3,1.3,0,0,0,117.56,167.69Z"/><circle class="cls-1" cx="129.86" cy="151.44" r="1.31"/><path class="cls-1" d="M144.13,136.89a1.3,1.3,0,1,0-1.84.14A1.31,1.31,0,0,0,144.13,136.89Z"/><path class="cls-1" d="M157.42,121.49a1.31,1.31,0,1,0-1.84.13A1.3,1.3,0,0,0,157.42,121.49Z"/><path class="cls-1" d="M170.71,106.09a1.31,1.31,0,1,0-1.84.13A1.3,1.3,0,0,0,170.71,106.09Z"/><circle class="cls-1" cx="183.01" cy="89.83" r="1.31"/><circle class="cls-1" cx="196.29" cy="74.43" r="1.31"/><path class="cls-1" d="M179.82,33a1.3,1.3,0,1,0-1.84.14A1.3,1.3,0,0,0,179.82,33Z"/><path class="cls-1" d="M193.11,17.56a1.3,1.3,0,1,0-1.84.14A1.31,1.31,0,0,0,193.11,17.56Z"/><path class="cls-1" d="M206.4,2.16a1.31,1.31,0,1,0-1.84.13A1.3,1.3,0,0,0,206.4,2.16Z"/><circle class="cls-1" cx="194.32" cy="45.47" r="1.31"/><path class="cls-1" d="M208.6,30.92a1.31,1.31,0,1,0-1.84.13A1.3,1.3,0,0,0,208.6,30.92Z"/><path class="cls-1" d="M210.79,59.68a1.3,1.3,0,1,0-1.84.13A1.31,1.31,0,0,0,210.79,59.68Z"/><path class="cls-1" d="M79.89,242.66a1.31,1.31,0,1,0-1.84.14A1.31,1.31,0,0,0,79.89,242.66Z"/><circle class="cls-1" cx="92.19" cy="226.41" r="1.31"/><circle class="cls-1" cx="105.48" cy="211" r="1.31"/><path class="cls-1" d="M119.75,196.45a1.3,1.3,0,1,0-1.84.14A1.3,1.3,0,0,0,119.75,196.45Z"/><path class="cls-1" d="M133,181.05a1.3,1.3,0,1,0-1.84.14A1.31,1.31,0,0,0,133,181.05Z"/><path class="cls-1" d="M146.33,165.65a1.3,1.3,0,1,0-1.84.14A1.3,1.3,0,0,0,146.33,165.65Z"/><circle class="cls-1" cx="158.63" cy="149.4" r="1.31"/><path class="cls-1" d="M172.9,134.85a1.3,1.3,0,1,0-1.84.13A1.3,1.3,0,0,0,172.9,134.85Z"/><circle class="cls-1" cx="185.2" cy="118.59" r="1.31"/><circle class="cls-1" cx="213.78" cy="118.59" r="1.31"/><path class="cls-1" d="M199.48,104a1.3,1.3,0,1,0-1.84.14A1.3,1.3,0,0,0,199.48,104Z"/><path class="cls-1" d="M212.77,88.64a1.3,1.3,0,1,0-1.84.14A1.3,1.3,0,0,0,212.77,88.64Z"/><path class="cls-1" d="M95.38,256a1.31,1.31,0,1,0-1.85.13A1.3,1.3,0,0,0,95.38,256Z"/><path class="cls-1" d="M108.66,240.62a1.3,1.3,0,1,0-1.84.13A1.31,1.31,0,0,0,108.66,240.62Z"/><path class="cls-1" d="M122,225.22a1.31,1.31,0,1,0-2-1.71,1.31,1.31,0,0,0,2,1.71Z"/><path class="cls-1" d="M135.24,209.81a1.3,1.3,0,1,0-1.84.14A1.3,1.3,0,0,0,135.24,209.81Z"/><circle class="cls-1" cx="147.54" cy="193.56" r="1.31"/><circle class="cls-1" cx="160.82" cy="178.16" r="1.31"/><circle class="cls-1" cx="174.11" cy="162.76" r="1.31"/><path class="cls-1" d="M188.39,148.21a1.31,1.31,0,1,0-1.84.13A1.31,1.31,0,0,0,188.39,148.21Z"/><path class="cls-1" d="M216.38,148.21a1.31,1.31,0,1,0-1.84.13A1.31,1.31,0,0,0,216.38,148.21Z"/><path class="cls-1" d="M201.68,132.8a1.3,1.3,0,1,0-1.85.14A1.3,1.3,0,0,0,201.68,132.8Z"/><circle class="cls-1" cx="109.87" cy="268.52" r="1.31"/><path class="cls-1" d="M124.15,254a1.31,1.31,0,1,0-1.84.13A1.31,1.31,0,0,0,124.15,254Z"/><path class="cls-1" d="M137.44,238.57a1.3,1.3,0,1,0-1.85.14A1.3,1.3,0,0,0,137.44,238.57Z"/><circle class="cls-1" cx="149.73" cy="222.32" r="1.31"/><path class="cls-1" d="M164,207.77a1.31,1.31,0,1,0-1.84.14A1.3,1.3,0,0,0,164,207.77Z"/><circle class="cls-1" cx="176.31" cy="191.52" r="1.31"/><path class="cls-1" d="M190.58,177a1.3,1.3,0,0,0-2-1.71,1.3,1.3,0,1,0,2,1.71Z"/><path class="cls-1" d="M203.87,161.56a1.3,1.3,0,1,0-1.84.14A1.31,1.31,0,0,0,203.87,161.56Z"/><path class="cls-1" d="M126.34,282.74a1.3,1.3,0,1,0-1.84.13A1.31,1.31,0,0,0,126.34,282.74Z"/><path class="cls-1" d="M139.63,267.33a1.3,1.3,0,1,0-2-1.7,1.3,1.3,0,1,0,2,1.7Z"/><circle class="cls-1" cx="151.93" cy="251.08" r="1.31"/><circle class="cls-1" cx="165.22" cy="235.68" r="1.31"/><path class="cls-1" d="M179.49,221.13a1.3,1.3,0,1,0-1.84.13A1.3,1.3,0,0,0,179.49,221.13Z"/><path class="cls-1" d="M192.78,205.73a1.31,1.31,0,1,0-1.84.13A1.31,1.31,0,0,0,192.78,205.73Z"/><path class="cls-1" d="M206.07,190.32a1.3,1.3,0,1,0-1.84.14A1.3,1.3,0,0,0,206.07,190.32Z"/><path class="cls-1" d="M141.83,296.09a1.3,1.3,0,1,0-1.84.14A1.3,1.3,0,0,0,141.83,296.09Z"/><path class="cls-1" d="M155.12,280.69a1.3,1.3,0,1,0-1.85.14A1.3,1.3,0,0,0,155.12,280.69Z"/><circle class="cls-1" cx="167.42" cy="264.44" r="1.31"/><circle class="cls-1" cx="180.7" cy="249.04" r="1.31"/><path class="cls-1" d="M195,234.49a1.31,1.31,0,1,0-1.84.13A1.3,1.3,0,0,0,195,234.49Z"/><path class="cls-1" d="M208.27,219.09a1.31,1.31,0,1,0-1.85.13A1.31,1.31,0,0,0,208.27,219.09Z"/><circle class="cls-1" cx="156.32" cy="308.6" r="1.31"/><path class="cls-1" d="M170.6,294.05a1.3,1.3,0,1,0-1.84.14A1.3,1.3,0,0,0,170.6,294.05Z"/><path class="cls-1" d="M183.89,278.65a1.31,1.31,0,1,0-1.84.14A1.3,1.3,0,0,0,183.89,278.65Z"/><path class="cls-1" d="M213.93,278.65a1.31,1.31,0,1,0-1.84.14A1.3,1.3,0,0,0,213.93,278.65Z"/><circle class="cls-1" cx="196.19" cy="262.39" r="1.31"/><path class="cls-1" d="M210.46,247.85a1.32,1.32,0,0,0-.13-1.85,1.31,1.31,0,1,0,.13,1.85Z"/><path class="cls-1" d="M172.8,322.81A1.3,1.3,0,1,0,171,323,1.3,1.3,0,0,0,172.8,322.81Z"/><path class="cls-1" d="M186.08,307.41a1.3,1.3,0,0,0-2-1.71,1.32,1.32,0,0,0,.13,1.85A1.3,1.3,0,0,0,186.08,307.41Z"/><path class="cls-1" d="M216.54,307.41a1.31,1.31,0,1,0-1.84.14A1.31,1.31,0,0,0,216.54,307.41Z"/><path class="cls-1" d="M199.37,292a1.3,1.3,0,1,0-2-1.71,1.29,1.29,0,0,0,.13,1.84A1.31,1.31,0,0,0,199.37,292Z"/><path class="cls-1" d="M188.28,336.17a1.31,1.31,0,1,0-1.84.14A1.31,1.31,0,0,0,188.28,336.17Z"/><circle class="cls-1" cx="200.58" cy="319.92" r="1.31"/><path class="cls-1" d="M203.77,349.53a1.31,1.31,0,1,0-1.85.13A1.3,1.3,0,0,0,203.77,349.53Z"/><polygon class="cls-2" points="71.59 297.44 70.21 300.65 56.94 303.4 59.03 286.86 42.72 290.24 44.8 273.71 28.48 277.09 30.57 260.55 14.24 263.93 16.32 247.39 0 250.76 1.69 237.32 4.79 235.69 3.36 247.13 19.68 243.76 17.59 260.3 33.91 256.93 31.84 273.46 48.15 270.08 46.06 286.62 62.38 283.25 60.3 299.77 71.59 297.44"/></g></g></g></svg>