<svg xmlns="http://www.w3.org/2000/svg" viewBox="0 0 294.88 307.38"><defs><style>.cls-1{fill:#d76c38;}.cls-2,.cls-4,.cls-6{fill:none;stroke:#233560;stroke-linecap:round;}.cls-2,.cls-4,.cls-5{stroke-miterlimit:10;}.cls-2,.cls-5,.cls-6{stroke-width:0.94px;}.cls-3{fill:#233560;}.cls-4{stroke-width:1.1px;}.cls-5{fill:#faf5d0;stroke:#3f3f3f;}.cls-6{stroke-linejoin:round;}</style></defs><title>1_Tester</title><g id="Layer_2" data-name="Layer 2"><g id="Layer_1-2" data-name="Layer 1"><path class="cls-1" d="M212.06,61.55c-3.68,2.7-13.89,10.35-15,12.72-.52,1.09-1.67,7.55-2.94,15.22,0,0-1.11-4.06-2-7.58a26.26,26.26,0,0,1-1-5c.27-.82,12.05-20.66,12.05-20.66s7.52,1.81,7.61,3.17A3.07,3.07,0,0,0,212.06,61.55Z"/><path class="cls-1" d="M252.42,161.24c-6.17,4.54-43,7.61-43.4,0s.22-31.74.22-31.74a18.8,18.8,0,0,1-3,4.38c-11.6,12.14-23.08,14.26-23.08,14.26a15.77,15.77,0,0,0-.82-1.48c-1.56-2.6-5.59-14.17-6.57-19.8.33-.17,12.72-6.58,13.44-8,.45-.9,2.85-16.77,4.94-29.35,1.27-7.67,2.42-14.13,2.94-15.22,1.11-2.37,11.32-10,15-12.72l1.31-1s7.25.63,8.33,1.81,26.37,35.7,30.72,58.89S258.58,156.71,252.42,161.24Z"/><path class="cls-1" d="M183.49,149.69c-4.37,1.45-4.89.77-4.89.77-3.93-4.82-5.93-12.36-6.85-17.77a30.42,30.42,0,0,1-.63-6.52c.21-.38,2.54-.64,3.73-.76a.71.71,0,0,1,.76.62c0,.26.08.54.13.83h0c1,5.63,5,17.2,6.57,19.8a15.77,15.77,0,0,1,.82,1.48C183.83,149.58,183.49,149.69,183.49,149.69Z"/><path class="cls-1" d="M166.69,134.07l-5.79,1.57c-3.88-5-6.08-13-6.57-15.12a.77.77,0,0,1,.38-.85l2.19-1.25a.78.78,0,0,1,1.1.38l.43,1C160.07,123.62,164.13,132.31,166.69,134.07Z"/><path class="cls-1" d="M194.12,89.49c-2.09,12.58-4.49,28.45-4.94,29.35-.72,1.44-13.11,7.85-13.44,8h0c-.05-.29-.1-.57-.13-.83a.71.71,0,0,0-.76-.62c-1.19.12-3.52.38-3.73.76a30.42,30.42,0,0,0,.63,6.52l-5.06,1.38c-2.56-1.76-6.62-10.45-8.26-14.24,4-1.25,33.72-37.92,33.72-37.92C193,85.43,194.12,89.49,194.12,89.49Z"/><path class="cls-2" d="M132.91,15.29s-1.9,16.58-2.53,18-9,18.3-8.16,21.92,6.07,4.8,10.69,1.63c0,0,3.08,23.92,9.15,25.55s19-7.79,24.19-15.85,30.49.64,30.49.64"/><path class="cls-2" d="M201.69,58.83S178,53.23,173.23,40.15"/><path class="cls-3" d="M135.31,24l-.47,4.48s9.31.48,11,1.36A47.64,47.64,0,0,1,150,32.43s-2-4.55-3.6-5.3S135.31,24,135.31,24Z"/><ellipse class="cls-3" cx="139.6" cy="34.2" rx="1.43" ry="3.33"/><path class="cls-4" d="M166.12,39.49s0,9.62-6.23,13c-1.93,1-3.65-2.85-2.06-3.88"/><path class="cls-4" d="M161.52,41.4s2.46,2.64-.81,4.2"/><path class="cls-3" d="M134.93,69.78A40.87,40.87,0,0,1,139,67a20.53,20.53,0,0,1,2.19-1.12,10.17,10.17,0,0,1,2.32-.76,9.5,9.5,0,0,0-2.09,1.17,19,19,0,0,0-1.87,1.48,36.64,36.64,0,0,0-3.36,3.35Z"/><path class="cls-3" d="M142.05,63.42A9.38,9.38,0,0,0,144,64.87c.33.21.69.38,1.05.59a10.83,10.83,0,0,1,1.12.68,3.28,3.28,0,0,1-1.36,0,4,4,0,0,1-1.29-.47,3.59,3.59,0,0,1-1-.94A2,2,0,0,1,142.05,63.42Z"/><path class="cls-2" d="M194.12,89.49s-3.22-11.78-3-12.6,12.05-20.65,12.05-20.65,7.52,1.81,7.61,3.17a3.07,3.07,0,0,0,1.22,2.14"/><path class="cls-2" d="M175.74,126.86s12.71-6.57,13.44-8,6.52-41.67,7.88-44.57,16.31-13.68,16.31-13.68,7.25.63,8.33,1.81,26.37,35.7,30.72,58.89,6.16,35.42,0,40-43,7.61-43.4,0,.23-31.74.23-31.74"/><path class="cls-2" d="M206.84,73.18s5.89,1.18,7.8,3,3.17,45.57-8.43,57.71-23.08,14.26-23.08,14.26"/><path class="cls-2" d="M175.61,126a.71.71,0,0,0-.76-.62c-1.2.12-3.52.38-3.73.76s.89,16.21,7.48,24.29c0,0,.52.68,4.89-.77,0,0,.55-.18-1.18-3S176.29,131.25,175.61,126Z"/><path class="cls-2" d="M166.68,134.08c-2.82-2-7.5-12.4-8.68-15.28a.78.78,0,0,0-1.1-.38l-2.2,1.25a.78.78,0,0,0-.37.85c.49,2.1,2.69,10.08,6.57,15.12"/><path class="cls-2" d="M171.75,132.69S131,143.85,128.66,143.85s-11.6-2.36-12.51-2.18-6.16,4.62-6.16,4.62"/><path class="cls-2" d="M175.94,146.29s-41.21,4-43.66,3.54a23.12,23.12,0,0,1-3.44-.82"/><path class="cls-2" d="M115.49,142s-8.54,3-8.68,3.59a1.68,1.68,0,0,0,0,1.19c.14.34,2.2,3.83,2.2,3.83"/><path class="cls-2" d="M154.88,122.63a14.83,14.83,0,0,1-2.49,2.78c-.7.32-55.33,17.71-57.78,18.26s-5.91,1-8.49-1.36S81.63,138.84,81,139,69.81,141.76,69.2,142s-5.44,4.28-5.16,5"/><path class="cls-2" d="M88,151.75h6.39"/><path class="cls-2" d="M95.77,150.62H131a1.43,1.43,0,0,1,1.43,1.43v1.81a0,0,0,0,1,0,0H94.34a0,0,0,0,1,0,0v-1.81A1.43,1.43,0,0,1,95.77,150.62Z"/><path class="cls-2" d="M88,153.36s.25-3.68-1-5.14-8.9-4.48-14.65-3.06S61.08,150,60.47,150.84s-1.06,2.34-.72,2.68a1.61,1.61,0,0,0,1,.34H87.17S87.89,153.9,88,153.36Z"/><rect class="cls-2" x="0.47" y="153.86" width="155.73" height="10.1" rx="1.88"/><path class="cls-3" d="M13.56,150.73H38a.94.94,0,0,1,.94.94v2.19a0,0,0,0,1,0,0H12.79a0,0,0,0,1,0,0V151.5A.77.77,0,0,1,13.56,150.73Z"/><path class="cls-3" d="M30.27,54.74h5a0,0,0,0,1,0,0v80.71a1.24,1.24,0,0,1-1.24,1.24H31.51a1.24,1.24,0,0,1-1.24-1.24V54.74A0,0,0,0,1,30.27,54.74Z" transform="translate(-32.62 18.52) rotate(-21.37)"/><path class="cls-2" d="M34.19,106.21l-3.89,1.52a.84.84,0,0,1-1.1-.48L28.32,105,23.65,93.07l-1-2.44a.78.78,0,0,1,.45-1l3.95-1.55,2.13,5.44,2.9,7.41Z"/><path class="cls-3" d="M28.32,105a6.33,6.33,0,0,1-1.05.31,6,6,0,0,1-1.28.13,6.41,6.41,0,0,1-2.34-12.38l1.16,3a3,3,0,0,0,1.08,5.75,3,3,0,0,0,1.09-.2Z"/><path class="cls-2" d="M27,101.59a3,3,0,0,1-1.09.2A3,3,0,0,1,24.81,96Z"/><path class="cls-3" d="M27.27,105.32v45.41H24V105.15a6.38,6.38,0,0,0,2,.3A6,6,0,0,0,27.27,105.32Z"/><path class="cls-2" d="M27,101.59a3,3,0,0,1-1.09.2A3,3,0,0,1,24.81,96Z"/><rect class="cls-2" x="12.79" y="163.96" width="130.76" height="140.73"/><path class="cls-2" d="M210.86,163.69a35.65,35.65,0,0,0,0,4c.15.61,14.65,6.93,39.83-.5,0,0,2.09-.81,1.73-6"/><path class="cls-2" d="M250.69,167.22s2.64,16.35-2.8,24.83a24,24,0,0,1-14,10"/><path class="cls-2" d="M143.55,195.92c1.84-2.9,2.72-8.4,16.65-13.11s50.66-15.09,50.66-15.09"/><path class="cls-2" d="M197.15,202.92s-24.76.36-26.06,1.81c-.78.87-15.66,28.8-27.54,51.21"/><path class="cls-2" d="M173.07,204.15s21.36,48.6,32.6,56.21c0,0-17.76,15-20.66,16.31l-28.49-45.12"/><path class="cls-5" d="M252.46,210.71c0,8.7-16.23,9.06-36.25,9.06s-37.36-1.27-36.24-9.06c.71-5,16.23-8.45,36.24-9.06C243.17,200.84,252.46,205.71,252.46,210.71Z"/><path class="cls-5" d="M252.9,123.87s13.15-51,32.31-49,3.23,18.54-3,35.76C272.35,138,268,167,268.91,186.25c1.08,22.29-8.43,26.18-12.52,13-5.15-16.56-2-38.9-2-38.9"/><path class="cls-2" d="M256.81,200.5s-1.42,5.63-7.23,5.79"/><path class="cls-2" d="M259.81,205.55s-2.12,5.48-7.35,5.16"/><path class="cls-2" d="M226,219.7s-6.89,19.46-6,62.95c0,0,10.69,6,20.66,6.52s10.69,10.33,10.69,10.33h-5.62s.91-5.44-3.08-6.89-21-1.08-24.46-4.34"/><path class="cls-2" d="M196.38,291.88c6.49-.77,17.59-1,20.36-3.61"/><path class="cls-2" d="M189.14,299a18.68,18.68,0,0,1,.2-2.91"/><path class="cls-2" d="M209,219.7s6.88,19.46,6,62.95a33.54,33.54,0,0,1-14.39,5.62"/><polyline class="cls-2" points="214.18 289.57 214.73 299.5 219.98 299.5 220.73 289.57"/><path class="cls-6" d="M189.75,301a3.4,3.4,0,1,1-6.8,0,1.69,1.69,0,0,1,.62-1.47h5.63a3.2,3.2,0,0,1-.06-.47A3.41,3.41,0,0,1,189.75,301Z"/><path class="cls-2" d="M220.73,301a3.4,3.4,0,1,1-6.1-2.06c-.06.37-.08.59-.08.59h5.63s0-.17-.06-.47A3.41,3.41,0,0,1,220.73,301Z"/><path class="cls-2" d="M251.76,301a3.4,3.4,0,1,1-6.1-2.06c0,.37-.07.59-.07.59h5.62s0-.17-.05-.47A3.4,3.4,0,0,1,251.76,301Z"/><path class="cls-2" d="M215,269.46a15.19,15.19,0,0,0-4-2.79c-4.21-1.75-4.33-1.52-4.33-1.52s-4.11,11.93-18.09,10.31c0,0-3.28,12.58-5.52,14.25s-11.17,9.1-11.1,10.48a4.42,4.42,0,0,0,.83,2.34s16.66-7.78,17.6-8.47,7.91-5.43,9-6.74a104.09,104.09,0,0,1,9-7.95c.59-.37,4.25-3.18,6.65-5"/><path class="cls-2" d="M172.78,302.53l.17,1.37s5.82-2.1,7.67-2.95,14.48-8.05,16.22-9.4,8.91-8.17,8.91-8.17l.47.77,1.15.39c.73-.19,4.57-2.87,7.61-5.07"/><path class="cls-2" d="M203.33,262.32s2,2.5,3.33,2.83"/><line class="cls-2" x1="189.75" y1="273.37" x2="189.75" y2="275.57"/><path class="cls-2" d="M192.15,81.92s-29.75,36.66-33.72,37.91"/><path class="cls-3" d="M132.06,22.38s-6.58-7.09-5.76-13c0,0,4.26-1.91,4.62-2.9S133.72.89,136.2.24c5.42-1.42,19.05,3.72,27.07,7.08a19.93,19.93,0,0,1,9.41,8.2l1.7,2.88a11.79,11.79,0,0,1,1.44,8.27l-4.76,24.77H166s1.09-17.94-4.07-17.13-3.81,9.33-3.81,9.33-3.8-1.45-3.8-1.81.72-13.32.72-13.32l-3.57-5.16-18.54-8.06Z"/><path class="cls-3" d="M148.39,304.88c11.66-1,23.32-1.58,35-1.94s23.32-.55,35-.56,23.32.15,35,.55,23.32.91,35,1.95c-11.66,1-23.32,1.58-35,1.95s-23.32.55-35,.55-23.32-.16-35-.56S160.05,305.91,148.39,304.88Z"/></g></g></svg>