<svg xmlns="http://www.w3.org/2000/svg" viewBox="0 0 22.08 14.3"><defs><style>.cls-1{fill:#919aa1;}</style></defs><title>1_Try_Demo_Closed</title><g id="Layer_2" data-name="Layer 2"><g id="Layer_1-2" data-name="Layer 1"><line class="cls-1" x1="20.76" y1="5.6" x2="21.56" y2="4.85"/><line class="cls-1" x1="1.32" y1="5.6" x2="0.65" y2="4.73"/><path class="cls-1" d="M21.92,5.22C20.44,3.65,16.41,0,11,0S1.64,3.65.16,5.22A.55.55,0,0,0,.15,6C1.64,7.55,5.67,11.2,11,11.2S20.44,7.55,21.92,6A.54.54,0,0,0,21.92,5.22Zm-1.34.55A16.79,16.79,0,0,1,16,9l-.65.3a8.57,8.57,0,0,1-2.57.7,11.25,11.25,0,0,1-1.72.13A11.12,11.12,0,0,1,9,9.9a8.09,8.09,0,0,1-2.56-.78l-.65-.31a17.48,17.48,0,0,1-4.27-3L1.32,5.6l.18-.17a17.13,17.13,0,0,1,4.4-3.1L6.59,2a10.49,10.49,0,0,1,2.93-.78A9.9,9.9,0,0,1,12,1.15h.15a14.67,14.67,0,0,1,3,.7l.7.32a16.79,16.79,0,0,1,4.73,3.25l.18.17Z"/><rect class="cls-1" x="18.76" y="7.6" width="1.11" height="4.56" rx="0.56" transform="translate(-1.91 14.38) rotate(-39.05)"/><rect class="cls-1" x="13.67" y="9.78" width="1.11" height="4.56" rx="0.56" transform="translate(-2.37 3.54) rotate(-13.12)"/><rect class="cls-1" x="0.47" y="9.33" width="4.56" height="1.11" rx="0.56" transform="translate(-6.66 5.8) rotate(-50.95)"/><rect class="cls-1" x="5.57" y="11.51" width="4.56" height="1.11" rx="0.56" transform="translate(-5.68 16.97) rotate(-76.88)"/></g></g></svg>