<svg xmlns="http://www.w3.org/2000/svg" viewBox="0 0 22.08 14.34"><defs><style>.cls-1{fill:#55595c;}</style></defs><title>1_Try_Demo_Open</title><g id="Layer_2" data-name="Layer 2"><g id="Layer_1-2" data-name="Layer 1"><path class="cls-1" d="M21.93,8.37C20.44,6.8,16.41,3.15,11,3.15S1.64,6.8.16,8.36a.54.54,0,0,0,0,.76C1.64,10.69,5.67,14.34,11,14.34s9.4-3.65,10.88-5.22A.53.53,0,0,0,21.93,8.37ZM5.77,12a17.15,17.15,0,0,1-4.27-3l-.18-.17.18-.17a17.38,17.38,0,0,1,4.4-3.1l.69-.33-.38.66a6,6,0,0,0-.81,3,6.12,6.12,0,0,0,.68,2.8l.34.64Zm7.06,1.13-.07,0a11.28,11.28,0,0,1-1.72.14A11.14,11.14,0,0,1,9,13l-.07,0A4.75,4.75,0,0,1,6.5,8.83a4.71,4.71,0,0,1,3-4.47,10.13,10.13,0,0,1,2.63-.05,4.71,4.71,0,0,1,3.2,4.52A4.78,4.78,0,0,1,12.83,13.08Zm7.75-4.17a17,17,0,0,1-4.6,3.2l-.65.3.35-.63a6.06,6.06,0,0,0-.12-6.12L15.15,5l.7.31a16.79,16.79,0,0,1,4.73,3.25l.18.17Z"/><circle class="cls-1" cx="10.92" cy="8.83" r="1.99"/><rect class="cls-1" x="2.2" y="2.13" width="1.11" height="4.56" rx="0.56" transform="translate(-2.16 2.72) rotate(-39.05)"/><rect class="cls-1" x="7.29" y="-0.04" width="1.11" height="4.56" rx="0.56" transform="translate(-0.3 1.84) rotate(-13.12)"/><rect class="cls-1" x="17.04" y="3.86" width="4.56" height="1.11" rx="0.56" transform="translate(3.72 16.64) rotate(-50.95)"/><rect class="cls-1" x="11.95" y="1.68" width="4.56" height="1.11" rx="0.56" transform="translate(8.82 15.58) rotate(-76.88)"/></g></g></svg>