<svg xmlns="http://www.w3.org/2000/svg" viewBox="0 0 133.31 309.81"><defs><style>.cls-1{fill:#d76c38;}.cls-2{fill:#f9dab9;}</style></defs><title>2_Left_BG</title><g id="Layer_2" data-name="Layer 2"><g id="Layer_1-2" data-name="Layer 1"><g id="_2_Left_BG" data-name="2_Left_BG"><path class="cls-1" d="M122.36,146.39a1.56,1.56,0,1,1,1.56,1.57A1.56,1.56,0,0,1,122.36,146.39Z"/><path class="cls-1" d="M122.36,122.05a1.56,1.56,0,1,1,1.56,1.56A1.56,1.56,0,0,1,122.36,122.05Z"/><circle class="cls-1" cx="123.92" cy="97.71" r="1.56"/><path class="cls-1" d="M97.89,195.08a1.56,1.56,0,1,1,1.56,1.56A1.56,1.56,0,0,1,97.89,195.08Z"/><path class="cls-1" d="M97.89,170.74a1.56,1.56,0,1,1,1.56,1.56A1.56,1.56,0,0,1,97.89,170.74Z"/><circle class="cls-1" cx="99.45" cy="146.39" r="1.56"/><circle class="cls-1" cx="99.45" cy="122.05" r="1.56"/><circle class="cls-1" cx="99.45" cy="97.71" r="1.56"/><path class="cls-1" d="M97.89,73.37a1.56,1.56,0,1,1,1.56,1.56A1.56,1.56,0,0,1,97.89,73.37Z"/><path class="cls-1" d="M73.42,219.42A1.56,1.56,0,1,1,75,221,1.56,1.56,0,0,1,73.42,219.42Z"/><path class="cls-1" d="M73.42,195.08A1.56,1.56,0,1,1,75,196.64,1.56,1.56,0,0,1,73.42,195.08Z"/><circle class="cls-1" cx="74.98" cy="170.74" r="1.56"/><path class="cls-1" d="M73.42,73.37A1.56,1.56,0,1,1,75,74.93,1.56,1.56,0,0,1,73.42,73.37Z"/><path class="cls-1" d="M73.42,49A1.56,1.56,0,1,1,75,50.59,1.56,1.56,0,0,1,73.42,49Z"/><path class="cls-1" d="M48.94,243.76a1.57,1.57,0,1,1,1.57,1.56A1.56,1.56,0,0,1,48.94,243.76Z"/><path class="cls-1" d="M48.94,219.42A1.57,1.57,0,1,1,50.51,221,1.56,1.56,0,0,1,48.94,219.42Z"/><path class="cls-1" d="M48.94,49a1.57,1.57,0,1,1,1.57,1.56A1.56,1.56,0,0,1,48.94,49Z"/><circle class="cls-1" cx="50.51" cy="24.69" r="1.56"/><path class="cls-1" d="M24.47,243.76A1.57,1.57,0,1,1,26,245.32,1.56,1.56,0,0,1,24.47,243.76Z"/><path class="cls-1" d="M24.47,255.62A1.57,1.57,0,1,1,26,257.18,1.56,1.56,0,0,1,24.47,255.62Z"/><path class="cls-1" d="M24.47,219.42A1.57,1.57,0,1,1,26,221,1.56,1.56,0,0,1,24.47,219.42Z"/><circle class="cls-1" cx="26.03" cy="24.69" r="1.56"/><circle class="cls-1" cx="1.56" cy="243.76" r="1.56"/><path class="cls-1" d="M0,219.42A1.56,1.56,0,1,1,1.56,221,1.56,1.56,0,0,1,0,219.42Z"/><path class="cls-1" d="M0,24.69a1.56,1.56,0,1,1,1.56,1.56A1.56,1.56,0,0,1,0,24.69Z"/><path class="cls-1" d="M122.36,158.25a1.56,1.56,0,1,1,1.56,1.56A1.56,1.56,0,0,1,122.36,158.25Z"/><path class="cls-1" d="M122.36,133.91a1.56,1.56,0,1,1,1.56,1.56A1.56,1.56,0,0,1,122.36,133.91Z"/><circle class="cls-1" cx="123.92" cy="109.57" r="1.56"/><path class="cls-1" d="M97.89,206.94a1.56,1.56,0,1,1,1.56,1.56A1.56,1.56,0,0,1,97.89,206.94Z"/><path class="cls-1" d="M97.89,182.59a1.56,1.56,0,1,1,1.56,1.57A1.56,1.56,0,0,1,97.89,182.59Z"/><circle class="cls-1" cx="99.45" cy="158.25" r="1.56"/><circle class="cls-1" cx="99.45" cy="133.91" r="1.56"/><circle class="cls-1" cx="99.45" cy="109.57" r="1.56"/><path class="cls-1" d="M97.89,85.23a1.56,1.56,0,1,1,1.56,1.56A1.56,1.56,0,0,1,97.89,85.23Z"/><path class="cls-1" d="M97.89,60.88a1.56,1.56,0,1,1,1.56,1.57A1.56,1.56,0,0,1,97.89,60.88Z"/><path class="cls-1" d="M73.42,231.28A1.56,1.56,0,1,1,75,232.84,1.56,1.56,0,0,1,73.42,231.28Z"/><path class="cls-1" d="M73.42,206.93A1.56,1.56,0,1,1,75,208.5,1.56,1.56,0,0,1,73.42,206.93Z"/><circle class="cls-1" cx="74.98" cy="182.59" r="1.56"/><path class="cls-1" d="M73.42,85.23A1.56,1.56,0,1,1,75,86.79,1.56,1.56,0,0,1,73.42,85.23Z"/><path class="cls-1" d="M73.42,60.88A1.56,1.56,0,1,1,75,62.45,1.56,1.56,0,0,1,73.42,60.88Z"/><path class="cls-1" d="M73.42,36.54A1.56,1.56,0,1,1,75,38.1,1.56,1.56,0,0,1,73.42,36.54Z"/><path class="cls-1" d="M48.94,231.28a1.57,1.57,0,1,1,1.57,1.56A1.57,1.57,0,0,1,48.94,231.28Z"/><circle class="cls-1" cx="50.51" cy="206.94" r="1.56"/><circle class="cls-1" cx="50.51" cy="36.54" r="1.56"/><path class="cls-1" d="M48.94,12.2a1.57,1.57,0,1,1,1.57,1.56A1.56,1.56,0,0,1,48.94,12.2Z"/><path class="cls-1" d="M24.47,231.28A1.57,1.57,0,1,1,26,232.84,1.56,1.56,0,0,1,24.47,231.28Z"/><circle class="cls-1" cx="26.03" cy="36.54" r="1.56"/><circle class="cls-1" cx="26.03" cy="12.2" r="1.56"/><circle class="cls-1" cx="1.56" cy="255.62" r="1.56"/><path class="cls-1" d="M0,231.28a1.56,1.56,0,1,1,1.56,1.56A1.56,1.56,0,0,1,0,231.28Z"/><path class="cls-1" d="M0,36.54A1.56,1.56,0,1,1,1.56,38.1,1.56,1.56,0,0,1,0,36.54Z"/><path class="cls-1" d="M0,12.2a1.56,1.56,0,1,1,1.56,1.56A1.56,1.56,0,0,1,0,12.2Z"/><path class="cls-1" d="M0,1.56A1.56,1.56,0,1,1,1.56,3.12,1.56,1.56,0,0,1,0,1.56Z"/><path class="cls-1" d="M110.12,195.08a1.57,1.57,0,1,1,1.57,1.56A1.56,1.56,0,0,1,110.12,195.08Z"/><path class="cls-1" d="M110.12,170.74a1.57,1.57,0,1,1,1.57,1.56A1.57,1.57,0,0,1,110.12,170.74Z"/><circle class="cls-1" cx="111.69" cy="146.4" r="1.56"/><circle class="cls-1" cx="111.69" cy="122.05" r="1.56"/><circle class="cls-1" cx="111.69" cy="97.71" r="1.56"/><path class="cls-1" d="M110.12,73.37a1.57,1.57,0,1,1,1.57,1.56A1.56,1.56,0,0,1,110.12,73.37Z"/><path class="cls-1" d="M85.65,219.42A1.57,1.57,0,1,1,87.21,221,1.56,1.56,0,0,1,85.65,219.42Z"/><path class="cls-1" d="M85.65,195.08a1.57,1.57,0,1,1,1.56,1.56A1.56,1.56,0,0,1,85.65,195.08Z"/><circle class="cls-1" cx="87.21" cy="170.74" r="1.56"/><path class="cls-1" d="M85.65,146.39A1.57,1.57,0,1,1,87.21,148,1.56,1.56,0,0,1,85.65,146.39Z"/><circle class="cls-1" cx="87.21" cy="122.05" r="1.56"/><path class="cls-1" d="M85.65,97.71a1.57,1.57,0,1,1,1.56,1.56A1.56,1.56,0,0,1,85.65,97.71Z"/><path class="cls-1" d="M85.65,73.37a1.57,1.57,0,1,1,1.56,1.56A1.56,1.56,0,0,1,85.65,73.37Z"/><path class="cls-1" d="M85.65,49a1.57,1.57,0,1,1,1.56,1.56A1.56,1.56,0,0,1,85.65,49Z"/><path class="cls-1" d="M61.18,219.42A1.56,1.56,0,1,1,62.74,221,1.56,1.56,0,0,1,61.18,219.42Z"/><circle class="cls-1" cx="62.74" cy="195.08" r="1.56"/><path class="cls-1" d="M61.18,49a1.56,1.56,0,1,1,1.56,1.56A1.56,1.56,0,0,1,61.18,49Z"/><circle class="cls-1" cx="62.74" cy="24.69" r="1.56"/><path class="cls-1" d="M73.42,24.06A1.56,1.56,0,1,1,75,25.62,1.56,1.56,0,0,1,73.42,24.06Z"/><circle class="cls-1" cx="62.74" cy="12.2" r="1.56"/><path class="cls-1" d="M36.71,243.76a1.56,1.56,0,1,1,1.56,1.56A1.56,1.56,0,0,1,36.71,243.76Z"/><path class="cls-1" d="M36.71,219.42A1.56,1.56,0,1,1,38.27,221,1.56,1.56,0,0,1,36.71,219.42Z"/><path class="cls-1" d="M36.71,49a1.56,1.56,0,1,1,1.56,1.56A1.56,1.56,0,0,1,36.71,49Z"/><circle class="cls-1" cx="38.27" cy="24.69" r="1.56"/><circle class="cls-1" cx="13.8" cy="243.76" r="1.56"/><path class="cls-1" d="M12.24,219.42A1.56,1.56,0,1,1,13.8,221,1.56,1.56,0,0,1,12.24,219.42Z"/><path class="cls-1" d="M12.24,24.69a1.56,1.56,0,1,1,1.56,1.56A1.56,1.56,0,0,1,12.24,24.69Z"/><path class="cls-1" d="M110.12,182.59a1.57,1.57,0,1,1,1.57,1.57A1.56,1.56,0,0,1,110.12,182.59Z"/><circle class="cls-1" cx="111.69" cy="158.25" r="1.56"/><circle class="cls-1" cx="111.69" cy="133.91" r="1.56"/><circle class="cls-1" cx="111.69" cy="109.57" r="1.56"/><path class="cls-1" d="M110.12,85.23a1.57,1.57,0,1,1,1.57,1.56A1.57,1.57,0,0,1,110.12,85.23Z"/><path class="cls-1" d="M85.65,206.93a1.57,1.57,0,1,1,1.56,1.57A1.56,1.56,0,0,1,85.65,206.93Z"/><circle class="cls-1" cx="87.21" cy="182.59" r="1.56"/><path class="cls-1" d="M85.65,158.25a1.57,1.57,0,1,1,1.56,1.56A1.56,1.56,0,0,1,85.65,158.25Z"/><circle class="cls-1" cx="87.21" cy="133.91" r="1.56"/><path class="cls-1" d="M85.65,109.57a1.57,1.57,0,1,1,1.56,1.56A1.56,1.56,0,0,1,85.65,109.57Z"/><path class="cls-1" d="M85.65,85.23a1.57,1.57,0,1,1,1.56,1.56A1.56,1.56,0,0,1,85.65,85.23Z"/><path class="cls-1" d="M85.65,60.88a1.57,1.57,0,1,1,1.56,1.57A1.56,1.56,0,0,1,85.65,60.88Z"/><path class="cls-1" d="M85.65,36.54a1.57,1.57,0,1,1,1.56,1.56A1.56,1.56,0,0,1,85.65,36.54Z"/><path class="cls-1" d="M61.18,231.28a1.56,1.56,0,1,1,1.56,1.56A1.56,1.56,0,0,1,61.18,231.28Z"/><circle class="cls-1" cx="62.74" cy="206.94" r="1.56"/><path class="cls-1" d="M61.18,60.88a1.56,1.56,0,1,1,1.56,1.57A1.56,1.56,0,0,1,61.18,60.88Z"/><circle class="cls-1" cx="62.74" cy="36.54" r="1.56"/><path class="cls-1" d="M36.71,231.28a1.56,1.56,0,1,1,1.56,1.56A1.56,1.56,0,0,1,36.71,231.28Z"/><circle class="cls-1" cx="38.27" cy="206.94" r="1.56"/><circle class="cls-1" cx="38.27" cy="36.54" r="1.56"/><circle class="cls-1" cx="38.27" cy="12.2" r="1.56"/><circle class="cls-1" cx="13.8" cy="255.62" r="1.56"/><path class="cls-1" d="M12.24,231.28a1.56,1.56,0,1,1,1.56,1.56A1.56,1.56,0,0,1,12.24,231.28Z"/><path class="cls-1" d="M12.24,36.54A1.56,1.56,0,1,1,13.8,38.1,1.56,1.56,0,0,1,12.24,36.54Z"/><path class="cls-1" d="M12.24,12.2a1.56,1.56,0,1,1,1.56,1.56A1.56,1.56,0,0,1,12.24,12.2Z"/><circle class="cls-1" cx="26.03" cy="1.56" r="1.56"/><path class="cls-1" d="M12.24,1.56A1.56,1.56,0,1,1,13.8,3.12,1.56,1.56,0,0,1,12.24,1.56Z"/><polygon class="cls-2" points="127.35 238.22 130.56 239.6 133.31 252.87 116.77 250.78 120.15 267.09 103.62 265.01 107 281.33 90.46 279.24 93.83 295.56 77.3 293.49 80.67 309.81 67.22 308.12 65.59 305.02 77.04 306.45 73.67 290.13 90.21 292.22 86.83 275.89 103.37 277.97 99.99 261.66 116.53 263.75 113.15 247.43 129.68 249.51 127.35 238.22"/></g></g></g></svg>