<svg xmlns="http://www.w3.org/2000/svg" viewBox="0 0 180 148"><defs><style>.cls-1,.cls-10,.cls-11,.cls-12,.cls-7{fill:none;}.cls-1{stroke:#f9dab9;stroke-width:6px;}.cls-1,.cls-11,.cls-3,.cls-4,.cls-5{stroke-miterlimit:10;}.cls-2{fill:#edba8c;}.cls-3,.cls-5,.cls-8{fill:#fffdfa;}.cls-10,.cls-11,.cls-3,.cls-4,.cls-5,.cls-7{stroke:#d76c38;}.cls-3,.cls-4{stroke-width:1.61px;}.cls-4,.cls-9{fill:#f9dab9;}.cls-5{stroke-width:1.89px;}.cls-6{fill:#d76c38;}.cls-10,.cls-7{stroke-linecap:round;stroke-linejoin:round;}.cls-7{stroke-width:1.89px;}.cls-10{stroke-width:1.96px;}.cls-11{stroke-width:1.46px;}</style></defs><title>3.1_Capture_Log_Icon</title><g id="Layer_2" data-name="Layer 2"><g id="Layer_1-2" data-name="Layer 1"><g id="_3.1_Capture_Log_Icon" data-name="3.1_Capture_Log_Icon"><circle id="Circle" class="cls-1" cx="90.22" cy="73.22" r="68.8"/><g id="Dots"><circle class="cls-2" cx="107.7" cy="86.08" r="1.4"/><circle class="cls-2" cx="121.57" cy="86.08" r="1.4"/><circle class="cls-2" cx="135.44" cy="86.08" r="1.4"/><circle class="cls-2" cx="149.31" cy="86.08" r="1.4"/><circle class="cls-2" cx="163.18" cy="86.08" r="1.4"/><circle class="cls-2" cx="177.04" cy="86.08" r="1.4"/><circle class="cls-2" cx="107.7" cy="98.68" r="1.4"/><circle class="cls-2" cx="121.57" cy="98.68" r="1.4"/><circle class="cls-2" cx="135.44" cy="98.68" r="1.4"/><circle class="cls-2" cx="149.31" cy="98.68" r="1.4"/><circle class="cls-2" cx="163.18" cy="98.68" r="1.4"/><circle class="cls-2" cx="177.04" cy="98.68" r="1.4"/><circle class="cls-2" cx="107.7" cy="111.27" r="1.4"/><circle class="cls-2" cx="121.57" cy="111.27" r="1.4"/><circle class="cls-2" cx="135.44" cy="111.27" r="1.4"/><circle class="cls-2" cx="149.31" cy="111.27" r="1.4"/><circle class="cls-2" cx="163.18" cy="111.27" r="1.4"/><circle class="cls-2" cx="177.04" cy="111.27" r="1.4"/><circle class="cls-2" cx="107.7" cy="123.87" r="1.4"/><circle class="cls-2" cx="121.57" cy="123.87" r="1.4"/><circle class="cls-2" cx="135.44" cy="123.87" r="1.4"/><circle class="cls-2" cx="149.31" cy="123.87" r="1.4"/><circle class="cls-2" cx="163.18" cy="123.87" r="1.4"/><circle class="cls-2" cx="177.04" cy="123.87" r="1.4"/><circle class="cls-2" cx="107.7" cy="136.46" r="1.4"/><circle class="cls-2" cx="121.57" cy="136.46" r="1.4"/><circle class="cls-2" cx="135.44" cy="136.46" r="1.4"/><circle class="cls-2" cx="149.31" cy="136.46" r="1.4"/><circle class="cls-2" cx="163.18" cy="136.46" r="1.4"/><circle class="cls-2" cx="177.04" cy="136.46" r="1.4"/></g><g id="Database"><rect class="cls-3" x="1.56" y="55.83" width="57.27" height="14.61" rx="4.95"/><rect class="cls-4" x="1.56" y="74.77" width="57.27" height="14.61" rx="4.95"/><rect class="cls-5" x="1.56" y="93.71" width="57.27" height="14.61" rx="7.31"/><circle class="cls-6" cx="17.06" cy="63.11" r="2.21"/><circle class="cls-6" cx="43.33" cy="63.11" r="2.21"/><circle class="cls-6" cx="30.19" cy="63.11" r="2.21"/><circle class="cls-6" cx="17.06" cy="82.08" r="2.21"/><circle class="cls-6" cx="43.33" cy="82.08" r="2.21"/><circle class="cls-6" cx="30.19" cy="82.08" r="2.21"/><rect class="cls-4" x="1.56" y="36.89" width="57.27" height="14.61" rx="4.95"/><line class="cls-7" x1="17.06" y1="44.2" x2="43.33" y2="44.2"/><path id="Arrow" class="cls-6" d="M37.82,101.34a.5.5,0,0,1-.1.17l0,.06-3.94,3.93a.76.76,0,0,1-.54.22.73.73,0,0,1-.54-.22.76.76,0,0,1,0-1.08l2.62-2.63H21a.77.77,0,0,1-.77-.78.76.76,0,0,1,.77-.76H35.28l-2.62-2.63a.77.77,0,0,1,0-1.09.76.76,0,0,1,1.08,0l3.94,3.94A.77.77,0,0,1,37.82,101.34Z"/></g><g id="Calender"><path class="cls-6" d="M125.5,35.9h-1V30.75a3.1,3.1,0,0,0-3.1-3.1h-2.06a3.11,3.11,0,0,0-3.1,3.1V35.9h-33V30.75a3.1,3.1,0,0,0-3.1-3.1H78.07a3.1,3.1,0,0,0-3.1,3.1V35.9h-1a5.17,5.17,0,0,0-5.16,5.16V84.38a5.17,5.17,0,0,0,5.16,5.16H125.5a5.17,5.17,0,0,0,5.16-5.16V41.06A5.17,5.17,0,0,0,125.5,35.9Zm-7.21-5.15a1,1,0,0,1,1-1h2.06a1,1,0,0,1,1,1V41.06a1,1,0,0,1-1,1h-2.06a1,1,0,0,1-1-1ZM77,30.75a1,1,0,0,1,1-1h2.05a1,1,0,0,1,1,1V41.06a1,1,0,0,1-1,1H78.07a1,1,0,0,1-1-1ZM128.6,84.38a3.1,3.1,0,0,1-3.1,3.09H73.94a3.11,3.11,0,0,1-3.1-3.09V54.47H128.6Z"/><path class="cls-8" d="M128.6,54.47V84.38a3.1,3.1,0,0,1-3.1,3.09H73.94a3.11,3.11,0,0,1-3.1-3.09V54.47Z"/><path class="cls-9" d="M128.6,41.05V52.41H70.84V41.05A3.1,3.1,0,0,1,73.93,38h1v3.09a3.09,3.09,0,0,0,3.09,3.1h2.06a3.09,3.09,0,0,0,3.1-3.1V38h33v3.09a3.09,3.09,0,0,0,3.09,3.1h2.06a3.09,3.09,0,0,0,3.09-3.1V38h1A3.1,3.1,0,0,1,128.6,41.05Z"/><path class="cls-6" d="M111.07,41.06H88.38a1,1,0,0,0-1,1v6.19a1,1,0,0,0,1,1h22.69a1,1,0,0,0,1-1V42.09A1,1,0,0,0,111.07,41.06Z"/><rect class="cls-8" x="89.4" y="43.13" width="20.64" height="4.12"/><path class="cls-6" d="M82.19,57.56H76a1,1,0,0,0-1,1v5.16a1,1,0,0,0,1,1h6.19a1,1,0,0,0,1-1V58.59A1,1,0,0,0,82.19,57.56Zm-1,5.16H77V59.63h4.13Z"/><path class="cls-6" d="M95.6,57.56H89.41a1,1,0,0,0-1,1v5.16a1,1,0,0,0,1,1H95.6a1,1,0,0,0,1-1V58.59A1,1,0,0,0,95.6,57.56Zm-1,5.16H90.44V59.63h4.13Z"/><path class="cls-6" d="M110,57.56h-6.19a1,1,0,0,0-1,1v5.16a1,1,0,0,0,1,1H110a1,1,0,0,0,1-1V58.59A1,1,0,0,0,110,57.56Zm-1,5.16h-4.12V59.63H109Z"/><path class="cls-6" d="M123.44,57.56h-6.18a1,1,0,0,0-1,1v5.16a1,1,0,0,0,1,1h6.18a1,1,0,0,0,1-1V58.59A1,1,0,0,0,123.44,57.56Zm-1,5.16h-4.12V59.63h4.12Z"/><path class="cls-6" d="M82.19,67.88H76a1,1,0,0,0-1,1v5.15a1,1,0,0,0,1,1h6.19a1,1,0,0,0,1-1V68.91A1,1,0,0,0,82.19,67.88Zm-1,5.15H77V69.94h4.13Z"/><path class="cls-6" d="M95.6,67.88H89.41a1,1,0,0,0-1,1v5.15a1,1,0,0,0,1,1H95.6a1,1,0,0,0,1-1V68.91A1,1,0,0,0,95.6,67.88Zm-1,5.15H90.44V69.94h4.13Z"/><path class="cls-6" d="M110,67.88h-6.19a1,1,0,0,0-1,1v5.15a1,1,0,0,0,1,1H110a1,1,0,0,0,1-1V68.91A1,1,0,0,0,110,67.88ZM109,73h-4.12V69.94H109Z"/><path class="cls-6" d="M123.44,67.88h-6.18a1,1,0,0,0-1,1v5.15a1,1,0,0,0,1,1h6.18a1,1,0,0,0,1-1V68.91A1,1,0,0,0,123.44,67.88Zm-1,5.15h-4.12V69.94h4.12Z"/><path class="cls-6" d="M82.19,78.19H76a1,1,0,0,0-1,1v5.16a1,1,0,0,0,1,1h6.19a1,1,0,0,0,1-1V79.22A1,1,0,0,0,82.19,78.19Zm-1,5.16H77v-3.1h4.13Z"/><path class="cls-6" d="M95.6,78.19H89.41a1,1,0,0,0-1,1v5.16a1,1,0,0,0,1,1H95.6a1,1,0,0,0,1-1V79.22A1,1,0,0,0,95.6,78.19Zm-1,5.16H90.44v-3.1h4.13Z"/><g id="Tick_2"><path class="cls-6" d="M122.65,77.53l-4.43,5.32-2.3-2.3L114.46,82l3.1,3.1a1,1,0,0,0,.73.3h0a1.08,1.08,0,0,0,.75-.37l5.16-6.19Z"/></g><g id="Tick_1"><path class="cls-6" d="M110.28,77.53l-4.44,5.32-2.29-2.3L102.09,82l3.09,3.1a1,1,0,0,0,.73.3h0a1,1,0,0,0,.74-.37l5.16-6.19Z"/></g><path id="_3D" data-name="3D" class="cls-10" d="M129.19,39l12.58,31.68A5.06,5.06,0,0,1,137,77.53h-7.41"/></g><g id="Log_Book"><g id="Log_book-2" data-name="Log_book"><path class="cls-6" d="M98.42,133.09v8.31H69.94v-8.31H68.22v8.78a1.72,1.72,0,0,0,1.72,1.72H98.42a1.72,1.72,0,0,0,1.72-1.72v-8.78Zm1.71-23a.8.8,0,0,0-.2-.56l-8.49-9.69s0,0,0,0a.58.58,0,0,0-.17-.14l-.05,0L91,99.62h0a.68.68,0,0,0-.2,0H69.94a1.72,1.72,0,0,0-1.72,1.73v14h1.72v-14h20v8.83a.87.87,0,0,0,.87.86h7.62v4.32h1.72v-5.1A.28.28,0,0,0,100.13,110.14Z"/><path class="cls-9" d="M101.2,115.33h-34a2.47,2.47,0,0,0-2.47,2.46v12.83a2.47,2.47,0,0,0,2.47,2.47h34a2.47,2.47,0,0,0,2.47-2.47V117.81A2.47,2.47,0,0,0,101.2,115.33ZM76.08,129.91h-7.3v-11.7h2.64v9.47h4.66Zm5.86.19c-3.47,0-5.51-2.61-5.51-5.95,0-3.5,2.25-6.12,5.71-6.12s5.54,2.68,5.54,5.91C87.68,127.78,85.36,130.1,81.94,130.1Zm17.25-.72a13.07,13.07,0,0,1-3.9.65,6.59,6.59,0,0,1-4.76-1.57,5.69,5.69,0,0,1-1.64-4.26c0-3.89,2.84-6.11,6.68-6.11a8.26,8.26,0,0,1,3.25.57l-.56,2.12a6.64,6.64,0,0,0-2.73-.49,3.54,3.54,0,0,0-3.87,3.78,3.49,3.49,0,0,0,3.68,3.82,3.81,3.81,0,0,0,1.31-.16v-2.44H94.84v-2.08h4.35Z"/><polygon class="cls-6" points="76.08 127.68 76.08 129.91 68.78 129.91 68.78 118.21 71.42 118.21 71.42 127.68 76.08 127.68"/><path class="cls-6" d="M82.14,118c-3.46,0-5.7,2.62-5.7,6.12,0,3.34,2,5.95,5.5,5.95s5.74-2.32,5.74-6.16C87.68,120.71,85.73,118,82.14,118Zm-.06,10c-1.77,0-2.84-1.61-2.84-3.9s1-4,2.83-4,2.82,1.8,2.82,3.9C84.89,126.3,83.87,128,82.08,128Z"/><path class="cls-6" d="M99.19,123.21v6.17a13,13,0,0,1-3.9.65,6.57,6.57,0,0,1-4.75-1.57,5.66,5.66,0,0,1-1.65-4.26c0-3.89,2.84-6.11,6.68-6.11a8.26,8.26,0,0,1,3.25.57l-.56,2.12a6.62,6.62,0,0,0-2.72-.49,3.54,3.54,0,0,0-3.88,3.78,3.5,3.5,0,0,0,3.68,3.82,3.81,3.81,0,0,0,1.31-.16v-2.44h-1.8v-2.08Z"/><path class="cls-9" d="M84.89,124c0,2.27-1,4-2.81,4s-2.84-1.61-2.84-3.9,1-4,2.83-4S84.89,121.93,84.89,124Z"/></g><rect class="cls-8" x="69.94" y="133.09" width="28.48" height="8.31"/><path class="cls-8" d="M98.42,111v4.32H69.94v-14h20v8.83a.87.87,0,0,0,.87.86Z"/><path class="cls-11" d="M103.67,119.45V129a4.12,4.12,0,0,1-4.12,4.12H68.81A4.12,4.12,0,0,1,64.69,129v-9.52a4.11,4.11,0,0,1,4.12-4.12H99.55A4.11,4.11,0,0,1,103.67,119.45Z"/></g><rect class="cls-12" width="180" height="148"/></g></g></g></svg>