<svg xmlns="http://www.w3.org/2000/svg" viewBox="0 0 180 148"><defs><style>.cls-1,.cls-6{fill:none;}.cls-1{stroke:#f9dab9;stroke-miterlimit:10;stroke-width:6.09px;}.cls-2{fill:#edba8c;}.cls-3{fill:#d76c38;}.cls-4{fill:#fffdfa;}.cls-5{fill:#f9dab9;}</style></defs><title>3.2_Spec</title><g id="Layer_2" data-name="Layer 2"><g id="Layer_1-2" data-name="Layer 1"><g id="_3.2_Spec" data-name="3.2_Spec"><ellipse id="Circle" class="cls-1" cx="104.59" cy="73.88" rx="76.87" ry="42.21" transform="translate(-13.34 123.77) rotate(-58.17)"/><g id="Dots"><circle class="cls-2" cx="21.63" cy="67.12" r="1.4"/><circle class="cls-2" cx="35.5" cy="67.12" r="1.4"/><circle class="cls-2" cx="49.37" cy="67.12" r="1.4"/><circle class="cls-2" cx="63.23" cy="67.12" r="1.4"/><circle class="cls-2" cx="77.1" cy="67.12" r="1.4"/><circle class="cls-2" cx="90.97" cy="67.12" r="1.4"/><circle class="cls-2" cx="21.63" cy="79.71" r="1.4"/><circle class="cls-2" cx="35.5" cy="79.71" r="1.4"/><circle class="cls-2" cx="49.37" cy="79.71" r="1.4"/><circle class="cls-2" cx="63.23" cy="79.71" r="1.4"/><circle class="cls-2" cx="77.1" cy="79.71" r="1.4"/><circle class="cls-2" cx="90.97" cy="79.71" r="1.4"/><circle class="cls-2" cx="21.63" cy="92.31" r="1.4"/><circle class="cls-2" cx="35.5" cy="92.31" r="1.4"/><circle class="cls-2" cx="49.37" cy="92.31" r="1.4"/><circle class="cls-2" cx="63.23" cy="92.31" r="1.4"/><circle class="cls-2" cx="77.1" cy="92.31" r="1.4"/><circle class="cls-2" cx="90.97" cy="92.31" r="1.4"/><circle class="cls-2" cx="21.63" cy="104.9" r="1.4"/><circle class="cls-2" cx="35.5" cy="104.9" r="1.4"/><circle class="cls-2" cx="49.37" cy="104.9" r="1.4"/><circle class="cls-2" cx="63.23" cy="104.9" r="1.4"/><circle class="cls-2" cx="77.1" cy="104.9" r="1.4"/><circle class="cls-2" cx="90.97" cy="104.9" r="1.4"/><circle class="cls-2" cx="21.63" cy="117.5" r="1.4"/><circle class="cls-2" cx="35.5" cy="117.5" r="1.4"/><circle class="cls-2" cx="49.37" cy="117.5" r="1.4"/><circle class="cls-2" cx="63.23" cy="117.5" r="1.4"/><circle class="cls-2" cx="77.1" cy="117.5" r="1.4"/><circle class="cls-2" cx="90.97" cy="117.5" r="1.4"/></g><g id="Browser"><path class="cls-3" d="M114,78.74a3.62,3.62,0,1,1-3.61-3.61A3.62,3.62,0,0,1,114,78.74Z"/><path class="cls-3" d="M114,124.53a3.62,3.62,0,1,1-3.61-3.61A3.62,3.62,0,0,1,114,124.53Z"/><path class="cls-3" d="M159.77,78.74a3.62,3.62,0,1,1-3.62-3.61A3.63,3.63,0,0,1,159.77,78.74Z"/><path class="cls-3" d="M159.77,124.53a3.62,3.62,0,1,1-3.62-3.61A3.63,3.63,0,0,1,159.77,124.53Z"/><path class="cls-3" d="M132.4,80.29h0c.06,0,.12-.11.18-.15Z"/><path class="cls-3" d="M132.58,80.15c-.06,0-.12.1-.18.15h0Z"/><path class="cls-3" d="M154,95.41c0-.08-.05-.14-.06-.21a.46.46,0,0,0,0-.09A21.72,21.72,0,0,0,133.26,80h0a21.73,21.73,0,0,0-20.68,15.16c0,.11-.08.23-.11.36a21.63,21.63,0,0,0,0,12.35c0,.09.05.18.08.27a.25.25,0,0,0,0,.07,21.7,21.7,0,0,0,41.39,0,1.2,1.2,0,0,0,.08-.27,21.85,21.85,0,0,0,0-12.48Zm-2.91-1H142a30.23,30.23,0,0,0-5.85-11.84A19.32,19.32,0,0,1,151.12,94.42Zm-11.09,12H126.48a27.87,27.87,0,0,1,0-9.64H140A27.87,27.87,0,0,1,140,106.46Zm-.52-12H127a27.53,27.53,0,0,1,6.25-11.5A27.55,27.55,0,0,1,139.51,94.42ZM132.4,80.29l.09-.07-.09.09Zm-2,2.29a30,30,0,0,0-5.86,11.84h-9.13A19.35,19.35,0,0,1,130.36,82.58ZM114,101.64a19.18,19.18,0,0,1,.61-4.82H124a30.56,30.56,0,0,0,0,9.64h-9.45A19.12,19.12,0,0,1,114,101.64Zm1.4,7.23h9.13a29.88,29.88,0,0,0,5.86,11.83A19.34,19.34,0,0,1,115.37,108.87Zm11.63,0h12.49a27.48,27.48,0,0,1-6.24,11.49A27.44,27.44,0,0,1,127,108.87Zm9.15,11.83A30.26,30.26,0,0,0,142,108.87h9.12A19.29,19.29,0,0,1,136.15,120.7Zm15.78-14.24h-9.46a30.56,30.56,0,0,0,0-9.64h9.46a19.66,19.66,0,0,1,0,9.64Z"/><path class="cls-4" d="M151.12,94.42H142a30.23,30.23,0,0,0-5.85-11.84A19.32,19.32,0,0,1,151.12,94.42Z"/><path class="cls-4" d="M139.51,94.42H127a27.53,27.53,0,0,1,6.25-11.5A27.55,27.55,0,0,1,139.51,94.42Z"/><path class="cls-4" d="M130.36,82.58a30,30,0,0,0-5.86,11.84h-9.13A19.35,19.35,0,0,1,130.36,82.58Z"/><path class="cls-4" d="M130.36,120.7a19.34,19.34,0,0,1-15-11.83h9.13A29.88,29.88,0,0,0,130.36,120.7Z"/><path class="cls-4" d="M139.49,108.87a27.48,27.48,0,0,1-6.24,11.49A27.44,27.44,0,0,1,127,108.87Z"/><path class="cls-4" d="M151.12,108.87a19.29,19.29,0,0,1-15,11.83A30.26,30.26,0,0,0,142,108.87Z"/><path class="cls-5" d="M152.53,101.64a19.58,19.58,0,0,1-.6,4.82h-9.46a30.56,30.56,0,0,0,0-9.64h9.46A19.64,19.64,0,0,1,152.53,101.64Z"/><path class="cls-5" d="M140,106.46H126.48a27.87,27.87,0,0,1,0-9.64H140A27.87,27.87,0,0,1,140,106.46Z"/><path class="cls-5" d="M124,106.46h-9.45a19.35,19.35,0,0,1,0-9.64H124A30.56,30.56,0,0,0,124,106.46Z"/></g><g id="Size"><path class="cls-3" d="M144.69,17.91H115.3a3.44,3.44,0,0,0-3.43,3.44V39.68h-8.49a2.61,2.61,0,0,0-2.59,2.6V61.79a2.59,2.59,0,0,0,2.59,2.58h18.51a3.59,3.59,0,0,0,3.59-3.59V53.3h19.21a2.58,2.58,0,0,0,2.58-2.58V20.49A2.58,2.58,0,0,0,144.69,17.91ZM122.76,59.57a2.08,2.08,0,0,1-2.08,2.08H106.1a2.58,2.58,0,0,1-2.58-2.58V44.14a1.74,1.74,0,0,1,1.73-1.73h6.62v7.35a3.54,3.54,0,0,0,3.54,3.54h7.35Zm0-9h-5.59A2.58,2.58,0,0,1,114.59,48V42.41h5.59A2.58,2.58,0,0,1,122.76,45ZM144.54,48A2.57,2.57,0,0,1,142,50.58H125.48v-8.3a2.59,2.59,0,0,0-2.58-2.6h-8.31V23.22a2.6,2.6,0,0,1,2.58-2.6H142a2.59,2.59,0,0,1,2.58,2.6Z"/><path class="cls-5" d="M122.76,45v5.59h-5.59A2.58,2.58,0,0,1,114.59,48V42.41h5.59A2.58,2.58,0,0,1,122.76,45Z"/><path class="cls-5" d="M143.08,20.62H117.17a2.6,2.6,0,0,0-2.58,2.6V39.68h6.91a4,4,0,0,1,4,4v6.91h16.93a2.13,2.13,0,0,0,2.13-2.14V22.09A1.46,1.46,0,0,0,143.08,20.62Zm-1.26,12.26a1.36,1.36,0,1,1-2.72,0V28L128.77,38.33a1.35,1.35,0,0,1-1,.39,1.37,1.37,0,0,1-1-.39,1.35,1.35,0,0,1,0-1.93l10.32-10.32h-4.88a1.37,1.37,0,1,1,0-2.73h9.53Z"/><path class="cls-3" d="M141.82,23.35v9.53a1.36,1.36,0,1,1-2.72,0V28L128.77,38.33a1.35,1.35,0,0,1-1,.39,1.37,1.37,0,0,1-1-.39,1.35,1.35,0,0,1,0-1.93l10.32-10.32h-4.88a1.37,1.37,0,1,1,0-2.73Z"/></g><g id="Display"><path class="cls-3" d="M92.52,91.06A3.5,3.5,0,0,1,89,94.55H44.61a3.48,3.48,0,0,1-3.47-3.49V54.49H92.52Zm0-40H41.14V46.64a3.47,3.47,0,0,1,3.47-3.48H89a3.49,3.49,0,0,1,3.48,3.48Z"/><path class="cls-3" d="M89,40.35H44.61a6.3,6.3,0,0,0-6.29,6.3V91.06a6.3,6.3,0,0,0,6.29,6.3H89a6.29,6.29,0,0,0,6.28-6.3V46.65A6.29,6.29,0,0,0,89,40.35Zm4.08,50.71A4.09,4.09,0,0,1,89,95.15H44.61a4.08,4.08,0,0,1-4.07-4.09V53.89H93.12Zm0-39.38H40.54v-5a4.08,4.08,0,0,1,4.07-4.09H89a4.09,4.09,0,0,1,4.08,4.09Z"/><path class="cls-5" d="M93.12,46.65v5H40.54v-5a4.08,4.08,0,0,1,4.07-4.09H89A4.09,4.09,0,0,1,93.12,46.65Z"/><path class="cls-4" d="M93.12,53.89V91.06A4.09,4.09,0,0,1,89,95.15H44.61a4.08,4.08,0,0,1-4.07-4.09V53.89Z"/><path class="cls-5" d="M89,43.16H44.61a3.47,3.47,0,0,0-3.47,3.48v4.44H92.52V46.64A3.49,3.49,0,0,0,89,43.16ZM47,48.82H45.21a1.71,1.71,0,0,1,0-3.41H47a1.71,1.71,0,1,1,0,3.41Zm6.31,0H51.52a1.71,1.71,0,0,1,0-3.41h1.74a1.71,1.71,0,1,1,0,3.41Zm6.29,0H57.81a1.71,1.71,0,0,1,0-3.41h1.74a1.71,1.71,0,1,1,0,3.41Z"/><path class="cls-3" d="M47.79,47.12a1.42,1.42,0,0,1-1.42,1.42H44.93a1.42,1.42,0,1,1,0-2.84h1.44A1.41,1.41,0,0,1,47.79,47.12Z"/><path class="cls-3" d="M53.05,47.12a1.43,1.43,0,0,1-1.42,1.42H50.18a1.42,1.42,0,1,1,0-2.84h1.45A1.42,1.42,0,0,1,53.05,47.12Z"/><path class="cls-3" d="M58.29,47.12a1.43,1.43,0,0,1-1.42,1.42H55.41a1.42,1.42,0,0,1,0-2.84h1.46A1.42,1.42,0,0,1,58.29,47.12Z"/><path class="cls-2" d="M45.21,61.29H83.4a1.71,1.71,0,1,0,0-3.41H45.21a1.71,1.71,0,1,0,0,3.41Z"/><path class="cls-2" d="M88.49,64.7H48.63a1.71,1.71,0,1,0,0,3.41H88.49a1.71,1.71,0,0,0,0-3.41Z"/><path class="cls-2" d="M79.8,71.51H45.21a1.71,1.71,0,1,0,0,3.41H79.8a1.71,1.71,0,1,0,0-3.41Z"/><path class="cls-2" d="M60.5,78.33H48.63a1.71,1.71,0,1,0,0,3.41H60.5a1.71,1.71,0,1,0,0-3.41Z"/><path class="cls-3" d="M82.4,80.44a1.51,1.51,0,0,0-2.14,2.14l3.29,3.29-3.29,3.29a1.5,1.5,0,0,0,0,2.14,1.47,1.47,0,0,0,1.07.44,1.51,1.51,0,0,0,1.07-.44l3.67-3.67a2.49,2.49,0,0,0,0-3.52Z"/><path class="cls-3" d="M76.33,80.44a1.5,1.5,0,0,0-2.14,0l-3.67,3.67a2.49,2.49,0,0,0,0,3.52l3.67,3.67a1.49,1.49,0,0,0,1.07.44,1.47,1.47,0,0,0,1.07-.44,1.5,1.5,0,0,0,0-2.14L73,85.87l3.29-3.29A1.5,1.5,0,0,0,76.33,80.44Z"/></g><rect class="cls-6" width="180" height="148"/></g></g></g></svg>