<svg xmlns="http://www.w3.org/2000/svg" viewBox="0 0 180 148"><defs><style>.cls-1{fill:#edba8c;}.cls-2,.cls-8{fill:none;}.cls-2{stroke:#f9dab9;stroke-width:6.62px;}.cls-2,.cls-6,.cls-7{stroke-miterlimit:10;}.cls-3{fill:#fffdfa;stroke-linecap:round;stroke-linejoin:round;stroke-width:2.21px;}.cls-3,.cls-6,.cls-7{stroke:#d76c38;}.cls-4{fill:#f9dab9;}.cls-5{fill:#d76c38;}.cls-6,.cls-7{fill:#fffbf3;}.cls-6{stroke-width:1.47px;}.cls-7{stroke-width:2px;}</style></defs><title>3.3_Report_Management_Icon</title><g id="Layer_2" data-name="Layer 2"><g id="Layer_1-2" data-name="Layer 1"><g id="_3.3_Report_Management_Icon" data-name="3.3_Report_Management_Icon"><g id="Dots"><circle class="cls-1" cx="9.15" cy="93.49" r="1.4"/><circle class="cls-1" cx="23.02" cy="93.49" r="1.4"/><circle class="cls-1" cx="36.89" cy="93.49" r="1.4"/><circle class="cls-1" cx="50.76" cy="93.49" r="1.4"/><circle class="cls-1" cx="9.15" cy="106.09" r="1.4"/><circle class="cls-1" cx="23.02" cy="106.09" r="1.4"/><circle class="cls-1" cx="36.89" cy="106.09" r="1.4"/><circle class="cls-1" cx="50.76" cy="106.09" r="1.4"/><circle class="cls-1" cx="9.15" cy="118.69" r="1.4"/><circle class="cls-1" cx="23.02" cy="118.69" r="1.4"/><circle class="cls-1" cx="36.89" cy="118.69" r="1.4"/><circle class="cls-1" cx="50.76" cy="118.69" r="1.4"/><circle class="cls-1" cx="9.15" cy="131.28" r="1.4"/><circle class="cls-1" cx="23.02" cy="131.28" r="1.4"/><circle class="cls-1" cx="36.89" cy="131.28" r="1.4"/><circle class="cls-1" cx="50.76" cy="131.28" r="1.4"/><circle class="cls-1" cx="64.63" cy="131.28" r="1.4"/><circle class="cls-1" cx="78.5" cy="131.28" r="1.4"/><circle class="cls-1" cx="9.15" cy="143.88" r="1.4"/><circle class="cls-1" cx="23.02" cy="143.88" r="1.4"/><circle class="cls-1" cx="36.89" cy="143.88" r="1.4"/><circle class="cls-1" cx="50.76" cy="143.88" r="1.4"/><circle class="cls-1" cx="64.63" cy="143.88" r="1.4"/><circle class="cls-1" cx="78.5" cy="143.88" r="1.4"/></g><circle id="Circle" class="cls-2" cx="118.65" cy="61.32" r="53.6"/><g id="Display"><rect class="cls-3" x="56.29" y="31.88" width="86.94" height="95.68" rx="8.92"/><path class="cls-4" d="M68.87,35.84h61.78a6.72,6.72,0,0,1,6.72,6.72v4.16a0,0,0,0,1,0,0H62.15a0,0,0,0,1,0,0V42.56A6.72,6.72,0,0,1,68.87,35.84Z"/><circle class="cls-5" cx="92.61" cy="41.28" r="2"/><circle class="cls-5" cx="99.85" cy="41.28" r="2"/><circle class="cls-5" cx="106.92" cy="41.28" r="2"/></g><g id="Jira"><path class="cls-5" d="M48.55,47.45c0,2.77,0,5.53,0,8.3V59a2.45,2.45,0,0,1,0,.25l-.25,0a5.36,5.36,0,0,1-4.61-4.68,21.89,21.89,0,0,1-.06-2.29.84.84,0,0,0-.2-.65.82.82,0,0,0-.62-.22h-.35a12.09,12.09,0,0,1-2.57-.15,5.26,5.26,0,0,1-4.18-4.78H48.12A1,1,0,0,1,48.55,47.45Z"/><path class="cls-5" d="M35.31,60.73c0,1.94,0,3.88,0,5.82l0,6.12h-.41l-.32-.1a5.17,5.17,0,0,1-4.08-4.33,7.49,7.49,0,0,1-.06-1.78c0-.26,0-.52,0-.78a.94.94,0,0,0-.24-.69,1,1,0,0,0-.69-.22c-.68,0-1.37,0-2.05,0a5,5,0,0,1-3.84-1.92,5.86,5.86,0,0,1-1.17-2.47v-.47h1.72l5.09,0,3,0,1.81,0a2.74,2.74,0,0,1,.5,0C35.12,59.93,35.31,60.15,35.31,60.73Z"/><path class="cls-5" d="M42,65.94c0,.07,0,.1,0,.12h-.15a5.37,5.37,0,0,1-4.72-4.33A11.17,11.17,0,0,1,37,59.8c0-.22,0-.44,0-.65a1,1,0,0,0-.24-.71.89.89,0,0,0-.66-.23h0c-.75,0-1.42,0-2,0a5.31,5.31,0,0,1-5-4.89H41c.66,0,.92.26.92.9v4.06Q42,62.08,42,65.94Z"/></g><g id="Trello"><rect class="cls-6" x="110.53" y="57.22" width="25.28" height="25.28" rx="0.92"/><rect class="cls-5" x="115.02" y="62.5" width="7.3" height="14.73" rx="0.93"/><rect class="cls-5" x="124.02" y="62.5" width="7.3" height="7.3" rx="0.65"/></g><g id="Github"><path class="cls-5" d="M96.85,62.39a15.53,15.53,0,0,0-5.69-5.69,15.74,15.74,0,0,0-15.71,0,15.68,15.68,0,0,0-5.69,5.69,15.68,15.68,0,0,0,8.6,22.71.91.91,0,0,0,.81-.14.81.81,0,0,0,.27-.62s0-.4,0-1.1,0-1.29,0-1.81l-.47.08a5.36,5.36,0,0,1-1.13.07,7.85,7.85,0,0,1-1.42-.14A3.15,3.15,0,0,1,75,80.83a2.58,2.58,0,0,1-.9-1.25l-.2-.47a5.07,5.07,0,0,0-.65-1,2.35,2.35,0,0,0-.88-.77l-.15-.11A1.45,1.45,0,0,1,72,77a1.15,1.15,0,0,1-.18-.29c0-.09,0-.17.1-.23a1.33,1.33,0,0,1,.59-.09l.41.06a3,3,0,0,1,1,.49,3.12,3.12,0,0,1,1,1.06A3.71,3.71,0,0,0,76,79.22a2.45,2.45,0,0,0,1.34.44,6.43,6.43,0,0,0,1.16-.1,4,4,0,0,0,.92-.31,3.31,3.31,0,0,1,1-2.1,14,14,0,0,1-2.08-.36,8.54,8.54,0,0,1-1.92-.8,5.63,5.63,0,0,1-1.64-1.36,6.79,6.79,0,0,1-1.07-2.14,10.15,10.15,0,0,1-.42-3.06,6,6,0,0,1,1.61-4.2,5.47,5.47,0,0,1,.15-4.15,2.9,2.9,0,0,1,1.75.27,12.52,12.52,0,0,1,1.7.79c.36.22.65.4.87.55a14.69,14.69,0,0,1,7.82,0L88,62.2a10.63,10.63,0,0,1,1.88-.9,2.69,2.69,0,0,1,1.65-.22,5.43,5.43,0,0,1,.16,4.15,6,6,0,0,1,1.61,4.2,10.22,10.22,0,0,1-.42,3.07,6.39,6.39,0,0,1-1.08,2.14A5.8,5.8,0,0,1,90.14,76a8.47,8.47,0,0,1-1.91.8,14.36,14.36,0,0,1-2.09.36,3.63,3.63,0,0,1,1.06,2.9v4.29a.83.83,0,0,0,.25.62.9.9,0,0,0,.81.14A15.32,15.32,0,0,0,96,79.44a15.17,15.17,0,0,0,3-9.19A15.32,15.32,0,0,0,96.85,62.39Z"/></g><g id="Gitlab"><path class="cls-4" d="M103.49,95.11,93.11,120.57a3.07,3.07,0,0,0,1,3.61l24.71,18.93a1.73,1.73,0,0,0,2.13,0l25.14-20a3.09,3.09,0,0,0,.93-3.57l-9.89-24.41a3.07,3.07,0,0,0-2.85-1.93H106.34A3.08,3.08,0,0,0,103.49,95.11Z"/><path class="cls-7" d="M110.26,91.74,99.88,117.2a3.08,3.08,0,0,0,1,3.61l24.71,18.94a1.74,1.74,0,0,0,2.13,0l25.14-20a3.07,3.07,0,0,0,.93-3.57l-9.89-24.41A3.09,3.09,0,0,0,141,89.82H113.11A3.08,3.08,0,0,0,110.26,91.74Z"/><path class="cls-5" d="M142.14,115.63a1.28,1.28,0,0,1-.6,1.1l-6.07,4.5q-4.17,3.09-8.33,6.19a.45.45,0,0,1-.66,0l-14.21-10.55a1.39,1.39,0,0,1-.61-2q2.45-7.55,4.9-15.09a.93.93,0,0,1,.31-.53.61.61,0,0,1,.94.27c.12.29.21.59.31.88,1,3.07,2,6.14,3,9.21a.44.44,0,0,0,.49.36c3.49,0,7,0,10.48,0a.42.42,0,0,0,.48-.37q1.58-4.89,3.16-9.78c0-.09.07-.19.11-.28a.62.62,0,0,1,1.17,0c.09.22.15.44.22.66q2.4,7.33,4.78,14.68A2,2,0,0,1,142.14,115.63Zm-15.53,11.66c.07-.1,0-.15,0-.21-.3-1-.6-1.9-.91-2.85q-2.2-6.9-4.42-13.81a.41.41,0,0,0-.47-.34c-2.35,0-4.7,0-7,0h-.1c-.24,0-.22.08-.1.22l.1.14,11.44,14.87Zm.36,0,0,0,.21-.25L140,110.42c.06-.08.2-.17.15-.27s-.21-.06-.33-.06H132.9a.49.49,0,0,0-.56.4q-2.15,6.74-4.31,13.46Z"/></g><g id="Lines"><rect class="cls-4" x="66.43" y="90.97" width="31.96" height="3.38" rx="1.69"/><rect class="cls-4" x="66.43" y="98.12" width="31.96" height="3.38" rx="1.69"/><rect class="cls-4" x="66.43" y="105.27" width="19.36" height="3.38" rx="1.31"/></g><rect class="cls-8" width="180" height="148"/></g></g></g></svg>