<svg xmlns="http://www.w3.org/2000/svg" viewBox="0 0 269.95 298.77"><defs><style>.cls-1{fill:#d76c38;}.cls-2{fill:#f9dab9;}</style></defs><title>3_Right_BG</title><g id="Layer_2" data-name="Layer 2"><g id="Layer_1-2" data-name="Layer 1"><g id="_3_Right_BG" data-name="3_Right_BG"><path class="cls-1" d="M127.81,128.7a1.82,1.82,0,1,1-1.82-1.81A1.83,1.83,0,0,1,127.81,128.7Z"/><path class="cls-1" d="M127.81,157a1.82,1.82,0,1,1-1.82-1.82A1.82,1.82,0,0,1,127.81,157Z"/><circle class="cls-1" cx="125.99" cy="185.26" r="1.81"/><path class="cls-1" d="M156.24,72.14a1.82,1.82,0,1,1-1.82-1.81A1.82,1.82,0,0,1,156.24,72.14Z"/><path class="cls-1" d="M156.24,100.42a1.82,1.82,0,1,1-1.82-1.81A1.82,1.82,0,0,1,156.24,100.42Z"/><circle class="cls-1" cx="154.42" cy="128.7" r="1.81"/><circle class="cls-1" cx="154.42" cy="156.98" r="1.81"/><circle class="cls-1" cx="154.42" cy="185.26" r="1.81"/><path class="cls-1" d="M156.24,213.54a1.82,1.82,0,1,1-1.82-1.82A1.82,1.82,0,0,1,156.24,213.54Z"/><path class="cls-1" d="M184.66,43.87a1.81,1.81,0,1,1-1.81-1.82A1.81,1.81,0,0,1,184.66,43.87Z"/><path class="cls-1" d="M184.66,72.15a1.81,1.81,0,1,1-1.81-1.82A1.81,1.81,0,0,1,184.66,72.15Z"/><circle class="cls-1" cx="182.85" cy="100.42" r="1.81"/><path class="cls-1" d="M184.66,213.54a1.81,1.81,0,1,1-1.81-1.82A1.81,1.81,0,0,1,184.66,213.54Z"/><path class="cls-1" d="M184.66,241.81a1.81,1.81,0,1,1-1.81-1.81A1.81,1.81,0,0,1,184.66,241.81Z"/><path class="cls-1" d="M213.09,15.59a1.81,1.81,0,1,1-1.81-1.82A1.81,1.81,0,0,1,213.09,15.59Z"/><path class="cls-1" d="M213.09,43.87a1.81,1.81,0,1,1-1.81-1.82A1.81,1.81,0,0,1,213.09,43.87Z"/><path class="cls-1" d="M213.09,241.81a1.81,1.81,0,1,1-1.81-1.81A1.81,1.81,0,0,1,213.09,241.81Z"/><circle class="cls-1" cx="211.28" cy="270.09" r="1.81"/><path class="cls-1" d="M241.52,15.59a1.82,1.82,0,1,1-1.81-1.82A1.81,1.81,0,0,1,241.52,15.59Z"/><path class="cls-1" d="M241.52,1.81A1.82,1.82,0,1,1,239.71,0,1.81,1.81,0,0,1,241.52,1.81Z"/><path class="cls-1" d="M241.52,43.87a1.82,1.82,0,1,1-1.81-1.82A1.81,1.81,0,0,1,241.52,43.87Z"/><circle class="cls-1" cx="239.71" cy="270.09" r="1.81"/><circle class="cls-1" cx="268.14" cy="15.59" r="1.81"/><path class="cls-1" d="M270,43.87a1.82,1.82,0,1,1-1.81-1.82A1.81,1.81,0,0,1,270,43.87Z"/><path class="cls-1" d="M270,270.09a1.82,1.82,0,1,1-1.81-1.81A1.82,1.82,0,0,1,270,270.09Z"/><path class="cls-1" d="M127.81,114.93a1.82,1.82,0,1,1-1.82-1.82A1.82,1.82,0,0,1,127.81,114.93Z"/><path class="cls-1" d="M127.81,143.21a1.82,1.82,0,1,1-1.82-1.82A1.82,1.82,0,0,1,127.81,143.21Z"/><circle class="cls-1" cx="125.99" cy="171.48" r="1.81"/><path class="cls-1" d="M156.24,58.37a1.82,1.82,0,1,1-1.82-1.81A1.83,1.83,0,0,1,156.24,58.37Z"/><path class="cls-1" d="M156.24,86.65a1.82,1.82,0,1,1-1.82-1.82A1.82,1.82,0,0,1,156.24,86.65Z"/><circle class="cls-1" cx="154.42" cy="114.93" r="1.81"/><circle class="cls-1" cx="154.42" cy="143.21" r="1.81"/><circle class="cls-1" cx="154.42" cy="171.48" r="1.81"/><path class="cls-1" d="M156.24,199.76a1.82,1.82,0,1,1-1.82-1.81A1.83,1.83,0,0,1,156.24,199.76Z"/><path class="cls-1" d="M156.24,228a1.82,1.82,0,1,1-1.82-1.81A1.82,1.82,0,0,1,156.24,228Z"/><path class="cls-1" d="M184.66,30.09a1.81,1.81,0,1,1-1.81-1.81A1.81,1.81,0,0,1,184.66,30.09Z"/><path class="cls-1" d="M184.66,58.37a1.81,1.81,0,1,1-1.81-1.81A1.82,1.82,0,0,1,184.66,58.37Z"/><circle class="cls-1" cx="182.85" cy="86.65" r="1.81"/><path class="cls-1" d="M184.66,199.76a1.81,1.81,0,1,1-1.81-1.81A1.82,1.82,0,0,1,184.66,199.76Z"/><path class="cls-1" d="M184.66,228a1.81,1.81,0,1,1-1.81-1.81A1.81,1.81,0,0,1,184.66,228Z"/><path class="cls-1" d="M184.66,256.32a1.81,1.81,0,1,1-1.81-1.82A1.81,1.81,0,0,1,184.66,256.32Z"/><path class="cls-1" d="M213.09,30.09a1.81,1.81,0,1,1-1.81-1.81A1.82,1.82,0,0,1,213.09,30.09Z"/><circle class="cls-1" cx="211.28" cy="58.37" r="1.81"/><circle class="cls-1" cx="211.28" cy="256.32" r="1.81"/><path class="cls-1" d="M213.09,284.6a1.81,1.81,0,1,1-1.81-1.82A1.81,1.81,0,0,1,213.09,284.6Z"/><path class="cls-1" d="M241.52,30.09a1.82,1.82,0,1,1-1.81-1.81A1.82,1.82,0,0,1,241.52,30.09Z"/><circle class="cls-1" cx="239.71" cy="256.32" r="1.81"/><circle class="cls-1" cx="239.71" cy="284.6" r="1.81"/><circle class="cls-1" cx="268.14" cy="1.81" r="1.81"/><path class="cls-1" d="M270,30.09a1.82,1.82,0,1,1-1.81-1.81A1.81,1.81,0,0,1,270,30.09Z"/><path class="cls-1" d="M270,256.32a1.82,1.82,0,1,1-1.81-1.82A1.81,1.81,0,0,1,270,256.32Z"/><path class="cls-1" d="M270,284.6a1.82,1.82,0,1,1-1.81-1.82A1.81,1.81,0,0,1,270,284.6Z"/><path class="cls-1" d="M270,297a1.82,1.82,0,1,1-1.81-1.82A1.81,1.81,0,0,1,270,297Z"/><path class="cls-1" d="M142,72.14a1.82,1.82,0,1,1-1.81-1.81A1.81,1.81,0,0,1,142,72.14Z"/><path class="cls-1" d="M142,100.42a1.82,1.82,0,1,1-1.81-1.81A1.81,1.81,0,0,1,142,100.42Z"/><circle class="cls-1" cx="140.21" cy="128.7" r="1.81"/><circle class="cls-1" cx="140.21" cy="156.98" r="1.81"/><circle class="cls-1" cx="140.21" cy="185.26" r="1.81"/><path class="cls-1" d="M142,213.54a1.82,1.82,0,1,1-1.81-1.82A1.81,1.81,0,0,1,142,213.54Z"/><path class="cls-1" d="M170.45,43.87a1.82,1.82,0,1,1-1.81-1.82A1.81,1.81,0,0,1,170.45,43.87Z"/><path class="cls-1" d="M170.45,72.15a1.82,1.82,0,1,1-1.81-1.82A1.81,1.81,0,0,1,170.45,72.15Z"/><circle class="cls-1" cx="168.64" cy="100.42" r="1.81"/><path class="cls-1" d="M170.45,128.7a1.82,1.82,0,1,1-1.81-1.81A1.82,1.82,0,0,1,170.45,128.7Z"/><circle class="cls-1" cx="168.64" cy="156.98" r="1.81"/><path class="cls-1" d="M170.45,185.26a1.82,1.82,0,1,1-1.81-1.82A1.81,1.81,0,0,1,170.45,185.26Z"/><path class="cls-1" d="M170.45,213.54a1.82,1.82,0,1,1-1.81-1.82A1.81,1.81,0,0,1,170.45,213.54Z"/><path class="cls-1" d="M170.45,241.81a1.82,1.82,0,1,1-1.81-1.81A1.81,1.81,0,0,1,170.45,241.81Z"/><path class="cls-1" d="M198.88,43.87a1.82,1.82,0,1,1-1.81-1.82A1.81,1.81,0,0,1,198.88,43.87Z"/><circle class="cls-1" cx="197.07" cy="72.14" r="1.81"/><path class="cls-1" d="M198.88,241.81a1.82,1.82,0,1,1-1.81-1.81A1.81,1.81,0,0,1,198.88,241.81Z"/><circle class="cls-1" cx="197.07" cy="270.09" r="1.81"/><path class="cls-1" d="M184.66,270.82a1.81,1.81,0,1,1-1.81-1.81A1.82,1.82,0,0,1,184.66,270.82Z"/><circle class="cls-1" cx="197.07" cy="284.6" r="1.81"/><path class="cls-1" d="M227.31,15.59a1.82,1.82,0,1,1-1.82-1.82A1.81,1.81,0,0,1,227.31,15.59Z"/><path class="cls-1" d="M227.31,43.87a1.82,1.82,0,1,1-1.82-1.82A1.81,1.81,0,0,1,227.31,43.87Z"/><path class="cls-1" d="M227.31,241.81a1.82,1.82,0,1,1-1.82-1.81A1.81,1.81,0,0,1,227.31,241.81Z"/><circle class="cls-1" cx="225.49" cy="270.09" r="1.81"/><circle class="cls-1" cx="253.92" cy="15.59" r="1.81"/><path class="cls-1" d="M255.74,43.87a1.82,1.82,0,1,1-1.82-1.82A1.81,1.81,0,0,1,255.74,43.87Z"/><path class="cls-1" d="M255.74,270.09a1.82,1.82,0,1,1-1.82-1.81A1.82,1.82,0,0,1,255.74,270.09Z"/><path class="cls-1" d="M142,86.65a1.82,1.82,0,1,1-1.81-1.82A1.81,1.81,0,0,1,142,86.65Z"/><circle class="cls-1" cx="140.21" cy="114.93" r="1.81"/><circle class="cls-1" cx="140.21" cy="143.21" r="1.81"/><circle class="cls-1" cx="140.21" cy="171.48" r="1.81"/><path class="cls-1" d="M142,199.76a1.82,1.82,0,1,1-1.81-1.81A1.82,1.82,0,0,1,142,199.76Z"/><path class="cls-1" d="M170.45,58.37a1.82,1.82,0,1,1-1.81-1.81A1.82,1.82,0,0,1,170.45,58.37Z"/><circle class="cls-1" cx="168.64" cy="86.65" r="1.81"/><path class="cls-1" d="M170.45,114.93a1.82,1.82,0,1,1-1.81-1.82A1.81,1.81,0,0,1,170.45,114.93Z"/><circle class="cls-1" cx="168.64" cy="143.21" r="1.81"/><path class="cls-1" d="M170.45,171.48a1.82,1.82,0,1,1-1.81-1.81A1.81,1.81,0,0,1,170.45,171.48Z"/><path class="cls-1" d="M170.45,199.76a1.82,1.82,0,1,1-1.81-1.81A1.82,1.82,0,0,1,170.45,199.76Z"/><path class="cls-1" d="M170.45,228a1.82,1.82,0,1,1-1.81-1.81A1.81,1.81,0,0,1,170.45,228Z"/><path class="cls-1" d="M170.45,256.32a1.82,1.82,0,1,1-1.81-1.82A1.81,1.81,0,0,1,170.45,256.32Z"/><path class="cls-1" d="M198.88,30.09a1.82,1.82,0,1,1-1.81-1.81A1.82,1.82,0,0,1,198.88,30.09Z"/><circle class="cls-1" cx="197.07" cy="58.37" r="1.81"/><path class="cls-1" d="M198.88,228a1.82,1.82,0,1,1-1.81-1.81A1.81,1.81,0,0,1,198.88,228Z"/><circle class="cls-1" cx="197.07" cy="256.32" r="1.81"/><path class="cls-1" d="M227.31,30.09a1.82,1.82,0,1,1-1.82-1.81A1.82,1.82,0,0,1,227.31,30.09Z"/><circle class="cls-1" cx="225.49" cy="58.37" r="1.81"/><circle class="cls-1" cx="225.49" cy="256.32" r="1.81"/><circle class="cls-1" cx="225.49" cy="284.6" r="1.81"/><circle class="cls-1" cx="253.92" cy="1.81" r="1.81"/><path class="cls-1" d="M255.74,30.09a1.82,1.82,0,1,1-1.82-1.81A1.81,1.81,0,0,1,255.74,30.09Z"/><path class="cls-1" d="M255.74,256.32a1.82,1.82,0,1,1-1.82-1.82A1.81,1.81,0,0,1,255.74,256.32Z"/><path class="cls-1" d="M255.74,284.6a1.82,1.82,0,1,1-1.82-1.82A1.81,1.81,0,0,1,255.74,284.6Z"/><circle class="cls-1" cx="239.71" cy="296.96" r="1.81"/><path class="cls-1" d="M255.74,297a1.82,1.82,0,1,1-1.82-1.82A1.81,1.81,0,0,1,255.74,297Z"/><polygon class="cls-2" points="6.89 295.05 3.53 295 0 288.62 1.72 285.71 6.89 295.05"/><polygon class="cls-2" points="21.82 295.22 18.47 295.18 7.66 275.69 9.4 272.77 21.82 295.22"/><polygon class="cls-2" points="36.74 295.4 33.39 295.36 15.33 262.75 17.05 259.86 36.74 295.4"/><polygon class="cls-2" points="51.67 295.57 48.32 295.53 23 249.83 24.72 246.92 51.67 295.57"/><polygon class="cls-2" points="66.6 295.74 63.25 295.7 30.66 236.9 32.39 233.99 66.6 295.74"/><polygon class="cls-2" points="81.54 295.92 78.18 295.89 38.34 223.96 40.06 221.06 81.54 295.92"/><polygon class="cls-2" points="96.45 296.1 93.11 296.06 46 211.04 47.73 208.13 96.45 296.1"/><polygon class="cls-2" points="111.39 296.27 108.02 296.23 53.67 198.12 55.4 195.19 111.39 296.27"/><polygon class="cls-2" points="126.32 296.44 122.96 296.41 61.34 185.18 63.07 182.27 126.32 296.44"/><polygon class="cls-2" points="141.24 296.62 137.89 296.58 69 172.25 70.73 169.34 141.24 296.62"/><polygon class="cls-2" points="156.17 296.79 152.81 296.76 76.68 159.32 78.4 156.41 156.17 296.79"/><polygon class="cls-2" points="6.89 295.05 3.53 295 0 288.62 1.72 285.71 6.89 295.05"/><polygon class="cls-2" points="21.82 295.22 18.47 295.18 7.66 275.69 9.4 272.77 21.82 295.22"/><polygon class="cls-2" points="36.74 295.4 33.39 295.36 15.33 262.75 17.05 259.86 36.74 295.4"/><polygon class="cls-2" points="51.67 295.57 48.32 295.53 23 249.83 24.72 246.92 51.67 295.57"/><polygon class="cls-2" points="66.6 295.74 63.25 295.7 30.66 236.9 32.39 233.99 66.6 295.74"/><polygon class="cls-2" points="81.54 295.92 78.18 295.89 38.34 223.96 40.06 221.06 81.54 295.92"/><polygon class="cls-2" points="96.45 296.1 93.11 296.06 46 211.04 47.73 208.13 96.45 296.1"/><polygon class="cls-2" points="111.39 296.27 108.02 296.23 53.67 198.12 55.4 195.19 111.39 296.27"/><polygon class="cls-2" points="126.32 296.44 122.96 296.41 61.34 185.18 63.07 182.27 126.32 296.44"/><polygon class="cls-2" points="141.24 296.62 137.89 296.58 69 172.25 70.73 169.34 141.24 296.62"/><polygon class="cls-2" points="156.17 296.79 152.81 296.76 76.68 159.32 78.4 156.41 156.17 296.79"/></g></g></g></svg>