<svg xmlns="http://www.w3.org/2000/svg" viewBox="0 0 407.13 403.67"><defs><style>.cls-1,.cls-2{fill:#d76c38;stroke-miterlimit:10;}.cls-1{stroke:#d76c38;stroke-width:1.03px;}.cls-2{stroke:#fffdfa;stroke-width:6.77px;}</style></defs><title>Asset 133</title><g id="Layer_2" data-name="Layer 2"><g id="Layer_1-2" data-name="Layer 1"><path class="cls-1" d="M40.61,205.25a1.3,1.3,0,1,0-1.84.16A1.3,1.3,0,0,0,40.61,205.25Z"/><path class="cls-1" d="M53.71,189.68a1.31,1.31,0,1,0-1.84.16A1.31,1.31,0,0,0,53.71,189.68Z"/><path class="cls-1" d="M66.8,174.11a1.31,1.31,0,1,0-1.84.16A1.31,1.31,0,0,0,66.8,174.11Z"/><path class="cls-1" d="M79.89,158.55a1.31,1.31,0,1,0-1.84.15A1.29,1.29,0,0,0,79.89,158.55Z"/><circle class="cls-1" cx="91.99" cy="142.14" r="1.31"/><path class="cls-1" d="M106.08,127.41a1.31,1.31,0,1,0-1.84.16A1.31,1.31,0,0,0,106.08,127.41Z"/><circle class="cls-1" cx="118.17" cy="111" r="1.31"/><path class="cls-1" d="M132.26,96.27a1.28,1.28,0,0,0-.16-1.83,1.3,1.3,0,1,0,.16,1.83Z"/><path class="cls-1" d="M145.36,80.71a1.31,1.31,0,0,0-.16-1.84,1.31,1.31,0,0,0-1.68,2A1.31,1.31,0,0,0,145.36,80.71Z"/><path class="cls-1" d="M158.45,65.14a1.31,1.31,0,1,0-1.84.16A1.31,1.31,0,0,0,158.45,65.14Z"/><path class="cls-1" d="M171.54,49.57a1.31,1.31,0,1,0-1.84.16A1.3,1.3,0,0,0,171.54,49.57Z"/><path class="cls-1" d="M56.26,218.41a1.3,1.3,0,1,0-1.83.16A1.3,1.3,0,0,0,56.26,218.41Z"/><circle class="cls-1" cx="68.36" cy="202" r="1.31"/><path class="cls-1" d="M82.45,187.28a1.31,1.31,0,0,0-.16-1.84,1.3,1.3,0,1,0,.16,1.84Z"/><path class="cls-1" d="M95.54,171.71a1.3,1.3,0,1,0-1.84.16A1.31,1.31,0,0,0,95.54,171.71Z"/><path class="cls-1" d="M108.64,156.14a1.31,1.31,0,0,0-2-1.68,1.29,1.29,0,0,0,.16,1.84A1.31,1.31,0,0,0,108.64,156.14Z"/><path class="cls-1" d="M121.73,140.57a1.31,1.31,0,1,0-1.84.16A1.31,1.31,0,0,0,121.73,140.57Z"/><path class="cls-1" d="M134.82,125a1.31,1.31,0,1,0-1.84.15A1.3,1.3,0,0,0,134.82,125Z"/><path class="cls-1" d="M147.91,109.44a1.3,1.3,0,1,0-1.84.16A1.3,1.3,0,0,0,147.91,109.44Z"/><circle class="cls-1" cx="160.01" cy="93.03" r="1.31"/><path class="cls-1" d="M174.1,78.3a1.31,1.31,0,1,0-1.84.16A1.31,1.31,0,0,0,174.1,78.3Z"/><path class="cls-1" d="M187.19,62.73A1.28,1.28,0,0,0,187,60.9a1.3,1.3,0,1,0,.16,1.83Z"/><path class="cls-1" d="M71.92,231.57a1.31,1.31,0,1,0-1.84.16A1.29,1.29,0,0,0,71.92,231.57Z"/><path class="cls-1" d="M85,216a1.31,1.31,0,0,0-.16-1.84,1.29,1.29,0,0,0-1.84.16A1.31,1.31,0,1,0,85,216Z"/><path class="cls-1" d="M98.1,200.44a1.31,1.31,0,1,0-1.84.16A1.3,1.3,0,0,0,98.1,200.44Z"/><circle class="cls-1" cx="110.2" cy="184.03" r="1.31"/><path class="cls-1" d="M124.29,169.3a1.31,1.31,0,1,0-1.84.16A1.31,1.31,0,0,0,124.29,169.3Z"/><circle class="cls-1" cx="136.38" cy="152.9" r="1.31"/><path class="cls-1" d="M150.47,138.17a1.31,1.31,0,0,0-2-1.68,1.31,1.31,0,0,0,2,1.68Z"/><path class="cls-1" d="M163.56,122.6a1.3,1.3,0,1,0-1.83.16A1.3,1.3,0,0,0,163.56,122.6Z"/><path class="cls-1" d="M176.66,107a1.31,1.31,0,1,0-1.84.16A1.31,1.31,0,0,0,176.66,107Z"/><circle class="cls-1" cx="188.75" cy="90.62" r="1.31"/><circle class="cls-1" cx="201.84" cy="75.06" r="1.31"/><path class="cls-1" d="M184.85,33.8A1.3,1.3,0,1,0,183,34,1.3,1.3,0,0,0,184.85,33.8Z"/><path class="cls-1" d="M198,18.23a1.31,1.31,0,1,0-1.84.16A1.31,1.31,0,0,0,198,18.23Z"/><path class="cls-1" d="M211,2.66a1.31,1.31,0,1,0-1.84.16A1.31,1.31,0,0,0,211,2.66Z"/><circle class="cls-1" cx="199.51" cy="46.12" r="1.31"/><path class="cls-1" d="M213.6,31.39a1.31,1.31,0,1,0-1.84.16A1.31,1.31,0,0,0,213.6,31.39Z"/><path class="cls-1" d="M226.69,15.83a1.31,1.31,0,0,0-.16-1.84,1.3,1.3,0,1,0,.16,1.84Z"/><path class="cls-1" d="M216.16,60.12a1.31,1.31,0,1,0-1.84.16A1.29,1.29,0,0,0,216.16,60.12Z"/><circle class="cls-1" cx="228.25" cy="43.72" r="1.31"/><circle class="cls-1" cx="241.34" cy="28.15" r="1.31"/><path class="cls-1" d="M87.57,244.74a1.31,1.31,0,0,0-.16-1.84,1.31,1.31,0,0,0-1.68,2A1.31,1.31,0,0,0,87.57,244.74Z"/><circle class="cls-1" cx="99.66" cy="228.33" r="1.31"/><circle class="cls-1" cx="112.75" cy="212.76" r="1.31"/><path class="cls-1" d="M126.85,198a1.31,1.31,0,1,0-2-1.68,1.31,1.31,0,1,0,2,1.68Z"/><path class="cls-1" d="M139.94,182.47a1.31,1.31,0,0,0-.16-1.84,1.3,1.3,0,1,0,.16,1.84Z"/><path class="cls-1" d="M153,166.9a1.31,1.31,0,1,0-1.84.16A1.31,1.31,0,0,0,153,166.9Z"/><circle class="cls-1" cx="165.12" cy="150.49" r="1.31"/><path class="cls-1" d="M179.22,135.76a1.31,1.31,0,1,0-2-1.68,1.31,1.31,0,1,0,2,1.68Z"/><circle class="cls-1" cx="191.31" cy="119.35" r="1.31"/><path class="cls-1" d="M205.4,104.63a1.31,1.31,0,1,0-1.84.16A1.3,1.3,0,0,0,205.4,104.63Z"/><path class="cls-1" d="M218.49,89.06a1.3,1.3,0,1,0-1.84.16A1.3,1.3,0,0,0,218.49,89.06Z"/><path class="cls-1" d="M103.22,257.9a1.31,1.31,0,1,0-1.84.16A1.31,1.31,0,0,0,103.22,257.9Z"/><path class="cls-1" d="M116.31,242.33a1.31,1.31,0,1,0-1.84.16A1.31,1.31,0,0,0,116.31,242.33Z"/><path class="cls-1" d="M129.4,226.76a1.3,1.3,0,1,0-1.84.16A1.29,1.29,0,0,0,129.4,226.76Z"/><path class="cls-1" d="M142.5,211.2a1.31,1.31,0,0,0-.16-1.84,1.31,1.31,0,0,0-1.68,2A1.31,1.31,0,0,0,142.5,211.2Z"/><circle class="cls-1" cx="154.59" cy="194.79" r="1.31"/><circle class="cls-1" cx="167.68" cy="179.22" r="1.31"/><circle class="cls-1" cx="180.78" cy="163.65" r="1.31"/><path class="cls-1" d="M194.87,148.93a1.31,1.31,0,0,0-.16-1.84,1.3,1.3,0,1,0,.16,1.84Z"/><path class="cls-1" d="M208,133.36a1.31,1.31,0,1,0-1.84.16A1.31,1.31,0,0,0,208,133.36Z"/><path class="cls-1" d="M221.05,117.79a1.29,1.29,0,0,0-.16-1.84,1.31,1.31,0,1,0,.16,1.84Z"/><path class="cls-1" d="M234.14,102.22a1.3,1.3,0,1,0-1.83.16A1.3,1.3,0,0,0,234.14,102.22Z"/><circle class="cls-1" cx="117.87" cy="270.22" r="1.31"/><path class="cls-1" d="M132,255.49a1.31,1.31,0,0,0-2-1.68,1.31,1.31,0,0,0,.16,1.84A1.29,1.29,0,0,0,132,255.49Z"/><path class="cls-1" d="M145.05,239.93a1.3,1.3,0,1,0-1.84.16A1.3,1.3,0,0,0,145.05,239.93Z"/><circle class="cls-1" cx="157.15" cy="223.52" r="1.31"/><path class="cls-1" d="M171.24,208.79a1.31,1.31,0,1,0-1.84.16A1.31,1.31,0,0,0,171.24,208.79Z"/><circle class="cls-1" cx="183.33" cy="192.38" r="1.31"/><path class="cls-1" d="M197.43,177.66a1.31,1.31,0,0,0-.16-1.84,1.3,1.3,0,1,0,.16,1.84Z"/><path class="cls-1" d="M210.52,162.09a1.31,1.31,0,1,0-1.84.16A1.31,1.31,0,0,0,210.52,162.09Z"/><path class="cls-1" d="M223.61,146.52a1.31,1.31,0,1,0-1.84.16A1.31,1.31,0,0,0,223.61,146.52Z"/><path class="cls-1" d="M236.7,131a1.3,1.3,0,1,0-1.84.16A1.29,1.29,0,0,0,236.7,131Z"/><circle class="cls-1" cx="248.8" cy="114.54" r="1.31"/><path class="cls-1" d="M134.52,284.23a1.31,1.31,0,1,0-1.84.15A1.31,1.31,0,0,0,134.52,284.23Z"/><path class="cls-1" d="M147.61,268.66a1.31,1.31,0,0,0-2-1.68,1.31,1.31,0,1,0,2,1.68Z"/><circle class="cls-1" cx="159.71" cy="252.25" r="1.31"/><circle class="cls-1" cx="172.8" cy="236.68" r="1.31"/><path class="cls-1" d="M186.89,222a1.31,1.31,0,1,0-1.84.16A1.29,1.29,0,0,0,186.89,222Z"/><path class="cls-1" d="M200,206.39a1.3,1.3,0,1,0-1.84.16A1.31,1.31,0,0,0,200,206.39Z"/><path class="cls-1" d="M213.08,190.82a1.31,1.31,0,1,0-1.84.16A1.31,1.31,0,0,0,213.08,190.82Z"/><path class="cls-1" d="M226.17,175.25a1.31,1.31,0,1,0-1.84.16A1.31,1.31,0,0,0,226.17,175.25Z"/><path class="cls-1" d="M239.26,159.68a1.31,1.31,0,1,0-1.84.16A1.3,1.3,0,0,0,239.26,159.68Z"/><circle class="cls-1" cx="251.36" cy="143.28" r="1.31"/><path class="cls-1" d="M265.45,128.55a1.31,1.31,0,1,0-1.84.16A1.31,1.31,0,0,0,265.45,128.55Z"/><path class="cls-1" d="M150.17,297.39a1.31,1.31,0,1,0-1.84.16A1.31,1.31,0,0,0,150.17,297.39Z"/><path class="cls-1" d="M163.26,281.82a1.3,1.3,0,1,0-1.84.16A1.31,1.31,0,0,0,163.26,281.82Z"/><circle class="cls-1" cx="175.36" cy="265.41" r="1.31"/><circle class="cls-1" cx="188.45" cy="249.84" r="1.31"/><path class="cls-1" d="M202.54,235.12a1.31,1.31,0,1,0-1.84.16A1.3,1.3,0,0,0,202.54,235.12Z"/><path class="cls-1" d="M215.63,219.55a1.3,1.3,0,1,0-1.83.16A1.3,1.3,0,0,0,215.63,219.55Z"/><path class="cls-1" d="M228.73,204a1.31,1.31,0,1,0-1.84.16A1.31,1.31,0,0,0,228.73,204Z"/><path class="cls-1" d="M241.82,188.41a1.31,1.31,0,1,0-1.84.16A1.29,1.29,0,0,0,241.82,188.41Z"/><path class="cls-1" d="M254.91,172.85a1.31,1.31,0,1,0-1.84.15A1.29,1.29,0,0,0,254.91,172.85Z"/><circle class="cls-1" cx="267.01" cy="156.44" r="1.31"/><circle class="cls-1" cx="280.1" cy="140.87" r="1.31"/><circle class="cls-1" cx="164.82" cy="309.71" r="1.31"/><path class="cls-1" d="M178.91,295a1.3,1.3,0,1,0-1.83.16A1.3,1.3,0,0,0,178.91,295Z"/><path class="cls-1" d="M192,279.42a1.31,1.31,0,1,0-1.84.15A1.31,1.31,0,0,0,192,279.42Z"/><circle class="cls-1" cx="204.1" cy="263.01" r="1.31"/><path class="cls-1" d="M218.19,248.28a1.29,1.29,0,0,0-.16-1.84,1.31,1.31,0,1,0,.16,1.84Z"/><circle class="cls-1" cx="230.29" cy="231.87" r="1.31"/><path class="cls-1" d="M244.38,217.14a1.31,1.31,0,1,0-1.84.16A1.3,1.3,0,0,0,244.38,217.14Z"/><circle class="cls-1" cx="256.47" cy="200.74" r="1.31"/><path class="cls-1" d="M270.56,186a1.3,1.3,0,1,0-1.84.16A1.31,1.31,0,0,0,270.56,186Z"/><path class="cls-1" d="M283.66,170.44a1.31,1.31,0,1,0-1.84.16A1.31,1.31,0,0,0,283.66,170.44Z"/><path class="cls-1" d="M296.75,154.87a1.31,1.31,0,1,0-1.84.16A1.29,1.29,0,0,0,296.75,154.87Z"/><path class="cls-1" d="M181.47,323.71a1.29,1.29,0,0,0-.16-1.84,1.31,1.31,0,1,0,.16,1.84Z"/><path class="cls-1" d="M194.57,308.15a1.31,1.31,0,0,0-.16-1.84,1.3,1.3,0,1,0,.16,1.84Z"/><path class="cls-1" d="M207.66,292.58a1.31,1.31,0,1,0-1.84.16A1.31,1.31,0,0,0,207.66,292.58Z"/><path class="cls-1" d="M220.75,277a1.31,1.31,0,1,0-1.84.16A1.31,1.31,0,0,0,220.75,277Z"/><circle class="cls-1" cx="232.84" cy="260.6" r="1.31"/><circle class="cls-1" cx="245.94" cy="245.03" r="1.31"/><circle class="cls-1" cx="259.03" cy="229.47" r="1.31"/><path class="cls-1" d="M273.12,214.74a1.31,1.31,0,1,0-1.84.16A1.3,1.3,0,0,0,273.12,214.74Z"/><path class="cls-1" d="M286.21,199.17a1.3,1.3,0,1,0-1.83.16A1.3,1.3,0,0,0,286.21,199.17Z"/><path class="cls-1" d="M299.31,183.6a1.31,1.31,0,1,0-1.84.16A1.29,1.29,0,0,0,299.31,183.6Z"/><path class="cls-1" d="M312.4,168a1.31,1.31,0,0,0-.16-1.84,1.29,1.29,0,0,0-1.84.16,1.31,1.31,0,0,0,2,1.68Z"/><path class="cls-1" d="M197.12,336.88a1.3,1.3,0,1,0-1.84.15A1.29,1.29,0,0,0,197.12,336.88Z"/><circle class="cls-1" cx="209.22" cy="320.47" r="1.31"/><circle class="cls-1" cx="222.31" cy="304.9" r="1.31"/><path class="cls-1" d="M236.4,290.17a1.31,1.31,0,1,0-1.84.16A1.3,1.3,0,0,0,236.4,290.17Z"/><path class="cls-1" d="M249.49,274.61a1.31,1.31,0,1,0-1.83.15A1.3,1.3,0,0,0,249.49,274.61Z"/><path class="cls-1" d="M262.59,259a1.31,1.31,0,1,0-1.84.16A1.31,1.31,0,0,0,262.59,259Z"/><circle class="cls-1" cx="274.68" cy="242.63" r="1.31"/><path class="cls-1" d="M288.77,227.9a1.29,1.29,0,0,0-.16-1.84,1.31,1.31,0,1,0,.16,1.84Z"/><circle class="cls-1" cx="300.87" cy="211.49" r="1.31"/><path class="cls-1" d="M315,196.77a1.31,1.31,0,0,0-.16-1.84,1.29,1.29,0,0,0-1.84.16,1.31,1.31,0,0,0,2,1.68Z"/><path class="cls-1" d="M328.05,181.2a1.31,1.31,0,1,0-1.84.16A1.31,1.31,0,0,0,328.05,181.2Z"/><path class="cls-1" d="M212.77,350a1.3,1.3,0,1,0-1.83.16A1.3,1.3,0,0,0,212.77,350Z"/><path class="cls-1" d="M225.87,334.47a1.31,1.31,0,1,0-1.84.16A1.31,1.31,0,0,0,225.87,334.47Z"/><path class="cls-1" d="M239,318.9a1.31,1.31,0,1,0-1.84.16A1.29,1.29,0,0,0,239,318.9Z"/><circle class="cls-1" cx="251.05" cy="302.5" r="1.31"/><path class="cls-1" d="M265.15,287.77a1.31,1.31,0,1,0-2-1.68,1.29,1.29,0,0,0,.16,1.84A1.31,1.31,0,0,0,265.15,287.77Z"/><circle class="cls-1" cx="277.24" cy="271.36" r="1.31"/><path class="cls-1" d="M291.33,256.63a1.31,1.31,0,1,0-1.84.16A1.31,1.31,0,0,0,291.33,256.63Z"/><path class="cls-1" d="M304.42,241.06a1.3,1.3,0,0,0-2-1.68,1.3,1.3,0,1,0,2,1.68Z"/><path class="cls-1" d="M317.52,225.5a1.31,1.31,0,1,0-1.84.16A1.31,1.31,0,0,0,317.52,225.5Z"/><circle class="cls-1" cx="329.61" cy="209.09" r="1.31"/><circle class="cls-1" cx="342.7" cy="193.52" r="1.31"/><path class="cls-1" d="M228.43,363.2a1.31,1.31,0,0,0-2-1.68,1.29,1.29,0,0,0,.16,1.84A1.31,1.31,0,0,0,228.43,363.2Z"/><circle class="cls-1" cx="240.52" cy="346.79" r="1.31"/><path class="cls-1" d="M254.61,332.07a1.31,1.31,0,0,0-.16-1.84,1.3,1.3,0,1,0,.16,1.84Z"/><path class="cls-1" d="M267.7,316.5a1.3,1.3,0,1,0-1.84.16A1.31,1.31,0,0,0,267.7,316.5Z"/><path class="cls-1" d="M280.8,300.93a1.31,1.31,0,1,0-1.84.16A1.31,1.31,0,0,0,280.8,300.93Z"/><path class="cls-1" d="M293.89,285.36a1.31,1.31,0,1,0-1.84.16A1.31,1.31,0,0,0,293.89,285.36Z"/><path class="cls-1" d="M307,269.8a1.31,1.31,0,1,0-1.84.15A1.3,1.3,0,0,0,307,269.8Z"/><path class="cls-1" d="M320.07,254.23a1.3,1.3,0,1,0-1.83.16A1.3,1.3,0,0,0,320.07,254.23Z"/><circle class="cls-1" cx="332.17" cy="237.82" r="1.31"/><path class="cls-1" d="M346.26,223.09a1.31,1.31,0,1,0-1.84.16A1.31,1.31,0,0,0,346.26,223.09Z"/><path class="cls-1" d="M359.35,207.52a1.28,1.28,0,0,0-.16-1.83,1.3,1.3,0,1,0,.16,1.83Z"/><path class="cls-1" d="M244.08,376.36a1.31,1.31,0,1,0-1.84.16A1.3,1.3,0,0,0,244.08,376.36Z"/><path class="cls-1" d="M257.17,360.8A1.31,1.31,0,0,0,257,359a1.29,1.29,0,0,0-1.84.16,1.31,1.31,0,1,0,2,1.68Z"/><path class="cls-1" d="M270.26,345.23a1.31,1.31,0,1,0-1.84.16A1.3,1.3,0,0,0,270.26,345.23Z"/><path class="cls-1" d="M283.35,329.66a1.3,1.3,0,1,0-1.83.16A1.3,1.3,0,0,0,283.35,329.66Z"/><circle class="cls-1" cx="295.45" cy="313.25" r="1.31"/><path class="cls-1" d="M309.54,298.53a1.31,1.31,0,0,0-.16-1.84,1.3,1.3,0,1,0,.16,1.84Z"/><circle class="cls-1" cx="321.63" cy="282.12" r="1.31"/><path class="cls-1" d="M335.73,267.39a1.31,1.31,0,0,0-2-1.68,1.29,1.29,0,0,0,.16,1.84A1.31,1.31,0,0,0,335.73,267.39Z"/><path class="cls-1" d="M348.82,251.82A1.31,1.31,0,1,0,347,252,1.31,1.31,0,0,0,348.82,251.82Z"/><path class="cls-1" d="M361.91,236.25a1.31,1.31,0,0,0-2-1.68,1.31,1.31,0,0,0,.16,1.84A1.29,1.29,0,0,0,361.91,236.25Z"/><path class="cls-1" d="M375,220.69a1.3,1.3,0,1,0-1.84.16A1.31,1.31,0,0,0,375,220.69Z"/><path class="cls-1" d="M259.73,389.53a1.31,1.31,0,0,0-.16-1.84,1.29,1.29,0,0,0-1.84.16,1.31,1.31,0,0,0,2,1.68Z"/><path class="cls-1" d="M272.82,374a1.31,1.31,0,1,0-1.84.16A1.31,1.31,0,0,0,272.82,374Z"/><path class="cls-1" d="M285.91,358.39a1.29,1.29,0,0,0-.16-1.84,1.31,1.31,0,1,0,.16,1.84Z"/><path class="cls-1" d="M299,342.82a1.31,1.31,0,1,0-2-1.68,1.31,1.31,0,1,0,2,1.68Z"/><path class="cls-1" d="M312.1,327.26a1.31,1.31,0,0,0-.16-1.84,1.29,1.29,0,0,0-1.84.16,1.31,1.31,0,0,0,2,1.68Z"/><path class="cls-1" d="M325.19,311.69a1.31,1.31,0,1,0-1.84.16A1.3,1.3,0,0,0,325.19,311.69Z"/><circle class="cls-1" cx="337.28" cy="295.28" r="1.31"/><circle class="cls-1" cx="350.38" cy="279.71" r="1.31"/><path class="cls-1" d="M364.47,265a1.31,1.31,0,1,0-1.84.15A1.31,1.31,0,0,0,364.47,265Z"/><path class="cls-1" d="M377.56,249.42a1.31,1.31,0,1,0-1.84.16A1.3,1.3,0,0,0,377.56,249.42Z"/><path class="cls-1" d="M390.65,233.85a1.3,1.3,0,1,0-1.83.16A1.3,1.3,0,0,0,390.65,233.85Z"/><circle class="cls-1" cx="274.38" cy="401.85" r="1.31"/><path class="cls-1" d="M288.47,387.12a1.31,1.31,0,1,0-1.84.16A1.31,1.31,0,0,0,288.47,387.12Z"/><path class="cls-1" d="M301.56,371.55a1.3,1.3,0,0,0-2-1.68,1.3,1.3,0,1,0,2,1.68Z"/><circle class="cls-1" cx="313.66" cy="355.15" r="1.31"/><path class="cls-1" d="M327.75,340.42a1.31,1.31,0,1,0-1.84.16A1.31,1.31,0,0,0,327.75,340.42Z"/><circle class="cls-1" cx="339.84" cy="324.01" r="1.31"/><path class="cls-1" d="M353.93,309.28a1.3,1.3,0,1,0-1.83.16A1.28,1.28,0,0,0,353.93,309.28Z"/><circle class="cls-1" cx="366.03" cy="292.88" r="1.31"/><path class="cls-1" d="M380.12,278.15a1.31,1.31,0,1,0-1.84.16A1.31,1.31,0,0,0,380.12,278.15Z"/><path class="cls-1" d="M393.21,262.58a1.29,1.29,0,0,0-.16-1.84,1.31,1.31,0,1,0,.16,1.84Z"/><circle class="cls-1" cx="405.31" cy="246.17" r="1.31"/><polygon class="cls-2" points="47.09 297.1 63.37 293.52 61.49 310.08 81.06 305.78 85.57 294.92 72.59 297.77 74.46 281.21 58.19 284.79 60.07 268.24 43.79 271.82 45.67 255.26 29.39 258.84 31.27 242.28 14.99 245.85 16.48 232.64 6.14 238.25 3.89 258.16 20.17 254.59 18.3 271.14 34.58 267.57 32.7 284.13 48.97 280.55 47.09 297.1"/></g></g></svg>