<svg xmlns="http://www.w3.org/2000/svg" viewBox="0 0 53.3 47.28"><defs><style>.cls-1{fill:#fffbf3;}.cls-1,.cls-5,.cls-6{stroke:#d76c38;stroke-miterlimit:10;}.cls-1,.cls-5{stroke-width:1.33px;}.cls-2{fill:#f9dab9;}.cls-3{font-size:6.78px;font-family:NunitoSans-ExtraBold, Nunito Sans;font-weight:800;}.cls-3,.cls-4{fill:#d76c38;}.cls-5,.cls-6{fill:none;}.cls-6{stroke-width:1.22px;}</style></defs><title>Asset 124</title><g id="Layer_2" data-name="Layer 2"><g id="Layer_1-2" data-name="Layer 1"><rect class="cls-1" x="0.67" y="0.67" width="51.96" height="45.95" rx="4.91"/><path class="cls-2" d="M5.26,1.2H48A4.59,4.59,0,0,1,52.63,5.8V8.56a0,0,0,0,1,0,0H.67a0,0,0,0,1,0,0V5.8A4.59,4.59,0,0,1,5.26,1.2Z"/><text class="cls-3" transform="translate(31.37 15.41) rotate(-0.53)">REC</text><circle class="cls-4" cx="6" cy="5.09" r="1.19"/><circle class="cls-4" cx="10.33" cy="5.09" r="1.19"/><circle class="cls-4" cx="14.56" cy="5.09" r="1.19"/><circle class="cls-4" cx="27.67" cy="13.29" r="1.39"/><rect class="cls-5" x="0.67" y="0.67" width="51.96" height="45.95" rx="4.91"/><circle class="cls-2" cx="30.48" cy="25.76" r="2.93"/><circle class="cls-4" cx="30.48" cy="25.76" r="1.4"/><circle class="cls-2" cx="23.51" cy="25.76" r="2.93"/><circle class="cls-4" cx="23.51" cy="25.76" r="1.4"/><path class="cls-4" d="M37.13,30.65a.63.63,0,0,0-.54-.14l-2.28.42V29.49a.65.65,0,0,0-.66-.65h-.4A4.14,4.14,0,1,0,27,23.52a4.14,4.14,0,1,0-6.26,5.32h-.4a.65.65,0,0,0-.65.65v7.88a.65.65,0,0,0,.65.65h5.14l-2.56,2.57a.65.65,0,0,0,0,.93.67.67,0,0,0,.93,0L27,38.37l3.15,3.15a.66.66,0,1,0,.93-.93L28.52,38h5.13a.65.65,0,0,0,.66-.65V35.93l2.28.42h.12a.66.66,0,0,0,.66-.66V31.16A.66.66,0,0,0,37.13,30.65Zm-6.65-7.72a2.83,2.83,0,1,1-2.82,2.83A2.83,2.83,0,0,1,30.48,22.93ZM27,28a4.39,4.39,0,0,0,.71.84H26.29A4.39,4.39,0,0,0,27,28Zm-6.31-2.24a2.83,2.83,0,1,1,2.82,2.83A2.83,2.83,0,0,1,20.69,25.76Zm12.3,11H21V30.15H33Zm3.06-1.8-1.74-.32V32.27L36.05,32Z"/><path class="cls-6" d="M10.28,24.48v-4.9a1.37,1.37,0,0,1,1.37-1.37h6"/><path class="cls-6" d="M17,43.14H11.65a1.38,1.38,0,0,1-1.37-1.38v-5"/><path class="cls-6" d="M43.63,24.48v-4.9a1.37,1.37,0,0,0-1.37-1.37H36.31"/><path class="cls-6" d="M36.88,43.14h5.38a1.37,1.37,0,0,0,1.37-1.38v-5"/></g></g></svg>