<svg xmlns="http://www.w3.org/2000/svg" xmlns:xlink="http://www.w3.org/1999/xlink" viewBox="0 0 206.1 168.17"><defs><style>.cls-1,.cls-10,.cls-9{fill:none;}.cls-2{clip-path:url(#clip-path);}.cls-3{fill:#919aa1;stroke:#fffdfa;stroke-width:1.56px;}.cls-10,.cls-3,.cls-7,.cls-9{stroke-miterlimit:10;}.cls-4{fill:#fffdfa;}.cls-5{fill:#f9dab9;}.cls-6,.cls-8{fill:#d76c38;}.cls-7{fill:#fffbf3;}.cls-10,.cls-7,.cls-9{stroke:#d76c38;}.cls-7,.cls-9{stroke-width:1.39px;}.cls-8{font-size:7.06px;font-family:NunitoSans-ExtraBold, Nunito Sans;font-weight:800;}.cls-10{stroke-width:1.27px;}</style><clipPath id="clip-path"><polygon class="cls-1" points="120.86 37.91 137.98 157.91 81.74 135.33 25.5 112.74 72.28 76.03 120.86 37.91"/></clipPath></defs><title>Asset 134</title><g id="Layer_2" data-name="Layer 2"><g id="Layer_1-2" data-name="Layer 1"><g class="cls-2"><rect class="cls-3" x="120.2" y="-51.47" width="3.26" height="173.67" transform="translate(43.01 134.77) rotate(-67.78)"/><rect class="cls-3" x="116.58" y="-42.61" width="3.26" height="173.67" transform="translate(32.56 136.93) rotate(-67.78)"/><rect class="cls-3" x="112.96" y="-33.75" width="3.26" height="173.67" transform="translate(22.11 139.08) rotate(-67.78)"/><rect class="cls-3" x="109.34" y="-24.89" width="3.26" height="173.67" transform="translate(11.66 141.24) rotate(-67.78)"/><rect class="cls-3" x="105.72" y="-16.04" width="3.26" height="173.67" transform="translate(1.21 143.4) rotate(-67.78)"/><rect class="cls-3" x="102.1" y="-7.18" width="3.26" height="173.67" transform="translate(-9.24 145.55) rotate(-67.78)"/><rect class="cls-3" x="98.48" y="1.68" width="3.26" height="173.67" transform="translate(-19.69 147.71) rotate(-67.78)"/><rect class="cls-3" x="94.86" y="10.53" width="3.26" height="173.67" transform="translate(-30.14 149.87) rotate(-67.78)"/><rect class="cls-3" x="91.25" y="19.39" width="3.26" height="173.67" transform="translate(-40.59 152.02) rotate(-67.78)"/><rect class="cls-3" x="87.63" y="28.25" width="3.26" height="173.67" transform="translate(-51.04 154.18) rotate(-67.78)"/><rect class="cls-3" x="84.01" y="37.1" width="3.26" height="173.67" transform="translate(-61.49 156.34) rotate(-67.78)"/><rect class="cls-3" x="80.39" y="45.96" width="3.26" height="173.67" transform="translate(-71.94 158.5) rotate(-67.78)"/></g><rect class="cls-4" x="89.69" y="59.6" width="69" height="54.4"/><rect class="cls-5" x="97.74" y="63.05" width="60.35" height="9.52"/><path class="cls-6" d="M136,97h-9.87v-6.9a3,3,0,0,0-3-3H105.46a3,3,0,0,0-2.95,3V97H92.64a3,3,0,0,0-3,2.95v25.65a3,3,0,0,0,3,3H136a3,3,0,0,0,3-3V100A3,3,0,0,0,136,97Zm-1,29.58H93.64a2,2,0,0,1-2-2V101a2,2,0,0,1,2-2h9.85a1,1,0,0,0,1-1V90.14a1,1,0,0,1,1-1h17.75a1,1,0,0,1,1,1V98a1,1,0,0,0,1,1H135a2,2,0,0,1,2,2v23.65A2,2,0,0,1,135,126.62Z"/><path class="cls-4" d="M137,101v23.68a2,2,0,0,1-2,2H93.62a2,2,0,0,1-2-2V101a2,2,0,0,1,2-2h9.87a1,1,0,0,0,1-1V90.14a1,1,0,0,1,1-1h17.75a1,1,0,0,1,1,1V98a1,1,0,0,0,1,1h9.87A2,2,0,0,1,137,101Z"/><path class="cls-6" d="M114.34,101.83a11,11,0,1,0,11,11A11,11,0,0,0,114.34,101.83Z"/><path class="cls-5" d="M123.64,112.81a9.3,9.3,0,1,1-9.3-9.29A9.32,9.32,0,0,1,123.64,112.81Z"/><path class="cls-6" d="M117.64,91.14h-5.92a1,1,0,0,0-1,1v3.94a1,1,0,0,0,1,1h5.92a1,1,0,0,0,1-1V92.13A1,1,0,0,0,117.64,91.14Zm-1,3.94h-4v-2h4Z"/><rect class="cls-6" x="141.97" y="111.69" width="4.74" height="2.3"/><rect class="cls-6" x="148.61" y="111.69" width="5.48" height="2.3"/><path class="cls-6" d="M156.38,110.54v1.15h-1.15V114h2.3a1.14,1.14,0,0,0,1.15-1.15v-2.3Z"/><rect class="cls-6" x="156.38" y="72.25" width="2.3" height="4.6"/><rect class="cls-6" x="156.38" y="78" width="2.3" height="4.6"/><rect class="cls-6" x="156.38" y="84.9" width="2.3" height="4.6"/><rect class="cls-6" x="156.38" y="65.35" width="2.3" height="4.6"/><rect class="cls-6" x="156.38" y="98.7" width="2.3" height="4.6"/><rect class="cls-6" x="156.38" y="91.8" width="2.3" height="4.6"/><rect class="cls-6" x="156.38" y="104.45" width="2.3" height="4.6"/><path class="cls-6" d="M157.53,59.6h-2.3v2.3h1.15v1.15h2.3v-2.3A1.14,1.14,0,0,0,157.53,59.6Z"/><rect class="cls-6" x="128.78" y="59.6" width="4.6" height="2.3"/><rect class="cls-6" x="121.88" y="59.6" width="4.6" height="2.3"/><rect class="cls-6" x="109.24" y="59.6" width="4.6" height="2.3"/><rect class="cls-6" x="135.68" y="59.6" width="4.6" height="2.3"/><rect class="cls-6" x="148.33" y="59.6" width="4.6" height="2.3"/><rect class="cls-6" x="141.43" y="59.6" width="4.6" height="2.3"/><rect class="cls-6" x="114.98" y="59.6" width="4.6" height="2.3"/><rect class="cls-6" x="102.34" y="59.6" width="4.6" height="2.3"/><path class="cls-6" d="M97.74,59.6a1.14,1.14,0,0,0-1.15,1.15v2.3h2.3V61.9H100V59.6Z"/><rect class="cls-6" x="96.59" y="81.45" width="2.3" height="4.6"/><rect class="cls-6" x="96.59" y="65.35" width="2.3" height="4.6"/><rect class="cls-6" x="96.59" y="73.4" width="2.3" height="4.6"/><rect class="cls-6" x="96.59" y="88.35" width="2.3" height="6.01"/><path class="cls-6" d="M120.26,112.82a5.92,5.92,0,1,1-5.92-5.92A5.91,5.91,0,0,1,120.26,112.82Z"/><path class="cls-6" d="M141.24,83.91a6.71,6.71,0,0,0-4.82,5,.19.19,0,0,1-.37,0A6.67,6.67,0,0,0,131,84.16a.2.2,0,0,1,0-.38,6.7,6.7,0,0,0,4.82-5,.19.19,0,0,1,.37,0,6.71,6.71,0,0,0,5,4.82A.19.19,0,0,1,141.24,83.91Z"/><path class="cls-6" d="M134.52,90.65a3.74,3.74,0,0,0-2.7,2.83.11.11,0,0,1-.21,0,3.75,3.75,0,0,0-2.83-2.69.11.11,0,0,1,0-.21,3.76,3.76,0,0,0,2.7-2.83.11.11,0,0,1,.21,0,3.76,3.76,0,0,0,2.83,2.7A.11.11,0,0,1,134.52,90.65Z"/><circle class="cls-6" cx="105.08" cy="67.81" r="1.64"/><circle class="cls-6" cx="111.03" cy="67.81" r="1.64"/><circle class="cls-6" cx="116.98" cy="67.81" r="1.64"/><rect class="cls-7" x="151.34" y="97.35" width="54.06" height="47.8" rx="5.11"/><path class="cls-5" d="M156.12,97.91h44.51a4.78,4.78,0,0,1,4.78,4.78v2.88a0,0,0,0,1,0,0H151.34a0,0,0,0,1,0,0v-2.88A4.78,4.78,0,0,1,156.12,97.91Z"/><text class="cls-8" transform="translate(183.28 112.69) rotate(-0.53)">REC</text><circle class="cls-6" cx="156.9" cy="101.95" r="1.24"/><circle class="cls-6" cx="161.4" cy="101.95" r="1.24"/><circle class="cls-6" cx="165.8" cy="101.95" r="1.24"/><circle class="cls-6" cx="179.44" cy="110.48" r="1.44"/><rect class="cls-9" x="151.34" y="97.35" width="54.06" height="47.8" rx="5.11"/><circle class="cls-5" cx="182.37" cy="123.46" r="3.05"/><circle class="cls-6" cx="182.37" cy="123.46" r="1.45"/><circle class="cls-5" cx="175.11" cy="123.46" r="3.05"/><circle class="cls-6" cx="175.11" cy="123.46" r="1.45"/><path class="cls-6" d="M189.28,128.55a.67.67,0,0,0-.56-.15l-2.37.44v-1.5a.69.69,0,0,0-.69-.68h-.41a4.31,4.31,0,1,0-6.51-5.53,4.31,4.31,0,1,0-6.51,5.53h-.41a.69.69,0,0,0-.69.68v8.19a.69.69,0,0,0,.69.69h5.34l-2.67,2.66a.7.7,0,0,0,0,1,.68.68,0,0,0,1,0l3.28-3.27,3.28,3.27a.65.65,0,0,0,.48.2.67.67,0,0,0,.49-.2.7.7,0,0,0,0-1l-2.67-2.66h5.34a.69.69,0,0,0,.69-.69V134l2.37.44h.13a.69.69,0,0,0,.43-.16.67.67,0,0,0,.25-.52v-4.74A.67.67,0,0,0,189.28,128.55Zm-6.91-8a2.94,2.94,0,1,1-3,2.94A2.94,2.94,0,0,1,182.37,120.52Zm-3.63,5.26a4.49,4.49,0,0,0,.74.88H178A4.49,4.49,0,0,0,178.74,125.78Zm-6.57-2.32a2.94,2.94,0,1,1,2.94,2.94A2.94,2.94,0,0,1,172.17,123.46ZM185,134.85H172.5V128H185Zm3.18-1.87-1.81-.33v-2.42l1.81-.33Z"/><path class="cls-10" d="M161.35,122.13V117a1.43,1.43,0,0,1,1.43-1.43H169"/><path class="cls-10" d="M168.37,141.54h-5.59a1.43,1.43,0,0,1-1.43-1.43v-5.26"/><path class="cls-10" d="M196,122.13V117a1.43,1.43,0,0,0-1.43-1.43h-6.19"/><path class="cls-10" d="M189,141.54h5.59a1.43,1.43,0,0,0,1.43-1.43v-5.26"/></g></g></svg>