<svg xmlns="http://www.w3.org/2000/svg" viewBox="0 0 53.4 126.96"><defs><style>.cls-1{fill:#dd6c38;}.cls-2,.cls-4,.cls-5,.cls-6{fill:none;}.cls-3{fill:#fff;}.cls-4,.cls-5,.cls-6{stroke:#233560;stroke-miterlimit:10;}.cls-4,.cls-5{stroke-linecap:round;}.cls-5{stroke-width:0.8px;}.cls-7{fill:#3f4f74;}.cls-8{fill:#233560;}</style></defs><title>Asset 131</title><g id="Layer_2" data-name="Layer 2"><g id="Layer_1-2" data-name="Layer 1"><path class="cls-1" d="M10.72,66.44c2.9.39,11,1.53,12.36,2.52.72.52,2.78,5,4.94,10,0-.14-.19-4.69-.44-7.71a10.09,10.09,0,0,0-.37-2.62C26.8,68.24,14,60.73,14,60.73s-3.66,3.34-3.29,4.13A2,2,0,0,1,10.72,66.44Z"/><path class="cls-1" d="M1.25,111.5c2,9.57,2.48,13.28,7.35,13.92s26.2,2.7,28.24-1.74c1.61-3.48-1.8-16.25-1.8-16.25a45.46,45.46,0,0,0,6.41-.28,3.72,3.72,0,0,1,.16-2c.63-1.92.92-8.41.62-11.8-1.13,0-2.39.08-3.57.09,0,.16-.84,5.62-1.82,6.09s-3.89,2.86-4.9,0-.58-7.14-.58-8.34c0-.49.55-1.1,1.29-1.56-1.25-2.82-3-6.9-4.63-10.71h0c-2.16-5-4.22-9.47-4.94-10-1.35-1-9.46-2.13-12.36-2.52l-1-.13S5.8,68.91,5.55,69.9-1.78,96.66,1.25,111.5Z"/><path class="cls-2" d="M38.66,93.47a14.74,14.74,0,0,1-4.26-.26,20.24,20.24,0,0,1-1.75-3.55"/><path class="cls-2" d="M45.29,93.24l.46,0"/><path class="cls-2" d="M17.25,71.38s-2.95,2.48-3.46,4.08S15.89,93.15,24.38,104c2,2.59,6.72,3.32,10.66,3.43"/><path class="cls-1" d="M41.45,107.15a2.07,2.07,0,0,0,.5,1c2.94.28,3.7-.73,3.7-.73a10.47,10.47,0,0,0,.55-1.34c1.67-5-.2-11-.91-12.85-.61,0-1.74.09-3.06.14.3,3.39,0,9.88-.62,11.8A3.72,3.72,0,0,0,41.45,107.15Z"/><path class="cls-2" d="M42.22,93.26a.49.49,0,0,0,0,.12c1.32,0,2.45-.11,3.06-.14A4.53,4.53,0,0,0,45,92.7a6.73,6.73,0,0,0-2.43.06A.45.45,0,0,0,42.22,93.26Z"/><path class="cls-1" d="M27.58,71.24c.25,3,.44,7.57.44,7.71h0c1.66,3.81,3.38,7.89,4.63,10.71,1.07-.66,2.52-1,3.2-.17,1.17,1.4.88-.19,2.18,1.11a17.57,17.57,0,0,1,3.08.07s.22-2.39,1.6-2.79a22.94,22.94,0,0,1,4.64-.53C41.7,83.34,27.58,71.24,27.58,71.24Z"/><path class="cls-2" d="M49.12,88.48a14.61,14.61,0,0,1-1.76-1.13h0"/><path class="cls-3" d="M31.94,99.56c1,2.86,3.91.47,4.9,0s1.8-5.93,1.82-6.09h0A2.68,2.68,0,0,0,38,90.6c-1.3-1.3-1,.29-2.18-1.11-.68-.83-2.13-.49-3.2.17-.74.46-1.29,1.07-1.29,1.56C31.36,92.42,30.92,96.7,31.94,99.56Z"/><path class="cls-2" d="M42.53,90.9a23.42,23.42,0,0,1,8.81,4"/><path class="cls-2" d="M51.85,95.28c2.56,1.91-.22,8.82-1.67,9.69a12.3,12.3,0,0,1-4,1.12l-.31,0"/><path class="cls-2" d="M51.32,95a.17.17,0,0,0,0,0"/><path class="cls-1" d="M41.11,90.67c.43,0,.9.12,1.42.23a3.75,3.75,0,0,1,1.09-1.41c.85-.73,4.08-.24,5.5,0s3,3.43,2.22,5.43l.51.36c1-1.52,0-6.42-1.23-7.4a6,6,0,0,0-3.26-.53h0a22.94,22.94,0,0,0-4.64.53C41.33,88.28,41.11,90.67,41.11,90.67Z"/><path class="cls-2" d="M46.41,93.87a3.45,3.45,0,0,1,1.74.43"/><path class="cls-2" d="M34,85.57a4.21,4.21,0,0,0-.78,2.52"/><path class="cls-2" d="M37.1,85.57s-2.45,1-2.65,2.9"/><path class="cls-4" d="M39.06,52.59c-.44,2.09-1.86,5.81-3.05,6.1s-2-.47-5.64-3c-2.43-1.67-5.85-2.93-7.16-5a16.24,16.24,0,0,1-1.8-6.25"/><path class="cls-4" d="M34.88,10.47s5.21,15.08,6,15.88c2.25,2.16,6.63,8.4,6.61,11.12s-2.38,3.23-6.17,2.74c0,0,.53-.74.53,3.59"/><path class="cls-4" d="M16.1,61.76s1.16-7.65-6.17-27.22"/><path class="cls-5" d="M15.36,32.86s1.29,5.9,5.57,7.14c1.32.39,1.85-2.23.74-2.65"/><path class="cls-5" d="M18.44,33.42a1.55,1.55,0,0,0,1.06,2.46"/><path class="cls-4" d="M28,79s-.41-10-.81-10.33-13.16-7.9-13.16-7.9-3.67,3.35-3.31,4.14a2,2,0,0,1,0,1.58"/><path class="cls-4" d="M45.75,93.21s-10.49.6-11.35,0S24.75,70.17,23.08,69s-13.4-2.65-13.4-2.65S5.8,68.9,5.55,69.9s-7.33,26.76-4.3,41.6c2,9.57,2.48,13.28,7.35,13.92s26.19,2.7,28.25-1.74c1.6-3.48-1.81-16.25-1.81-16.25"/><path class="cls-4" d="M17.24,71.37s-2.94,2.49-3.45,4.1S15.89,93.15,24.38,104c3.83,4.88,17.07,3.15,17.07,3.15"/><path class="cls-6" d="M42.22,93.26a.45.45,0,0,1,.39-.5A6.73,6.73,0,0,1,45,92.7c.25.28,3.58,8.73.61,14.73,0,0-.76,1-3.7.73,0,0-1-1-.34-3S42.54,96.62,42.22,93.26Z"/><path class="cls-4" d="M28.21,71.75s17.54,15,20.91,16.72"/><path class="cls-4" d="M23.75,66.31s-.14-8.71,1.76-12.47"/><path class="cls-3" d="M38.66,93.47s-.82,5.61-1.81,6.09-3.9,2.86-4.91,0-.58-7.14-.58-8.34,3.33-3.14,4.49-1.73.88-.19,2.18,1.11A2.68,2.68,0,0,1,38.66,93.47Z"/><path class="cls-7" d="M38.4,93.36s.11,0,.11,0l-.13-.08S38.39,93.34,38.4,93.36Z"/><path class="cls-7" d="M38.73,93.17a.38.38,0,0,0-.3-.15c.13.08.07.08.22.17s-.07.06-.12,0-.05,0,0,.1.15-.09.08-.19S38.71,93.16,38.73,93.17Z"/><path class="cls-7" d="M36.56,89.87v0S36.56,89.88,36.56,89.87Z"/><path class="cls-7" d="M34,88.8s0,0,0,0Z"/><path class="cls-7" d="M33.44,88.8h0S33.44,88.78,33.44,88.8Z"/><path class="cls-7" d="M36.56,89.87l0-.07S36.54,89.85,36.56,89.87Z"/><path class="cls-7" d="M38.47,92.55s0,0,0,0v0Z"/><path class="cls-7" d="M37.84,90l0,0,0,0Z"/><path class="cls-7" d="M38.59,90.74s-.11.05-.16.07a.12.12,0,0,1,.1,0A.17.17,0,0,0,38.59,90.74Z"/><path class="cls-7" d="M39,92.33v0Z"/><path class="cls-7" d="M37,89.71a.05.05,0,0,0,0,0A.08.08,0,0,0,37,89.71Z"/><path class="cls-7" d="M37.92,94.46h0Z"/><polygon class="cls-7" points="38.7 93.47 38.7 93.49 38.77 93.5 38.7 93.47"/><path class="cls-7" d="M32.49,89.06Z"/><path class="cls-7" d="M30.9,97.08c.09-.1.15.14.26,0C31.11,97.08,31,97,30.9,97.08Z"/><path class="cls-7" d="M38.48,92.52v0Z"/><polygon class="cls-7" points="31.16 97.07 31.16 97.07 31.17 97.05 31.16 97.07"/><path class="cls-7" d="M30.89,90.84h0Z"/><path class="cls-7" d="M32.15,89.58h0Z"/><path class="cls-7" d="M31,91.76s0,0,0,0h0A0,0,0,0,1,31,91.76Z"/><polygon class="cls-7" points="30.96 92.57 30.98 92.56 30.98 92.53 30.96 92.57"/><path class="cls-7" d="M37.47,96.86h.12C37.5,96.84,37.5,96.72,37.47,96.86Z"/><path class="cls-7" d="M38.53,92.55s0,0-.05,0v0Z"/><path class="cls-7" d="M32,91.83l0,.13A.44.44,0,0,0,32,91.83Z"/><path class="cls-7" d="M34.06,100.38l0,0S34.06,100.36,34.06,100.38Z"/><path class="cls-7" d="M31.93,92.35a.22.22,0,0,0-.09.07h0Z"/><path class="cls-7" d="M37.59,96.85Z"/><path class="cls-7" d="M37.5,96c0,.11.14.09.22.13s-.13,0-.22.07.15.2.13.26,0,0-.07,0-.06.28.07.42h0a1.3,1.3,0,0,1,.22,0c0,.06.07.13,0,.12s0,0-.05-.07l0,.07c-.16,0,0-.09-.14-.12,0,.12.1.28,0,.35s0-.2-.15-.13l.09-.11c-.26,0,0-.07-.23,0-.09.16,0,.21-.06.36s.12,0,.18.08c.08.28-.41.08-.27.31.08.07.26.15.12.24l-.14-.1c-.07.15.2.17,0,.29,0-.05,0-.14,0-.12s.06.11,0,.19l-.14,0c0,.17,0,.39-.06.57,0,0-.06-.08-.12-.06a.51.51,0,0,1-.15.29l-.11.08s-.07,0,0,0l.06.11,0,.06v0h0l0-.11h0v0s-.07,0,0-.06,0,.07,0,.14-.1,0-.08-.08c-.13.19-.33.46-.55.43v0c-.15,0,0,.3-.17.27v0c-.28.11-.51.36-.79.29,0,.19-.28,0-.19.28-.2,0-.18-.11-.41-.12,0,0,0,.18-.09.23l0-.13-.05.16-.09-.14-.05,0a.11.11,0,0,1,.07.08c-.09.09-.26,0-.27-.1l-.2.13s0-.07.06-.11c-.1.15,0-.13-.12,0s0,.08,0,.11-.15-.08-.23-.07l0-.09a.4.4,0,0,0-.19,0L33,100.2s-.08.19-.13.17l.07-.12c-.08,0,0,.08-.11.12s.07-.16.12-.17l-.08,0s.05,0,.09-.07,0-.18-.12-.1l0,0c-.09-.13-.18-.15-.25-.28-.11,0-.11,0-.22,0a1.61,1.61,0,0,0,0-.42c-.09-.08-.11,0-.19,0,.1,0,0-.19.15-.13a2.13,2.13,0,0,0-.24-.43s0,.07-.09.06,0-.11.07-.12h0c-.24-.22.18-.67-.09-.84h0l-.16-.2c0-.11.09.05.15,0-.22-.21,0-.38-.17-.57.31-.19-.08-.54.11-.77l-.07,0c-.08,0,0-.07.05-.11s-.06.06-.11,0A4,4,0,0,1,32,94.72c0-.17-.4-.09-.22-.31l.15.06c-.18-.35,0-.72-.13-1.07,0,0,.08,0,.08.06s0-.27-.08-.28.08,0,.12,0-.12-.19,0-.22,0,0,0,0,0-.22-.1-.18c.06-.13,0-.25,0-.35-.13-.08.08-.23-.11-.26.2,0,.17-.22.08-.31.06,0,.06-.07.15,0s0-.19-.14-.18c.25-.15-.19-.4.13-.43-.12-.06-.06-.33,0-.51.14.12-.11.19.06.3,0-.18,0-.39.16-.51s0,.08,0,.12c.1-.2.31-.26.41-.45,0,0,0,0,0,.07s.08,0,0-.1l0,0c-.13-.07,0-.32-.05-.37.08.25.21-.06.29.27a.14.14,0,0,0,0-.12S33,90,33,90c.09-.11,0-.17.12-.23s0,.07,0,.12c0-.1,0-.21.15-.23s0,0,0,.07c.15-.1.19-.34.42-.34,0,.2.08,0,.15.19l.08-.08-.06-.06c.09,0,.14-.17.23-.13l0,.08.16-.07-.11,0c.08-.1,0-.19.09-.18,0,0,.09,0,.16.07h0c0-.06.08-.11.16-.08a1.62,1.62,0,0,1,0,.21c0-.14.21,0,.27-.18a.32.32,0,0,0,0,.13l0-.11s0,.06,0,.13,0-.21.12-.11l0,0c.13.06.3,0,.4.1s-.11,0-.12.13a1.85,1.85,0,0,0,.27,0,.49.49,0,0,1,.24.16v0c.19-.13,0,.2.18.22,0,0-.12.06-.09,0,.08.14.26.21.54.3l-.06,0a.63.63,0,0,0,.4.19c.05,0,.12,0,.07-.13a.35.35,0,0,0,.27.07c.06,0,.08,0,.14-.06s.22-.06.24.12c0,0-.07,0-.06,0a.77.77,0,0,1,.19,0c0-.09,0-.06,0-.15a.17.17,0,0,1,.18,0c-.12,0-.1.13-.11.19l.07-.07c0,.21.14-.14.18.05l0,0c.06,0,.15,0,.18.06s-.08,0-.15.06.28,0,.25.11c-.05,0-.09,0-.14,0,0,.16,0,.14,0,.2h0l0,.14v0c.31-.1.18.14.42.15-.24,0-.1,0-.22.1s0,.11-.07.12c.13,0,0,.12.16.13,0,0,0,.07-.08.1.06,0,.06,0,.11-.07s0,.33.17.45.26.15.35.31c-.06.06-.16,0-.16,0a.19.19,0,0,0,0,.23s-.07,0-.12,0,.16,0,.09.13a.61.61,0,0,1-.17-.07,1.76,1.76,0,0,1,.14.23c-.07,0-.1,0-.15-.08s0,.22.15.27l0,0s-.1,0-.12,0,0-.1.1-.1l0,.06c.25,0,0-.24,0-.34l.18,0-.15-.12c.05,0,.15,0,.17,0s-.06-.07,0-.15a0,0,0,0,1,0,0l-.06-.08s.12,0,.1,0c.09-.17-.16-.23,0-.31h0c-.1-.2-.13,0-.32-.11l.29-.2-.13,0a0,0,0,0,1,0-.07c-.11-.05-.05,0-.14,0,.08-.14-.17-.24,0-.35-.11,0,0,.12-.14,0,.19-.13-.1-.09-.05-.23s.11.08.15-.06c-.2,0-.07-.19-.16-.24s-.16-.11-.3-.18c.05,0-.11-.25-.17-.38h0c-.13.1-.21,0-.31,0a.2.2,0,0,1,.17-.09L37.86,90a.16.16,0,0,1-.15,0L37.8,90c-.13-.07-.3,0-.48-.16,0,.11,0,.33-.11.37s0-.16.06-.18-.06,0-.08,0l.08-.09c-.07-.06-.05.07-.11.06s0-.06,0-.13.06,0,.09,0a.54.54,0,0,1-.22-.13c0,.05,0,.12,0,.13s-.07-.09-.14-.11-.05,0-.05.13,0,0,0-.09-.15,0-.16.13h0c-.2.06-.23-.25-.39-.33l0,0c-.11,0-.17-.17-.31-.17s0-.12,0-.14-.13,0-.2-.17c.12,0,0-.08.11,0-.07-.13-.09-.18-.28-.16.1-.07,0-.18-.11-.17l.06.11-.19-.07.08-.13c-.28-.27-.55.19-.75-.11-.07.1.16.08.09.19s-.26-.21-.3-.21-.14.21-.32.19a.19.19,0,0,1,0,.25c-.12,0-.19-.18-.13-.23s0,0,0,0,.08-.06,0-.11v.06c-.07,0-.24,0-.22-.09-.07.07,0,.09.06.1-.17,0-.23.07-.4.07,0,0,.07.07.05.07-.24,0-.06.13-.19.2s0-.18-.16-.06-.08-.12-.06-.17c-.09.14-.27,0-.36.07l0-.07a.25.25,0,0,1-.1.08l.09.07s-.08,0-.1,0,.11.14.07.26-.12.13-.21,0c.18-.06-.09-.11,0-.21a.11.11,0,0,1-.1,0s0,0,0,0c-.22,0,0,.18-.15.28,0-.08-.12-.1-.13-.07s.1.08.07.17-.08.11-.13.14l.07,0c0,.08,0,.11-.07.17s0-.07,0-.08c0,.16-.25,0-.29.17-.08,0-.1-.11-.16-.1,0,.18-.2,0-.25.21.11,0,.09,0,.09.17,0-.08.08-.16.13-.24a1.7,1.7,0,0,0,0,.22c.05,0,.07-.15.11-.17s0,.09.08.13c-.19-.05-.08.2-.23.21l-.19-.17c-.22.07-.12.34-.3.53l.08,0c.07.07-.05.15-.05.25s-.13,0-.2,0-.05.24.12.29a1.54,1.54,0,0,0-.13.12c-.05.16.24.19.21.35-.09,0-.16,0-.22-.09,0,0,0,.1,0,.1s.11.16,0,.21.13,0,.12.09h0s.05.1.15,0c-.28.16,0,.47-.24.61a1.73,1.73,0,0,1,.05.38s0,0,0,0c-.09.15.24.1.15.27s-.08-.09-.13,0c-.28,0,0,.21-.14.32v0c-.1.09.1.22.08.37h0a.78.78,0,0,1,.22.43c-.11,0-.06-.06-.17,0s.18,0,.21.11-.11.13-.23.14v-.12c-.15.06,0,.16,0,.22h-.07c0,.18.2.18.19.38l0,0c.17.11-.09.09,0,.2l-.17,0a1.57,1.57,0,0,1,.21.37c-.13-.07-.2-.21-.28-.3,0,.07,0,.23.11.27s-.06-.07,0-.09a.38.38,0,0,1,.22.32c-.34,0-.07.36-.32.48.14.24,0,.49,0,.78.25-.13,0,.08.28,0,0,.06,0,.09,0,.1l-.14.22c-.07,0-.06-.06-.12-.05s-.11.08-.16.19c.09,0,.14,0,.12.12l.1-.14c.17.19-.2.21,0,.4l-.09,0c.06.1.07.39.3.46,0,0-.1.06-.12,0,0,.26.34.51.26.74h-.07s.14,0,.09.13-.07,0-.06,0,.14.09.13.17l-.09,0c0,.28.27.32.4.51-.18.07-.14.3-.12.41h0a.73.73,0,0,0,.31.36,3,3,0,0,0,.4.25c0,.3.51.52.83.68,0,0,0-.14.1-.15s.23-.1.2.07h0c0,.17.21.14.34.15v-.23c.35.31.74-.24,1,0,0-.08.13-.1.17-.18l0,.12a1.21,1.21,0,0,0,.48-.19v.1c.12,0,0-.39.09-.45l.11.15c.2-.1.47-.07.57-.32,0,0,0,.08,0,.1s.4-.09.24-.29c.09.14.2-.09.25-.21l0,.11c0-.18,0-.22.07-.32s.08.07,0,.06c.12,0,0-.13.15-.13v.08c.09,0,.06-.06.08-.18a.3.3,0,0,1,.34-.09c0-.06-.07-.17,0-.21s0,0,.05.07c.2-.13,0-.33.21-.39h.08a1.83,1.83,0,0,1-.15.24c.1.06.18-.06.26.12,0-.15-.1-.39,0-.48h0v0a.06.06,0,0,0,0-.08.27.27,0,0,0,.07-.08c.09,0,.1-.11.12-.17s-.06-.1-.19-.07c0,0,0,0,0,0v0h0l0,.15c0-.07-.07-.14,0-.17l-.16-.15c.2,0,.33-.14.44-.12,0-.2.09-.43-.1-.6,0-.06.08,0,.12,0s0,.07,0,.1c0-.12.06-.3-.09-.37.11-.1.13.11.15-.07l0,0c.34-.27-.25-.64.15-.94a.09.09,0,0,1-.06,0c.24-.39,0-.9.36-1.27.07-.11,0-.14-.09-.23h.13l-.12-.16c-.08-.19.37-.24.21-.51l-.1,0c0-.08,0-.27.09-.23s-.08-.05,0-.07h.07l-.09-.22c.08-.14.27.07.32-.15s-.16-.27-.21-.25a.12.12,0,0,1-.13.07l0-.08c-.2,0-.4-.13-.56,0l.1.15-.1,0v-.1c-.1,0,0,.09,0,.15a.21.21,0,0,0-.12,0l.17.16c-.08,0-.14-.08-.2,0s.19,0,.23.08-.18,0-.11.11a.1.1,0,0,1-.1-.06c.05.08,0,.18.1.23-.13,0,0,.22-.2.18,0,0,.13.14.12.2-.2-.15-.05.22-.29.14.19.12,0,.31.12.47,0,0,0,0,0,0s-.1.08-.14.13c.16,0,.17.17.26.26-.18.06-.18-.1-.34-.1.14,0,.1.19.22.18-.12.06-.06.06-.21.06.21.06,0,.08.14.17-.13.08-.21,0-.17.11S37.5,96,37.5,96Zm-.44,2.76h0v0Zm-.1.2a.56.56,0,0,0,0-.08s.07,0,.06.06S37,98.92,37,98.93Zm1-.11c0,.05,0,.05,0,.05s0-.05,0-.08h0Z"/><path class="cls-7" d="M37.82,98.69v0l0,0,0,0Z"/><path class="cls-7" d="M36.57,89.9Z"/><polygon class="cls-7" points="34.26 100.27 34.27 100.29 34.28 100.26 34.26 100.27"/><path class="cls-7" d="M37.6,90.53s0,0,0,0Z"/><path class="cls-7" d="M38,90.93V91S38,91,38,90.93Z"/><path class="cls-7" d="M38.16,91.28l.05,0h0Z"/><path class="cls-7" d="M32.66,90.23h0S32.65,90.26,32.66,90.23Z"/><path class="cls-7" d="M34.32,89.21l0,.07S34.33,89.28,34.32,89.21Z"/><polygon class="cls-7" points="31.96 91.82 31.95 91.82 31.95 91.83 31.96 91.82"/><path class="cls-7" d="M34.18,89.3a.1.1,0,0,0,.09,0S34.2,89.27,34.18,89.3Z"/><path class="cls-7" d="M38.42,92.89h0Z"/><path class="cls-7" d="M38.44,92.91v0S38.45,92.91,38.44,92.91Z"/><path class="cls-7" d="M38.47,93l0,0S38.44,93,38.47,93Z"/><path class="cls-7" d="M38.51,92.38h0Z"/><path class="cls-7" d="M38.48,92.22s-.08.1,0,.15h0C38.4,92.36,38.56,92.25,38.48,92.22Z"/><path class="cls-7" d="M38.82,91.39l0,.16s.08-.1.11,0C39,91.27,38.88,91.59,38.82,91.39Z"/><path class="cls-7" d="M38.64,90.91c.07.06.06,0,.08,0S38.63,90.83,38.64,90.91Z"/><path class="cls-7" d="M35.93,89.18l.09-.07C36,89.06,36,89.14,35.93,89.18Z"/><polygon class="cls-7" points="35.11 89.36 35.13 89.44 35.19 89.34 35.11 89.36"/><polygon class="cls-7" points="34.86 88.51 34.89 88.5 34.76 88.53 34.86 88.51"/><path class="cls-7" d="M30.86,92.42H31S30.82,92.35,30.86,92.42Z"/><path class="cls-7" d="M31,94.87c-.07,0-.11.1,0,.14S31,94.9,31,94.87Z"/><polygon class="cls-7" points="33.85 101.47 33.79 101.52 33.9 101.47 33.85 101.47"/><path class="cls-4" d="M45.89,106.13A13.29,13.29,0,0,0,50.18,105c1.45-.87,4.24-7.78,1.67-9.69-7.34-5.45-13.19-4.68-13.19-4.68"/><path class="cls-4" d="M51.32,95c.86-2-.79-5.24-2.2-5.48s-4.65-.73-5.5,0a3.75,3.75,0,0,0-1.09,1.41"/><path class="cls-4" d="M41.11,90.67s.22-2.39,1.6-2.79,6.71-1,7.91,0,2.21,5.88,1.23,7.4"/><path class="cls-5" d="M46.41,93.87a3.45,3.45,0,0,1,1.74.43"/><path class="cls-5" d="M34,85.57a4.21,4.21,0,0,0-.78,2.52"/><path class="cls-5" d="M37.1,85.57s-2.45,1-2.65,2.9"/><path class="cls-7" d="M29.86,48.89l0,0h0Z"/><path class="cls-7" d="M29.93,48.82l-.1,0h.05s0,0,0,0,0,0,0,0Z"/><path class="cls-7" d="M29.86,48.34h0Z"/><path class="cls-7" d="M29.84,48.05h0Z"/><path class="cls-7" d="M29.88,48h0Z"/><path class="cls-7" d="M29.86,48.34h0A0,0,0,0,0,29.86,48.34Z"/><path class="cls-7" d="M29.8,48.8h0Z"/><polygon class="cls-7" points="29.93 48.46 29.93 48.46 29.95 48.46 29.93 48.46"/><path class="cls-7" d="M30,48.55h0Z"/><path class="cls-7" d="M30,48.72Z"/><path class="cls-7" d="M29.92,48.39h0Z"/><path class="cls-7" d="M29.73,45.56h0Z"/><polygon class="cls-7" points="29.96 45.5 29.96 45.5 29.98 45.51 29.96 45.5"/><path class="cls-7" d="M29.92,47.9Z"/><path class="cls-7" d="M29.88,47.07s-.05,0-.09,0S29.85,47.08,29.88,47.07Z"/><path class="cls-7" d="M29.8,48.79Z"/><polygon class="cls-7" points="29.79 47.06 29.79 47.06 29.79 47.06 29.79 47.06"/><path class="cls-7" d="M29.88,47.69h0Z"/><path class="cls-7" d="M29.84,47.85Z"/><path class="cls-7" d="M29.82,47.62s0,0,0,0h0S29.83,47.61,29.82,47.62Z"/><polygon class="cls-7" points="29.82 47.53 29.81 47.53 29.81 47.53 29.82 47.53"/><path class="cls-7" d="M29.69,45.83h0S29.69,45.81,29.69,45.83Z"/><path class="cls-7" d="M29.82,48.79h0Z"/><path class="cls-7" d="M29.5,47.63v0S29.5,47.62,29.5,47.63Z"/><path class="cls-7" d="M29.59,46.46h0Z"/><path class="cls-7" d="M29.5,47.57h0Z"/><path class="cls-7" d="M29.73,45.83Z"/><path class="cls-7" d="M29.66,45.72s0,0,.07,0,0,0-.06,0l0,0h0s0,0,0,.06h0l.07,0s0,0,0,0h0l-.05,0s.05,0,0,0,0,0-.05,0h0c-.08,0,0,0-.08,0s0,0,0,0l.07,0s-.13,0-.06,0,.09,0,0,0l0,0s.08,0,0,0l0,0s0,0,0,0h-.05s0,.05,0,.07h0s0,.06-.05.08l0,0h0s.06.06,0,.07h0s.09,0,.05,0h0s0,.07-.06.09,0,0,.05,0-.05,0-.09,0l.06,0h0l0,0h0s0,0-.05,0l0,0h0s-.05,0,0,0h0s0,0,0,0h0s0,.05,0,.07.07,0,.07,0h-.05s0,0,.06,0h-.1s0,0,0,0h0s0,0,0,.06,0,0,.07,0l-.05,0s0,0,.06,0,0,0-.06,0,0,0,0,.06h0c.05,0-.12.06,0,.09h0l0,0s0,0,0,0,0,.05,0,.07,0,.06-.06.08h0s0,0,0,0h0c0,.06,0,.11-.06.16s.13,0,.07,0h-.05c.06,0,0,.08,0,.12h0s0,0,0,0h0s0,0,0,0h0s0,0,0,0,0,0,0,0,0,0,0,0-.05,0,0,0H29.5s0,0,.05,0,.06,0,0,0a.32.32,0,0,1,.08.09c-.07,0,0,0-.08,0s.09,0,.08.07h0s0,0,0,.07h0s0,0,0,0h0s.09,0,.11,0,0,0-.12,0h0s0,0,0,0h0s.06,0,0,0h0s.08,0,.06.05,0,0-.08,0h.05s0,0,0,0h0s.07,0,.06,0,0,0,0,0h0s0,0,0,0h-.07c.05,0,0,0,.07,0h-.05s.07,0,0,0h0s0,0,0,0h-.06s.07,0,.06.06h0c.08,0,0,0,0,0h0s0,0,.05,0h0s0,0,0,0h.05c-.1.05.07,0,0,.09h0l0,0,.05,0h0l-.07,0h0c-.06,0,.06,0,0,0h0s.08,0,0,0h0l0,0h0v0h0c.1,0,0,0,.09,0s0,0-.08,0l0,0s0,0,0,0h0s0,0,0,0-.05,0,0,0h.06s0,0,0,0h0s.05,0,0,0h0s0,0-.05,0h0s0,0,0,0h0c.07,0,0,0,0,0h0l.06,0s0,0,0,0h0s-.05,0,0,0h0s0,0-.09,0l.1,0h-.07s0,0,0,0l0,0c.07,0,0,0,0,0h.05c-.06,0,0,0,0,0s0,0,0,0,0,0,0,0h0c-.05,0,0,0-.05,0h.06s-.05,0,0,0-.1,0-.13,0h.09s0,0,0,0h0l0,0h0s0,0,.05,0h0s0,0-.05,0h0c-.05,0,0-.05,0-.06h0l-.05,0h0s0,0,0,0h0s0,0,0,0l0,0h0v0h.05c.05,0-.11,0,0-.07s0,0-.06,0l.07,0s-.07,0-.06,0h-.08a.13.13,0,0,1,.09,0h0s0,0,0,0h0s0,0,0,0,0,0,0,0,0,0,0,0h0s0,0,0,0,.06,0,0,0,0,0,.06,0,0,0,0,0h-.1s0,0,0,0,0,0,.05,0h0s-.05,0-.05,0h0s0,0,0,0h0c-.05,0,0,0,0,0h.06s0,0,0,0h-.06l0,0h-.08s0,0,0,0h.09s-.05,0,0-.05h0s0,0,0,0h.05s0,0-.05,0h0s-.09,0-.08,0h.06s0,0,0,0h-.08c.09,0,0-.05.07-.07a.05.05,0,0,1,0,0h0s-.08,0-.06,0h.05c.09,0,0,0,0,0h0s0,0,0,0h0a.19.19,0,0,1-.08,0h.06s-.06,0-.07,0h.08c.05,0,0,0,0,0h0s-.06,0-.06,0h0c-.05,0,0,0,0,0h.06l-.07,0,.09,0s0,0,0,0,0,0,0,0l-.06,0c.11,0,0,0,.11-.05s0,0,0-.08,0,0-.09,0,0,0,0,0h.08c-.05,0,.07,0,0,0h0s0,0-.07-.06h0s-.07-.06,0-.07h0s0,0,0,0h0s0,0,0,0h0s-.06,0-.07-.07.09,0,.1,0h0s-.05,0-.07-.08,0,0,.07-.08,0,0-.05,0,0,0,0,0h0c.06,0,.05,0,.05,0h-.07c.11,0,0-.08.06-.08l0,0h0s0,0,0-.05h0s-.11,0-.12,0h.07s0,0,0-.06h0s.05,0,0,0,0,0,0,0h0l-.07,0h0s0,0,0,0h0s0,0,0,0,0,0,.05,0l0,0h0s0,0,0,0h0v0l.1,0s-.09,0-.07,0h0s0,0,0,0,0,0-.07,0h0v0s0,0,0,0l-.07,0H30s0,0-.08-.07h0s0,0-.06,0,.05,0,.05,0h0c.09,0-.12-.08,0-.1h0c.05,0,0-.1.06-.13s0,0,0,0h0l0,0s.11,0,0,0h0s0,0,0,0h0l0,0s.09,0,.1,0l-.07,0a0,0,0,0,1,0,0h0a.45.45,0,0,0-.18,0l0,0h0s0,0,0,0h0l.06,0-.07,0s.06,0,.08,0h-.07s0,0,0,0,0,0-.06,0l.05,0c-.07,0,0,0-.09,0s0,0,.05.06H29.7l.1,0c-.06,0-.07,0-.12,0s0,0,.08,0H29.7c.06,0,0,0,.05,0s-.07,0-.05,0Zm.06.33h0Zm0,0h0Zm.29,0h0Z"/><polygon class="cls-7" points="29.95 46.06 29.95 46.06 29.93 46.06 29.95 46.06 29.95 46.06"/><polygon class="cls-7" points="29.86 48.35 29.86 48.35 29.85 48.35 29.86 48.35"/><polygon class="cls-7" points="29.58 46.43 29.59 46.43 29.58 46.42 29.58 46.43"/><path class="cls-7" d="M29.75,48.52Z"/><path class="cls-7" d="M29.76,48.58h0Z"/><path class="cls-7" d="M29.76,48.63h0Z"/><path class="cls-7" d="M29.57,47.88h0Z"/><path class="cls-7" d="M29.69,48.1h0S29.66,48.1,29.69,48.1Z"/><polygon class="cls-7" points="29.5 47.63 29.5 47.63 29.5 47.63 29.5 47.63"/><path class="cls-7" d="M29.67,48.08s0,0,0,0Z"/><polygon class="cls-7" points="29.81 48.84 29.81 48.84 29.82 48.84 29.81 48.84"/><path class="cls-7" d="M29.82,48.84Z"/><path class="cls-7" d="M29.83,48.84h0Z"/><path class="cls-7" d="M29.81,48.77h0Z"/><path class="cls-7" d="M29.79,48.76s0,0,0,0h0S29.82,48.75,29.79,48.76Z"/><path class="cls-7" d="M29.94,48.62v0s0,0,0,0S29.94,48.64,29.94,48.62Z"/><path class="cls-7" d="M30,48.57s0,0,0,0Z"/><path class="cls-7" d="M29.87,48.23h0Z"/><polygon class="cls-7" points="29.67 48.2 29.64 48.21 29.68 48.21 29.67 48.2"/><polygon class="cls-7" points="29.92 48.12 29.93 48.12 29.91 48.11 29.92 48.12"/><path class="cls-7" d="M29.85,47.54h0S29.87,47.55,29.85,47.54Z"/><path class="cls-7" d="M29.81,47.29s0,0,0,0Z"/><polygon class="cls-7" points="29.93 46.54 29.95 46.55 29.94 46.54 29.93 46.54"/><path class="cls-8" d="M34.32,19.17l1.23,2.12s-4.23,2.1-5,3.08-3.19,4.14-3.19,4.14.49-3.69,1.22-4.55S34.32,19.17,34.32,19.17Z"/><path class="cls-7" d="M34.38,19.25s0,0,0,0v.05Z"/><path class="cls-7" d="M34.13,19.33c0,.05,0,.11,0,.13s0-.06,0-.13.06,0,.07,0,0,0,0-.06a.15.15,0,0,0-.14.1S34.13,19.34,34.13,19.33Z"/><path class="cls-7" d="M31.22,21.56h0Z"/><path class="cls-7" d="M29.47,23a0,0,0,0,0,0,0S29.46,23,29.47,23Z"/><path class="cls-7" d="M29.14,23.21h0S29.14,23.2,29.14,23.21Z"/><path class="cls-7" d="M31.22,21.56l0,0S31.2,21.57,31.22,21.56Z"/><path class="cls-7" d="M33.81,19.73s0,0,0,0l0,0Z"/><polygon class="cls-7" points="31.98 20.9 31.99 20.89 31.99 20.86 31.98 20.9"/><path class="cls-7" d="M32.57,20.41s0,.05,0,.07a.08.08,0,0,1,0-.05Z"/><path class="cls-7" d="M33.57,19.71v0Z"/><path class="cls-7" d="M31.54,21.24h0Z"/><path class="cls-7" d="M34.6,20h0Z"/><polygon class="cls-7" points="34.33 19.16 34.34 19.17 34.36 19.16 34.33 19.16"/><path class="cls-7" d="M28.58,23.66h0S28.58,23.65,28.58,23.66Z"/><path class="cls-7" d="M28.43,27.39c-.08,0,0-.13-.07-.06S28.35,27.44,28.43,27.39Z"/><path class="cls-7" d="M33.79,19.74l0,0Z"/><polygon class="cls-7" points="28.36 27.33 28.36 27.32 28.35 27.33 28.36 27.33"/><path class="cls-7" d="M27.84,25.2h0Z"/><path class="cls-7" d="M28.36,24.06l0,0Z"/><path class="cls-7" d="M27.73,25.83s0,0,0,0h0A.08.08,0,0,1,27.73,25.83Z"/><polygon class="cls-7" points="27.58 26.48 27.59 26.47 27.59 26.45 27.58 26.48"/><path class="cls-7" d="M35.08,21.33l0,0S35.18,21.28,35.08,21.33Z"/><path class="cls-7" d="M33.79,19.72v0h0S33.8,19.72,33.79,19.72Z"/><path class="cls-7" d="M28,25.93l0,.1A.15.15,0,0,0,28,25.93Z"/><path class="cls-7" d="M31,23.74l0,0Z"/><path class="cls-7" d="M27.94,26.33l0,.05v0Z"/><path class="cls-7" d="M35.12,21.35Z"/><path class="cls-7" d="M35.21,21.16c0,.05.06,0,.09,0s0,0-.06,0l.07,0s0,0,0,0h0s0,0,0,0a.38.38,0,0,0-.12.1h0a.13.13,0,0,1,.05.06s-.06.07-.09.05a.06.06,0,0,0,0-.05l0,0c-.06,0,0-.05,0-.08a.77.77,0,0,1-.22.16s.14-.09,0-.08l.1,0c-.11,0,.06,0,0-.06s-.13.1-.27.15,0,0,0,.07-.2,0-.3.09,0,.11-.11.13v-.07c-.12.06,0,.11-.17.15s.08-.07.06-.07,0,.06-.11.1l0,0-.39.27s0,0,0,0a2.32,2.32,0,0,1-.57.28l0,.08s0,0,0,0,0,0,0,.06-.07,0,0,0a1.23,1.23,0,0,1-.44.3l0,0c-.11,0-.07.14-.18.16l0,0a3.44,3.44,0,0,1-.62.33c0,.08-.22.11-.18.19a1.3,1.3,0,0,0-.3.1s0,.09-.08.13l0,0,0,.09-.07,0,0,0s0,0,.06,0a.38.38,0,0,1-.23.1l-.15.18s0-.05,0-.08-.05,0-.11.09,0,0,0,0a.58.58,0,0,0-.22.2v0a5.34,5.34,0,0,0-.32.43c.05,0,.08,0,.06.05h-.06s.05,0,0,0-.07,0-.06,0l0,.08s0,0,0,0-.12.09-.11.16h0c-.11.15-.15.22-.24.35s0,.06,0,.12a3.45,3.45,0,0,0-.25.27c0,.08,0,0,0,.09s-.11.09-.09,0a2.89,2.89,0,0,0-.22.34s.05,0,.05,0-.07.05-.08,0h0c-.1.21-.41.35-.46.54h0l-.08.17c-.06.07,0-.06-.05,0-.07.2-.2.25-.27.41s-.27.36-.44.46h0c0,.05,0,0,0,0s0,0,0,0-.07.1-.08.09,0-.11,0-.14-.18.26-.09.09l.06-.05s0,0,0-.09a3.15,3.15,0,0,0,.05-.43s0,0,0,.05,0-.22,0-.22,0,0,0,0,0-.16,0-.18v0s0-.18,0-.15,0-.2.06-.28.06-.17,0-.2.1-.17.08-.24,0-.05.06,0,0-.14,0-.14,0-.29.13-.33a5.43,5.43,0,0,1,.12-.63c.06,0-.07.21,0,.23a1.47,1.47,0,0,1,.11-.48s0,0,0,.05a4.15,4.15,0,0,1,.2-.47s0,0,0,0,0-.05,0-.07v0c-.06,0,0-.16,0-.18s.13-.1.15,0,0,0,0-.05,0,0,0,0,0-.09.1-.17,0,0,0,.05a.3.3,0,0,1,.12-.17s0,0,0,0,.15-.24.3-.33c0,.08.06,0,.1,0l.06-.08h0c.06-.06.09-.13.15-.17l0,.06.11-.11-.08,0c.05-.07,0,0,0-.1s.07-.06.12-.06h0a.21.21,0,0,1,.1-.11s0,.05,0,.05.14-.13.15-.2a0,0,0,0,0,0,0v-.05s0,0,0,0-.07,0,.06-.1l0,0c.12-.07.19-.19.3-.25s-.08.08,0,.09a3,3,0,0,1,.39-.4l0,0c0-.08.13-.06.17-.14s0,.05,0,0a2.26,2.26,0,0,0,.3-.31v0c.06,0,.15-.11.21-.15s0,0,0-.06c.26-.06.32-.33.54-.39,0,0,0,.05,0,0l.13-.13s0,0-.08,0a.34.34,0,0,1,.07-.11c-.05.07,0,0,.07,0s0,0,0,0,0-.06.09-.11v0a.48.48,0,0,1,.09-.11s0,0,0,.07.07-.15.14-.16l-.07.09a.18.18,0,0,0,.13-.06h0l.11-.06h0c0-.14.14-.13.19-.26,0,.12,0,0,0,.08s.08,0,.07,0,.1,0,.13-.13,0,0,.06,0,0,0,0,0,.25-.12.34-.28.09-.16.18-.26,0,.06,0,.06a.3.3,0,0,0,.15-.12s0,0,0,0,0-.07.07-.09a.17.17,0,0,1,0,.07,1,1,0,0,0,.12-.16s0,.06,0,.08.14-.13.13-.18l-.05,0s0,0,0,0a.06.06,0,0,1-.09,0l0,0c-.09,0-.14.13-.22.18v-.07l0,.1s-.06,0,0-.05,0,.05-.1.06,0,0,0,0l0,.06s0,0,0-.05c-.12.05-.12.16-.19.15h0c-.12.12,0,.05-.05.16l-.14,0,0,.05h0c0,.06,0,0,0,.05s-.17.16-.23.11.08,0,0,.05-.07.07-.15.09.06-.07,0-.05-.12.08-.16.13-.1.1-.17.19-.18.1-.27.15h0s-.07.11-.12.16,0,0,0-.08l-.06.05s0,0,0,.08l0,0c-.07.06-.11.16-.22.21s.14,0,.05.12,0,0,0-.06,0,0,0,0l0-.05s0,0,0,.06,0,0-.05,0,0,0,0,0a.27.27,0,0,1-.13,0s0,0,0,.05,0,0-.1,0-.06.05,0,.09,0,0-.06,0-.17.15-.1.15h0c-.1.13-.27.19-.39.3h0a.9.9,0,0,0-.19.21s-.07,0-.07,0a.43.43,0,0,1-.14.12c0-.07,0,0,0-.06-.08.05-.11,0-.16.14,0-.05-.08,0-.11.05l.07,0a.44.44,0,0,1-.11.09v-.05c-.19.08-.2.3-.38.32,0,.06.1-.05.09,0a.71.71,0,0,1-.21.07c-.11.06,0,.13-.15.2s.07,0,0,.1-.12,0-.09,0h0s0,0,0,0v0s-.13.1-.13.06,0,0,0,0a1.81,1.81,0,0,0-.23.18s0,0,0,0,0,.07-.12.16,0-.07-.09,0-.05,0,0-.06a.53.53,0,0,1-.21.16l0-.05-.06.07h0s0,0-.05,0,.05,0,0,.09-.09.11-.13.09,0,0,0-.11l-.07.06v0c-.13.08,0,.09-.11.19s-.06,0-.07,0,.05,0,0,.06,0,.09-.07.13l0,0s0,.06,0,.13,0-.06,0,0-.12.12-.13.22,0,0-.08,0-.08.1-.09.21,0,0,0,.06l0-.18v.13a1.55,1.55,0,0,1,0-.15c0,.07,0,.06,0,.05s0,.15-.09.22l-.08,0c-.08.12,0,.24-.11.4L28,25s0,.11,0,.16-.05,0-.07,0,0,.12,0,.15l-.05.06c-.06.14,0,.18,0,.3,0,0,0,0,0-.08s0,.08,0,.09,0,.13,0,.16,0,0,0,.08h0s0,.08,0,0c-.12.11-.08.38-.18.48l0,.3s0,0,0,0,.06.09,0,.22,0-.08,0,0,0,.16-.09.25v0c-.05.07,0,.18,0,.29h0a1.13,1.13,0,0,1,0,.38s0-.05-.06,0,.07-.05.06.06a2.29,2.29,0,0,1-.11.23l0-.13c-.08.12,0,.17-.05.25l0,0c0,.21.06.08,0,.29l0-.07c.06-.06-.06.19,0,.16l-.09.22s.22-.36.29-.46a3.56,3.56,0,0,1-.3.53,2.66,2.66,0,0,0,.23-.35s-.06.12-.07.11a3.4,3.4,0,0,1,.26-.44c-.06.26.22-.23.33-.23a1.6,1.6,0,0,1,.21-.3,1.64,1.64,0,0,0,.21-.24c-.11,0,0-.05,0-.09s0-.06.05-.06l.14-.1c.05,0,0,.05,0,.06s0,0,.12-.06,0-.06,0-.1l-.09,0c.06-.15.14-.06.21-.22V27c0-.08.19-.24.18-.35s.05,0,0,0c.13-.15.21-.39.34-.49v0s0-.08.05-.1,0,0,0,0a.45.45,0,0,1,.07-.14V26c.14-.13.13-.27.22-.41.05,0,.16-.07.21-.12h0a4.63,4.63,0,0,0,.3-.52c.14-.06.29-.34.45-.48,0,0,0,0,0-.07s.05-.12.09-.07h0c.06,0,.1-.06.17-.11l0-.07c.21,0,.38-.36.53-.34s.08-.08.11-.13l0,0a2.29,2.29,0,0,0,.31-.2v0c.08-.05,0-.16.11-.21l.06,0a1.64,1.64,0,0,0,.42-.26s0,0,0,0,.28-.12.21-.18.15-.08.22-.15v0a.36.36,0,0,1,.12-.16s0,0,0,0,0-.07.13-.1l0,0c.08,0,.07,0,.09-.1a.22.22,0,0,1,.18-.05.13.13,0,0,1,.08-.09s0,0,0,0,.17-.15.27-.16h0l-.18.09s.1,0,.06.08.14-.18.23-.21h0s0,0,0,0l.08,0s.1,0,.14-.06,0-.06,0-.06l0,0s0,0,0,0h0l-.1.06a.11.11,0,0,1,.1-.07l0-.09c.08,0,.2,0,.24,0s.28-.17.33-.28.05,0,.07,0,0,0,0,0,.21-.12.2-.18,0,.07.09,0v0a.54.54,0,0,0,.31-.18.84.84,0,0,1,.43-.22h-.07l.07,0a3,3,0,0,0-.16-.3c0-.07-.09-.14-.14-.21a1.88,1.88,0,0,1-.22-.45c0-.09-.07-.08-.13-.12l0,0L35,20.14c-.11-.11,0-.27-.19-.4v0c0-.06-.12-.17-.09-.18a0,0,0,0,1,0,0l0,0-.12-.12c-.05-.11.09,0,0-.19s-.15-.13-.15-.1,0,.07,0,.08l0,0c-.06,0-.15,0-.11.18l.09.07v0l-.05-.07c0,.06,0,.07.07.09a.13.13,0,0,0,0,.06l.11.06s-.07,0,0,0,0-.07.09,0,0,.06,0,.1,0,0,0,0,.07.12.12.12.1.15,0,.18a.48.48,0,0,1,.12.1c-.11,0,.08.16,0,.18.09,0,.15.19.24.27s0,0,0,0a.39.39,0,0,1,0,.13c.05,0,.12.06.17.09s-.08,0-.11,0,.11.1.13.06,0,.05,0,.1,0,0,.1.07,0,.06,0,.12A0,0,0,0,1,35.21,21.16Zm-1.53,1h0l0,0Zm-.17.1.08,0s0,0,0,0Zm.5.05s0,0,0,0l0,0h0Z"/><polygon class="cls-7" points="34.03 22.21 34.04 22.21 34.02 22.21 34.02 22.22 34.03 22.21"/><polygon class="cls-7" points="31.25 21.55 31.25 21.55 31.26 21.55 31.25 21.55"/><polygon class="cls-7" points="31.16 23.59 31.16 23.6 31.17 23.58 31.16 23.59"/><path class="cls-7" d="M32.17,21h0Z"/><path class="cls-7" d="M32.54,20.69l.06,0Z"/><path class="cls-7" d="M32.83,20.49v0h0Z"/><path class="cls-7" d="M28.6,24.19h0S28.59,24.21,28.6,24.19Z"/><path class="cls-7" d="M29.72,23l0,.05S29.74,23,29.72,23Z"/><polygon class="cls-7" points="28.04 25.92 28.04 25.92 28.03 25.93 28.04 25.92"/><path class="cls-7" d="M29.63,23.08a.1.1,0,0,0,.06,0Z"/><polygon class="cls-7" points="34.06 19.54 34.07 19.53 34.07 19.52 34.06 19.54"/><path class="cls-7" d="M34.07,19.52h0Z"/><path class="cls-7" d="M34.11,19.48l0,0Z"/><path class="cls-7" d="M33.68,19.82h0Z"/><path class="cls-7" d="M33.57,19.91s.08,0,.11-.06v0S33.57,19.87,33.57,19.91Z"/><path class="cls-7" d="M33,20.14l.1-.07s-.06,0,0,0C32.91,20.1,33.11,20.05,33,20.14Z"/><path class="cls-7" d="M32.68,20.36c0-.05,0,0,0,0S32.63,20.37,32.68,20.36Z"/><path class="cls-7" d="M30.58,22.06l0,0S30.57,22,30.58,22.06Z"/><polygon class="cls-7" points="30.3 22.53 30.36 22.52 30.35 22.48 30.3 22.53"/><polygon class="cls-7" points="29.9 22.53 29.91 22.51 29.86 22.57 29.9 22.53"/><path class="cls-7" d="M27.57,26.35h.05S27.57,26.3,27.57,26.35Z"/><path class="cls-7" d="M27.23,28.6c0,.09-.07.22,0,.2S27.23,28.61,27.23,28.6Z"/><polygon class="cls-7" points="30.98 24.2 30.96 24.23 31 24.18 30.98 24.2"/><path class="cls-4" d="M41.9,43.8s-2.72,2.36-5.59,1.55-6.06,2-6.06,2a15.54,15.54,0,0,1,4.8,3.42,5.57,5.57,0,0,0,4,1.82"/><path class="cls-4" d="M41.26,44a7.69,7.69,0,0,1,0,2,2.73,2.73,0,0,1-1.17.75c-.52.06-6.82-.2-8.47,1.06"/><path class="cls-4" d="M30.37,29.86s2.39-3.63,6.16-4.55"/><path class="cls-8" d="M36.6,15.41s3.59-6.1,2.09-10.18c0,0-3.34-.7-3.75-1.36s-3.52-4-3.8-3.72S8,12.41,8,12.41L4.67,22.28l8.57,20,3.63-.79s-3.58-12.66.24-12.88,4.18,6.08,4.18,6.08,2.5-1.63,2.44-1.89-2.6-9.41-2.6-9.41l1.75-4.25,12-8.66Z"/><path class="cls-7" d="M36.51,15.44c0,.07.05,0,0-.18l-.09-.12Z"/><path class="cls-7" d="M36.14,14.1c-.1-.22-.23-.47-.22-.3s.12.27.26.49.1.35.07.32.1.31.16.4a4.26,4.26,0,0,0-.31-.91C36.09,14,36.12,14.09,36.14,14.1Z"/><path class="cls-7" d="M22.27,20.44l.05-.12Z"/><path class="cls-7" d="M23.52,32.36c0-.09-.05-.12-.05-.13S23.52,32.38,23.52,32.36Z"/><path class="cls-7" d="M22.4,33.75l.1-.07Z"/><path class="cls-7" d="M22.27,20.44l-.14.3A2.33,2.33,0,0,0,22.27,20.44Z"/><path class="cls-7" d="M35.12,11.53l.07.16-.06-.16Z"/><path class="cls-7" d="M26.1,16.68l.08-.06.05-.07Z"/><path class="cls-7" d="M29.51,14.21a.23.23,0,0,0-.1.14.51.51,0,0,1,.15-.14S29.54,14.2,29.51,14.21Z"/><path class="cls-7" d="M35,10.55l0,.13Z"/><path class="cls-7" d="M23.65,18.43h0Z"/><path class="cls-7" d="M38.69,11h0S38.68,11,38.69,11Z"/><path class="cls-7" d="M36.59,15.4l0-.06s0,0,0,0Z"/><path class="cls-7" d="M21.06,32.22v0C21.09,32.34,21.07,32.28,21.06,32.22Z"/><path class="cls-7" d="M8.49,30.77c.13.39-.3-.58-.09,0C8.39,30.7,8.67,31.25,8.49,30.77Z"/><path class="cls-7" d="M35.09,11.42,35,11.26Z"/><path class="cls-7" d="M8.4,30.76h0l0,.06Z"/><path class="cls-7" d="M15.25,31a.46.46,0,0,0,0-.09S15.26,31,15.25,31Z"/><path class="cls-7" d="M20.06,30.12,20,30Z"/><path class="cls-7" d="M15.37,34.51c0,.09,0,.12,0,.24v0A1,1,0,0,1,15.37,34.51Z"/><path class="cls-7" d="M15.94,38.08V38l0-.12Z"/><path class="cls-7" d="M34.35,2.88a.76.76,0,0,1,.08.15C34.42,3,34.77,3.36,34.35,2.88Z"/><path class="cls-7" d="M35.14,11.52a.3.3,0,0,1,0-.1l0,.11S35.14,11.54,35.14,11.52Z"/><path class="cls-7" d="M15.71,34.62l.06.57C15.75,35,15.73,34.82,15.71,34.62Z"/><path class="cls-7" d="M11.93,10.13l.11-.06Z"/><path class="cls-7" d="M16,36.86a1.82,1.82,0,0,0,0,.32l0,.06Z"/><path class="cls-7" d="M34.43,3Z"/><path class="cls-7" d="M37.56,4.72c-.52-.14-.26,0-.38,0-.63-.16-.28-.12-.48-.21a7.67,7.67,0,0,1-1-.28s-.07,0,0,0a1.65,1.65,0,0,1-.66-.38,4.61,4.61,0,0,0-.6-.71s0,0,0-.06,0,.11,0,.11c-.16-.19-.33-.32-.36-.41a.62.62,0,0,0,.17.15l-.18-.18c-.12-.2.24.25.27.23-.34-.37-.77-.77-1-1.05,0-.1.63.64.31.23l.39.45c-.25-.38.24.28,0-.09-.52-.59-.61-.63-1.15-1.19-.15-.11,0,.07-.13,0C31.89.51,32.21.53,31.48.07c-.1,0-.29-.14-.45,0a2.62,2.62,0,0,1-.48.27L30.7.21c-.67.35-.34.28-1.05.62.11-.09.51-.3.41-.25-.47.2-.31.2-.65.39h-.1L27.06,2.22s.16-.12,0,0c-1,.55-2.12,1.12-3.09,1.6L23.59,4c-.09,0-.17.07-.08,0-.38.19,0,0-.18.15s-.29.12-.16,0c-.64.38-1.84,1.06-2.56,1.38l.13-.08c-.55.27-.57.4-1.09.63l.09-.06c-1.18.6-2.46,1.32-3.39,1.74-.14.14-1.18.58-1.21.7-.69.31-.51.2-1.47.67-.25.13-.35.24-.66.42l0,0-.4.26-.25.07-.29.17c.12-.06.26-.11.25-.09a9.35,9.35,0,0,1-1.15.54l-1.07.6a2.45,2.45,0,0,1,.34-.21c-.56.34-.13,0-.64.32.07,0,0,0,0,.06-.28.12-.88.43-1.32.67l.07-.07-.71.37c-.22.69-.47,1.43-.71,2.18.13-.34.15-.24.06,0l-.08.1c0,.19.12-.29,0,.1s-.13.22-.08,0l-.13.45s0-.09,0-.12c0,.19-.3.74-.34,1l0,0c-.31,1-.45,1.4-.71,2.19,0,0-.07.33-.12.58-.2.57-.45,1.2-.68,1.9-.14.5,0,.16-.06.38-.05,0-.27.72-.18.35-.11.36-.2.61-.27.83l.62,1.37c0-.12-.08-.25,0-.19a1.36,1.36,0,0,1,.14.41l0-.05c.55,1.13,1,2.7,1.5,3.58l0-.05.44.93c.18.44-.14-.25,0,.08.5,1,.69,1.62,1.08,2.45.18.7,1,2.31,1.32,3.22V34a2.63,2.63,0,0,1,.17.45s-.08-.26,0-.12c.85,1.91,1.67,4,2.5,6a12.09,12.09,0,0,1,.63,1.29l-.16-.24.52,1.15c1.58-.36,2.37-.5,3.91-.88a2.6,2.6,0,0,1-.39.11l.47-.09-.22-.8a1.11,1.11,0,0,0-.12-.31c-.05-.23,0-.06,0-.21-.06-.32-.23-.79-.24-1s0,.09,0,.15c-.07-.2-.21-1-.21-.76-.1-.58-.24-1.09-.3-1.55-.1-.29-.15-1-.23-1.07a6.67,6.67,0,0,0-.17-1.37c0,.12,0-.32,0-.18,0-.42-.09-.8-.12-.72a10.94,10.94,0,0,1,0-2,6.69,6.69,0,0,1,.2-1.76,1.85,1.85,0,0,1,.89-1.27,2.43,2.43,0,0,0-.43.37c-.18.21-.29.46-.25.46a1.49,1.49,0,0,1,.83-.87,1.6,1.6,0,0,1,.59-.06,1.84,1.84,0,0,1,.68.1c.25.08-.15,0-.23,0A3.36,3.36,0,0,1,20,30.54l-.12-.16c.11.15.19.38.22.34L20,30.57c-.1-.28.42.6.43.64-.19-.26.31.87,0,.44,0,.12.1.26.11.22.05.18.06.23,0,.07a7.82,7.82,0,0,1,.32,1s-.05-.11-.08-.17a5.83,5.83,0,0,1,.26,1.09s0,0,0-.12c0,.17.05.34.08.5s.05.45.07.64l1.35-.93c-.2.21.28-.18.35-.17l.41-.33-.18.11a5.19,5.19,0,0,0,.49-.43.53.53,0,0,0,.19-.31c0-.1,0-.2-.07-.31,0,.11.11.2.08.37a4.11,4.11,0,0,0-.21-.87l.11.47c-.15-.43,0,.07-.2-.52,0,.12-.12-.44-.15-.68h0a5.42,5.42,0,0,1-.23-.76c0-.09.08.05.07,0s-.29-1-.42-1.28c0,.09.07.08.07.05l-.09-.17c0-.2-.05-.23,0-.21-.17-.61,0,.21-.19-.52,0,.06,0,0,.06.15-.21-.74-.39-1.4-.58-2.08,0-.21.17.58.15.34-.27-1-.61-2-.86-2.91l.05.17a1,1,0,0,1-.14-.45c0-.13-.07-.2,0-.3s.1-.23.14-.35c0,.11,0,.16,0,.13.26-.61.5-1.26.86-2.2l0,.12.57-1.33c0-.13.12-.35,0-.23l.13-.24c1-.62,1.79-1.39,2.69-1.93-.11.08-.25.2-.16.14l.78-.59A1.87,1.87,0,0,0,26,17a4.69,4.69,0,0,1,.51-.41c-.35.28,0,0,.2-.06,0,0,0,0,0,0,.45-.25,0-.11.62-.48l0,0c.21-.16.4-.32.63-.48s-.22.18-.21.21a10.32,10.32,0,0,1,.9-.69l-.45.35a6.05,6.05,0,0,0,.61-.39l0,0,.55-.38-.14.09c.34-.37.81-.61,1.31-1.06-.49.44-.06.1-.08.16.15-.09.37-.23.32-.18.23-.21.44-.28.77-.59,0,0,.28-.19.24-.12.33-.25-.09,0-.07,0,.48-.41,1.24-.83,1.94-1.42s.71-.6,1.3-1h0c0,.07,0,.06,0,0l-.16.14.14-.09c.06.19.15.44.26.72,0-.07,0,0,0,.12a5.06,5.06,0,0,1,.22.56,1.87,1.87,0,0,1-.15-.27l.4,1c0,.1-.11-.2-.16-.32a8.68,8.68,0,0,0,.45,1.11l-.08-.25c.05.14,0,.08,0,0a1.45,1.45,0,0,1-.15-.51l.1.25a10.24,10.24,0,0,0-.53-1.49l.13.19-.22-.5c0-.11,0-.2.08,0-.1-.38-.13-.29-.22-.65,0-.05,0,0,0,0l-.05-.14-.22.17c.07-.06-.07,0,.16-.15-.66.43-.87.68-1.12.8l0,0c-.73.55,0,.09-.57.53l-.44.18,0,.09c-.07.06-.23.16-.21.13-.27.23.06,0-.09.12-.39.24-1,.75-1.13.76s.37-.24,0,.07c-.15,0-.44.34-.8.55.08-.1.41-.32.05-.1a8.26,8.26,0,0,1-.94.68,11.15,11.15,0,0,1-1.08.82s-.91.63-1.37.93v0a6.39,6.39,0,0,1-.85.68s.05-.09.22-.23l-.31.23c-.07.07-.16.14-.36.3l.06-.09c-.42.3-.82.64-1.37,1,0,.05.49-.23-.07.2,0,0-.07,0,.07-.12a2.74,2.74,0,0,1-.26.2l.2-.19c-.25.16-.11.11-.31.25,0,0-.15.09-.14.05a2.48,2.48,0,0,0,.25-.18,5.11,5.11,0,0,1-.6.38s0,0-.14.16c-.42.3-.16.07-.42.23a3.07,3.07,0,0,1-.29.24c0,.1-.05.13,0,.14a1,1,0,0,1-.12.21c-.09.25-.47,1.15-.32.89l0-.06v0h0c-.3.83-.72,1.67-1,2.48h0l-.15.38-.08.21c0,.08,0,.16,0,.22.08.26.15.5.21.68s.08.35,0,.29a8.88,8.88,0,0,1,.27,1,1.65,1.65,0,0,1-.12-.39,7.55,7.55,0,0,0,.32,1.14c-.09-.17.05.38.13.61l-.07-.35c.07.27.13.5.2.73L22,27.14c.22,1,.6,1.8.72,2.6.1.26-.13-.56,0-.33.12.47.19,1,.23,1.12.15.64.23.58.4,1.25,0-.09,0-.18.17.32s.09.59,0,.29c0-.11,0-.16,0-.16s-.11-.34-.08-.16l0,.06.12.51c.05.19,0,.16,0,.15s-.09.13,0,.09.1-.06.08-.14a.11.11,0,0,1,0,.1l-.13.12-.28.24c-.19.15-.38.3-.65.48.09-.06.18-.09.1,0a9.75,9.75,0,0,0-.84.63c-.16.09-.14.06-.14,0s-.07,0-.19.12,0,0,0,0,0-.06,0-.06l.06,0-.05,0s0-.08,0-.11l0-.32c0-.22,0-.4-.06-.55l.07.3-.1-.48v.18a1.7,1.7,0,0,1,0-.33c-.06-.18,0,.15-.14-.21s-.2-.71-.18-.8c.19.74,0-.1.2.53L21,32.15s0,0,0,.07a4.84,4.84,0,0,0-.41-1c.06.08,0-.19-.08-.3.12.29,0,.15-.11-.09a3.69,3.69,0,0,0-.4-.69l.15.25a6.84,6.84,0,0,1-.41-.55s.19.25.13.14a4.47,4.47,0,0,0-1-1c-.22-.14,0,0-.19-.17a3.35,3.35,0,0,0-.59-.25,1.68,1.68,0,0,0-.66-.12c.18.05.21,0-.24.05l.53,0,.51.12a2.57,2.57,0,0,0-.67-.09,3,3,0,0,1,.83.19c-.31-.08-.28-.07-.14,0a2.18,2.18,0,0,0-.62-.16c-.22,0-.45,0-.69,0v-.08c-.82.05-1.29.71-1.55,1.6a1.45,1.45,0,0,1,.11-.29c0,.13-.18.57-.22.88,0,0-.06.15-.09.28a3.84,3.84,0,0,0,0,.78l0,.42a13.6,13.6,0,0,0,.14,1.6c0-.22,0,.11-.11-.37a2.35,2.35,0,0,0,0,.46c0,.15.1.67.1.9a1.37,1.37,0,0,1,.09.4s0,0,0,0,.08.42.08.18c0,.76.33,2.06.39,2.72l.37,1.61a.25.25,0,0,1,0-.09c.13.65.17.38.32,1.12,0,.38-.12-.39-.08-.15a.9.9,0,0,0,.06.37c0,.15.1.34.15.51l-.27,0,.12,0c-.39.05-.92.23-1.54.36,0,0,0,0,0,0-.4.13-1.25.33-1.77.46.15-.07.2-.06.12-.08s-.06,0-.12.07a.82.82,0,0,1-.12-.23,3.4,3.4,0,0,1-.17-.6l.2.47a8,8,0,0,0-.36-.87l0,0c-.32-.73-.37-.71-.7-1.49l0,.08c-.24-.4-.13-.37-.35-.78v-.15l-.7-1.46c.16.27.43.85.61,1.21-.12-.28-.41-1-.49-1.08a3.92,3.92,0,0,1,.16.36,13.9,13.9,0,0,1-.64-1.32,19.3,19.3,0,0,0-.69-1.9c-.45-1-.81-1.95-1.31-3.1.09.44-.15-.33-.2-.22a2.18,2.18,0,0,1-.16-.4l-.3-.83c-.06-.2.12.25.13.22A4,4,0,0,1,8,29.49c0,.09-.13-.18-.26-.52l.16.48c-.39-.79-.23-.73-.63-1.53l.14.25c-.2-.42-.67-1.56-.91-2,0-.08,0-.18,0,0-.42-1-1-2.22-1.32-3l0,.07A3.55,3.55,0,0,1,5,22.72s0,.06,0,0l-.21-.42.07-.22c0,.06,0,.17,0,.2.35-1,.46-1.56.72-2.41a6.5,6.5,0,0,0,.49-1.16h0c.4-1.18.62-2,1-3.13.13-.3.31-.81.5-1.38s.39-1.13.57-1.65l.18-.09c-.16.07,0-.06.18-.16s.64-.38.63-.31L9,12a6.85,6.85,0,0,0,1.07-.51l0-.1C11.18,11,12.73,10,13.33,9.79l.76-.44v0c.68-.34,1-.51,1.84-1l-.16.12c.47-.25.54-.42,1-.65h.16c.81-.43,1.66-.82,2.45-1.29,0,0,0,0-.16.12.38-.2,1.51-.75,1.33-.75a10.21,10.21,0,0,0,1.27-.69l-.05.07a7.17,7.17,0,0,1,.87-.55c.12-.06.12,0-.05,0,.42-.2.3-.2.81-.44l-.17.12a3.48,3.48,0,0,0,.6-.37,5.09,5.09,0,0,1,.88-.41,2.58,2.58,0,0,1,.52-.32s-.05,0-.09.08c.72-.35,1-.6,1.53-.82,0,0,.05,0,.09,0l-1,.51s.47-.21.14,0c.35-.22.94-.6,1.39-.82l.06,0,0,0,.27-.15L28,2.06a7.54,7.54,0,0,0,.75-.38s.26-.17,0-.06l-.19.11-.1.06h0c-.15.07-.34.18-.56.3a2.72,2.72,0,0,1,.6-.34l.29-.23c.33-.11.94-.41,1-.42.42-.24.95-.52,1.36-.79,0-.07.13,0,.25.06l.28.17a1.06,1.06,0,0,1,.23.25L31.64.56c.35.26,1,.88,1.07.92.37.41-.26-.19.29.35l-.09-.06c.5.56.94,1,1.37,1.45a8,8,0,0,1,.65.74,3.08,3.08,0,0,0,1,.59.54.54,0,0,1-.18-.09,15.39,15.39,0,0,0,2.88.83A6.31,6.31,0,0,1,38.93,8c0,.53,0,.59,0,.91L38.83,9c0,.18,0,.37,0,.55-.13.79-.41,1.31-.66,2.27l.06-.11a6.69,6.69,0,0,1-.38,1,.83.83,0,0,1-.09.25h0c-.1.28-.21.55-.32.82-.31.61,0-.13-.47.76a6.52,6.52,0,0,0-.36.85,1.52,1.52,0,0,1,.23-.33l-.16.3c0,.09,0,.36.41-.36l.23-.54.11-.16-.22.45a2.41,2.41,0,0,0,.28-.6,1.21,1.21,0,0,0,.14-.2l.17-.56s-.05.26.11-.09-.15.22,0-.2a1.43,1.43,0,0,0,.23-.48s0,0,0,.16c.09-.28.27-.73.29-.88a7.55,7.55,0,0,1,.34-.9c0-.1.09-.51.15-.78,0,.5.23-1,.27-.84a17.32,17.32,0,0,0,.1-2s0,.1,0,.16a7,7,0,0,1,0-.71A7.13,7.13,0,0,1,39,5.93c-.06-.44.14.26.15.11,0,0-.26-.75-.25-.59l-.07-.36a1.25,1.25,0,0,1-.27-.1c-.08.06-.31,0-.59-.08a2.59,2.59,0,0,0-.63-.2C37.09,4.62,37.56,4.72,37.56,4.72ZM27.06,2.23h0l.23-.12Zm-.94.51.41-.22s0,0-.09.08S26.26,2.67,26.12,2.74Zm2.13-.82A.7.7,0,0,1,28,2l.26-.14v0A.12.12,0,0,1,28.25,1.92Z"/><path class="cls-7" d="M28.5,1.73l.06,0-.1,0,0,0Z"/><path class="cls-7" d="M22.33,20.3v0l0,0Z"/><polygon class="cls-7" points="12.98 9.56 12.98 9.57 13.06 9.52 12.98 9.56"/><path class="cls-7" d="M26.67,16.49l.07,0Z"/><path class="cls-7" d="M28.74,15l.3-.2Z"/><path class="cls-7" d="M30.34,13.88s0,0,0,0h0Z"/><path class="cls-7" d="M19.9,30.38l0-.06C19.76,30.18,19.82,30.28,19.9,30.38Z"/><path class="cls-7" d="M23.37,31.26l.1.28C23.43,31.38,23.39,31.25,23.37,31.26Z"/><polygon class="cls-7" points="15.7 34.56 15.7 34.56 15.71 34.62 15.7 34.56"/><path class="cls-7" d="M23.58,32a2.8,2.8,0,0,0-.11-.42C23.5,31.67,23.54,31.82,23.58,32Z"/><path class="cls-7" d="M35.69,13.18l0,.09h0Z"/><path class="cls-7" d="M35.73,13.28l0,.09S35.74,13.29,35.73,13.28Z"/><path class="cls-7" d="M35.85,13.58l-.08-.21A.71.71,0,0,0,35.85,13.58Z"/><path class="cls-7" d="M34.87,10.76h0Z"/><path class="cls-7" d="M34.49,10.89l.21-.14.11-.06,0,.06h0a.46.46,0,0,1,0-.09l-.13.07Z"/><path class="cls-7" d="M31.72,12.67l.54-.38c-.1.05-.24.13,0,0C31.56,12.69,32.42,12.17,31.72,12.67Z"/><path class="cls-7" d="M30,13.85c.28-.22,0,0,0,0C29.86,14,29.82,14,30,13.85Z"/><path class="cls-7" d="M21.4,24.68l0,0C21.43,24.92,21.37,24.65,21.4,24.68Z"/><polygon class="cls-7" points="22.34 27.36 22.29 27.1 22.22 26.98 22.34 27.36"/><polygon class="cls-7" points="22.52 29.04 22.49 28.92 22.62 29.36 22.52 29.04"/><path class="cls-7" d="M15.78,37.46l0-.09C15.77,37.19,15.71,37.16,15.78,37.46Z"/><path class="cls-7" d="M12.21,39.59A2.66,2.66,0,0,0,12,39C12.08,39.25,12.15,39.48,12.21,39.59Z"/><polygon class="cls-7" points="10.63 11.21 10.44 11.32 10.8 11.12 10.63 11.21"/></g></g></svg>