<svg xmlns="http://www.w3.org/2000/svg" viewBox="0 0 321.07 262.35"><defs><style>.cls-1,.cls-14,.cls-20,.cls-21{fill:none;}.cls-1,.cls-14{stroke:#233560;}.cls-1,.cls-10,.cls-14,.cls-18,.cls-2,.cls-20,.cls-21{stroke-miterlimit:10;}.cls-1{stroke-width:0.83px;}.cls-10,.cls-18,.cls-2{fill:#fffbf3;}.cls-10,.cls-18,.cls-2,.cls-20,.cls-21{stroke:#d76c38;}.cls-2{stroke-width:1.23px;}.cls-3{font-size:10.47px;}.cls-3,.cls-6{fill:#55595c;font-family:NunitoSans-Regular, Nunito Sans;}.cls-4{letter-spacing:-0.01em;}.cls-5{letter-spacing:-0.01em;}.cls-6{font-size:12.11px;}.cls-7{letter-spacing:0em;}.cls-8{letter-spacing:0em;}.cls-9{letter-spacing:-0.01em;}.cls-10,.cls-14{stroke-width:1.34px;}.cls-11{fill:#f9dab9;}.cls-12,.cls-15,.cls-19{fill:#d76c38;}.cls-13{fill:#f9f8f7;}.cls-15{font-size:8.17px;}.cls-15,.cls-19{font-family:NunitoSans-ExtraBold, Nunito Sans;font-weight:800;}.cls-16{letter-spacing:0em;}.cls-17{fill:#fffdfa;}.cls-18,.cls-20{stroke-width:1.33px;}.cls-19{font-size:6.78px;}.cls-21{stroke-width:1.22px;}</style></defs><title>Asset 130</title><g id="Layer_2" data-name="Layer 2"><g id="Layer_1-2" data-name="Layer 1"><path class="cls-1" d="M54.33,262.07,249.09,50.55c11-10.44,25.17-14.9,38.86-11.5,16.8,4.18,44.41,29.67,27.32,68.69C301,140.35,260,137.55,248.86,134.35,192,118,158.07,106.5,104.88,91,49,74.68,34.13,107.66,38.82,141.71c6.77,49.06,68.32,121.64,143.32,102.45C227.05,232.68,262,172.1,212.63,81.05,175.56,12.6,30.47,19.9,30.47,19.9L243.59,258"/><rect class="cls-2" x="146.79" y="24.62" width="44.98" height="44.98"/><text class="cls-3" transform="translate(150.86 42.87)">D<tspan class="cls-4" x="7.74" y="0">e</tspan><tspan x="13.19" y="0">v</tspan><tspan x="0" y="15.71">que</tspan><tspan class="cls-5" x="17.49" y="15.71">s</tspan><tspan x="22.46" y="15.71">tions </tspan></text><rect class="cls-2" x="0.61" y="0.61" width="44.98" height="44.98"/><text class="cls-3" transform="translate(4.68 18.87)">D<tspan class="cls-4" x="7.74" y="0">e</tspan><tspan x="13.19" y="0">v</tspan><tspan x="0" y="15.71">que</tspan><tspan class="cls-5" x="17.49" y="15.71">s</tspan><tspan x="22.46" y="15.71">tions </tspan></text><text class="cls-6" transform="translate(58.1 173.5)">Ji<tspan class="cls-7" x="6.75" y="0">r</tspan><tspan class="cls-8" x="10.98" y="0">a/</tspan><tspan x="0" y="18.16">t</tspan><tspan class="cls-9" x="4.12" y="18.16">r</tspan><tspan x="8.27" y="18.16">ello</tspan></text><rect class="cls-10" x="93.39" y="166.3" width="49.11" height="49.11" rx="2.62" transform="translate(-6.67 4.29) rotate(-2.02)"/><rect class="cls-11" x="92.4" y="170.44" width="49.11" height="5.51" rx="0.28" transform="translate(-6.05 4.24) rotate(-2.02)"/><path class="cls-12" d="M107.93,201.65a10.52,10.52,0,0,1,6.27-9.53.86.86,0,0,0,.51-.51,3.59,3.59,0,0,1,1.57-1.82c.32-.19.28-.34.12-.59a3.15,3.15,0,0,0-3.06-1.62,3.19,3.19,0,0,0-2.9,2.23c0,.06,0,.13,0,.19a.76.76,0,0,1-1,.58.75.75,0,0,1-.48-1,4.77,4.77,0,0,1,7.76-2.3,4.94,4.94,0,0,1,1.13,1.48c.09.18.09.42.43.42s.38-.2.48-.42a4.78,4.78,0,0,1,9.14,1.7.74.74,0,0,1-.69.87c-.47,0-.77-.26-.82-.8a3.22,3.22,0,0,0-3-3.12,3.29,3.29,0,0,0-3.22,1.83c-.08.19-.07.28.12.37a3.92,3.92,0,0,1,1.85,2c.1.22.28.25.45.32a10.61,10.61,0,0,1,6.67,10.17,10.4,10.4,0,0,1-3.36,7.5c-.47.45-.86.44-1.27,0s-1-1.26-1.54-1.91c-.15-.19-.24-.29-.52-.14a8.52,8.52,0,0,1-7.8.25c-.24-.1-.34-.09-.5.12-.44.63-.9,1.25-1.37,1.85s-.82.57-1.34.11A10.9,10.9,0,0,1,107.93,201.65Zm5.85-6.24a7.25,7.25,0,0,0,9.94-.89c.29-.36,0-.37-.21-.45a3.39,3.39,0,0,0-.39-.27,9.09,9.09,0,0,0-9.36.21C112.73,194.61,112.75,194.72,113.78,195.41Zm-1,1.07c-.2-.2-.43-.38-.61-.6s-.34-.25-.56,0a9.06,9.06,0,0,0-2.11,6.8,8.58,8.58,0,0,0,2.24,5.17c.4.53.39.53.79,0a23.73,23.73,0,0,0,1.52-2.32,24.58,24.58,0,0,0,2.84-7c.05-.21,0-.28-.2-.32A9,9,0,0,1,112.74,196.48Zm15.08,5.19a9.24,9.24,0,0,0-2.53-6.18c-.22-.23-.32-.23-.54,0a8.2,8.2,0,0,1-4.12,2.59c-.38.1-.44.23-.34.6a26.84,26.84,0,0,0,4.76,9.11c.21.26.32.31.56,0A9.36,9.36,0,0,0,127.82,201.67Zm-9.27,5.41a7.09,7.09,0,0,0,3.2-.77c.29-.15.3-.26.14-.53a26.76,26.76,0,0,1-3-7c0-.16,0-.37-.3-.36s-.22.21-.25.35a26.62,26.62,0,0,1-2.89,7.28c-.17.3-.07.36.18.46A6.81,6.81,0,0,0,118.55,207.08Z"/><path class="cls-11" d="M127.82,201.67a9.36,9.36,0,0,1-2.21,6.15c-.24.29-.35.24-.56,0a26.84,26.84,0,0,1-4.76-9.11c-.1-.37,0-.5.34-.6a8.2,8.2,0,0,0,4.12-2.59c.22-.24.32-.24.54,0A9.24,9.24,0,0,1,127.82,201.67Z"/><path class="cls-11" d="M112.74,196.48a9,9,0,0,0,3.91,1.8c.21,0,.25.11.2.32a24.58,24.58,0,0,1-2.84,7,23.73,23.73,0,0,1-1.52,2.32c-.4.52-.39.52-.79,0-.07-.62-.53-1.07-.73-1.64a9.93,9.93,0,0,1-.68-3.69,9.08,9.08,0,0,1,.5-2.76A8.39,8.39,0,0,1,112.74,196.48Z"/><path class="cls-11" d="M118.55,207.08a6.81,6.81,0,0,1-3-.57c-.25-.1-.35-.16-.18-.46a26.62,26.62,0,0,0,2.89-7.28c0-.14,0-.33.25-.35s.26.2.3.36a26.76,26.76,0,0,0,3,7c.16.27.15.38-.14.53A7.09,7.09,0,0,1,118.55,207.08Z"/><path class="cls-11" d="M123.51,194.07c.21.08.5.09.21.45a7.25,7.25,0,0,1-9.94.89,9.48,9.48,0,0,1,8.12-1.79A10.14,10.14,0,0,0,123.51,194.07Z"/><path class="cls-13" d="M112.74,196.48a8.39,8.39,0,0,0-1.95,3.3,9.08,9.08,0,0,0-.5,2.76,9.93,9.93,0,0,0,.68,3.69c.2.57.66,1,.73,1.64a8.58,8.58,0,0,1-2.24-5.17,9.06,9.06,0,0,1,2.11-6.8c.22-.27.35-.29.56,0S112.54,196.28,112.74,196.48Z"/><path class="cls-13" d="M123.51,194.07a10.14,10.14,0,0,1-1.61-.45,9.48,9.48,0,0,0-8.12,1.79c-1-.69-1-.8,0-1.4a9.09,9.09,0,0,1,9.36-.21A3.39,3.39,0,0,1,123.51,194.07Z"/><path class="cls-12" d="M132.51,184.92a3.56,3.56,0,0,0-2.49,2.76.1.1,0,0,1-.2,0,3.56,3.56,0,0,0-2.76-2.49.1.1,0,0,1,0-.2,3.58,3.58,0,0,0,2.49-2.76.1.1,0,0,1,.2,0,3.56,3.56,0,0,0,2.76,2.49A.1.1,0,0,1,132.51,184.92Z"/><path class="cls-12" d="M127.86,181.94a1.9,1.9,0,0,0-1.33,1.47.06.06,0,0,1-.11,0,1.92,1.92,0,0,0-1.47-1.33.05.05,0,0,1,0-.1,1.89,1.89,0,0,0,1.33-1.47.06.06,0,0,1,.11,0,1.9,1.9,0,0,0,1.47,1.33A.06.06,0,0,1,127.86,181.94Z"/><rect class="cls-14" x="93.39" y="166.3" width="49.11" height="49.11" rx="2.62" transform="translate(-6.67 4.29) rotate(-2.02)"/><text class="cls-15" transform="matrix(1, -0.04, 0.04, 1, 107.25, 176.44)">N<tspan class="cls-16" x="6.14" y="0">E</tspan><tspan x="11.02" y="0">W</tspan></text><rect class="cls-17" x="261.68" y="15.52" width="41.38" height="32.62"/><rect class="cls-11" x="266.5" y="17.59" width="36.19" height="5.71"/><path class="cls-12" d="M289.48,38h-5.92V33.83a1.77,1.77,0,0,0-1.77-1.77H271.14a1.77,1.77,0,0,0-1.77,1.77V38h-5.92a1.77,1.77,0,0,0-1.77,1.77V55.13a1.77,1.77,0,0,0,1.77,1.77h26a1.78,1.78,0,0,0,1.77-1.77V39.74A1.78,1.78,0,0,0,289.48,38Zm-.6,17.74H264.05a1.18,1.18,0,0,1-1.19-1.18V40.34a1.19,1.19,0,0,1,1.19-1.19H270a.59.59,0,0,0,.59-.59V33.83a.59.59,0,0,1,.59-.59h10.65a.6.6,0,0,1,.59.59v4.73a.58.58,0,0,0,.59.59h5.91a1.19,1.19,0,0,1,1.19,1.19V54.53A1.19,1.19,0,0,1,288.88,55.71Z"/><path class="cls-17" d="M290.07,40.33V54.54a1.17,1.17,0,0,1-1.18,1.17H264a1.17,1.17,0,0,1-1.18-1.17V40.33A1.18,1.18,0,0,1,264,39.15H270a.59.59,0,0,0,.59-.59V33.83a.59.59,0,0,1,.59-.59h10.65a.6.6,0,0,1,.59.59v4.73a.58.58,0,0,0,.59.59h5.92A1.18,1.18,0,0,1,290.07,40.33Z"/><path class="cls-12" d="M276.46,40.84a6.59,6.59,0,1,0,6.59,6.59A6.59,6.59,0,0,0,276.46,40.84Z"/><path class="cls-11" d="M282,47.43a5.58,5.58,0,1,1-5.58-5.57A5.59,5.59,0,0,1,282,47.43Z"/><path class="cls-12" d="M278.44,34.43h-3.55a.6.6,0,0,0-.59.59v2.37a.59.59,0,0,0,.59.59h3.55a.58.58,0,0,0,.59-.59V35A.59.59,0,0,0,278.44,34.43Zm-.59,2.37h-2.36V35.62h2.36Z"/><rect class="cls-12" x="293.04" y="46.76" width="2.85" height="1.38"/><rect class="cls-12" x="297.01" y="46.76" width="3.29" height="1.38"/><path class="cls-12" d="M301.68,46.07v.69H301v1.38h1.38a.69.69,0,0,0,.69-.69V46.07Z"/><rect class="cls-12" x="301.68" y="23.1" width="1.38" height="2.76"/><rect class="cls-12" x="301.68" y="26.55" width="1.38" height="2.76"/><rect class="cls-12" x="301.68" y="30.69" width="1.38" height="2.76"/><rect class="cls-12" x="301.68" y="18.97" width="1.38" height="2.76"/><rect class="cls-12" x="301.68" y="38.97" width="1.38" height="2.76"/><rect class="cls-12" x="301.68" y="34.83" width="1.38" height="2.76"/><rect class="cls-12" x="301.68" y="42.41" width="1.38" height="2.76"/><path class="cls-12" d="M302.37,15.52H301V16.9h.69v.69h1.38V16.21A.69.69,0,0,0,302.37,15.52Z"/><rect class="cls-12" x="285.13" y="15.52" width="2.76" height="1.38"/><rect class="cls-12" x="280.99" y="15.52" width="2.76" height="1.38"/><rect class="cls-12" x="273.4" y="15.52" width="2.76" height="1.38"/><rect class="cls-12" x="289.26" y="15.52" width="2.76" height="1.38"/><rect class="cls-12" x="296.85" y="15.52" width="2.76" height="1.38"/><rect class="cls-12" x="292.71" y="15.52" width="2.76" height="1.38"/><rect class="cls-12" x="276.85" y="15.52" width="2.76" height="1.38"/><rect class="cls-12" x="269.26" y="15.52" width="2.76" height="1.38"/><path class="cls-12" d="M266.5,15.52a.68.68,0,0,0-.68.69v1.38h1.37V16.9h.69V15.52Z"/><rect class="cls-12" x="265.82" y="28.62" width="1.38" height="2.76"/><rect class="cls-12" x="265.82" y="18.97" width="1.38" height="2.76"/><rect class="cls-12" x="265.82" y="23.79" width="1.38" height="2.76"/><rect class="cls-12" x="265.82" y="32.76" width="1.38" height="3.6"/><path class="cls-12" d="M280,47.43a3.55,3.55,0,1,1-3.55-3.54A3.54,3.54,0,0,1,280,47.43Z"/><path class="cls-12" d="M292.6,30.1a4,4,0,0,0-2.89,3,.12.12,0,0,1-.23,0,4,4,0,0,0-3-2.89.11.11,0,0,1,0-.22,4,4,0,0,0,2.89-3,.11.11,0,0,1,.22,0,4,4,0,0,0,3,2.88A.12.12,0,0,1,292.6,30.1Z"/><path class="cls-12" d="M288.56,34.14a2.25,2.25,0,0,0-1.62,1.7.06.06,0,0,1-.12,0,2.28,2.28,0,0,0-1.7-1.62.06.06,0,0,1,0-.12,2.28,2.28,0,0,0,1.62-1.7.06.06,0,0,1,.12,0,2.24,2.24,0,0,0,1.7,1.62A.07.07,0,0,1,288.56,34.14Z"/><circle class="cls-12" cx="270.91" cy="20.44" r="0.99"/><circle class="cls-12" cx="274.48" cy="20.44" r="0.99"/><circle class="cls-12" cx="278.05" cy="20.44" r="0.99"/><rect class="cls-18" x="255.01" y="114.25" width="51.96" height="45.95" rx="4.91"/><path class="cls-11" d="M259.6,114.79h42.78a4.59,4.59,0,0,1,4.59,4.59v2.77a0,0,0,0,1,0,0H255a0,0,0,0,1,0,0v-2.77A4.59,4.59,0,0,1,259.6,114.79Z"/><text class="cls-19" transform="translate(285.7 129) rotate(-0.53)">REC</text><circle class="cls-12" cx="260.34" cy="118.67" r="1.19"/><circle class="cls-12" cx="264.67" cy="118.67" r="1.19"/><circle class="cls-12" cx="268.9" cy="118.67" r="1.19"/><circle class="cls-12" cx="282.01" cy="126.87" r="1.39"/><rect class="cls-20" x="255.01" y="114.25" width="51.96" height="45.95" rx="4.91"/><circle class="cls-11" cx="284.82" cy="139.34" r="2.93"/><circle class="cls-12" cx="284.82" cy="139.34" r="1.4"/><circle class="cls-11" cx="277.85" cy="139.34" r="2.93"/><circle class="cls-12" cx="277.85" cy="139.34" r="1.4"/><path class="cls-12" d="M291.47,144.23a.7.7,0,0,0-.54-.14l-2.28.42v-1.43a.65.65,0,0,0-.66-.66h-.4a4.14,4.14,0,1,0-6.25-5.31,4.14,4.14,0,1,0-6.26,5.31h-.4a.66.66,0,0,0-.66.66V151a.67.67,0,0,0,.66.66h5.14l-2.56,2.56a.66.66,0,0,0,.93.93l3.15-3.15,3.15,3.15a.63.63,0,0,0,.46.19.66.66,0,0,0,.47-1.12l-2.56-2.56H288a.66.66,0,0,0,.66-.66v-1.43l2.28.42h.12a.67.67,0,0,0,.42-.16.65.65,0,0,0,.24-.5v-4.55A.67.67,0,0,0,291.47,144.23Zm-6.65-7.71a2.83,2.83,0,1,1-2.82,2.82A2.83,2.83,0,0,1,284.82,136.52Zm-3.48,5.06a4.39,4.39,0,0,0,.71.84h-1.43A4.11,4.11,0,0,0,281.34,141.58ZM275,139.34a2.83,2.83,0,1,1,2.82,2.83A2.82,2.82,0,0,1,275,139.34Zm12.3,10.95h-12v-6.55h12Zm3.06-1.79-1.74-.32v-2.33l1.74-.32Z"/><path class="cls-21" d="M264.62,138.06v-4.9a1.37,1.37,0,0,1,1.37-1.37h5.95"/><path class="cls-21" d="M271.37,156.72H266a1.37,1.37,0,0,1-1.37-1.37v-5.06"/><path class="cls-21" d="M298,138.06v-4.9a1.37,1.37,0,0,0-1.38-1.37h-5.94"/><path class="cls-21" d="M291.22,156.72h5.37a1.37,1.37,0,0,0,1.38-1.37v-5.06"/><rect class="cls-18" x="28.33" y="92.06" width="45.26" height="45.26" rx="7.41"/><rect class="cls-11" x="35.54" y="99.19" width="13.17" height="31.01" rx="2.49"/><rect class="cls-11" x="53.21" y="99.19" width="13.17" height="15.5" rx="1.76"/><rect class="cls-12" x="37.61" y="101.96" width="8.96" height="2.26" rx="0.3"/><rect class="cls-12" x="37.61" y="106.55" width="8.96" height="2.26" rx="0.3"/><rect class="cls-12" x="55.31" y="101.96" width="8.96" height="2.26" rx="0.3"/><rect class="cls-12" x="55.31" y="106.55" width="8.96" height="2.26" rx="0.3"/><rect class="cls-12" x="37.61" y="111.15" width="8.96" height="2.26" rx="0.3"/></g></g></svg>