<svg xmlns="http://www.w3.org/2000/svg" viewBox="0 0 41.38 41.38"><defs><style>.cls-1{fill:#fffdfa;}.cls-2{fill:#f9dab9;}.cls-3{fill:#d76c38;}</style></defs><title>Asset 125</title><g id="Layer_2" data-name="Layer 2"><g id="Layer_1-2" data-name="Layer 1"><rect class="cls-1" width="41.38" height="32.62"/><rect class="cls-2" x="4.83" y="2.07" width="36.19" height="5.71"/><path class="cls-3" d="M27.8,22.45H21.88V18.31a1.77,1.77,0,0,0-1.77-1.77H9.46a1.77,1.77,0,0,0-1.77,1.77v4.14H1.77A1.78,1.78,0,0,0,0,24.22V39.61a1.78,1.78,0,0,0,1.77,1.77h26a1.78,1.78,0,0,0,1.77-1.77V24.22A1.78,1.78,0,0,0,27.8,22.45ZM27.2,40.2H2.37A1.19,1.19,0,0,1,1.18,39V24.82a1.18,1.18,0,0,1,1.19-1.18H8.28a.59.59,0,0,0,.59-.59V18.31a.6.6,0,0,1,.59-.59H20.11a.6.6,0,0,1,.59.59v4.74a.6.6,0,0,0,.59.59H27.2a1.18,1.18,0,0,1,1.19,1.18V39A1.19,1.19,0,0,1,27.2,40.2Z"/><path class="cls-1" d="M28.39,24.82V39a1.18,1.18,0,0,1-1.18,1.18H2.36A1.18,1.18,0,0,1,1.18,39V24.82a1.18,1.18,0,0,1,1.18-1.18H8.28a.59.59,0,0,0,.59-.59V18.31a.6.6,0,0,1,.59-.59H20.11a.6.6,0,0,1,.59.59v4.74a.6.6,0,0,0,.59.59h5.92A1.18,1.18,0,0,1,28.39,24.82Z"/><path class="cls-3" d="M14.79,25.33a6.59,6.59,0,1,0,6.59,6.59A6.59,6.59,0,0,0,14.79,25.33Z"/><path class="cls-2" d="M20.36,31.92a5.58,5.58,0,1,1-5.58-5.58A5.57,5.57,0,0,1,20.36,31.92Z"/><path class="cls-3" d="M16.77,18.92H13.22a.58.58,0,0,0-.59.59v2.36a.58.58,0,0,0,.59.59h3.55a.59.59,0,0,0,.59-.59V19.51A.59.59,0,0,0,16.77,18.92Zm-.6,2.36H13.81V20.1h2.36Z"/><rect class="cls-3" x="31.36" y="31.24" width="2.85" height="1.38"/><rect class="cls-3" x="35.34" y="31.24" width="3.29" height="1.38"/><path class="cls-3" d="M40,30.55v.69h-.69v1.38h1.38a.69.69,0,0,0,.69-.69V30.55Z"/><rect class="cls-3" x="40" y="7.59" width="1.38" height="2.76"/><rect class="cls-3" x="40" y="11.03" width="1.38" height="2.76"/><rect class="cls-3" x="40" y="15.17" width="1.38" height="2.76"/><rect class="cls-3" x="40" y="3.45" width="1.38" height="2.76"/><rect class="cls-3" x="40" y="23.45" width="1.38" height="2.76"/><rect class="cls-3" x="40" y="19.31" width="1.38" height="2.76"/><rect class="cls-3" x="40" y="26.9" width="1.38" height="2.76"/><path class="cls-3" d="M40.69,0H39.31V1.38H40v.69h1.38V.69A.69.69,0,0,0,40.69,0Z"/><rect class="cls-3" x="23.45" width="2.76" height="1.38"/><rect class="cls-3" x="19.31" width="2.76" height="1.38"/><rect class="cls-3" x="11.72" width="2.76" height="1.38"/><rect class="cls-3" x="27.59" width="2.76" height="1.38"/><rect class="cls-3" x="35.17" width="2.76" height="1.38"/><rect class="cls-3" x="31.04" width="2.76" height="1.38"/><rect class="cls-3" x="15.17" width="2.76" height="1.38"/><rect class="cls-3" x="7.59" width="2.76" height="1.38"/><path class="cls-3" d="M4.83,0a.69.69,0,0,0-.69.69V2.07H5.52V1.38h.69V0Z"/><rect class="cls-3" x="4.14" y="13.1" width="1.38" height="2.76"/><rect class="cls-3" x="4.14" y="3.45" width="1.38" height="2.76"/><rect class="cls-3" x="4.14" y="8.28" width="1.38" height="2.76"/><rect class="cls-3" x="4.14" y="17.24" width="1.38" height="3.6"/><path class="cls-3" d="M18.33,31.92a3.55,3.55,0,1,1-3.54-3.55A3.54,3.54,0,0,1,18.33,31.92Z"/><path class="cls-3" d="M30.92,14.58a4,4,0,0,0-2.89,3,.11.11,0,0,1-.22,0,4,4,0,0,0-3-2.89.12.12,0,0,1,0-.23,4,4,0,0,0,2.89-3,.11.11,0,0,1,.22,0,4,4,0,0,0,3,2.89A.11.11,0,0,1,30.92,14.58Z"/><path class="cls-3" d="M26.89,18.62a2.26,2.26,0,0,0-1.62,1.7.07.07,0,0,1-.13,0,2.25,2.25,0,0,0-1.7-1.62.06.06,0,0,1,0-.12,2.28,2.28,0,0,0,1.62-1.7.06.06,0,0,1,.12,0,2.28,2.28,0,0,0,1.7,1.62A.06.06,0,0,1,26.89,18.62Z"/><circle class="cls-3" cx="9.23" cy="4.92" r="0.99"/><circle class="cls-3" cx="12.8" cy="4.92" r="0.99"/><circle class="cls-3" cx="16.37" cy="4.92" r="0.99"/></g></g></svg>