<svg xmlns="http://www.w3.org/2000/svg" xmlns:xlink="http://www.w3.org/1999/xlink" viewBox="0 0 506.34 342.27"><defs><style>.cls-1{fill:none;}.cls-2{clip-path:url(#clip-path);}.cls-3{fill:#d76c38;stroke:#fffdfa;stroke-miterlimit:10;stroke-width:0.5px;}.cls-4{fill:#fffdfa;}</style><clipPath id="clip-path"><circle class="cls-1" cx="228.08" cy="170.69" r="168.37"/></clipPath></defs><title>Asset 128</title><g id="Layer_2" data-name="Layer 2"><g id="Layer_1-2" data-name="Layer 1"><g class="cls-2"><path class="cls-3" d="M485.77,324.28a2.07,2.07,0,1,1,2.07,2.06A2.07,2.07,0,0,1,485.77,324.28Z"/><path class="cls-3" d="M485.77,292.08a2.07,2.07,0,1,1,2.07,2.07A2.07,2.07,0,0,1,485.77,292.08Z"/><path class="cls-3" d="M485.77,259.88a2.07,2.07,0,1,1,2.07,2.07A2.07,2.07,0,0,1,485.77,259.88Z"/><path class="cls-3" d="M485.77,227.69a2.07,2.07,0,1,1,2.07,2.06A2.07,2.07,0,0,1,485.77,227.69Z"/><circle class="cls-3" cx="487.84" cy="195.49" r="2.07"/><path class="cls-3" d="M485.77,163.3a2.07,2.07,0,1,1,2.07,2.06A2.07,2.07,0,0,1,485.77,163.3Z"/><circle class="cls-3" cx="487.84" cy="131.1" r="2.07"/><path class="cls-3" d="M485.77,98.9a2.07,2.07,0,1,1,2.07,2.07A2.07,2.07,0,0,1,485.77,98.9Z"/><path class="cls-3" d="M485.77,66.71a2.07,2.07,0,1,1,2.07,2.06A2.07,2.07,0,0,1,485.77,66.71Z"/><path class="cls-3" d="M485.77,34.51a2.07,2.07,0,1,1,2.07,2.07A2.07,2.07,0,0,1,485.77,34.51Z"/><path class="cls-3" d="M485.77,2.32a2.07,2.07,0,1,1,2.07,2.06A2.07,2.07,0,0,1,485.77,2.32Z"/><path class="cls-3" d="M453.4,324.28a2.07,2.07,0,1,1,2.07,2.06A2.07,2.07,0,0,1,453.4,324.28Z"/><circle class="cls-3" cx="455.47" cy="292.08" r="2.07"/><path class="cls-3" d="M453.4,259.88a2.07,2.07,0,1,1,2.07,2.07A2.07,2.07,0,0,1,453.4,259.88Z"/><path class="cls-3" d="M453.4,227.69a2.07,2.07,0,1,1,2.07,2.06A2.07,2.07,0,0,1,453.4,227.69Z"/><path class="cls-3" d="M453.4,195.49a2.07,2.07,0,1,1,2.07,2.07A2.07,2.07,0,0,1,453.4,195.49Z"/><path class="cls-3" d="M453.4,163.3a2.07,2.07,0,1,1,2.07,2.06A2.07,2.07,0,0,1,453.4,163.3Z"/><path class="cls-3" d="M453.4,131.1a2.07,2.07,0,1,1,2.07,2.07A2.07,2.07,0,0,1,453.4,131.1Z"/><path class="cls-3" d="M453.4,98.9a2.07,2.07,0,1,1,2.07,2.07A2.07,2.07,0,0,1,453.4,98.9Z"/><circle class="cls-3" cx="455.47" cy="66.71" r="2.07"/><path class="cls-3" d="M453.4,34.51a2.07,2.07,0,1,1,2.07,2.07A2.07,2.07,0,0,1,453.4,34.51Z"/><path class="cls-3" d="M453.4,2.32a2.07,2.07,0,1,1,2.07,2.06A2.07,2.07,0,0,1,453.4,2.32Z"/><path class="cls-3" d="M421,324.28a2.07,2.07,0,1,1,2.06,2.06A2.06,2.06,0,0,1,421,324.28Z"/><path class="cls-3" d="M421,292.08a2.07,2.07,0,1,1,2.06,2.07A2.07,2.07,0,0,1,421,292.08Z"/><path class="cls-3" d="M421,259.88A2.07,2.07,0,1,1,423.1,262,2.06,2.06,0,0,1,421,259.88Z"/><circle class="cls-3" cx="423.1" cy="227.69" r="2.07"/><path class="cls-3" d="M421,195.49a2.07,2.07,0,1,1,2.06,2.07A2.06,2.06,0,0,1,421,195.49Z"/><circle class="cls-3" cx="423.1" cy="163.3" r="2.07"/><path class="cls-3" d="M421,131.1a2.07,2.07,0,1,1,2.06,2.07A2.07,2.07,0,0,1,421,131.1Z"/><path class="cls-3" d="M421,98.9A2.07,2.07,0,1,1,423.1,101,2.06,2.06,0,0,1,421,98.9Z"/><path class="cls-3" d="M421,66.71a2.07,2.07,0,1,1,2.06,2.06A2.07,2.07,0,0,1,421,66.71Z"/><circle class="cls-3" cx="423.1" cy="34.51" r="2.07"/><circle class="cls-3" cx="423.1" cy="2.32" r="2.07"/><path class="cls-3" d="M388.67,324.28a2.07,2.07,0,1,1,2.06,2.06A2.06,2.06,0,0,1,388.67,324.28Z"/><circle class="cls-3" cx="390.73" cy="292.08" r="2.07"/><circle class="cls-3" cx="390.73" cy="259.88" r="2.07"/><path class="cls-3" d="M388.67,227.69a2.07,2.07,0,1,1,2.06,2.06A2.07,2.07,0,0,1,388.67,227.69Z"/><path class="cls-3" d="M388.67,195.49a2.07,2.07,0,1,1,2.06,2.07A2.06,2.06,0,0,1,388.67,195.49Z"/><path class="cls-3" d="M388.67,163.3a2.07,2.07,0,1,1,2.06,2.06A2.06,2.06,0,0,1,388.67,163.3Z"/><circle class="cls-3" cx="390.73" cy="131.1" r="2.07"/><path class="cls-3" d="M388.67,98.9a2.07,2.07,0,1,1,2.06,2.07A2.06,2.06,0,0,1,388.67,98.9Z"/><circle class="cls-3" cx="390.73" cy="66.71" r="2.07"/><path class="cls-3" d="M388.67,34.51a2.07,2.07,0,1,1,2.06,2.07A2.06,2.06,0,0,1,388.67,34.51Z"/><path class="cls-3" d="M388.67,2.32a2.07,2.07,0,1,1,2.06,2.06A2.07,2.07,0,0,1,388.67,2.32Z"/><path class="cls-3" d="M356.3,324.28a2.07,2.07,0,1,1,2.07,2.06A2.06,2.06,0,0,1,356.3,324.28Z"/><path class="cls-3" d="M356.3,292.08a2.07,2.07,0,1,1,2.07,2.07A2.07,2.07,0,0,1,356.3,292.08Z"/><path class="cls-3" d="M356.3,259.88a2.07,2.07,0,1,1,2.07,2.07A2.06,2.06,0,0,1,356.3,259.88Z"/><path class="cls-3" d="M356.3,227.69a2.07,2.07,0,1,1,2.07,2.06A2.07,2.07,0,0,1,356.3,227.69Z"/><circle class="cls-3" cx="358.37" cy="195.49" r="2.07"/><circle class="cls-3" cx="358.37" cy="163.3" r="2.07"/><circle class="cls-3" cx="358.37" cy="131.1" r="2.07"/><path class="cls-3" d="M356.3,98.9a2.07,2.07,0,1,1,2.07,2.07A2.06,2.06,0,0,1,356.3,98.9Z"/><path class="cls-3" d="M356.3,66.71a2.07,2.07,0,1,1,2.07,2.06A2.07,2.07,0,0,1,356.3,66.71Z"/><path class="cls-3" d="M356.3,34.51a2.07,2.07,0,1,1,2.07,2.07A2.06,2.06,0,0,1,356.3,34.51Z"/><path class="cls-3" d="M356.3,2.32a2.07,2.07,0,1,1,2.07,2.06A2.07,2.07,0,0,1,356.3,2.32Z"/><circle class="cls-3" cx="326" cy="324.28" r="2.07"/><path class="cls-3" d="M323.93,292.08a2.07,2.07,0,1,1,2.07,2.07A2.07,2.07,0,0,1,323.93,292.08Z"/><path class="cls-3" d="M323.93,259.88A2.07,2.07,0,1,1,326,262,2.07,2.07,0,0,1,323.93,259.88Z"/><circle class="cls-3" cx="326" cy="227.69" r="2.07"/><path class="cls-3" d="M323.93,195.49a2.07,2.07,0,1,1,2.07,2.07A2.07,2.07,0,0,1,323.93,195.49Z"/><circle class="cls-3" cx="326" cy="163.3" r="2.07"/><path class="cls-3" d="M323.93,131.1a2.07,2.07,0,1,1,2.07,2.07A2.07,2.07,0,0,1,323.93,131.1Z"/><path class="cls-3" d="M323.93,98.9A2.07,2.07,0,1,1,326,101,2.07,2.07,0,0,1,323.93,98.9Z"/><path class="cls-3" d="M323.93,66.71A2.07,2.07,0,1,1,326,68.77,2.07,2.07,0,0,1,323.93,66.71Z"/><path class="cls-3" d="M323.93,34.51A2.07,2.07,0,1,1,326,36.58,2.07,2.07,0,0,1,323.93,34.51Z"/><circle class="cls-3" cx="326" cy="2.32" r="2.07"/><path class="cls-3" d="M291.56,324.28a2.07,2.07,0,1,1,2.07,2.06A2.07,2.07,0,0,1,291.56,324.28Z"/><path class="cls-3" d="M291.56,292.08a2.07,2.07,0,1,1,2.07,2.07A2.07,2.07,0,0,1,291.56,292.08Z"/><circle class="cls-3" cx="293.63" cy="259.88" r="2.07"/><circle class="cls-3" cx="293.63" cy="227.69" r="2.07"/><path class="cls-3" d="M291.56,195.49a2.07,2.07,0,1,1,2.07,2.07A2.07,2.07,0,0,1,291.56,195.49Z"/><path class="cls-3" d="M291.56,163.3a2.07,2.07,0,1,1,2.07,2.06A2.07,2.07,0,0,1,291.56,163.3Z"/><path class="cls-3" d="M291.56,131.1a2.07,2.07,0,1,1,2.07,2.07A2.07,2.07,0,0,1,291.56,131.1Z"/><path class="cls-3" d="M291.56,98.9a2.07,2.07,0,1,1,2.07,2.07A2.07,2.07,0,0,1,291.56,98.9Z"/><path class="cls-3" d="M291.56,66.71a2.07,2.07,0,1,1,4.13,0,2.07,2.07,0,0,1-4.13,0Z"/><circle class="cls-3" cx="293.63" cy="34.51" r="2.07"/><path class="cls-3" d="M291.56,2.32a2.07,2.07,0,1,1,2.07,2.06A2.07,2.07,0,0,1,291.56,2.32Z"/><path class="cls-3" d="M259.2,324.28a2.07,2.07,0,1,1,2.06,2.06A2.06,2.06,0,0,1,259.2,324.28Z"/><path class="cls-3" d="M259.2,292.08a2.07,2.07,0,1,1,2.06,2.07A2.07,2.07,0,0,1,259.2,292.08Z"/><circle class="cls-3" cx="261.26" cy="259.88" r="2.07"/><circle class="cls-3" cx="261.26" cy="227.69" r="2.07"/><path class="cls-3" d="M259.19,195.49a2.07,2.07,0,1,1,2.07,2.07A2.07,2.07,0,0,1,259.19,195.49Z"/><path class="cls-3" d="M259.19,163.3a2.07,2.07,0,1,1,2.07,2.06A2.07,2.07,0,0,1,259.19,163.3Z"/><path class="cls-3" d="M259.19,131.1a2.07,2.07,0,1,1,2.07,2.07A2.08,2.08,0,0,1,259.19,131.1Z"/><path class="cls-3" d="M259.2,98.9a2.07,2.07,0,1,1,2.06,2.07A2.06,2.06,0,0,1,259.2,98.9Z"/><path class="cls-3" d="M259.2,66.71a2.07,2.07,0,1,1,2.06,2.06A2.07,2.07,0,0,1,259.2,66.71Z"/><circle class="cls-3" cx="261.26" cy="34.51" r="2.07"/><circle class="cls-3" cx="261.26" cy="2.32" r="2.07"/><circle class="cls-3" cx="228.89" cy="324.28" r="2.07"/><path class="cls-3" d="M226.83,292.08a2.07,2.07,0,1,1,2.06,2.07A2.07,2.07,0,0,1,226.83,292.08Z"/><path class="cls-3" d="M226.83,259.88a2.07,2.07,0,1,1,2.06,2.07A2.06,2.06,0,0,1,226.83,259.88Z"/><circle class="cls-3" cx="228.89" cy="227.69" r="2.07"/><path class="cls-3" d="M226.83,195.49a2.07,2.07,0,1,1,2.06,2.07A2.06,2.06,0,0,1,226.83,195.49Z"/><circle class="cls-3" cx="228.89" cy="163.3" r="2.07"/><path class="cls-3" d="M226.83,131.1a2.07,2.07,0,1,1,2.06,2.07A2.07,2.07,0,0,1,226.83,131.1Z"/><circle class="cls-3" cx="228.89" cy="98.9" r="2.07"/><path class="cls-3" d="M226.83,66.71a2.07,2.07,0,1,1,2.06,2.06A2.07,2.07,0,0,1,226.83,66.71Z"/><path class="cls-3" d="M226.83,34.51a2.07,2.07,0,1,1,2.06,2.07A2.06,2.06,0,0,1,226.83,34.51Z"/><path class="cls-3" d="M226.83,2.32a2.07,2.07,0,1,1,2.06,2.06A2.07,2.07,0,0,1,226.83,2.32Z"/><path class="cls-3" d="M194.46,324.28a2.07,2.07,0,1,1,2.06,2.06A2.06,2.06,0,0,1,194.46,324.28Z"/><path class="cls-3" d="M194.46,292.08a2.07,2.07,0,1,1,2.06,2.07A2.07,2.07,0,0,1,194.46,292.08Z"/><path class="cls-3" d="M194.46,259.88a2.07,2.07,0,1,1,2.06,2.07A2.06,2.06,0,0,1,194.46,259.88Z"/><path class="cls-3" d="M194.46,227.69a2.07,2.07,0,1,1,2.06,2.06A2.07,2.07,0,0,1,194.46,227.69Z"/><circle class="cls-3" cx="196.53" cy="195.49" r="2.07"/><circle class="cls-3" cx="196.52" cy="163.3" r="2.07"/><circle class="cls-3" cx="196.53" cy="131.1" r="2.07"/><path class="cls-3" d="M194.46,98.9a2.07,2.07,0,1,1,2.06,2.07A2.06,2.06,0,0,1,194.46,98.9Z"/><path class="cls-3" d="M194.46,66.71a2.07,2.07,0,1,1,2.06,2.06A2.07,2.07,0,0,1,194.46,66.71Z"/><path class="cls-3" d="M194.46,34.51a2.07,2.07,0,1,1,2.06,2.07A2.06,2.06,0,0,1,194.46,34.51Z"/><path class="cls-3" d="M194.46,2.32a2.07,2.07,0,1,1,2.06,2.06A2.07,2.07,0,0,1,194.46,2.32Z"/><path class="cls-3" d="M162.09,324.28a2.07,2.07,0,1,1,2.07,2.06A2.07,2.07,0,0,1,162.09,324.28Z"/><circle class="cls-3" cx="164.16" cy="292.08" r="2.07"/><circle class="cls-3" cx="164.16" cy="259.88" r="2.07"/><path class="cls-3" d="M162.09,227.69a2.07,2.07,0,1,1,2.07,2.06A2.07,2.07,0,0,1,162.09,227.69Z"/><path class="cls-3" d="M162.09,195.49a2.07,2.07,0,1,1,2.07,2.07A2.07,2.07,0,0,1,162.09,195.49Z"/><path class="cls-3" d="M162.09,163.3a2.07,2.07,0,1,1,2.07,2.06A2.07,2.07,0,0,1,162.09,163.3Z"/><circle class="cls-3" cx="164.16" cy="131.1" r="2.07"/><path class="cls-3" d="M162.09,98.9a2.07,2.07,0,1,1,2.07,2.07A2.07,2.07,0,0,1,162.09,98.9Z"/><circle class="cls-3" cx="164.16" cy="66.71" r="2.07"/><path class="cls-3" d="M162.09,34.51a2.07,2.07,0,1,1,2.07,2.07A2.07,2.07,0,0,1,162.09,34.51Z"/><path class="cls-3" d="M162.09,2.32a2.07,2.07,0,1,1,2.07,2.06A2.07,2.07,0,0,1,162.09,2.32Z"/><path class="cls-3" d="M129.72,324.28a2.07,2.07,0,1,1,2.07,2.06A2.07,2.07,0,0,1,129.72,324.28Z"/><path class="cls-3" d="M129.72,292.08a2.07,2.07,0,1,1,2.07,2.07A2.07,2.07,0,0,1,129.72,292.08Z"/><path class="cls-3" d="M129.72,259.88a2.07,2.07,0,1,1,2.07,2.07A2.07,2.07,0,0,1,129.72,259.88Z"/><circle class="cls-3" cx="131.79" cy="227.69" r="2.07"/><path class="cls-3" d="M129.72,195.49a2.07,2.07,0,1,1,2.07,2.07A2.07,2.07,0,0,1,129.72,195.49Z"/><circle class="cls-3" cx="131.79" cy="163.3" r="2.07"/><path class="cls-3" d="M129.72,131.1a2.07,2.07,0,1,1,2.07,2.07A2.07,2.07,0,0,1,129.72,131.1Z"/><path class="cls-3" d="M129.72,98.9a2.07,2.07,0,1,1,2.07,2.07A2.07,2.07,0,0,1,129.72,98.9Z"/><path class="cls-3" d="M129.72,66.71a2.07,2.07,0,1,1,2.07,2.06A2.07,2.07,0,0,1,129.72,66.71Z"/><circle class="cls-3" cx="131.79" cy="34.51" r="2.07"/><circle class="cls-3" cx="131.79" cy="2.32" r="2.07"/><path class="cls-3" d="M97.35,324.28a2.07,2.07,0,1,1,2.07,2.06A2.07,2.07,0,0,1,97.35,324.28Z"/><circle class="cls-3" cx="99.42" cy="292.08" r="2.07"/><path class="cls-3" d="M97.35,259.88A2.07,2.07,0,1,1,99.42,262,2.07,2.07,0,0,1,97.35,259.88Z"/><path class="cls-3" d="M97.35,227.69a2.07,2.07,0,1,1,2.07,2.06A2.07,2.07,0,0,1,97.35,227.69Z"/><path class="cls-3" d="M97.35,195.49a2.07,2.07,0,1,1,2.07,2.07A2.07,2.07,0,0,1,97.35,195.49Z"/><path class="cls-3" d="M97.35,163.3a2.07,2.07,0,1,1,2.07,2.06A2.07,2.07,0,0,1,97.35,163.3Z"/><path class="cls-3" d="M97.35,131.1a2.07,2.07,0,1,1,2.07,2.07A2.07,2.07,0,0,1,97.35,131.1Z"/><path class="cls-3" d="M97.35,98.9A2.07,2.07,0,1,1,99.42,101,2.07,2.07,0,0,1,97.35,98.9Z"/><circle class="cls-3" cx="99.42" cy="66.71" r="2.07"/><path class="cls-3" d="M97.35,34.51a2.07,2.07,0,1,1,2.07,2.07A2.07,2.07,0,0,1,97.35,34.51Z"/><path class="cls-3" d="M97.35,2.32a2.07,2.07,0,1,1,2.07,2.06A2.07,2.07,0,0,1,97.35,2.32Z"/><path class="cls-3" d="M65,324.28a2.07,2.07,0,1,1,2.06,2.06A2.06,2.06,0,0,1,65,324.28Z"/><path class="cls-3" d="M65,292.08a2.07,2.07,0,1,1,2.06,2.07A2.07,2.07,0,0,1,65,292.08Z"/><path class="cls-3" d="M65,259.88A2.07,2.07,0,1,1,67.05,262,2.06,2.06,0,0,1,65,259.88Z"/><path class="cls-3" d="M65,227.69a2.07,2.07,0,1,1,2.06,2.06A2.07,2.07,0,0,1,65,227.69Z"/><circle class="cls-3" cx="67.05" cy="195.49" r="2.07"/><path class="cls-3" d="M65,163.3a2.07,2.07,0,1,1,2.06,2.06A2.06,2.06,0,0,1,65,163.3Z"/><circle class="cls-3" cx="67.05" cy="131.1" r="2.07"/><path class="cls-3" d="M65,98.9A2.07,2.07,0,1,1,67.05,101,2.06,2.06,0,0,1,65,98.9Z"/><path class="cls-3" d="M65,66.71a2.07,2.07,0,1,1,2.06,2.06A2.07,2.07,0,0,1,65,66.71Z"/><path class="cls-3" d="M65,34.51a2.07,2.07,0,1,1,2.06,2.07A2.06,2.06,0,0,1,65,34.51Z"/><path class="cls-3" d="M65,2.32a2.07,2.07,0,1,1,2.06,2.06A2.07,2.07,0,0,1,65,2.32Z"/><path class="cls-3" d="M32.62,324.28a2.07,2.07,0,1,1,2.06,2.06A2.06,2.06,0,0,1,32.62,324.28Z"/><path class="cls-3" d="M32.62,292.08a2.07,2.07,0,1,1,2.06,2.07A2.07,2.07,0,0,1,32.62,292.08Z"/><path class="cls-3" d="M32.62,259.88A2.07,2.07,0,1,1,34.68,262,2.06,2.06,0,0,1,32.62,259.88Z"/><path class="cls-3" d="M32.62,227.69a2.07,2.07,0,1,1,2.06,2.06A2.07,2.07,0,0,1,32.62,227.69Z"/><path class="cls-3" d="M32.62,195.49a2.07,2.07,0,1,1,2.06,2.07A2.06,2.06,0,0,1,32.62,195.49Z"/><path class="cls-3" d="M32.62,163.3a2.07,2.07,0,1,1,2.06,2.06A2.06,2.06,0,0,1,32.62,163.3Z"/><circle class="cls-3" cx="34.68" cy="131.1" r="2.07"/><circle class="cls-3" cx="34.68" cy="98.9" r="2.07"/><path class="cls-3" d="M32.62,66.71a2.07,2.07,0,1,1,2.06,2.06A2.07,2.07,0,0,1,32.62,66.71Z"/><path class="cls-3" d="M32.62,34.51a2.07,2.07,0,1,1,2.06,2.07A2.06,2.06,0,0,1,32.62,34.51Z"/><path class="cls-3" d="M32.62,2.32a2.07,2.07,0,1,1,2.06,2.06A2.07,2.07,0,0,1,32.62,2.32Z"/><circle class="cls-3" cx="2.32" cy="324.28" r="2.07"/><path class="cls-3" d="M.25,292.08a2.07,2.07,0,1,1,2.07,2.07A2.07,2.07,0,0,1,.25,292.08Z"/><path class="cls-3" d="M.25,259.88A2.07,2.07,0,1,1,2.32,262,2.07,2.07,0,0,1,.25,259.88Z"/><circle class="cls-3" cx="2.32" cy="227.69" r="2.07"/><path class="cls-3" d="M.25,195.49a2.07,2.07,0,1,1,2.07,2.07A2.07,2.07,0,0,1,.25,195.49Z"/><circle class="cls-3" cx="2.32" cy="163.3" r="2.07"/><path class="cls-3" d="M.25,131.1a2.07,2.07,0,1,1,2.07,2.07A2.07,2.07,0,0,1,.25,131.1Z"/><circle class="cls-3" cx="2.32" cy="98.9" r="2.07"/><path class="cls-3" d="M.25,66.71a2.07,2.07,0,1,1,2.07,2.06A2.07,2.07,0,0,1,.25,66.71Z"/><path class="cls-3" d="M.25,34.51a2.07,2.07,0,1,1,2.07,2.07A2.07,2.07,0,0,1,.25,34.51Z"/><circle class="cls-3" cx="2.32" cy="2.32" r="2.07"/><path class="cls-3" d="M485.77,340a2.07,2.07,0,1,1,2.07,2.06A2.07,2.07,0,0,1,485.77,340Z"/><path class="cls-3" d="M485.77,307.76a2.07,2.07,0,1,1,2.07,2.07A2.07,2.07,0,0,1,485.77,307.76Z"/><path class="cls-3" d="M485.77,275.57a2.07,2.07,0,1,1,2.07,2.06A2.07,2.07,0,0,1,485.77,275.57Z"/><path class="cls-3" d="M485.77,243.37a2.07,2.07,0,1,1,2.07,2.07A2.07,2.07,0,0,1,485.77,243.37Z"/><circle class="cls-3" cx="487.84" cy="211.17" r="2.07"/><path class="cls-3" d="M485.77,179a2.07,2.07,0,1,1,2.07,2.06A2.07,2.07,0,0,1,485.77,179Z"/><circle class="cls-3" cx="487.84" cy="146.78" r="2.07"/><path class="cls-3" d="M485.77,114.59a2.07,2.07,0,1,1,2.07,2.06A2.07,2.07,0,0,1,485.77,114.59Z"/><path class="cls-3" d="M485.77,82.39a2.07,2.07,0,1,1,2.07,2.07A2.07,2.07,0,0,1,485.77,82.39Z"/><path class="cls-3" d="M485.77,50.19a2.07,2.07,0,1,1,2.07,2.07A2.07,2.07,0,0,1,485.77,50.19Z"/><path class="cls-3" d="M485.77,18a2.07,2.07,0,1,1,2.07,2.06A2.07,2.07,0,0,1,485.77,18Z"/><path class="cls-3" d="M453.4,340a2.07,2.07,0,1,1,2.07,2.06A2.07,2.07,0,0,1,453.4,340Z"/><circle class="cls-3" cx="455.47" cy="307.76" r="2.07"/><path class="cls-3" d="M453.4,275.57a2.07,2.07,0,1,1,2.07,2.06A2.07,2.07,0,0,1,453.4,275.57Z"/><path class="cls-3" d="M453.4,243.37a2.07,2.07,0,1,1,2.07,2.07A2.07,2.07,0,0,1,453.4,243.37Z"/><path class="cls-3" d="M453.4,211.17a2.07,2.07,0,1,1,2.07,2.07A2.07,2.07,0,0,1,453.4,211.17Z"/><path class="cls-3" d="M453.4,179a2.07,2.07,0,1,1,2.07,2.06A2.07,2.07,0,0,1,453.4,179Z"/><path class="cls-3" d="M453.4,146.78a2.07,2.07,0,1,1,2.07,2.07A2.07,2.07,0,0,1,453.4,146.78Z"/><path class="cls-3" d="M453.4,114.59a2.07,2.07,0,1,1,2.07,2.06A2.07,2.07,0,0,1,453.4,114.59Z"/><circle class="cls-3" cx="455.47" cy="82.39" r="2.07"/><path class="cls-3" d="M453.4,50.19a2.07,2.07,0,1,1,2.07,2.07A2.07,2.07,0,0,1,453.4,50.19Z"/><path class="cls-3" d="M453.4,18a2.07,2.07,0,1,1,2.07,2.06A2.07,2.07,0,0,1,453.4,18Z"/><path class="cls-3" d="M421,340A2.07,2.07,0,1,1,423.1,342,2.07,2.07,0,0,1,421,340Z"/><path class="cls-3" d="M421,307.76a2.07,2.07,0,1,1,2.06,2.07A2.06,2.06,0,0,1,421,307.76Z"/><path class="cls-3" d="M421,275.57a2.07,2.07,0,1,1,2.06,2.06A2.06,2.06,0,0,1,421,275.57Z"/><circle class="cls-3" cx="423.1" cy="243.37" r="2.07"/><path class="cls-3" d="M421,211.17a2.07,2.07,0,1,1,2.06,2.07A2.06,2.06,0,0,1,421,211.17Z"/><circle class="cls-3" cx="423.1" cy="178.98" r="2.07"/><path class="cls-3" d="M421,146.78a2.07,2.07,0,1,1,2.06,2.07A2.06,2.06,0,0,1,421,146.78Z"/><path class="cls-3" d="M421,114.59a2.07,2.07,0,1,1,2.06,2.06A2.07,2.07,0,0,1,421,114.59Z"/><path class="cls-3" d="M421,82.39a2.07,2.07,0,1,1,2.06,2.07A2.07,2.07,0,0,1,421,82.39Z"/><circle class="cls-3" cx="423.1" cy="50.19" r="2.07"/><circle class="cls-3" cx="423.1" cy="18" r="2.07"/><path class="cls-3" d="M388.67,340a2.07,2.07,0,1,1,2.06,2.06A2.07,2.07,0,0,1,388.67,340Z"/><circle class="cls-3" cx="390.73" cy="307.76" r="2.07"/><circle class="cls-3" cx="390.73" cy="275.57" r="2.07"/><path class="cls-3" d="M388.67,243.37a2.07,2.07,0,1,1,2.06,2.07A2.07,2.07,0,0,1,388.67,243.37Z"/><path class="cls-3" d="M388.67,211.17a2.07,2.07,0,1,1,2.06,2.07A2.06,2.06,0,0,1,388.67,211.17Z"/><path class="cls-3" d="M388.67,179a2.07,2.07,0,1,1,2.06,2.06A2.07,2.07,0,0,1,388.67,179Z"/><circle class="cls-3" cx="390.73" cy="146.78" r="2.07"/><path class="cls-3" d="M388.67,114.59a2.07,2.07,0,1,1,2.06,2.06A2.07,2.07,0,0,1,388.67,114.59Z"/><circle class="cls-3" cx="390.73" cy="82.39" r="2.07"/><path class="cls-3" d="M388.67,50.19a2.07,2.07,0,1,1,2.06,2.07A2.06,2.06,0,0,1,388.67,50.19Z"/><path class="cls-3" d="M388.67,18a2.07,2.07,0,1,1,2.06,2.06A2.07,2.07,0,0,1,388.67,18Z"/><path class="cls-3" d="M356.3,340a2.07,2.07,0,1,1,2.07,2.06A2.07,2.07,0,0,1,356.3,340Z"/><path class="cls-3" d="M356.3,307.76a2.07,2.07,0,1,1,2.07,2.07A2.06,2.06,0,0,1,356.3,307.76Z"/><path class="cls-3" d="M356.3,275.57a2.07,2.07,0,1,1,2.07,2.06A2.06,2.06,0,0,1,356.3,275.57Z"/><path class="cls-3" d="M356.3,243.37a2.07,2.07,0,1,1,2.07,2.07A2.07,2.07,0,0,1,356.3,243.37Z"/><circle class="cls-3" cx="358.37" cy="211.17" r="2.07"/><circle class="cls-3" cx="358.37" cy="178.98" r="2.07"/><circle class="cls-3" cx="358.36" cy="146.78" r="2.07"/><path class="cls-3" d="M356.3,114.59a2.07,2.07,0,1,1,2.07,2.06A2.07,2.07,0,0,1,356.3,114.59Z"/><path class="cls-3" d="M356.3,82.39a2.07,2.07,0,1,1,2.07,2.07A2.07,2.07,0,0,1,356.3,82.39Z"/><path class="cls-3" d="M356.3,50.19a2.07,2.07,0,1,1,2.07,2.07A2.06,2.06,0,0,1,356.3,50.19Z"/><path class="cls-3" d="M356.3,18a2.07,2.07,0,1,1,2.07,2.06A2.07,2.07,0,0,1,356.3,18Z"/><circle class="cls-3" cx="326" cy="339.96" r="2.07"/><path class="cls-3" d="M323.93,307.76a2.07,2.07,0,1,1,2.07,2.07A2.07,2.07,0,0,1,323.93,307.76Z"/><path class="cls-3" d="M323.93,275.57a2.07,2.07,0,1,1,2.07,2.06A2.07,2.07,0,0,1,323.93,275.57Z"/><circle class="cls-3" cx="326" cy="243.37" r="2.07"/><path class="cls-3" d="M323.93,211.17a2.07,2.07,0,1,1,2.07,2.07A2.07,2.07,0,0,1,323.93,211.17Z"/><circle class="cls-3" cx="326" cy="178.98" r="2.07"/><path class="cls-3" d="M323.93,146.78a2.07,2.07,0,1,1,2.07,2.07A2.07,2.07,0,0,1,323.93,146.78Z"/><path class="cls-3" d="M323.93,114.59a2.07,2.07,0,1,1,2.07,2.06A2.07,2.07,0,0,1,323.93,114.59Z"/><path class="cls-3" d="M323.93,82.39A2.07,2.07,0,1,1,326,84.46,2.07,2.07,0,0,1,323.93,82.39Z"/><path class="cls-3" d="M323.93,50.19A2.07,2.07,0,1,1,326,52.26,2.07,2.07,0,0,1,323.93,50.19Z"/><circle class="cls-3" cx="326" cy="18" r="2.07"/><path class="cls-3" d="M291.56,340a2.07,2.07,0,1,1,4.13,0,2.07,2.07,0,0,1-4.13,0Z"/><path class="cls-3" d="M291.56,307.76a2.07,2.07,0,1,1,2.07,2.07A2.07,2.07,0,0,1,291.56,307.76Z"/><circle class="cls-3" cx="293.63" cy="275.57" r="2.07"/><circle class="cls-3" cx="293.63" cy="243.37" r="2.07"/><path class="cls-3" d="M291.56,211.17a2.07,2.07,0,1,1,2.07,2.07A2.07,2.07,0,0,1,291.56,211.17Z"/><path class="cls-3" d="M291.56,179a2.07,2.07,0,1,1,2.07,2.06A2.07,2.07,0,0,1,291.56,179Z"/><path class="cls-3" d="M291.56,146.78a2.07,2.07,0,1,1,2.07,2.07A2.07,2.07,0,0,1,291.56,146.78Z"/><path class="cls-3" d="M291.56,114.59a2.07,2.07,0,1,1,2.07,2.06A2.07,2.07,0,0,1,291.56,114.59Z"/><path class="cls-3" d="M291.56,82.39a2.07,2.07,0,1,1,2.07,2.07A2.07,2.07,0,0,1,291.56,82.39Z"/><circle class="cls-3" cx="293.63" cy="50.19" r="2.07"/><path class="cls-3" d="M291.56,18a2.07,2.07,0,1,1,2.07,2.06A2.07,2.07,0,0,1,291.56,18Z"/><path class="cls-3" d="M259.2,340a2.07,2.07,0,1,1,2.06,2.06A2.07,2.07,0,0,1,259.2,340Z"/><path class="cls-3" d="M259.2,307.76a2.07,2.07,0,1,1,2.06,2.07A2.06,2.06,0,0,1,259.2,307.76Z"/><circle class="cls-3" cx="261.26" cy="275.57" r="2.07"/><circle class="cls-3" cx="261.26" cy="243.37" r="2.07"/><path class="cls-3" d="M259.19,211.17a2.07,2.07,0,1,1,2.07,2.07A2.07,2.07,0,0,1,259.19,211.17Z"/><path class="cls-3" d="M259.19,179a2.07,2.07,0,1,1,2.07,2.06A2.07,2.07,0,0,1,259.19,179Z"/><path class="cls-3" d="M259.19,146.78a2.07,2.07,0,1,1,2.07,2.07A2.07,2.07,0,0,1,259.19,146.78Z"/><path class="cls-3" d="M259.2,114.59a2.07,2.07,0,1,1,2.06,2.06A2.07,2.07,0,0,1,259.2,114.59Z"/><path class="cls-3" d="M259.2,82.39a2.07,2.07,0,1,1,2.06,2.07A2.07,2.07,0,0,1,259.2,82.39Z"/><circle class="cls-3" cx="261.26" cy="50.19" r="2.07"/><circle class="cls-3" cx="261.26" cy="18" r="2.07"/><circle class="cls-3" cx="228.89" cy="339.96" r="2.07"/><path class="cls-3" d="M226.83,307.76a2.07,2.07,0,1,1,2.06,2.07A2.06,2.06,0,0,1,226.83,307.76Z"/><path class="cls-3" d="M226.83,275.57a2.07,2.07,0,1,1,2.06,2.06A2.06,2.06,0,0,1,226.83,275.57Z"/><circle class="cls-3" cx="228.89" cy="243.37" r="2.07"/><path class="cls-3" d="M226.83,211.17a2.07,2.07,0,1,1,2.06,2.07A2.06,2.06,0,0,1,226.83,211.17Z"/><circle class="cls-3" cx="228.89" cy="178.98" r="2.07"/><path class="cls-3" d="M226.83,146.78a2.07,2.07,0,1,1,2.06,2.07A2.06,2.06,0,0,1,226.83,146.78Z"/><circle class="cls-3" cx="228.89" cy="114.59" r="2.07"/><path class="cls-3" d="M226.83,82.39a2.07,2.07,0,1,1,2.06,2.07A2.07,2.07,0,0,1,226.83,82.39Z"/><path class="cls-3" d="M226.83,50.19a2.07,2.07,0,1,1,2.06,2.07A2.06,2.06,0,0,1,226.83,50.19Z"/><path class="cls-3" d="M226.83,18a2.07,2.07,0,1,1,2.06,2.06A2.07,2.07,0,0,1,226.83,18Z"/><path class="cls-3" d="M194.46,340a2.07,2.07,0,1,1,2.06,2.06A2.07,2.07,0,0,1,194.46,340Z"/><path class="cls-3" d="M194.46,307.76a2.07,2.07,0,1,1,2.06,2.07A2.06,2.06,0,0,1,194.46,307.76Z"/><path class="cls-3" d="M194.46,275.57a2.07,2.07,0,1,1,2.06,2.06A2.06,2.06,0,0,1,194.46,275.57Z"/><path class="cls-3" d="M194.46,243.37a2.07,2.07,0,1,1,2.06,2.07A2.07,2.07,0,0,1,194.46,243.37Z"/><circle class="cls-3" cx="196.53" cy="211.17" r="2.07"/><circle class="cls-3" cx="196.52" cy="178.98" r="2.07"/><circle class="cls-3" cx="196.53" cy="146.78" r="2.07"/><path class="cls-3" d="M194.46,114.59a2.07,2.07,0,1,1,2.06,2.06A2.07,2.07,0,0,1,194.46,114.59Z"/><path class="cls-3" d="M194.46,82.39a2.07,2.07,0,1,1,2.06,2.07A2.07,2.07,0,0,1,194.46,82.39Z"/><path class="cls-3" d="M194.46,50.19a2.07,2.07,0,1,1,2.06,2.07A2.06,2.06,0,0,1,194.46,50.19Z"/><path class="cls-3" d="M194.46,18a2.07,2.07,0,1,1,2.06,2.06A2.07,2.07,0,0,1,194.46,18Z"/><path class="cls-3" d="M162.09,340a2.07,2.07,0,1,1,2.07,2.06A2.07,2.07,0,0,1,162.09,340Z"/><circle class="cls-3" cx="164.16" cy="307.76" r="2.07"/><circle class="cls-3" cx="164.16" cy="275.57" r="2.07"/><path class="cls-3" d="M162.09,243.37a2.07,2.07,0,1,1,2.07,2.07A2.07,2.07,0,0,1,162.09,243.37Z"/><path class="cls-3" d="M162.09,211.17a2.07,2.07,0,1,1,2.07,2.07A2.07,2.07,0,0,1,162.09,211.17Z"/><path class="cls-3" d="M162.09,179a2.07,2.07,0,1,1,2.07,2.06A2.07,2.07,0,0,1,162.09,179Z"/><circle class="cls-3" cx="164.16" cy="146.78" r="2.07"/><path class="cls-3" d="M162.09,114.59a2.07,2.07,0,1,1,2.07,2.06A2.07,2.07,0,0,1,162.09,114.59Z"/><circle class="cls-3" cx="164.16" cy="82.39" r="2.07"/><path class="cls-3" d="M162.09,50.19a2.07,2.07,0,1,1,2.07,2.07A2.07,2.07,0,0,1,162.09,50.19Z"/><path class="cls-3" d="M162.09,18a2.07,2.07,0,1,1,2.07,2.06A2.07,2.07,0,0,1,162.09,18Z"/><path class="cls-3" d="M129.72,340a2.07,2.07,0,1,1,2.07,2.06A2.07,2.07,0,0,1,129.72,340Z"/><path class="cls-3" d="M129.72,307.76a2.07,2.07,0,1,1,2.07,2.07A2.07,2.07,0,0,1,129.72,307.76Z"/><path class="cls-3" d="M129.72,275.57a2.07,2.07,0,1,1,2.07,2.06A2.07,2.07,0,0,1,129.72,275.57Z"/><circle class="cls-3" cx="131.79" cy="243.37" r="2.07"/><path class="cls-3" d="M129.72,211.17a2.07,2.07,0,1,1,2.07,2.07A2.07,2.07,0,0,1,129.72,211.17Z"/><circle class="cls-3" cx="131.79" cy="178.98" r="2.07"/><path class="cls-3" d="M129.72,146.78a2.07,2.07,0,1,1,2.07,2.07A2.07,2.07,0,0,1,129.72,146.78Z"/><path class="cls-3" d="M129.72,114.59a2.07,2.07,0,1,1,2.07,2.06A2.07,2.07,0,0,1,129.72,114.59Z"/><path class="cls-3" d="M129.72,82.39a2.07,2.07,0,1,1,2.07,2.07A2.07,2.07,0,0,1,129.72,82.39Z"/><circle class="cls-3" cx="131.79" cy="50.19" r="2.07"/><circle class="cls-3" cx="131.79" cy="18" r="2.07"/><path class="cls-3" d="M97.35,340A2.07,2.07,0,1,1,99.42,342,2.07,2.07,0,0,1,97.35,340Z"/><circle class="cls-3" cx="99.42" cy="307.76" r="2.07"/><path class="cls-3" d="M97.35,275.57a2.07,2.07,0,1,1,2.07,2.06A2.07,2.07,0,0,1,97.35,275.57Z"/><path class="cls-3" d="M97.35,243.37a2.07,2.07,0,1,1,2.07,2.07A2.07,2.07,0,0,1,97.35,243.37Z"/><path class="cls-3" d="M97.35,211.17a2.07,2.07,0,1,1,2.07,2.07A2.07,2.07,0,0,1,97.35,211.17Z"/><path class="cls-3" d="M97.35,179A2.07,2.07,0,1,1,99.42,181,2.07,2.07,0,0,1,97.35,179Z"/><path class="cls-3" d="M97.35,146.78a2.07,2.07,0,1,1,2.07,2.07A2.07,2.07,0,0,1,97.35,146.78Z"/><path class="cls-3" d="M97.35,114.59a2.07,2.07,0,1,1,2.07,2.06A2.07,2.07,0,0,1,97.35,114.59Z"/><circle class="cls-3" cx="99.42" cy="82.39" r="2.07"/><path class="cls-3" d="M97.35,50.19a2.07,2.07,0,1,1,2.07,2.07A2.07,2.07,0,0,1,97.35,50.19Z"/><path class="cls-3" d="M97.35,18a2.07,2.07,0,1,1,2.07,2.06A2.07,2.07,0,0,1,97.35,18Z"/><path class="cls-3" d="M65,340A2.07,2.07,0,1,1,67.05,342,2.07,2.07,0,0,1,65,340Z"/><path class="cls-3" d="M65,307.76a2.07,2.07,0,1,1,2.06,2.07A2.06,2.06,0,0,1,65,307.76Z"/><path class="cls-3" d="M65,275.57a2.07,2.07,0,1,1,2.06,2.06A2.06,2.06,0,0,1,65,275.57Z"/><path class="cls-3" d="M65,243.37a2.07,2.07,0,1,1,2.06,2.07A2.07,2.07,0,0,1,65,243.37Z"/><circle class="cls-3" cx="67.05" cy="211.17" r="2.07"/><path class="cls-3" d="M65,179A2.07,2.07,0,1,1,67.05,181,2.07,2.07,0,0,1,65,179Z"/><circle class="cls-3" cx="67.05" cy="146.78" r="2.07"/><path class="cls-3" d="M65,114.59a2.07,2.07,0,1,1,2.06,2.06A2.07,2.07,0,0,1,65,114.59Z"/><path class="cls-3" d="M65,82.39a2.07,2.07,0,1,1,2.06,2.07A2.07,2.07,0,0,1,65,82.39Z"/><path class="cls-3" d="M65,50.19a2.07,2.07,0,1,1,2.06,2.07A2.06,2.06,0,0,1,65,50.19Z"/><path class="cls-3" d="M65,18a2.07,2.07,0,1,1,2.06,2.06A2.07,2.07,0,0,1,65,18Z"/><path class="cls-3" d="M32.62,340A2.07,2.07,0,1,1,34.68,342,2.07,2.07,0,0,1,32.62,340Z"/><path class="cls-3" d="M32.62,307.76a2.07,2.07,0,1,1,2.06,2.07A2.06,2.06,0,0,1,32.62,307.76Z"/><path class="cls-3" d="M32.62,275.57a2.07,2.07,0,1,1,2.06,2.06A2.06,2.06,0,0,1,32.62,275.57Z"/><path class="cls-3" d="M32.62,243.37a2.07,2.07,0,1,1,2.06,2.07A2.07,2.07,0,0,1,32.62,243.37Z"/><path class="cls-3" d="M32.62,211.17a2.07,2.07,0,1,1,2.06,2.07A2.06,2.06,0,0,1,32.62,211.17Z"/><path class="cls-3" d="M32.62,179A2.07,2.07,0,1,1,34.68,181,2.07,2.07,0,0,1,32.62,179Z"/><circle class="cls-3" cx="34.68" cy="146.78" r="2.07"/><circle class="cls-3" cx="34.68" cy="114.59" r="2.07"/><path class="cls-3" d="M32.62,82.39a2.07,2.07,0,1,1,2.06,2.07A2.07,2.07,0,0,1,32.62,82.39Z"/><path class="cls-3" d="M32.62,50.19a2.07,2.07,0,1,1,2.06,2.07A2.06,2.06,0,0,1,32.62,50.19Z"/><path class="cls-3" d="M32.62,18a2.07,2.07,0,1,1,2.06,2.06A2.07,2.07,0,0,1,32.62,18Z"/><circle class="cls-3" cx="2.32" cy="339.96" r="2.07"/><path class="cls-3" d="M.25,307.76a2.07,2.07,0,1,1,2.07,2.07A2.07,2.07,0,0,1,.25,307.76Z"/><path class="cls-3" d="M.25,275.57a2.07,2.07,0,1,1,2.07,2.06A2.07,2.07,0,0,1,.25,275.57Z"/><circle class="cls-3" cx="2.32" cy="243.37" r="2.07"/><path class="cls-3" d="M.25,211.17a2.07,2.07,0,1,1,2.07,2.07A2.07,2.07,0,0,1,.25,211.17Z"/><circle class="cls-3" cx="2.32" cy="178.98" r="2.07"/><path class="cls-3" d="M.25,146.78a2.07,2.07,0,1,1,2.07,2.07A2.07,2.07,0,0,1,.25,146.78Z"/><circle class="cls-3" cx="2.32" cy="114.59" r="2.07"/><path class="cls-3" d="M.25,82.39a2.07,2.07,0,1,1,2.07,2.07A2.07,2.07,0,0,1,.25,82.39Z"/><path class="cls-3" d="M.25,50.19a2.07,2.07,0,1,1,2.07,2.07A2.07,2.07,0,0,1,.25,50.19Z"/><circle class="cls-3" cx="2.32" cy="18" r="2.07"/><path class="cls-3" d="M502,324.28a2.07,2.07,0,1,1,2.06,2.06A2.06,2.06,0,0,1,502,324.28Z"/><path class="cls-3" d="M502,292.08a2.07,2.07,0,1,1,2.06,2.07A2.07,2.07,0,0,1,502,292.08Z"/><path class="cls-3" d="M502,259.88A2.07,2.07,0,1,1,504,262,2.06,2.06,0,0,1,502,259.88Z"/><path class="cls-3" d="M502,227.69a2.07,2.07,0,1,1,2.06,2.06A2.07,2.07,0,0,1,502,227.69Z"/><circle class="cls-3" cx="504.02" cy="195.49" r="2.07"/><path class="cls-3" d="M502,163.3a2.07,2.07,0,1,1,2.06,2.06A2.06,2.06,0,0,1,502,163.3Z"/><circle class="cls-3" cx="504.02" cy="131.1" r="2.07"/><path class="cls-3" d="M502,98.9A2.07,2.07,0,1,1,504,101,2.06,2.06,0,0,1,502,98.9Z"/><path class="cls-3" d="M502,66.71A2.07,2.07,0,1,1,504,68.77,2.07,2.07,0,0,1,502,66.71Z"/><path class="cls-3" d="M502,34.51A2.07,2.07,0,1,1,504,36.58,2.06,2.06,0,0,1,502,34.51Z"/><path class="cls-3" d="M502,2.32A2.07,2.07,0,1,1,504,4.38,2.07,2.07,0,0,1,502,2.32Z"/><path class="cls-3" d="M469.59,324.28a2.07,2.07,0,1,1,2.06,2.06A2.06,2.06,0,0,1,469.59,324.28Z"/><circle class="cls-3" cx="471.65" cy="292.08" r="2.07"/><path class="cls-3" d="M469.59,259.88a2.07,2.07,0,1,1,2.06,2.07A2.06,2.06,0,0,1,469.59,259.88Z"/><path class="cls-3" d="M469.59,227.69a2.07,2.07,0,1,1,2.06,2.06A2.07,2.07,0,0,1,469.59,227.69Z"/><path class="cls-3" d="M469.59,195.49a2.07,2.07,0,1,1,2.06,2.07A2.06,2.06,0,0,1,469.59,195.49Z"/><path class="cls-3" d="M469.59,163.3a2.07,2.07,0,1,1,2.06,2.06A2.06,2.06,0,0,1,469.59,163.3Z"/><path class="cls-3" d="M469.59,131.1a2.07,2.07,0,1,1,2.06,2.07A2.07,2.07,0,0,1,469.59,131.1Z"/><path class="cls-3" d="M469.59,98.9a2.07,2.07,0,1,1,2.06,2.07A2.06,2.06,0,0,1,469.59,98.9Z"/><circle class="cls-3" cx="471.65" cy="66.71" r="2.07"/><path class="cls-3" d="M469.59,34.51a2.07,2.07,0,1,1,2.06,2.07A2.06,2.06,0,0,1,469.59,34.51Z"/><path class="cls-3" d="M469.59,2.32a2.07,2.07,0,1,1,2.06,2.06A2.07,2.07,0,0,1,469.59,2.32Z"/><path class="cls-3" d="M437.22,324.28a2.07,2.07,0,1,1,2.07,2.06A2.06,2.06,0,0,1,437.22,324.28Z"/><path class="cls-3" d="M437.22,292.08a2.07,2.07,0,1,1,2.07,2.07A2.07,2.07,0,0,1,437.22,292.08Z"/><path class="cls-3" d="M437.22,259.88a2.07,2.07,0,1,1,2.07,2.07A2.06,2.06,0,0,1,437.22,259.88Z"/><circle class="cls-3" cx="439.29" cy="227.69" r="2.07"/><path class="cls-3" d="M437.22,195.49a2.07,2.07,0,1,1,2.07,2.07A2.06,2.06,0,0,1,437.22,195.49Z"/><circle class="cls-3" cx="439.28" cy="163.3" r="2.07"/><path class="cls-3" d="M437.22,131.1a2.07,2.07,0,1,1,2.07,2.07A2.07,2.07,0,0,1,437.22,131.1Z"/><path class="cls-3" d="M437.22,98.9a2.07,2.07,0,1,1,2.07,2.07A2.06,2.06,0,0,1,437.22,98.9Z"/><path class="cls-3" d="M437.22,66.71a2.07,2.07,0,1,1,2.07,2.06A2.07,2.07,0,0,1,437.22,66.71Z"/><circle class="cls-3" cx="439.29" cy="34.51" r="2.07"/><circle class="cls-3" cx="439.29" cy="2.32" r="2.07"/><path class="cls-3" d="M404.85,324.28a2.07,2.07,0,1,1,2.07,2.06A2.07,2.07,0,0,1,404.85,324.28Z"/><circle class="cls-3" cx="406.92" cy="292.08" r="2.07"/><circle class="cls-3" cx="406.92" cy="259.88" r="2.07"/><path class="cls-3" d="M404.85,227.69a2.07,2.07,0,1,1,2.07,2.06A2.07,2.07,0,0,1,404.85,227.69Z"/><path class="cls-3" d="M404.85,195.49a2.07,2.07,0,1,1,2.07,2.07A2.07,2.07,0,0,1,404.85,195.49Z"/><path class="cls-3" d="M404.85,163.3a2.07,2.07,0,1,1,2.07,2.06A2.07,2.07,0,0,1,404.85,163.3Z"/><circle class="cls-3" cx="406.92" cy="131.1" r="2.07"/><path class="cls-3" d="M404.85,98.9a2.07,2.07,0,1,1,2.07,2.07A2.07,2.07,0,0,1,404.85,98.9Z"/><circle class="cls-3" cx="406.92" cy="66.71" r="2.07"/><path class="cls-3" d="M404.85,34.51a2.07,2.07,0,1,1,2.07,2.07A2.07,2.07,0,0,1,404.85,34.51Z"/><path class="cls-3" d="M404.85,2.32a2.07,2.07,0,1,1,2.07,2.06A2.07,2.07,0,0,1,404.85,2.32Z"/><path class="cls-3" d="M372.48,324.28a2.07,2.07,0,1,1,2.07,2.06A2.07,2.07,0,0,1,372.48,324.28Z"/><path class="cls-3" d="M372.48,292.08a2.07,2.07,0,1,1,2.07,2.07A2.07,2.07,0,0,1,372.48,292.08Z"/><path class="cls-3" d="M372.48,259.88a2.07,2.07,0,1,1,2.07,2.07A2.07,2.07,0,0,1,372.48,259.88Z"/><path class="cls-3" d="M372.48,227.69a2.07,2.07,0,1,1,2.07,2.06A2.07,2.07,0,0,1,372.48,227.69Z"/><circle class="cls-3" cx="374.55" cy="195.49" r="2.07"/><circle class="cls-3" cx="374.55" cy="163.3" r="2.07"/><circle class="cls-3" cx="374.55" cy="131.1" r="2.07"/><path class="cls-3" d="M372.48,98.9a2.07,2.07,0,1,1,2.07,2.07A2.07,2.07,0,0,1,372.48,98.9Z"/><path class="cls-3" d="M372.48,66.71a2.07,2.07,0,1,1,2.07,2.06A2.07,2.07,0,0,1,372.48,66.71Z"/><path class="cls-3" d="M372.48,34.51a2.07,2.07,0,1,1,2.07,2.07A2.07,2.07,0,0,1,372.48,34.51Z"/><path class="cls-3" d="M372.48,2.32a2.07,2.07,0,1,1,2.07,2.06A2.07,2.07,0,0,1,372.48,2.32Z"/><circle class="cls-3" cx="342.18" cy="324.28" r="2.07"/><path class="cls-3" d="M340.12,292.08a2.07,2.07,0,1,1,2.06,2.07A2.07,2.07,0,0,1,340.12,292.08Z"/><path class="cls-3" d="M340.12,259.88a2.07,2.07,0,1,1,2.06,2.07A2.06,2.06,0,0,1,340.12,259.88Z"/><circle class="cls-3" cx="342.18" cy="227.69" r="2.07"/><path class="cls-3" d="M340.12,195.49a2.07,2.07,0,1,1,2.06,2.07A2.06,2.06,0,0,1,340.12,195.49Z"/><circle class="cls-3" cx="342.18" cy="163.3" r="2.07"/><path class="cls-3" d="M340.12,131.1a2.07,2.07,0,1,1,2.06,2.07A2.07,2.07,0,0,1,340.12,131.1Z"/><path class="cls-3" d="M340.12,98.9a2.07,2.07,0,1,1,2.06,2.07A2.06,2.06,0,0,1,340.12,98.9Z"/><path class="cls-3" d="M340.12,66.71a2.07,2.07,0,1,1,2.06,2.06A2.07,2.07,0,0,1,340.12,66.71Z"/><path class="cls-3" d="M340.12,34.51a2.07,2.07,0,1,1,2.06,2.07A2.06,2.06,0,0,1,340.12,34.51Z"/><circle class="cls-3" cx="342.18" cy="2.32" r="2.07"/><path class="cls-3" d="M307.75,324.28a2.07,2.07,0,1,1,2.06,2.06A2.06,2.06,0,0,1,307.75,324.28Z"/><path class="cls-3" d="M307.75,292.08a2.07,2.07,0,1,1,2.06,2.07A2.07,2.07,0,0,1,307.75,292.08Z"/><circle class="cls-3" cx="309.81" cy="259.88" r="2.07"/><circle class="cls-3" cx="309.81" cy="227.69" r="2.07"/><path class="cls-3" d="M307.75,195.49a2.07,2.07,0,1,1,2.06,2.07A2.06,2.06,0,0,1,307.75,195.49Z"/><path class="cls-3" d="M307.75,163.3a2.07,2.07,0,1,1,2.06,2.06A2.06,2.06,0,0,1,307.75,163.3Z"/><path class="cls-3" d="M307.75,131.1a2.07,2.07,0,1,1,2.06,2.07A2.07,2.07,0,0,1,307.75,131.1Z"/><path class="cls-3" d="M307.75,98.9a2.07,2.07,0,1,1,2.06,2.07A2.06,2.06,0,0,1,307.75,98.9Z"/><path class="cls-3" d="M307.75,66.71a2.07,2.07,0,1,1,2.06,2.06A2.07,2.07,0,0,1,307.75,66.71Z"/><circle class="cls-3" cx="309.81" cy="34.51" r="2.07"/><path class="cls-3" d="M307.75,2.32a2.07,2.07,0,1,1,2.06,2.06A2.07,2.07,0,0,1,307.75,2.32Z"/><path class="cls-3" d="M275.38,324.28a2.07,2.07,0,1,1,2.07,2.06A2.06,2.06,0,0,1,275.38,324.28Z"/><path class="cls-3" d="M275.38,292.08a2.07,2.07,0,1,1,2.07,2.07A2.07,2.07,0,0,1,275.38,292.08Z"/><circle class="cls-3" cx="277.45" cy="259.88" r="2.07"/><circle class="cls-3" cx="277.45" cy="227.69" r="2.07"/><path class="cls-3" d="M275.38,195.49a2.07,2.07,0,1,1,2.07,2.07A2.06,2.06,0,0,1,275.38,195.49Z"/><path class="cls-3" d="M275.38,163.3a2.07,2.07,0,1,1,2.06,2.06A2.06,2.06,0,0,1,275.38,163.3Z"/><path class="cls-3" d="M275.38,131.1a2.07,2.07,0,1,1,2.06,2.07A2.07,2.07,0,0,1,275.38,131.1Z"/><path class="cls-3" d="M275.38,98.9a2.07,2.07,0,1,1,2.07,2.07A2.06,2.06,0,0,1,275.38,98.9Z"/><path class="cls-3" d="M275.38,66.71a2.07,2.07,0,1,1,2.07,2.06A2.07,2.07,0,0,1,275.38,66.71Z"/><circle class="cls-3" cx="277.45" cy="34.51" r="2.07"/><circle class="cls-3" cx="277.45" cy="2.32" r="2.07"/><circle class="cls-3" cx="245.08" cy="324.28" r="2.07"/><path class="cls-3" d="M243,292.08a2.07,2.07,0,1,1,2.07,2.07A2.07,2.07,0,0,1,243,292.08Z"/><path class="cls-3" d="M243,259.88a2.07,2.07,0,1,1,2.07,2.07A2.07,2.07,0,0,1,243,259.88Z"/><circle class="cls-3" cx="245.08" cy="227.69" r="2.07"/><path class="cls-3" d="M243,195.49a2.07,2.07,0,1,1,2.07,2.07A2.07,2.07,0,0,1,243,195.49Z"/><circle class="cls-3" cx="245.08" cy="163.3" r="2.07"/><path class="cls-3" d="M243,131.1a2.07,2.07,0,1,1,2.07,2.07A2.07,2.07,0,0,1,243,131.1Z"/><circle class="cls-3" cx="245.08" cy="98.9" r="2.07"/><path class="cls-3" d="M243,66.71a2.07,2.07,0,1,1,2.07,2.06A2.07,2.07,0,0,1,243,66.71Z"/><path class="cls-3" d="M243,34.51a2.07,2.07,0,1,1,2.07,2.07A2.07,2.07,0,0,1,243,34.51Z"/><path class="cls-3" d="M243,2.32a2.07,2.07,0,1,1,2.07,2.06A2.07,2.07,0,0,1,243,2.32Z"/><path class="cls-3" d="M210.64,324.28a2.07,2.07,0,1,1,2.07,2.06A2.07,2.07,0,0,1,210.64,324.28Z"/><path class="cls-3" d="M210.64,292.08a2.07,2.07,0,1,1,2.07,2.07A2.07,2.07,0,0,1,210.64,292.08Z"/><path class="cls-3" d="M210.64,259.88a2.07,2.07,0,1,1,2.07,2.07A2.07,2.07,0,0,1,210.64,259.88Z"/><path class="cls-3" d="M210.64,227.69a2.07,2.07,0,1,1,2.07,2.06A2.07,2.07,0,0,1,210.64,227.69Z"/><circle class="cls-3" cx="212.71" cy="195.49" r="2.07"/><circle class="cls-3" cx="212.71" cy="163.3" r="2.07"/><circle class="cls-3" cx="212.71" cy="131.1" r="2.07"/><path class="cls-3" d="M210.64,98.9a2.07,2.07,0,1,1,2.07,2.07A2.07,2.07,0,0,1,210.64,98.9Z"/><path class="cls-3" d="M210.64,66.71a2.07,2.07,0,1,1,2.07,2.06A2.07,2.07,0,0,1,210.64,66.71Z"/><path class="cls-3" d="M210.64,34.51a2.07,2.07,0,1,1,2.07,2.07A2.07,2.07,0,0,1,210.64,34.51Z"/><path class="cls-3" d="M210.64,2.32a2.07,2.07,0,1,1,2.07,2.06A2.07,2.07,0,0,1,210.64,2.32Z"/><path class="cls-3" d="M178.27,324.28a2.07,2.07,0,1,1,2.07,2.06A2.07,2.07,0,0,1,178.27,324.28Z"/><circle class="cls-3" cx="180.34" cy="292.08" r="2.07"/><circle class="cls-3" cx="180.34" cy="259.88" r="2.07"/><path class="cls-3" d="M178.27,227.69a2.07,2.07,0,1,1,2.07,2.06A2.07,2.07,0,0,1,178.27,227.69Z"/><path class="cls-3" d="M178.27,195.49a2.07,2.07,0,1,1,2.07,2.07A2.07,2.07,0,0,1,178.27,195.49Z"/><path class="cls-3" d="M178.27,163.3a2.07,2.07,0,1,1,2.07,2.06A2.07,2.07,0,0,1,178.27,163.3Z"/><circle class="cls-3" cx="180.34" cy="131.1" r="2.07"/><path class="cls-3" d="M178.27,98.9a2.07,2.07,0,1,1,2.07,2.07A2.07,2.07,0,0,1,178.27,98.9Z"/><circle class="cls-3" cx="180.34" cy="66.71" r="2.07"/><path class="cls-3" d="M178.28,34.51a2.07,2.07,0,0,1,4.13,0,2.07,2.07,0,1,1-4.13,0Z"/><path class="cls-3" d="M178.28,2.32a2.07,2.07,0,1,1,2.06,2.06A2.06,2.06,0,0,1,178.28,2.32Z"/><path class="cls-3" d="M145.91,324.28a2.07,2.07,0,1,1,2.06,2.06A2.06,2.06,0,0,1,145.91,324.28Z"/><path class="cls-3" d="M145.91,292.08a2.07,2.07,0,1,1,2.06,2.07A2.07,2.07,0,0,1,145.91,292.08Z"/><path class="cls-3" d="M145.91,259.88A2.07,2.07,0,1,1,148,262,2.06,2.06,0,0,1,145.91,259.88Z"/><circle class="cls-3" cx="147.97" cy="227.69" r="2.07"/><path class="cls-3" d="M145.91,195.49a2.07,2.07,0,1,1,2.06,2.07A2.06,2.06,0,0,1,145.91,195.49Z"/><circle class="cls-3" cx="147.97" cy="163.3" r="2.07"/><path class="cls-3" d="M145.91,131.1a2.07,2.07,0,1,1,2.06,2.07A2.07,2.07,0,0,1,145.91,131.1Z"/><path class="cls-3" d="M145.91,98.9A2.07,2.07,0,1,1,148,101,2.06,2.06,0,0,1,145.91,98.9Z"/><path class="cls-3" d="M145.91,66.71A2.07,2.07,0,1,1,148,68.77,2.07,2.07,0,0,1,145.91,66.71Z"/><circle class="cls-3" cx="147.97" cy="34.51" r="2.07"/><circle class="cls-3" cx="147.97" cy="2.32" r="2.07"/><path class="cls-3" d="M113.54,324.28a2.07,2.07,0,1,1,2.06,2.06A2.06,2.06,0,0,1,113.54,324.28Z"/><circle class="cls-3" cx="115.6" cy="292.08" r="2.07"/><path class="cls-3" d="M113.54,259.88A2.07,2.07,0,1,1,115.6,262,2.06,2.06,0,0,1,113.54,259.88Z"/><path class="cls-3" d="M113.54,227.69a2.07,2.07,0,1,1,2.06,2.06A2.07,2.07,0,0,1,113.54,227.69Z"/><path class="cls-3" d="M113.54,195.49a2.07,2.07,0,1,1,2.06,2.07A2.06,2.06,0,0,1,113.54,195.49Z"/><path class="cls-3" d="M113.54,163.3a2.07,2.07,0,1,1,2.06,2.06A2.06,2.06,0,0,1,113.54,163.3Z"/><path class="cls-3" d="M113.54,131.1a2.07,2.07,0,1,1,2.06,2.07A2.07,2.07,0,0,1,113.54,131.1Z"/><path class="cls-3" d="M113.54,98.9A2.07,2.07,0,1,1,115.6,101,2.06,2.06,0,0,1,113.54,98.9Z"/><circle class="cls-3" cx="115.6" cy="66.71" r="2.07"/><path class="cls-3" d="M113.54,34.51a2.07,2.07,0,1,1,2.06,2.07A2.06,2.06,0,0,1,113.54,34.51Z"/><path class="cls-3" d="M113.54,2.32a2.07,2.07,0,1,1,2.06,2.06A2.07,2.07,0,0,1,113.54,2.32Z"/><path class="cls-3" d="M81.17,324.28a2.07,2.07,0,1,1,2.07,2.06A2.07,2.07,0,0,1,81.17,324.28Z"/><path class="cls-3" d="M81.17,292.08a2.07,2.07,0,1,1,2.07,2.07A2.07,2.07,0,0,1,81.17,292.08Z"/><path class="cls-3" d="M81.17,259.88A2.07,2.07,0,1,1,83.24,262,2.07,2.07,0,0,1,81.17,259.88Z"/><path class="cls-3" d="M81.17,227.69a2.07,2.07,0,1,1,2.07,2.06A2.07,2.07,0,0,1,81.17,227.69Z"/><circle class="cls-3" cx="83.24" cy="195.49" r="2.07"/><path class="cls-3" d="M81.17,163.3a2.07,2.07,0,1,1,2.07,2.06A2.07,2.07,0,0,1,81.17,163.3Z"/><circle class="cls-3" cx="83.24" cy="131.1" r="2.07"/><path class="cls-3" d="M81.17,98.9A2.07,2.07,0,1,1,83.24,101,2.07,2.07,0,0,1,81.17,98.9Z"/><path class="cls-3" d="M81.17,66.71a2.07,2.07,0,1,1,2.07,2.06A2.07,2.07,0,0,1,81.17,66.71Z"/><path class="cls-3" d="M81.17,34.51a2.07,2.07,0,1,1,2.07,2.07A2.07,2.07,0,0,1,81.17,34.51Z"/><path class="cls-3" d="M81.17,2.32a2.07,2.07,0,1,1,2.07,2.06A2.07,2.07,0,0,1,81.17,2.32Z"/><path class="cls-3" d="M48.8,324.28a2.07,2.07,0,1,1,2.07,2.06A2.07,2.07,0,0,1,48.8,324.28Z"/><path class="cls-3" d="M48.8,292.08a2.07,2.07,0,1,1,2.07,2.07A2.07,2.07,0,0,1,48.8,292.08Z"/><path class="cls-3" d="M48.8,259.88A2.07,2.07,0,1,1,50.87,262,2.07,2.07,0,0,1,48.8,259.88Z"/><path class="cls-3" d="M48.8,227.69a2.07,2.07,0,1,1,2.07,2.06A2.07,2.07,0,0,1,48.8,227.69Z"/><path class="cls-3" d="M48.8,195.49a2.07,2.07,0,1,1,2.07,2.07A2.07,2.07,0,0,1,48.8,195.49Z"/><path class="cls-3" d="M48.8,163.3a2.07,2.07,0,1,1,2.07,2.06A2.07,2.07,0,0,1,48.8,163.3Z"/><circle class="cls-3" cx="50.87" cy="131.1" r="2.07"/><circle class="cls-3" cx="50.87" cy="98.9" r="2.07"/><path class="cls-3" d="M48.8,66.71a2.07,2.07,0,1,1,2.07,2.06A2.07,2.07,0,0,1,48.8,66.71Z"/><path class="cls-3" d="M48.8,34.51a2.07,2.07,0,1,1,2.07,2.07A2.07,2.07,0,0,1,48.8,34.51Z"/><path class="cls-3" d="M48.8,2.32a2.07,2.07,0,1,1,2.07,2.06A2.07,2.07,0,0,1,48.8,2.32Z"/><circle class="cls-3" cx="18.5" cy="324.28" r="2.07"/><path class="cls-3" d="M16.43,292.08a2.07,2.07,0,1,1,2.07,2.07A2.07,2.07,0,0,1,16.43,292.08Z"/><path class="cls-3" d="M16.43,259.88A2.07,2.07,0,1,1,18.5,262,2.07,2.07,0,0,1,16.43,259.88Z"/><circle class="cls-3" cx="18.5" cy="227.69" r="2.07"/><path class="cls-3" d="M16.43,195.49a2.07,2.07,0,1,1,2.07,2.07A2.07,2.07,0,0,1,16.43,195.49Z"/><circle class="cls-3" cx="18.5" cy="163.3" r="2.07"/><path class="cls-3" d="M16.43,131.1a2.07,2.07,0,1,1,2.07,2.07A2.07,2.07,0,0,1,16.43,131.1Z"/><circle class="cls-3" cx="18.5" cy="98.9" r="2.07"/><path class="cls-3" d="M16.43,66.71a2.07,2.07,0,1,1,2.07,2.06A2.07,2.07,0,0,1,16.43,66.71Z"/><path class="cls-3" d="M16.43,34.51a2.07,2.07,0,1,1,2.07,2.07A2.07,2.07,0,0,1,16.43,34.51Z"/><circle class="cls-3" cx="18.5" cy="2.32" r="2.07"/><path class="cls-3" d="M502,340A2.07,2.07,0,1,1,504,342,2.07,2.07,0,0,1,502,340Z"/><path class="cls-3" d="M502,307.76a2.07,2.07,0,1,1,2.06,2.07A2.06,2.06,0,0,1,502,307.76Z"/><path class="cls-3" d="M502,275.57a2.07,2.07,0,1,1,2.06,2.06A2.06,2.06,0,0,1,502,275.57Z"/><path class="cls-3" d="M502,243.37a2.07,2.07,0,1,1,2.06,2.07A2.07,2.07,0,0,1,502,243.37Z"/><circle class="cls-3" cx="504.02" cy="211.17" r="2.07"/><path class="cls-3" d="M502,179A2.07,2.07,0,1,1,504,181,2.07,2.07,0,0,1,502,179Z"/><circle class="cls-3" cx="504.02" cy="146.78" r="2.07"/><path class="cls-3" d="M502,114.59a2.07,2.07,0,1,1,2.06,2.06A2.07,2.07,0,0,1,502,114.59Z"/><path class="cls-3" d="M502,82.39A2.07,2.07,0,1,1,504,84.46,2.07,2.07,0,0,1,502,82.39Z"/><path class="cls-3" d="M502,50.19A2.07,2.07,0,1,1,504,52.26,2.06,2.06,0,0,1,502,50.19Z"/><path class="cls-3" d="M502,18A2.07,2.07,0,1,1,504,20.06,2.07,2.07,0,0,1,502,18Z"/><path class="cls-3" d="M469.59,340a2.07,2.07,0,1,1,2.06,2.06A2.07,2.07,0,0,1,469.59,340Z"/><circle class="cls-3" cx="471.65" cy="307.76" r="2.07"/><path class="cls-3" d="M469.59,275.57a2.07,2.07,0,1,1,2.06,2.06A2.06,2.06,0,0,1,469.59,275.57Z"/><path class="cls-3" d="M469.59,243.37a2.07,2.07,0,1,1,2.06,2.07A2.07,2.07,0,0,1,469.59,243.37Z"/><path class="cls-3" d="M469.59,211.17a2.07,2.07,0,1,1,2.06,2.07A2.06,2.06,0,0,1,469.59,211.17Z"/><path class="cls-3" d="M469.59,179a2.07,2.07,0,1,1,2.06,2.06A2.07,2.07,0,0,1,469.59,179Z"/><path class="cls-3" d="M469.59,146.78a2.07,2.07,0,1,1,2.06,2.07A2.06,2.06,0,0,1,469.59,146.78Z"/><path class="cls-3" d="M469.59,114.59a2.07,2.07,0,1,1,2.06,2.06A2.07,2.07,0,0,1,469.59,114.59Z"/><circle class="cls-3" cx="471.65" cy="82.39" r="2.07"/><path class="cls-3" d="M469.59,50.19a2.07,2.07,0,1,1,2.06,2.07A2.06,2.06,0,0,1,469.59,50.19Z"/><path class="cls-3" d="M469.59,18a2.07,2.07,0,1,1,2.06,2.06A2.07,2.07,0,0,1,469.59,18Z"/><path class="cls-3" d="M437.22,340a2.07,2.07,0,1,1,2.07,2.06A2.07,2.07,0,0,1,437.22,340Z"/><path class="cls-3" d="M437.22,307.76a2.07,2.07,0,1,1,2.07,2.07A2.06,2.06,0,0,1,437.22,307.76Z"/><path class="cls-3" d="M437.22,275.57a2.07,2.07,0,1,1,2.07,2.06A2.06,2.06,0,0,1,437.22,275.57Z"/><circle class="cls-3" cx="439.29" cy="243.37" r="2.07"/><path class="cls-3" d="M437.22,211.17a2.07,2.07,0,1,1,2.07,2.07A2.06,2.06,0,0,1,437.22,211.17Z"/><circle class="cls-3" cx="439.28" cy="178.98" r="2.07"/><path class="cls-3" d="M437.22,146.78a2.07,2.07,0,1,1,2.07,2.07A2.06,2.06,0,0,1,437.22,146.78Z"/><path class="cls-3" d="M437.22,114.59a2.07,2.07,0,1,1,2.07,2.06A2.07,2.07,0,0,1,437.22,114.59Z"/><path class="cls-3" d="M437.22,82.39a2.07,2.07,0,1,1,2.07,2.07A2.07,2.07,0,0,1,437.22,82.39Z"/><circle class="cls-3" cx="439.29" cy="50.19" r="2.07"/><circle class="cls-3" cx="439.29" cy="18" r="2.07"/><path class="cls-3" d="M404.85,340a2.07,2.07,0,1,1,2.07,2.06A2.07,2.07,0,0,1,404.85,340Z"/><circle class="cls-3" cx="406.92" cy="307.76" r="2.07"/><circle class="cls-3" cx="406.92" cy="275.57" r="2.07"/><path class="cls-3" d="M404.85,243.37a2.07,2.07,0,1,1,2.07,2.07A2.07,2.07,0,0,1,404.85,243.37Z"/><path class="cls-3" d="M404.85,211.17a2.07,2.07,0,1,1,2.07,2.07A2.07,2.07,0,0,1,404.85,211.17Z"/><path class="cls-3" d="M404.85,179a2.07,2.07,0,1,1,2.07,2.06A2.07,2.07,0,0,1,404.85,179Z"/><circle class="cls-3" cx="406.92" cy="146.78" r="2.07"/><path class="cls-3" d="M404.85,114.59a2.07,2.07,0,1,1,2.07,2.06A2.07,2.07,0,0,1,404.85,114.59Z"/><circle class="cls-3" cx="406.92" cy="82.39" r="2.07"/><path class="cls-3" d="M404.85,50.19a2.07,2.07,0,1,1,2.07,2.07A2.07,2.07,0,0,1,404.85,50.19Z"/><path class="cls-3" d="M404.85,18a2.07,2.07,0,1,1,2.07,2.06A2.07,2.07,0,0,1,404.85,18Z"/><path class="cls-3" d="M372.48,340a2.07,2.07,0,1,1,2.07,2.06A2.07,2.07,0,0,1,372.48,340Z"/><path class="cls-3" d="M372.48,307.76a2.07,2.07,0,1,1,2.07,2.07A2.07,2.07,0,0,1,372.48,307.76Z"/><path class="cls-3" d="M372.48,275.57a2.07,2.07,0,1,1,2.07,2.06A2.07,2.07,0,0,1,372.48,275.57Z"/><path class="cls-3" d="M372.48,243.37a2.07,2.07,0,1,1,2.07,2.07A2.07,2.07,0,0,1,372.48,243.37Z"/><circle class="cls-3" cx="374.55" cy="211.17" r="2.07"/><circle class="cls-3" cx="374.55" cy="178.98" r="2.07"/><circle class="cls-3" cx="374.55" cy="146.78" r="2.07"/><path class="cls-3" d="M372.48,114.59a2.07,2.07,0,1,1,2.07,2.06A2.07,2.07,0,0,1,372.48,114.59Z"/><path class="cls-3" d="M372.48,82.39a2.07,2.07,0,1,1,2.07,2.07A2.07,2.07,0,0,1,372.48,82.39Z"/><path class="cls-3" d="M372.48,50.19a2.07,2.07,0,1,1,2.07,2.07A2.07,2.07,0,0,1,372.48,50.19Z"/><path class="cls-3" d="M372.48,18a2.07,2.07,0,1,1,2.07,2.06A2.07,2.07,0,0,1,372.48,18Z"/><circle class="cls-3" cx="342.18" cy="339.96" r="2.07"/><path class="cls-3" d="M340.12,307.76a2.07,2.07,0,1,1,2.06,2.07A2.06,2.06,0,0,1,340.12,307.76Z"/><path class="cls-3" d="M340.12,275.57a2.07,2.07,0,1,1,2.06,2.06A2.06,2.06,0,0,1,340.12,275.57Z"/><circle class="cls-3" cx="342.18" cy="243.37" r="2.07"/><path class="cls-3" d="M340.12,211.17a2.07,2.07,0,1,1,2.06,2.07A2.06,2.06,0,0,1,340.12,211.17Z"/><circle class="cls-3" cx="342.18" cy="178.98" r="2.07"/><path class="cls-3" d="M340.12,146.78a2.07,2.07,0,1,1,2.06,2.07A2.06,2.06,0,0,1,340.12,146.78Z"/><path class="cls-3" d="M340.12,114.59a2.07,2.07,0,1,1,2.06,2.06A2.07,2.07,0,0,1,340.12,114.59Z"/><path class="cls-3" d="M340.12,82.39a2.07,2.07,0,1,1,2.06,2.07A2.07,2.07,0,0,1,340.12,82.39Z"/><path class="cls-3" d="M340.12,50.19a2.07,2.07,0,1,1,2.06,2.07A2.06,2.06,0,0,1,340.12,50.19Z"/><circle class="cls-3" cx="342.18" cy="18" r="2.07"/><path class="cls-3" d="M307.75,340a2.07,2.07,0,1,1,2.06,2.06A2.07,2.07,0,0,1,307.75,340Z"/><path class="cls-3" d="M307.75,307.76a2.07,2.07,0,1,1,2.06,2.07A2.06,2.06,0,0,1,307.75,307.76Z"/><circle class="cls-3" cx="309.81" cy="275.57" r="2.07"/><circle class="cls-3" cx="309.81" cy="243.37" r="2.07"/><path class="cls-3" d="M307.75,211.17a2.07,2.07,0,1,1,2.06,2.07A2.06,2.06,0,0,1,307.75,211.17Z"/><path class="cls-3" d="M307.75,179a2.07,2.07,0,1,1,2.06,2.06A2.07,2.07,0,0,1,307.75,179Z"/><path class="cls-3" d="M307.75,146.78a2.07,2.07,0,1,1,2.06,2.07A2.06,2.06,0,0,1,307.75,146.78Z"/><path class="cls-3" d="M307.75,114.59a2.07,2.07,0,1,1,2.06,2.06A2.07,2.07,0,0,1,307.75,114.59Z"/><path class="cls-3" d="M307.75,82.39a2.07,2.07,0,1,1,2.06,2.07A2.07,2.07,0,0,1,307.75,82.39Z"/><circle class="cls-3" cx="309.81" cy="50.19" r="2.07"/><path class="cls-3" d="M307.75,18a2.07,2.07,0,1,1,2.06,2.06A2.07,2.07,0,0,1,307.75,18Z"/><path class="cls-3" d="M275.38,340a2.07,2.07,0,1,1,2.07,2.06A2.07,2.07,0,0,1,275.38,340Z"/><path class="cls-3" d="M275.38,307.76a2.07,2.07,0,1,1,2.07,2.07A2.06,2.06,0,0,1,275.38,307.76Z"/><circle class="cls-3" cx="277.45" cy="275.57" r="2.07"/><circle class="cls-3" cx="277.44" cy="243.37" r="2.07"/><path class="cls-3" d="M275.38,211.17a2.07,2.07,0,1,1,2.07,2.07A2.06,2.06,0,0,1,275.38,211.17Z"/><path class="cls-3" d="M275.38,179a2.07,2.07,0,1,1,2.06,2.06A2.07,2.07,0,0,1,275.38,179Z"/><path class="cls-3" d="M275.38,146.78a2.07,2.07,0,1,1,2.06,2.07A2.06,2.06,0,0,1,275.38,146.78Z"/><path class="cls-3" d="M275.38,114.59a2.07,2.07,0,1,1,2.07,2.06A2.07,2.07,0,0,1,275.38,114.59Z"/><path class="cls-3" d="M275.38,82.39a2.07,2.07,0,1,1,2.07,2.07A2.07,2.07,0,0,1,275.38,82.39Z"/><circle class="cls-3" cx="277.45" cy="50.19" r="2.07"/><circle class="cls-3" cx="277.45" cy="18" r="2.07"/><circle class="cls-3" cx="245.08" cy="339.96" r="2.07"/><path class="cls-3" d="M243,307.76a2.07,2.07,0,1,1,2.07,2.07A2.07,2.07,0,0,1,243,307.76Z"/><path class="cls-3" d="M243,275.57a2.07,2.07,0,1,1,2.07,2.06A2.07,2.07,0,0,1,243,275.57Z"/><circle class="cls-3" cx="245.08" cy="243.37" r="2.07"/><path class="cls-3" d="M243,211.17a2.07,2.07,0,1,1,2.07,2.07A2.07,2.07,0,0,1,243,211.17Z"/><circle class="cls-3" cx="245.08" cy="178.98" r="2.07"/><path class="cls-3" d="M243,146.78a2.07,2.07,0,1,1,2.07,2.07A2.07,2.07,0,0,1,243,146.78Z"/><circle class="cls-3" cx="245.08" cy="114.59" r="2.07"/><path class="cls-3" d="M243,82.39a2.07,2.07,0,1,1,2.07,2.07A2.07,2.07,0,0,1,243,82.39Z"/><path class="cls-3" d="M243,50.19a2.07,2.07,0,1,1,2.07,2.07A2.07,2.07,0,0,1,243,50.19Z"/><path class="cls-3" d="M243,18a2.07,2.07,0,1,1,2.07,2.06A2.07,2.07,0,0,1,243,18Z"/><path class="cls-3" d="M210.64,340a2.07,2.07,0,1,1,2.07,2.06A2.07,2.07,0,0,1,210.64,340Z"/><path class="cls-3" d="M210.64,307.76a2.07,2.07,0,1,1,2.07,2.07A2.07,2.07,0,0,1,210.64,307.76Z"/><path class="cls-3" d="M210.64,275.57a2.07,2.07,0,1,1,2.07,2.06A2.07,2.07,0,0,1,210.64,275.57Z"/><path class="cls-3" d="M210.64,243.37a2.07,2.07,0,1,1,2.07,2.07A2.07,2.07,0,0,1,210.64,243.37Z"/><circle class="cls-3" cx="212.71" cy="211.17" r="2.07"/><circle class="cls-3" cx="212.71" cy="178.98" r="2.07"/><circle class="cls-3" cx="212.71" cy="146.78" r="2.07"/><path class="cls-3" d="M210.64,114.59a2.07,2.07,0,1,1,4.13,0,2.07,2.07,0,0,1-4.13,0Z"/><path class="cls-3" d="M210.64,82.39a2.07,2.07,0,1,1,2.07,2.07A2.07,2.07,0,0,1,210.64,82.39Z"/><path class="cls-3" d="M210.64,50.19a2.07,2.07,0,1,1,2.07,2.07A2.07,2.07,0,0,1,210.64,50.19Z"/><path class="cls-3" d="M210.64,18a2.07,2.07,0,1,1,2.07,2.06A2.07,2.07,0,0,1,210.64,18Z"/><path class="cls-3" d="M178.27,340a2.07,2.07,0,1,1,2.07,2.06A2.07,2.07,0,0,1,178.27,340Z"/><circle class="cls-3" cx="180.34" cy="307.76" r="2.07"/><circle class="cls-3" cx="180.34" cy="275.57" r="2.07"/><path class="cls-3" d="M178.27,243.37a2.07,2.07,0,1,1,2.07,2.07A2.07,2.07,0,0,1,178.27,243.37Z"/><path class="cls-3" d="M178.27,211.17a2.07,2.07,0,1,1,2.07,2.07A2.07,2.07,0,0,1,178.27,211.17Z"/><path class="cls-3" d="M178.27,179a2.07,2.07,0,1,1,2.07,2.06A2.07,2.07,0,0,1,178.27,179Z"/><circle class="cls-3" cx="180.34" cy="146.78" r="2.07"/><path class="cls-3" d="M178.27,114.59a2.07,2.07,0,1,1,2.07,2.06A2.07,2.07,0,0,1,178.27,114.59Z"/><circle class="cls-3" cx="180.34" cy="82.39" r="2.07"/><path class="cls-3" d="M178.28,50.19a2.07,2.07,0,1,1,2.06,2.07A2.05,2.05,0,0,1,178.28,50.19Z"/><path class="cls-3" d="M178.28,18a2.07,2.07,0,1,1,2.06,2.06A2.06,2.06,0,0,1,178.28,18Z"/><path class="cls-3" d="M145.91,340A2.07,2.07,0,1,1,148,342,2.07,2.07,0,0,1,145.91,340Z"/><path class="cls-3" d="M145.91,307.76a2.07,2.07,0,1,1,2.06,2.07A2.06,2.06,0,0,1,145.91,307.76Z"/><path class="cls-3" d="M145.91,275.57a2.07,2.07,0,1,1,2.06,2.06A2.06,2.06,0,0,1,145.91,275.57Z"/><circle class="cls-3" cx="147.97" cy="243.37" r="2.07"/><path class="cls-3" d="M145.91,211.17a2.07,2.07,0,1,1,2.06,2.07A2.06,2.06,0,0,1,145.91,211.17Z"/><circle class="cls-3" cx="147.97" cy="178.98" r="2.07"/><path class="cls-3" d="M145.91,146.78a2.07,2.07,0,1,1,2.06,2.07A2.06,2.06,0,0,1,145.91,146.78Z"/><path class="cls-3" d="M145.91,114.59a2.07,2.07,0,1,1,2.06,2.06A2.07,2.07,0,0,1,145.91,114.59Z"/><path class="cls-3" d="M145.91,82.39A2.07,2.07,0,1,1,148,84.46,2.07,2.07,0,0,1,145.91,82.39Z"/><circle class="cls-3" cx="147.97" cy="50.19" r="2.07"/><circle class="cls-3" cx="147.97" cy="18" r="2.07"/><path class="cls-3" d="M113.54,340A2.07,2.07,0,1,1,115.6,342,2.07,2.07,0,0,1,113.54,340Z"/><circle class="cls-3" cx="115.6" cy="307.76" r="2.07"/><path class="cls-3" d="M113.54,275.57a2.07,2.07,0,1,1,2.06,2.06A2.06,2.06,0,0,1,113.54,275.57Z"/><path class="cls-3" d="M113.54,243.37a2.07,2.07,0,1,1,2.06,2.07A2.07,2.07,0,0,1,113.54,243.37Z"/><path class="cls-3" d="M113.54,211.17a2.07,2.07,0,1,1,2.06,2.07A2.06,2.06,0,0,1,113.54,211.17Z"/><path class="cls-3" d="M113.54,179A2.07,2.07,0,1,1,115.6,181,2.07,2.07,0,0,1,113.54,179Z"/><path class="cls-3" d="M113.54,146.78a2.07,2.07,0,1,1,2.06,2.07A2.06,2.06,0,0,1,113.54,146.78Z"/><path class="cls-3" d="M113.54,114.59a2.07,2.07,0,1,1,2.06,2.06A2.07,2.07,0,0,1,113.54,114.59Z"/><circle class="cls-3" cx="115.6" cy="82.39" r="2.07"/><path class="cls-3" d="M113.54,50.19a2.07,2.07,0,1,1,2.06,2.07A2.06,2.06,0,0,1,113.54,50.19Z"/><path class="cls-3" d="M113.54,18a2.07,2.07,0,1,1,2.06,2.06A2.07,2.07,0,0,1,113.54,18Z"/><path class="cls-3" d="M81.17,340A2.07,2.07,0,1,1,83.24,342,2.07,2.07,0,0,1,81.17,340Z"/><path class="cls-3" d="M81.17,307.76a2.07,2.07,0,1,1,2.07,2.07A2.07,2.07,0,0,1,81.17,307.76Z"/><path class="cls-3" d="M81.17,275.57a2.07,2.07,0,1,1,2.07,2.06A2.07,2.07,0,0,1,81.17,275.57Z"/><path class="cls-3" d="M81.17,243.37a2.07,2.07,0,1,1,2.07,2.07A2.07,2.07,0,0,1,81.17,243.37Z"/><circle class="cls-3" cx="83.24" cy="211.17" r="2.07"/><path class="cls-3" d="M81.17,179A2.07,2.07,0,1,1,83.24,181,2.07,2.07,0,0,1,81.17,179Z"/><circle class="cls-3" cx="83.24" cy="146.78" r="2.07"/><path class="cls-3" d="M81.17,114.59a2.07,2.07,0,1,1,2.07,2.06A2.07,2.07,0,0,1,81.17,114.59Z"/><path class="cls-3" d="M81.17,82.39a2.07,2.07,0,1,1,2.07,2.07A2.07,2.07,0,0,1,81.17,82.39Z"/><path class="cls-3" d="M81.17,50.19a2.07,2.07,0,1,1,2.07,2.07A2.07,2.07,0,0,1,81.17,50.19Z"/><path class="cls-3" d="M81.17,18a2.07,2.07,0,1,1,2.07,2.06A2.07,2.07,0,0,1,81.17,18Z"/><path class="cls-3" d="M48.8,340A2.07,2.07,0,1,1,50.87,342,2.07,2.07,0,0,1,48.8,340Z"/><path class="cls-3" d="M48.8,307.76a2.07,2.07,0,1,1,2.07,2.07A2.07,2.07,0,0,1,48.8,307.76Z"/><path class="cls-3" d="M48.8,275.57a2.07,2.07,0,1,1,2.07,2.06A2.07,2.07,0,0,1,48.8,275.57Z"/><path class="cls-3" d="M48.8,243.37a2.07,2.07,0,1,1,2.07,2.07A2.07,2.07,0,0,1,48.8,243.37Z"/><path class="cls-3" d="M48.8,211.17a2.07,2.07,0,1,1,2.07,2.07A2.07,2.07,0,0,1,48.8,211.17Z"/><path class="cls-3" d="M48.8,179A2.07,2.07,0,1,1,50.87,181,2.07,2.07,0,0,1,48.8,179Z"/><circle class="cls-3" cx="50.87" cy="146.78" r="2.07"/><circle class="cls-3" cx="50.87" cy="114.59" r="2.07"/><path class="cls-3" d="M48.8,82.39a2.07,2.07,0,1,1,2.07,2.07A2.07,2.07,0,0,1,48.8,82.39Z"/><path class="cls-3" d="M48.8,50.19a2.07,2.07,0,1,1,2.07,2.07A2.07,2.07,0,0,1,48.8,50.19Z"/><path class="cls-3" d="M48.8,18a2.07,2.07,0,1,1,2.07,2.06A2.07,2.07,0,0,1,48.8,18Z"/><circle class="cls-3" cx="18.5" cy="339.96" r="2.07"/><path class="cls-3" d="M16.43,307.76a2.07,2.07,0,1,1,2.07,2.07A2.07,2.07,0,0,1,16.43,307.76Z"/><path class="cls-3" d="M16.43,275.57a2.07,2.07,0,1,1,2.07,2.06A2.07,2.07,0,0,1,16.43,275.57Z"/><circle class="cls-3" cx="18.5" cy="243.37" r="2.07"/><path class="cls-3" d="M16.43,211.17a2.07,2.07,0,1,1,2.07,2.07A2.07,2.07,0,0,1,16.43,211.17Z"/><circle class="cls-3" cx="18.5" cy="178.98" r="2.07"/><path class="cls-3" d="M16.43,146.78a2.07,2.07,0,1,1,2.07,2.07A2.07,2.07,0,0,1,16.43,146.78Z"/><circle class="cls-3" cx="18.5" cy="114.59" r="2.07"/><path class="cls-3" d="M16.43,82.39a2.07,2.07,0,1,1,2.07,2.07A2.07,2.07,0,0,1,16.43,82.39Z"/><path class="cls-3" d="M16.43,50.19a2.07,2.07,0,1,1,2.07,2.07A2.07,2.07,0,0,1,16.43,50.19Z"/><circle class="cls-3" cx="18.5" cy="18" r="2.07"/></g><circle class="cls-4" cx="228.08" cy="170.69" r="110.2"/></g></g></svg>