<svg xmlns="http://www.w3.org/2000/svg" xmlns:xlink="http://www.w3.org/1999/xlink" viewBox="0 0 384.91 317.49"><defs><style>.cls-1{fill:none;}.cls-2{clip-path:url(#clip-path);}.cls-3,.cls-5,.cls-6{fill:#d76c38;}.cls-3,.cls-5{stroke:#fffdfa;stroke-miterlimit:10;}.cls-3{stroke-width:0.31px;}.cls-4{fill:#fffdfa;}.cls-5{stroke-width:7.65px;}</style><clipPath id="clip-path"><circle class="cls-1" cx="277.88" cy="143.01" r="105.57"/></clipPath></defs><title>Asset 135</title><g id="Layer_2" data-name="Layer 2"><g id="Layer_1-2" data-name="Layer 1"><g class="cls-2"><path class="cls-3" d="M181.57,304.6a1.3,1.3,0,1,1-1.29,1.29A1.3,1.3,0,0,1,181.57,304.6Z"/><path class="cls-3" d="M201.76,304.6a1.3,1.3,0,1,1-1.29,1.29A1.3,1.3,0,0,1,201.76,304.6Z"/><path class="cls-3" d="M222,304.6a1.3,1.3,0,1,1-1.3,1.29A1.3,1.3,0,0,1,222,304.6Z"/><path class="cls-3" d="M242.14,304.6a1.3,1.3,0,1,1-1.3,1.29A1.29,1.29,0,0,1,242.14,304.6Z"/><circle class="cls-3" cx="262.33" cy="305.89" r="1.3"/><path class="cls-3" d="M282.51,304.6a1.3,1.3,0,1,1-1.29,1.29A1.3,1.3,0,0,1,282.51,304.6Z"/><circle class="cls-3" cx="302.7" cy="305.89" r="1.3"/><path class="cls-3" d="M322.89,304.6a1.3,1.3,0,1,1-1.3,1.29A1.3,1.3,0,0,1,322.89,304.6Z"/><path class="cls-3" d="M343.08,304.6a1.3,1.3,0,1,1-1.3,1.29A1.29,1.29,0,0,1,343.08,304.6Z"/><path class="cls-3" d="M363.27,304.6a1.3,1.3,0,1,1-1.3,1.29A1.29,1.29,0,0,1,363.27,304.6Z"/><path class="cls-3" d="M383.45,304.6a1.3,1.3,0,1,1-1.29,1.29A1.3,1.3,0,0,1,383.45,304.6Z"/><path class="cls-3" d="M181.57,284.3a1.3,1.3,0,1,1-1.29,1.3A1.3,1.3,0,0,1,181.57,284.3Z"/><circle class="cls-3" cx="201.76" cy="285.6" r="1.3"/><path class="cls-3" d="M222,284.3a1.3,1.3,0,1,1-1.3,1.3A1.3,1.3,0,0,1,222,284.3Z"/><path class="cls-3" d="M242.14,284.3a1.3,1.3,0,1,1-1.3,1.3A1.3,1.3,0,0,1,242.14,284.3Z"/><path class="cls-3" d="M262.33,284.3a1.3,1.3,0,1,1-1.3,1.3A1.3,1.3,0,0,1,262.33,284.3Z"/><path class="cls-3" d="M282.51,284.3a1.3,1.3,0,1,1-1.29,1.3A1.3,1.3,0,0,1,282.51,284.3Z"/><path class="cls-3" d="M302.7,284.3a1.3,1.3,0,1,1-1.29,1.3A1.3,1.3,0,0,1,302.7,284.3Z"/><path class="cls-3" d="M322.89,284.3a1.3,1.3,0,1,1-1.3,1.3A1.3,1.3,0,0,1,322.89,284.3Z"/><circle class="cls-3" cx="343.08" cy="285.6" r="1.3"/><path class="cls-3" d="M363.27,284.3a1.3,1.3,0,1,1-1.3,1.3A1.3,1.3,0,0,1,363.27,284.3Z"/><path class="cls-3" d="M383.45,284.3a1.3,1.3,0,1,1-1.29,1.3A1.3,1.3,0,0,1,383.45,284.3Z"/><path class="cls-3" d="M181.57,264a1.3,1.3,0,1,1-1.29,1.29A1.3,1.3,0,0,1,181.57,264Z"/><path class="cls-3" d="M201.76,264a1.3,1.3,0,1,1-1.29,1.29A1.3,1.3,0,0,1,201.76,264Z"/><path class="cls-3" d="M222,264a1.3,1.3,0,1,1-1.3,1.29A1.3,1.3,0,0,1,222,264Z"/><circle class="cls-3" cx="242.14" cy="265.3" r="1.3"/><path class="cls-3" d="M262.33,264a1.3,1.3,0,1,1-1.3,1.29A1.29,1.29,0,0,1,262.33,264Z"/><circle class="cls-3" cx="282.51" cy="265.3" r="1.3"/><path class="cls-3" d="M302.7,264a1.3,1.3,0,1,1-1.29,1.29A1.3,1.3,0,0,1,302.7,264Z"/><path class="cls-3" d="M322.89,264a1.3,1.3,0,1,1-1.3,1.29A1.3,1.3,0,0,1,322.89,264Z"/><path class="cls-3" d="M343.08,264a1.3,1.3,0,1,1-1.3,1.29A1.29,1.29,0,0,1,343.08,264Z"/><circle class="cls-3" cx="363.27" cy="265.3" r="1.3"/><circle class="cls-3" cx="383.45" cy="265.3" r="1.3"/><path class="cls-3" d="M181.57,243.71a1.3,1.3,0,1,1-1.29,1.29A1.3,1.3,0,0,1,181.57,243.71Z"/><circle class="cls-3" cx="201.76" cy="245" r="1.3"/><circle class="cls-3" cx="221.95" cy="245" r="1.3"/><path class="cls-3" d="M242.14,243.71a1.3,1.3,0,1,1-1.3,1.29A1.29,1.29,0,0,1,242.14,243.71Z"/><path class="cls-3" d="M262.33,243.71A1.3,1.3,0,1,1,261,245,1.29,1.29,0,0,1,262.33,243.71Z"/><path class="cls-3" d="M282.51,243.71a1.3,1.3,0,1,1-1.29,1.29A1.3,1.3,0,0,1,282.51,243.71Z"/><circle class="cls-3" cx="302.7" cy="245" r="1.3"/><path class="cls-3" d="M322.89,243.71a1.3,1.3,0,1,1-1.3,1.29A1.3,1.3,0,0,1,322.89,243.71Z"/><circle class="cls-3" cx="343.08" cy="245" r="1.3"/><path class="cls-3" d="M363.27,243.71A1.3,1.3,0,1,1,362,245,1.29,1.29,0,0,1,363.27,243.71Z"/><path class="cls-3" d="M383.45,243.71a1.3,1.3,0,1,1-1.29,1.29A1.3,1.3,0,0,1,383.45,243.71Z"/><path class="cls-3" d="M181.57,223.41a1.3,1.3,0,1,1-1.29,1.3A1.3,1.3,0,0,1,181.57,223.41Z"/><path class="cls-3" d="M201.76,223.41a1.3,1.3,0,1,1-1.29,1.3A1.3,1.3,0,0,1,201.76,223.41Z"/><path class="cls-3" d="M222,223.41a1.3,1.3,0,1,1-1.3,1.3A1.3,1.3,0,0,1,222,223.41Z"/><path class="cls-3" d="M242.14,223.41a1.3,1.3,0,1,1-1.3,1.3A1.3,1.3,0,0,1,242.14,223.41Z"/><circle class="cls-3" cx="262.33" cy="224.71" r="1.3"/><circle class="cls-3" cx="282.51" cy="224.71" r="1.3"/><circle class="cls-3" cx="302.7" cy="224.71" r="1.3"/><path class="cls-3" d="M322.89,223.41a1.3,1.3,0,1,1-1.3,1.3A1.3,1.3,0,0,1,322.89,223.41Z"/><path class="cls-3" d="M343.08,223.41a1.3,1.3,0,1,1-1.3,1.3A1.3,1.3,0,0,1,343.08,223.41Z"/><path class="cls-3" d="M363.27,223.41a1.3,1.3,0,1,1-1.3,1.3A1.3,1.3,0,0,1,363.27,223.41Z"/><path class="cls-3" d="M383.45,223.41a1.3,1.3,0,1,1-1.29,1.3A1.3,1.3,0,0,1,383.45,223.41Z"/><circle class="cls-3" cx="181.57" cy="204.41" r="1.3"/><path class="cls-3" d="M201.76,203.12a1.3,1.3,0,1,1-1.29,1.29A1.3,1.3,0,0,1,201.76,203.12Z"/><path class="cls-3" d="M222,203.12a1.3,1.3,0,1,1-1.3,1.29A1.3,1.3,0,0,1,222,203.12Z"/><circle class="cls-3" cx="242.14" cy="204.41" r="1.3"/><path class="cls-3" d="M262.33,203.12a1.3,1.3,0,1,1-1.3,1.29A1.29,1.29,0,0,1,262.33,203.12Z"/><circle class="cls-3" cx="282.51" cy="204.41" r="1.3"/><path class="cls-3" d="M302.7,203.12a1.3,1.3,0,1,1-1.29,1.29A1.3,1.3,0,0,1,302.7,203.12Z"/><path class="cls-3" d="M322.89,203.12a1.3,1.3,0,1,1-1.3,1.29A1.3,1.3,0,0,1,322.89,203.12Z"/><path class="cls-3" d="M343.08,203.12a1.3,1.3,0,1,1-1.3,1.29A1.29,1.29,0,0,1,343.08,203.12Z"/><path class="cls-3" d="M363.27,203.12a1.3,1.3,0,1,1-1.3,1.29A1.29,1.29,0,0,1,363.27,203.12Z"/><circle class="cls-3" cx="383.45" cy="204.41" r="1.3"/><path class="cls-3" d="M181.57,182.82a1.3,1.3,0,1,1-1.29,1.3A1.3,1.3,0,0,1,181.57,182.82Z"/><path class="cls-3" d="M201.76,182.82a1.3,1.3,0,1,1-1.29,1.3A1.3,1.3,0,0,1,201.76,182.82Z"/><circle class="cls-3" cx="221.95" cy="184.12" r="1.3"/><circle class="cls-3" cx="242.14" cy="184.12" r="1.3"/><path class="cls-3" d="M262.33,182.82a1.3,1.3,0,1,1-1.3,1.3A1.3,1.3,0,0,1,262.33,182.82Z"/><path class="cls-3" d="M282.51,182.82a1.3,1.3,0,1,1-1.29,1.3A1.3,1.3,0,0,1,282.51,182.82Z"/><path class="cls-3" d="M302.7,182.82a1.3,1.3,0,1,1-1.29,1.3A1.3,1.3,0,0,1,302.7,182.82Z"/><path class="cls-3" d="M322.89,182.82a1.3,1.3,0,1,1-1.3,1.3A1.3,1.3,0,0,1,322.89,182.82Z"/><path class="cls-3" d="M343.08,182.82a1.3,1.3,0,1,1-1.3,1.3A1.3,1.3,0,0,1,343.08,182.82Z"/><circle class="cls-3" cx="363.27" cy="184.12" r="1.3"/><path class="cls-3" d="M383.45,182.82a1.3,1.3,0,1,1-1.29,1.3A1.3,1.3,0,0,1,383.45,182.82Z"/><path class="cls-3" d="M181.57,162.53a1.3,1.3,0,1,1-1.29,1.29A1.3,1.3,0,0,1,181.57,162.53Z"/><path class="cls-3" d="M201.76,162.53a1.3,1.3,0,1,1-1.29,1.29A1.3,1.3,0,0,1,201.76,162.53Z"/><circle class="cls-3" cx="221.95" cy="163.82" r="1.3"/><circle class="cls-3" cx="242.14" cy="163.82" r="1.3"/><path class="cls-3" d="M262.33,162.52a1.3,1.3,0,1,1-1.3,1.3A1.3,1.3,0,0,1,262.33,162.52Z"/><path class="cls-3" d="M282.51,162.53a1.3,1.3,0,1,1-1.29,1.29A1.29,1.29,0,0,1,282.51,162.53Z"/><path class="cls-3" d="M302.7,162.52a1.3,1.3,0,1,1,0,2.6,1.3,1.3,0,0,1,0-2.6Z"/><path class="cls-3" d="M322.89,162.53a1.3,1.3,0,1,1-1.3,1.29A1.3,1.3,0,0,1,322.89,162.53Z"/><path class="cls-3" d="M343.08,162.53a1.3,1.3,0,1,1-1.3,1.29A1.29,1.29,0,0,1,343.08,162.53Z"/><circle class="cls-3" cx="363.27" cy="163.82" r="1.3"/><circle class="cls-3" cx="383.45" cy="163.82" r="1.3"/><circle class="cls-3" cx="181.57" cy="143.52" r="1.3"/><path class="cls-3" d="M201.76,142.23a1.3,1.3,0,1,1-1.29,1.29A1.3,1.3,0,0,1,201.76,142.23Z"/><path class="cls-3" d="M222,142.23a1.3,1.3,0,1,1-1.3,1.29A1.3,1.3,0,0,1,222,142.23Z"/><circle class="cls-3" cx="242.14" cy="143.52" r="1.3"/><path class="cls-3" d="M262.33,142.23a1.3,1.3,0,1,1-1.3,1.29A1.29,1.29,0,0,1,262.33,142.23Z"/><circle class="cls-3" cx="282.51" cy="143.52" r="1.3"/><path class="cls-3" d="M302.7,142.23a1.3,1.3,0,1,1-1.29,1.29A1.3,1.3,0,0,1,302.7,142.23Z"/><circle class="cls-3" cx="322.89" cy="143.52" r="1.3"/><path class="cls-3" d="M343.08,142.23a1.3,1.3,0,1,1-1.3,1.29A1.29,1.29,0,0,1,343.08,142.23Z"/><path class="cls-3" d="M363.27,142.23a1.3,1.3,0,1,1-1.3,1.29A1.29,1.29,0,0,1,363.27,142.23Z"/><path class="cls-3" d="M383.45,142.23a1.3,1.3,0,1,1-1.29,1.29A1.3,1.3,0,0,1,383.45,142.23Z"/><path class="cls-3" d="M181.57,121.93a1.3,1.3,0,1,1-1.29,1.3A1.3,1.3,0,0,1,181.57,121.93Z"/><path class="cls-3" d="M201.76,121.93a1.3,1.3,0,1,1-1.29,1.3A1.3,1.3,0,0,1,201.76,121.93Z"/><path class="cls-3" d="M222,121.93a1.3,1.3,0,1,1-1.3,1.3A1.3,1.3,0,0,1,222,121.93Z"/><path class="cls-3" d="M242.14,121.93a1.3,1.3,0,1,1-1.3,1.3A1.3,1.3,0,0,1,242.14,121.93Z"/><circle class="cls-3" cx="262.33" cy="123.23" r="1.3"/><circle class="cls-3" cx="282.51" cy="123.23" r="1.3"/><circle class="cls-3" cx="302.7" cy="123.23" r="1.3"/><path class="cls-3" d="M322.89,121.93a1.3,1.3,0,1,1-1.3,1.3A1.3,1.3,0,0,1,322.89,121.93Z"/><path class="cls-3" d="M343.08,121.93a1.3,1.3,0,1,1-1.3,1.3A1.3,1.3,0,0,1,343.08,121.93Z"/><path class="cls-3" d="M363.27,121.93a1.3,1.3,0,1,1-1.3,1.3A1.3,1.3,0,0,1,363.27,121.93Z"/><path class="cls-3" d="M383.45,121.93a1.3,1.3,0,1,1-1.29,1.3A1.3,1.3,0,0,1,383.45,121.93Z"/><path class="cls-3" d="M181.57,101.64a1.3,1.3,0,1,1-1.29,1.29A1.3,1.3,0,0,1,181.57,101.64Z"/><circle class="cls-3" cx="201.76" cy="102.93" r="1.3"/><circle class="cls-3" cx="221.95" cy="102.93" r="1.3"/><path class="cls-3" d="M242.14,101.64a1.3,1.3,0,1,1-1.3,1.29A1.29,1.29,0,0,1,242.14,101.64Z"/><path class="cls-3" d="M262.33,101.64a1.3,1.3,0,1,1-1.3,1.29A1.29,1.29,0,0,1,262.33,101.64Z"/><path class="cls-3" d="M282.51,101.64a1.3,1.3,0,1,1-1.29,1.29A1.3,1.3,0,0,1,282.51,101.64Z"/><circle class="cls-3" cx="302.7" cy="102.93" r="1.3"/><path class="cls-3" d="M322.89,101.64a1.3,1.3,0,1,1-1.3,1.29A1.3,1.3,0,0,1,322.89,101.64Z"/><circle class="cls-3" cx="343.08" cy="102.93" r="1.3"/><path class="cls-3" d="M363.27,101.64a1.3,1.3,0,1,1-1.3,1.29A1.29,1.29,0,0,1,363.27,101.64Z"/><path class="cls-3" d="M383.45,101.64a1.3,1.3,0,1,1-1.29,1.29A1.3,1.3,0,0,1,383.45,101.64Z"/><path class="cls-3" d="M181.57,81.34a1.3,1.3,0,1,1-1.29,1.3A1.3,1.3,0,0,1,181.57,81.34Z"/><path class="cls-3" d="M201.76,81.34a1.3,1.3,0,1,1-1.29,1.3A1.3,1.3,0,0,1,201.76,81.34Z"/><path class="cls-3" d="M222,81.34a1.3,1.3,0,1,1-1.3,1.3A1.3,1.3,0,0,1,222,81.34Z"/><circle class="cls-3" cx="242.14" cy="82.64" r="1.3"/><path class="cls-3" d="M262.33,81.34a1.3,1.3,0,1,1-1.3,1.3A1.3,1.3,0,0,1,262.33,81.34Z"/><circle class="cls-3" cx="282.51" cy="82.64" r="1.3"/><path class="cls-3" d="M302.7,81.34a1.3,1.3,0,1,1-1.29,1.3A1.3,1.3,0,0,1,302.7,81.34Z"/><path class="cls-3" d="M322.89,81.34a1.3,1.3,0,1,1-1.3,1.3A1.3,1.3,0,0,1,322.89,81.34Z"/><path class="cls-3" d="M343.08,81.34a1.3,1.3,0,1,1-1.3,1.3A1.3,1.3,0,0,1,343.08,81.34Z"/><circle class="cls-3" cx="363.27" cy="82.64" r="1.3"/><circle class="cls-3" cx="383.45" cy="82.64" r="1.3"/><path class="cls-3" d="M181.57,61.05a1.3,1.3,0,1,1-1.29,1.29A1.3,1.3,0,0,1,181.57,61.05Z"/><circle class="cls-3" cx="201.76" cy="62.34" r="1.3"/><path class="cls-3" d="M222,61.05a1.3,1.3,0,1,1-1.3,1.29A1.3,1.3,0,0,1,222,61.05Z"/><path class="cls-3" d="M242.14,61.05a1.3,1.3,0,1,1-1.3,1.29A1.29,1.29,0,0,1,242.14,61.05Z"/><path class="cls-3" d="M262.33,61.05a1.28,1.28,0,0,1,1.29,1.29,1.3,1.3,0,1,1-1.29-1.29Z"/><path class="cls-3" d="M282.51,61a1.3,1.3,0,1,1-1.29,1.3A1.3,1.3,0,0,1,282.51,61Z"/><path class="cls-3" d="M302.7,61a1.3,1.3,0,1,1-1.29,1.3A1.3,1.3,0,0,1,302.7,61Z"/><path class="cls-3" d="M322.89,61.05a1.3,1.3,0,1,1-1.3,1.29A1.29,1.29,0,0,1,322.89,61.05Z"/><circle class="cls-3" cx="343.08" cy="62.34" r="1.3"/><path class="cls-3" d="M363.27,61.05a1.3,1.3,0,1,1-1.3,1.29A1.29,1.29,0,0,1,363.27,61.05Z"/><path class="cls-3" d="M383.45,61.05a1.3,1.3,0,1,1-1.29,1.29A1.3,1.3,0,0,1,383.45,61.05Z"/><path class="cls-3" d="M181.57,40.75A1.3,1.3,0,1,1,180.28,42,1.3,1.3,0,0,1,181.57,40.75Z"/><path class="cls-3" d="M201.76,40.75A1.3,1.3,0,1,1,200.47,42,1.3,1.3,0,0,1,201.76,40.75Z"/><path class="cls-3" d="M222,40.75a1.3,1.3,0,1,1-1.3,1.29A1.3,1.3,0,0,1,222,40.75Z"/><path class="cls-3" d="M242.14,40.75a1.3,1.3,0,1,1-1.3,1.29A1.29,1.29,0,0,1,242.14,40.75Z"/><circle class="cls-3" cx="262.33" cy="42.04" r="1.3"/><path class="cls-3" d="M282.51,40.75A1.3,1.3,0,1,1,281.22,42,1.3,1.3,0,0,1,282.51,40.75Z"/><circle class="cls-3" cx="302.7" cy="42.04" r="1.3"/><path class="cls-3" d="M322.89,40.75a1.3,1.3,0,1,1-1.3,1.29A1.3,1.3,0,0,1,322.89,40.75Z"/><path class="cls-3" d="M343.08,40.75a1.3,1.3,0,1,1-1.3,1.29A1.29,1.29,0,0,1,343.08,40.75Z"/><path class="cls-3" d="M363.27,40.75A1.3,1.3,0,1,1,362,42,1.29,1.29,0,0,1,363.27,40.75Z"/><path class="cls-3" d="M383.45,40.75A1.3,1.3,0,1,1,382.16,42,1.3,1.3,0,0,1,383.45,40.75Z"/><path class="cls-3" d="M181.57,20.45a1.3,1.3,0,1,1-1.29,1.3A1.3,1.3,0,0,1,181.57,20.45Z"/><path class="cls-3" d="M201.76,20.45a1.3,1.3,0,1,1-1.29,1.3A1.3,1.3,0,0,1,201.76,20.45Z"/><path class="cls-3" d="M222,20.45a1.3,1.3,0,1,1-1.3,1.3A1.3,1.3,0,0,1,222,20.45Z"/><path class="cls-3" d="M242.14,20.45a1.3,1.3,0,1,1-1.3,1.3A1.3,1.3,0,0,1,242.14,20.45Z"/><path class="cls-3" d="M262.33,20.45a1.3,1.3,0,1,1-1.3,1.3A1.3,1.3,0,0,1,262.33,20.45Z"/><path class="cls-3" d="M282.51,20.45a1.3,1.3,0,1,1-1.29,1.3A1.3,1.3,0,0,1,282.51,20.45Z"/><circle class="cls-3" cx="302.7" cy="21.75" r="1.3"/><circle class="cls-3" cx="322.89" cy="21.75" r="1.3"/><path class="cls-3" d="M343.08,20.45a1.3,1.3,0,1,1-1.3,1.3A1.3,1.3,0,0,1,343.08,20.45Z"/><path class="cls-3" d="M363.27,20.45a1.3,1.3,0,1,1-1.3,1.3A1.3,1.3,0,0,1,363.27,20.45Z"/><path class="cls-3" d="M383.45,20.45a1.3,1.3,0,1,1-1.29,1.3A1.3,1.3,0,0,1,383.45,20.45Z"/><circle class="cls-3" cx="181.57" cy="1.45" r="1.3"/><path class="cls-3" d="M201.76.16a1.3,1.3,0,1,1-1.29,1.29A1.3,1.3,0,0,1,201.76.16Z"/><path class="cls-3" d="M222,.16a1.3,1.3,0,1,1-1.3,1.29A1.3,1.3,0,0,1,222,.16Z"/><circle class="cls-3" cx="242.14" cy="1.45" r="1.3"/><path class="cls-3" d="M262.33.16A1.3,1.3,0,1,1,261,1.45,1.29,1.29,0,0,1,262.33.16Z"/><circle class="cls-3" cx="282.51" cy="1.45" r="1.3"/><path class="cls-3" d="M302.7.16a1.3,1.3,0,1,1-1.29,1.29A1.3,1.3,0,0,1,302.7.16Z"/><circle class="cls-3" cx="322.89" cy="1.45" r="1.3"/><path class="cls-3" d="M343.08.16a1.3,1.3,0,1,1-1.3,1.29A1.29,1.29,0,0,1,343.08.16Z"/><path class="cls-3" d="M363.27.16A1.3,1.3,0,1,1,362,1.45,1.29,1.29,0,0,1,363.27.16Z"/><circle class="cls-3" cx="383.45" cy="1.45" r="1.3"/><path class="cls-3" d="M171.74,304.6a1.3,1.3,0,1,1-1.3,1.29A1.3,1.3,0,0,1,171.74,304.6Z"/><path class="cls-3" d="M191.93,304.6a1.3,1.3,0,1,1-1.3,1.29A1.29,1.29,0,0,1,191.93,304.6Z"/><path class="cls-3" d="M212.12,304.6a1.3,1.3,0,1,1-1.3,1.29A1.29,1.29,0,0,1,212.12,304.6Z"/><path class="cls-3" d="M232.3,304.6a1.3,1.3,0,1,1-1.29,1.29A1.3,1.3,0,0,1,232.3,304.6Z"/><circle class="cls-3" cx="252.49" cy="305.89" r="1.3"/><path class="cls-3" d="M272.68,304.6a1.3,1.3,0,1,1-1.29,1.29A1.3,1.3,0,0,1,272.68,304.6Z"/><circle class="cls-3" cx="292.87" cy="305.89" r="1.3"/><path class="cls-3" d="M313.06,304.6a1.3,1.3,0,1,1-1.3,1.29A1.29,1.29,0,0,1,313.06,304.6Z"/><path class="cls-3" d="M333.24,304.6a1.3,1.3,0,1,1-1.29,1.29A1.3,1.3,0,0,1,333.24,304.6Z"/><path class="cls-3" d="M353.43,304.6a1.3,1.3,0,1,1-1.29,1.29A1.3,1.3,0,0,1,353.43,304.6Z"/><path class="cls-3" d="M373.62,304.6a1.3,1.3,0,1,1-1.29,1.29A1.3,1.3,0,0,1,373.62,304.6Z"/><path class="cls-3" d="M171.74,284.3a1.3,1.3,0,1,1,0,2.59,1.28,1.28,0,0,1-1.29-1.29A1.3,1.3,0,0,1,171.74,284.3Z"/><circle class="cls-3" cx="191.93" cy="285.6" r="1.3"/><path class="cls-3" d="M212.12,284.3a1.3,1.3,0,1,1-1.3,1.3A1.3,1.3,0,0,1,212.12,284.3Z"/><path class="cls-3" d="M232.3,284.3a1.3,1.3,0,1,1-1.29,1.3A1.3,1.3,0,0,1,232.3,284.3Z"/><path class="cls-3" d="M252.49,284.3a1.3,1.3,0,1,1-1.29,1.3A1.3,1.3,0,0,1,252.49,284.3Z"/><path class="cls-3" d="M272.68,284.3a1.3,1.3,0,1,1-1.29,1.3A1.3,1.3,0,0,1,272.68,284.3Z"/><path class="cls-3" d="M292.87,284.3a1.3,1.3,0,1,1-1.3,1.3A1.3,1.3,0,0,1,292.87,284.3Z"/><path class="cls-3" d="M313.06,284.3a1.3,1.3,0,1,1-1.3,1.3A1.3,1.3,0,0,1,313.06,284.3Z"/><circle class="cls-3" cx="333.24" cy="285.6" r="1.3"/><path class="cls-3" d="M353.43,284.3a1.3,1.3,0,1,1-1.29,1.3A1.3,1.3,0,0,1,353.43,284.3Z"/><path class="cls-3" d="M373.62,284.3a1.3,1.3,0,1,1-1.29,1.3A1.3,1.3,0,0,1,373.62,284.3Z"/><path class="cls-3" d="M171.74,264a1.3,1.3,0,1,1-1.29,1.29A1.28,1.28,0,0,1,171.74,264Z"/><path class="cls-3" d="M191.93,264a1.3,1.3,0,1,1-1.3,1.29A1.29,1.29,0,0,1,191.93,264Z"/><path class="cls-3" d="M212.12,264a1.3,1.3,0,1,1-1.3,1.29A1.29,1.29,0,0,1,212.12,264Z"/><circle class="cls-3" cx="232.3" cy="265.3" r="1.3"/><path class="cls-3" d="M252.49,264a1.3,1.3,0,1,1-1.29,1.29A1.3,1.3,0,0,1,252.49,264Z"/><circle class="cls-3" cx="272.68" cy="265.3" r="1.3"/><path class="cls-3" d="M292.87,264a1.3,1.3,0,1,1-1.3,1.29A1.29,1.29,0,0,1,292.87,264Z"/><path class="cls-3" d="M313.06,264a1.3,1.3,0,1,1-1.3,1.29A1.29,1.29,0,0,1,313.06,264Z"/><path class="cls-3" d="M333.25,264a1.3,1.3,0,1,1-1.3,1.29A1.29,1.29,0,0,1,333.25,264Z"/><circle class="cls-3" cx="353.43" cy="265.3" r="1.3"/><circle class="cls-3" cx="373.62" cy="265.3" r="1.3"/><path class="cls-3" d="M171.74,243.71a1.3,1.3,0,1,1-1.3,1.29A1.3,1.3,0,0,1,171.74,243.71Z"/><circle class="cls-3" cx="191.93" cy="245" r="1.3"/><circle class="cls-3" cx="212.12" cy="245" r="1.3"/><path class="cls-3" d="M232.3,243.71A1.3,1.3,0,1,1,231,245,1.3,1.3,0,0,1,232.3,243.71Z"/><path class="cls-3" d="M252.49,243.71A1.3,1.3,0,1,1,251.2,245,1.3,1.3,0,0,1,252.49,243.71Z"/><path class="cls-3" d="M272.68,243.71a1.3,1.3,0,1,1-1.29,1.29A1.3,1.3,0,0,1,272.68,243.71Z"/><circle class="cls-3" cx="292.87" cy="245" r="1.3"/><path class="cls-3" d="M313.06,243.71a1.3,1.3,0,1,1-1.3,1.29A1.29,1.29,0,0,1,313.06,243.71Z"/><circle class="cls-3" cx="333.24" cy="245" r="1.3"/><path class="cls-3" d="M353.43,243.71a1.3,1.3,0,1,1-1.29,1.29A1.3,1.3,0,0,1,353.43,243.71Z"/><path class="cls-3" d="M373.62,243.71a1.3,1.3,0,1,1-1.29,1.29A1.3,1.3,0,0,1,373.62,243.71Z"/><path class="cls-3" d="M171.74,223.41a1.3,1.3,0,1,1-1.29,1.3A1.3,1.3,0,0,1,171.74,223.41Z"/><path class="cls-3" d="M191.93,223.41a1.3,1.3,0,1,1-1.3,1.3A1.3,1.3,0,0,1,191.93,223.41Z"/><path class="cls-3" d="M212.12,223.41a1.3,1.3,0,1,1-1.3,1.3A1.3,1.3,0,0,1,212.12,223.41Z"/><path class="cls-3" d="M232.3,223.41a1.3,1.3,0,1,1-1.29,1.3A1.3,1.3,0,0,1,232.3,223.41Z"/><circle class="cls-3" cx="252.49" cy="224.71" r="1.3"/><circle class="cls-3" cx="272.68" cy="224.71" r="1.3"/><circle class="cls-3" cx="292.87" cy="224.71" r="1.3"/><path class="cls-3" d="M313.06,223.41a1.3,1.3,0,1,1-1.3,1.3A1.3,1.3,0,0,1,313.06,223.41Z"/><path class="cls-3" d="M333.25,223.41a1.3,1.3,0,1,1-1.3,1.3A1.3,1.3,0,0,1,333.25,223.41Z"/><path class="cls-3" d="M353.43,223.41a1.3,1.3,0,1,1-1.29,1.3A1.3,1.3,0,0,1,353.43,223.41Z"/><path class="cls-3" d="M373.62,223.41a1.3,1.3,0,1,1-1.29,1.3A1.3,1.3,0,0,1,373.62,223.41Z"/><circle class="cls-3" cx="171.74" cy="204.41" r="1.3"/><path class="cls-3" d="M191.93,203.12a1.3,1.3,0,1,1-1.3,1.29A1.29,1.29,0,0,1,191.93,203.12Z"/><path class="cls-3" d="M212.12,203.12a1.3,1.3,0,1,1-1.3,1.29A1.29,1.29,0,0,1,212.12,203.12Z"/><circle class="cls-3" cx="232.3" cy="204.41" r="1.3"/><path class="cls-3" d="M252.49,203.12a1.3,1.3,0,1,1-1.29,1.29A1.3,1.3,0,0,1,252.49,203.12Z"/><circle class="cls-3" cx="272.68" cy="204.41" r="1.3"/><path class="cls-3" d="M292.87,203.12a1.3,1.3,0,1,1-1.3,1.29A1.29,1.29,0,0,1,292.87,203.12Z"/><path class="cls-3" d="M313.06,203.12a1.3,1.3,0,1,1-1.3,1.29A1.29,1.29,0,0,1,313.06,203.12Z"/><path class="cls-3" d="M333.24,203.12a1.3,1.3,0,1,1-1.29,1.29A1.3,1.3,0,0,1,333.24,203.12Z"/><path class="cls-3" d="M353.43,203.12a1.3,1.3,0,1,1-1.29,1.29A1.3,1.3,0,0,1,353.43,203.12Z"/><circle class="cls-3" cx="373.62" cy="204.41" r="1.3"/><path class="cls-3" d="M171.74,182.82a1.3,1.3,0,1,1,0,2.59,1.3,1.3,0,0,1,0-2.59Z"/><path class="cls-3" d="M191.93,182.82a1.3,1.3,0,1,1-1.3,1.3A1.3,1.3,0,0,1,191.93,182.82Z"/><circle class="cls-3" cx="212.12" cy="184.12" r="1.3"/><circle class="cls-3" cx="232.3" cy="184.12" r="1.3"/><path class="cls-3" d="M252.49,182.82a1.3,1.3,0,1,1-1.29,1.3A1.3,1.3,0,0,1,252.49,182.82Z"/><path class="cls-3" d="M272.68,182.82a1.3,1.3,0,1,1-1.29,1.3A1.3,1.3,0,0,1,272.68,182.82Z"/><path class="cls-3" d="M292.87,182.82a1.3,1.3,0,1,1-1.3,1.3A1.3,1.3,0,0,1,292.87,182.82Z"/><path class="cls-3" d="M313.06,182.82a1.3,1.3,0,1,1-1.3,1.3A1.3,1.3,0,0,1,313.06,182.82Z"/><path class="cls-3" d="M333.25,182.82a1.3,1.3,0,1,1-1.3,1.3A1.3,1.3,0,0,1,333.25,182.82Z"/><circle class="cls-3" cx="353.43" cy="184.12" r="1.3"/><path class="cls-3" d="M373.62,182.82a1.3,1.3,0,1,1-1.29,1.3A1.3,1.3,0,0,1,373.62,182.82Z"/><path class="cls-3" d="M171.74,162.53a1.3,1.3,0,1,1-1.29,1.29A1.27,1.27,0,0,1,171.74,162.53Z"/><path class="cls-3" d="M191.93,162.53a1.3,1.3,0,1,1-1.3,1.29A1.29,1.29,0,0,1,191.93,162.53Z"/><circle class="cls-3" cx="212.12" cy="163.82" r="1.3"/><circle class="cls-3" cx="232.3" cy="163.82" r="1.3"/><path class="cls-3" d="M252.49,162.52a1.3,1.3,0,1,1-1.29,1.3A1.3,1.3,0,0,1,252.49,162.52Z"/><path class="cls-3" d="M272.68,162.53a1.3,1.3,0,1,1-1.29,1.29A1.29,1.29,0,0,1,272.68,162.53Z"/><path class="cls-3" d="M292.87,162.52a1.3,1.3,0,1,1-1.3,1.3A1.31,1.31,0,0,1,292.87,162.52Z"/><path class="cls-3" d="M313.06,162.53a1.3,1.3,0,1,1-1.3,1.29A1.29,1.29,0,0,1,313.06,162.53Z"/><path class="cls-3" d="M333.25,162.53a1.3,1.3,0,1,1-1.3,1.29A1.29,1.29,0,0,1,333.25,162.53Z"/><circle class="cls-3" cx="353.43" cy="163.82" r="1.3"/><circle class="cls-3" cx="373.62" cy="163.82" r="1.3"/><circle class="cls-3" cx="171.74" cy="143.52" r="1.3"/><path class="cls-3" d="M191.93,142.23a1.3,1.3,0,1,1-1.3,1.29A1.29,1.29,0,0,1,191.93,142.23Z"/><path class="cls-3" d="M212.12,142.23a1.3,1.3,0,1,1-1.3,1.29A1.29,1.29,0,0,1,212.12,142.23Z"/><circle class="cls-3" cx="232.3" cy="143.52" r="1.3"/><path class="cls-3" d="M252.49,142.23a1.3,1.3,0,1,1-1.29,1.29A1.3,1.3,0,0,1,252.49,142.23Z"/><circle class="cls-3" cx="272.68" cy="143.52" r="1.3"/><path class="cls-3" d="M292.87,142.23a1.3,1.3,0,1,1-1.3,1.29A1.29,1.29,0,0,1,292.87,142.23Z"/><circle class="cls-3" cx="313.06" cy="143.52" r="1.3"/><path class="cls-3" d="M333.24,142.23a1.3,1.3,0,1,1-1.29,1.29A1.3,1.3,0,0,1,333.24,142.23Z"/><path class="cls-3" d="M353.43,142.23a1.3,1.3,0,1,1-1.29,1.29A1.3,1.3,0,0,1,353.43,142.23Z"/><path class="cls-3" d="M373.62,142.23a1.3,1.3,0,1,1-1.29,1.29A1.3,1.3,0,0,1,373.62,142.23Z"/><path class="cls-3" d="M171.74,121.93a1.3,1.3,0,1,1-1.29,1.3A1.3,1.3,0,0,1,171.74,121.93Z"/><path class="cls-3" d="M191.93,121.93a1.3,1.3,0,1,1-1.3,1.3A1.3,1.3,0,0,1,191.93,121.93Z"/><path class="cls-3" d="M212.12,121.93a1.3,1.3,0,1,1-1.3,1.3A1.3,1.3,0,0,1,212.12,121.93Z"/><path class="cls-3" d="M232.3,121.93a1.3,1.3,0,1,1-1.29,1.3A1.3,1.3,0,0,1,232.3,121.93Z"/><circle class="cls-3" cx="252.49" cy="123.23" r="1.3"/><circle class="cls-3" cx="272.68" cy="123.23" r="1.3"/><circle class="cls-3" cx="292.87" cy="123.23" r="1.3"/><path class="cls-3" d="M313.06,121.93a1.3,1.3,0,1,1-1.3,1.3A1.3,1.3,0,0,1,313.06,121.93Z"/><path class="cls-3" d="M333.25,121.93a1.3,1.3,0,1,1-1.3,1.3A1.3,1.3,0,0,1,333.25,121.93Z"/><path class="cls-3" d="M353.43,121.93a1.3,1.3,0,1,1-1.29,1.3A1.3,1.3,0,0,1,353.43,121.93Z"/><path class="cls-3" d="M373.62,121.93a1.3,1.3,0,1,1-1.29,1.3A1.3,1.3,0,0,1,373.62,121.93Z"/><path class="cls-3" d="M171.74,101.64a1.3,1.3,0,1,1-1.3,1.29A1.3,1.3,0,0,1,171.74,101.64Z"/><circle class="cls-3" cx="191.93" cy="102.93" r="1.3"/><circle class="cls-3" cx="212.12" cy="102.93" r="1.3"/><path class="cls-3" d="M232.3,101.64a1.3,1.3,0,1,1-1.29,1.29A1.3,1.3,0,0,1,232.3,101.64Z"/><path class="cls-3" d="M252.49,101.64a1.3,1.3,0,1,1-1.29,1.29A1.3,1.3,0,0,1,252.49,101.64Z"/><path class="cls-3" d="M272.68,101.64a1.3,1.3,0,1,1-1.29,1.29A1.3,1.3,0,0,1,272.68,101.64Z"/><circle class="cls-3" cx="292.87" cy="102.93" r="1.3"/><path class="cls-3" d="M313.06,101.64a1.3,1.3,0,1,1-1.3,1.29A1.29,1.29,0,0,1,313.06,101.64Z"/><circle class="cls-3" cx="333.24" cy="102.93" r="1.3"/><path class="cls-3" d="M353.43,101.64a1.3,1.3,0,1,1-1.29,1.29A1.3,1.3,0,0,1,353.43,101.64Z"/><path class="cls-3" d="M373.62,101.64a1.3,1.3,0,1,1-1.29,1.29A1.3,1.3,0,0,1,373.62,101.64Z"/><path class="cls-3" d="M171.74,81.34a1.3,1.3,0,1,1-1.3,1.3A1.3,1.3,0,0,1,171.74,81.34Z"/><path class="cls-3" d="M191.93,81.34a1.3,1.3,0,1,1-1.3,1.3A1.3,1.3,0,0,1,191.93,81.34Z"/><path class="cls-3" d="M212.12,81.34a1.3,1.3,0,1,1-1.3,1.3A1.3,1.3,0,0,1,212.12,81.34Z"/><circle class="cls-3" cx="232.3" cy="82.64" r="1.3"/><path class="cls-3" d="M252.49,81.34a1.3,1.3,0,1,1-1.29,1.3A1.3,1.3,0,0,1,252.49,81.34Z"/><circle class="cls-3" cx="272.68" cy="82.64" r="1.3"/><path class="cls-3" d="M292.87,81.34a1.3,1.3,0,1,1-1.3,1.3A1.3,1.3,0,0,1,292.87,81.34Z"/><path class="cls-3" d="M313.06,81.34a1.3,1.3,0,1,1-1.3,1.3A1.3,1.3,0,0,1,313.06,81.34Z"/><path class="cls-3" d="M333.25,81.34a1.3,1.3,0,1,1-1.3,1.3A1.3,1.3,0,0,1,333.25,81.34Z"/><circle class="cls-3" cx="353.43" cy="82.64" r="1.3"/><circle class="cls-3" cx="373.62" cy="82.64" r="1.3"/><path class="cls-3" d="M171.74,61.05a1.3,1.3,0,1,1-1.29,1.29A1.3,1.3,0,0,1,171.74,61.05Z"/><circle class="cls-3" cx="191.93" cy="62.34" r="1.3"/><path class="cls-3" d="M212.12,61.05a1.3,1.3,0,1,1-1.3,1.29A1.29,1.29,0,0,1,212.12,61.05Z"/><path class="cls-3" d="M232.3,61.05A1.3,1.3,0,1,1,231,62.34,1.3,1.3,0,0,1,232.3,61.05Z"/><path class="cls-3" d="M252.49,61.05a1.28,1.28,0,0,1,1.3,1.29,1.3,1.3,0,1,1-1.3-1.29Z"/><path class="cls-3" d="M272.68,61a1.3,1.3,0,1,1-1.29,1.3A1.3,1.3,0,0,1,272.68,61Z"/><path class="cls-3" d="M292.87,61a1.3,1.3,0,1,1-1.3,1.3A1.3,1.3,0,0,1,292.87,61Z"/><path class="cls-3" d="M313.06,61.05a1.3,1.3,0,1,1-1.3,1.29A1.29,1.29,0,0,1,313.06,61.05Z"/><circle class="cls-3" cx="333.25" cy="62.34" r="1.3"/><path class="cls-3" d="M353.43,61.05a1.3,1.3,0,1,1-1.29,1.29A1.3,1.3,0,0,1,353.43,61.05Z"/><path class="cls-3" d="M373.62,61.05a1.3,1.3,0,1,1-1.29,1.29A1.3,1.3,0,0,1,373.62,61.05Z"/><path class="cls-3" d="M171.74,40.75a1.3,1.3,0,1,1-1.3,1.29A1.3,1.3,0,0,1,171.74,40.75Z"/><path class="cls-3" d="M191.93,40.75a1.3,1.3,0,1,1-1.3,1.29A1.29,1.29,0,0,1,191.93,40.75Z"/><path class="cls-3" d="M212.12,40.75a1.3,1.3,0,1,1-1.3,1.29A1.29,1.29,0,0,1,212.12,40.75Z"/><path class="cls-3" d="M232.3,40.75A1.3,1.3,0,1,1,231,42,1.3,1.3,0,0,1,232.3,40.75Z"/><circle class="cls-3" cx="252.49" cy="42.04" r="1.3"/><path class="cls-3" d="M272.68,40.75A1.3,1.3,0,1,1,271.39,42,1.3,1.3,0,0,1,272.68,40.75Z"/><circle class="cls-3" cx="292.87" cy="42.04" r="1.3"/><path class="cls-3" d="M313.06,40.75a1.3,1.3,0,1,1-1.3,1.29A1.29,1.29,0,0,1,313.06,40.75Z"/><path class="cls-3" d="M333.24,40.75A1.3,1.3,0,1,1,332,42,1.3,1.3,0,0,1,333.24,40.75Z"/><path class="cls-3" d="M353.43,40.75A1.3,1.3,0,1,1,352.14,42,1.3,1.3,0,0,1,353.43,40.75Z"/><path class="cls-3" d="M373.62,40.75A1.3,1.3,0,1,1,372.33,42,1.3,1.3,0,0,1,373.62,40.75Z"/><path class="cls-3" d="M171.74,20.45a1.3,1.3,0,1,1,0,2.59,1.28,1.28,0,0,1-1.29-1.29A1.3,1.3,0,0,1,171.74,20.45Z"/><path class="cls-3" d="M191.93,20.45a1.3,1.3,0,1,1-1.3,1.3A1.3,1.3,0,0,1,191.93,20.45Z"/><path class="cls-3" d="M212.12,20.45a1.3,1.3,0,1,1-1.3,1.3A1.3,1.3,0,0,1,212.12,20.45Z"/><path class="cls-3" d="M232.3,20.45a1.3,1.3,0,1,1-1.29,1.3A1.3,1.3,0,0,1,232.3,20.45Z"/><path class="cls-3" d="M252.49,20.45a1.3,1.3,0,1,1-1.29,1.3A1.3,1.3,0,0,1,252.49,20.45Z"/><path class="cls-3" d="M272.68,20.45a1.3,1.3,0,1,1-1.29,1.3A1.3,1.3,0,0,1,272.68,20.45Z"/><circle class="cls-3" cx="292.87" cy="21.75" r="1.3"/><circle class="cls-3" cx="313.06" cy="21.75" r="1.3"/><path class="cls-3" d="M333.25,20.45a1.3,1.3,0,1,1-1.3,1.3A1.3,1.3,0,0,1,333.25,20.45Z"/><path class="cls-3" d="M353.43,20.45a1.3,1.3,0,1,1-1.29,1.3A1.3,1.3,0,0,1,353.43,20.45Z"/><path class="cls-3" d="M373.62,20.45a1.3,1.3,0,1,1-1.29,1.3A1.3,1.3,0,0,1,373.62,20.45Z"/><circle class="cls-3" cx="171.74" cy="1.45" r="1.3"/><path class="cls-3" d="M191.93.16a1.3,1.3,0,1,1-1.3,1.29A1.29,1.29,0,0,1,191.93.16Z"/><path class="cls-3" d="M212.12.16a1.3,1.3,0,1,1-1.3,1.29A1.29,1.29,0,0,1,212.12.16Z"/><circle class="cls-3" cx="232.3" cy="1.45" r="1.3"/><path class="cls-3" d="M252.49.16a1.3,1.3,0,1,1-1.29,1.29A1.3,1.3,0,0,1,252.49.16Z"/><circle class="cls-3" cx="272.68" cy="1.45" r="1.3"/><path class="cls-3" d="M292.87.16a1.3,1.3,0,1,1-1.3,1.29A1.29,1.29,0,0,1,292.87.16Z"/><circle class="cls-3" cx="313.06" cy="1.45" r="1.3"/><path class="cls-3" d="M333.24.16A1.3,1.3,0,1,1,332,1.45,1.3,1.3,0,0,1,333.24.16Z"/><path class="cls-3" d="M353.43.16a1.3,1.3,0,1,1-1.29,1.29A1.3,1.3,0,0,1,353.43.16Z"/><circle class="cls-3" cx="373.62" cy="1.45" r="1.3"/><path class="cls-3" d="M181.57,314.75a1.3,1.3,0,1,1-1.29,1.29A1.3,1.3,0,0,1,181.57,314.75Z"/><path class="cls-3" d="M201.76,314.75a1.3,1.3,0,1,1-1.29,1.29A1.3,1.3,0,0,1,201.76,314.75Z"/><path class="cls-3" d="M222,314.75a1.3,1.3,0,1,1-1.3,1.29A1.3,1.3,0,0,1,222,314.75Z"/><path class="cls-3" d="M242.14,314.75a1.3,1.3,0,1,1-1.3,1.29A1.29,1.29,0,0,1,242.14,314.75Z"/><circle class="cls-3" cx="262.33" cy="316.04" r="1.3"/><path class="cls-3" d="M282.51,314.75a1.3,1.3,0,1,1-1.29,1.29A1.3,1.3,0,0,1,282.51,314.75Z"/><circle class="cls-3" cx="302.7" cy="316.04" r="1.3"/><path class="cls-3" d="M322.89,314.75a1.3,1.3,0,1,1-1.3,1.29A1.3,1.3,0,0,1,322.89,314.75Z"/><path class="cls-3" d="M343.08,314.75a1.3,1.3,0,1,1-1.3,1.29A1.29,1.29,0,0,1,343.08,314.75Z"/><path class="cls-3" d="M363.27,314.75A1.3,1.3,0,1,1,362,316,1.29,1.29,0,0,1,363.27,314.75Z"/><path class="cls-3" d="M383.45,314.75a1.3,1.3,0,1,1-1.29,1.29A1.3,1.3,0,0,1,383.45,314.75Z"/><path class="cls-3" d="M181.57,294.45a1.3,1.3,0,1,1-1.29,1.29A1.3,1.3,0,0,1,181.57,294.45Z"/><circle class="cls-3" cx="201.76" cy="295.74" r="1.3"/><path class="cls-3" d="M222,294.45a1.3,1.3,0,1,1-1.3,1.29A1.3,1.3,0,0,1,222,294.45Z"/><path class="cls-3" d="M242.14,294.45a1.3,1.3,0,1,1-1.3,1.29A1.29,1.29,0,0,1,242.14,294.45Z"/><path class="cls-3" d="M262.33,294.45a1.3,1.3,0,1,1-1.3,1.29A1.29,1.29,0,0,1,262.33,294.45Z"/><path class="cls-3" d="M282.51,294.45a1.3,1.3,0,1,1-1.29,1.29A1.3,1.3,0,0,1,282.51,294.45Z"/><path class="cls-3" d="M302.7,294.45a1.3,1.3,0,1,1-1.29,1.29A1.3,1.3,0,0,1,302.7,294.45Z"/><path class="cls-3" d="M322.89,294.45a1.3,1.3,0,1,1-1.3,1.29A1.3,1.3,0,0,1,322.89,294.45Z"/><circle class="cls-3" cx="343.08" cy="295.74" r="1.3"/><path class="cls-3" d="M363.27,294.45a1.3,1.3,0,1,1-1.3,1.29A1.29,1.29,0,0,1,363.27,294.45Z"/><path class="cls-3" d="M383.45,294.45a1.3,1.3,0,1,1-1.29,1.29A1.3,1.3,0,0,1,383.45,294.45Z"/><path class="cls-3" d="M181.57,274.15a1.3,1.3,0,1,1-1.29,1.3A1.3,1.3,0,0,1,181.57,274.15Z"/><path class="cls-3" d="M201.76,274.15a1.3,1.3,0,1,1-1.29,1.3A1.3,1.3,0,0,1,201.76,274.15Z"/><path class="cls-3" d="M222,274.15a1.3,1.3,0,1,1-1.3,1.3A1.3,1.3,0,0,1,222,274.15Z"/><circle class="cls-3" cx="242.14" cy="275.45" r="1.3"/><path class="cls-3" d="M262.33,274.15a1.3,1.3,0,1,1-1.3,1.3A1.3,1.3,0,0,1,262.33,274.15Z"/><circle class="cls-3" cx="282.51" cy="275.45" r="1.3"/><path class="cls-3" d="M302.7,274.15a1.3,1.3,0,1,1-1.29,1.3A1.3,1.3,0,0,1,302.7,274.15Z"/><path class="cls-3" d="M322.89,274.15a1.3,1.3,0,1,1-1.3,1.3A1.3,1.3,0,0,1,322.89,274.15Z"/><path class="cls-3" d="M343.08,274.15a1.3,1.3,0,1,1-1.3,1.3A1.3,1.3,0,0,1,343.08,274.15Z"/><circle class="cls-3" cx="363.27" cy="275.45" r="1.3"/><circle class="cls-3" cx="383.45" cy="275.45" r="1.3"/><path class="cls-3" d="M181.57,253.86a1.3,1.3,0,1,1-1.29,1.29A1.3,1.3,0,0,1,181.57,253.86Z"/><circle class="cls-3" cx="201.76" cy="255.15" r="1.3"/><circle class="cls-3" cx="221.95" cy="255.15" r="1.3"/><path class="cls-3" d="M242.14,253.86a1.3,1.3,0,1,1-1.3,1.29A1.29,1.29,0,0,1,242.14,253.86Z"/><path class="cls-3" d="M262.33,253.86a1.3,1.3,0,1,1-1.3,1.29A1.29,1.29,0,0,1,262.33,253.86Z"/><path class="cls-3" d="M282.51,253.86a1.3,1.3,0,1,1-1.29,1.29A1.3,1.3,0,0,1,282.51,253.86Z"/><circle class="cls-3" cx="302.7" cy="255.15" r="1.3"/><path class="cls-3" d="M322.89,253.86a1.3,1.3,0,1,1-1.3,1.29A1.3,1.3,0,0,1,322.89,253.86Z"/><circle class="cls-3" cx="343.08" cy="255.15" r="1.3"/><path class="cls-3" d="M363.27,253.86a1.3,1.3,0,1,1-1.3,1.29A1.29,1.29,0,0,1,363.27,253.86Z"/><path class="cls-3" d="M383.45,253.86a1.3,1.3,0,1,1-1.29,1.29A1.3,1.3,0,0,1,383.45,253.86Z"/><path class="cls-3" d="M181.57,233.56a1.3,1.3,0,1,1-1.29,1.3A1.3,1.3,0,0,1,181.57,233.56Z"/><path class="cls-3" d="M201.76,233.56a1.3,1.3,0,1,1-1.29,1.3A1.3,1.3,0,0,1,201.76,233.56Z"/><path class="cls-3" d="M222,233.56a1.3,1.3,0,1,1-1.3,1.3A1.3,1.3,0,0,1,222,233.56Z"/><path class="cls-3" d="M242.14,233.56a1.3,1.3,0,1,1-1.3,1.3A1.3,1.3,0,0,1,242.14,233.56Z"/><circle class="cls-3" cx="262.33" cy="234.86" r="1.3"/><circle class="cls-3" cx="282.51" cy="234.86" r="1.3"/><circle class="cls-3" cx="302.7" cy="234.86" r="1.3"/><path class="cls-3" d="M322.89,233.56a1.3,1.3,0,1,1-1.3,1.3A1.3,1.3,0,0,1,322.89,233.56Z"/><path class="cls-3" d="M343.08,233.56a1.3,1.3,0,1,1-1.3,1.3A1.3,1.3,0,0,1,343.08,233.56Z"/><path class="cls-3" d="M363.27,233.56a1.3,1.3,0,1,1-1.3,1.3A1.3,1.3,0,0,1,363.27,233.56Z"/><path class="cls-3" d="M383.45,233.56a1.3,1.3,0,1,1-1.29,1.3A1.3,1.3,0,0,1,383.45,233.56Z"/><circle class="cls-3" cx="181.57" cy="214.56" r="1.3"/><path class="cls-3" d="M201.76,213.27a1.3,1.3,0,1,1-1.29,1.29A1.3,1.3,0,0,1,201.76,213.27Z"/><path class="cls-3" d="M222,213.27a1.3,1.3,0,1,1-1.3,1.29A1.3,1.3,0,0,1,222,213.27Z"/><circle class="cls-3" cx="242.14" cy="214.56" r="1.3"/><path class="cls-3" d="M262.33,213.27a1.3,1.3,0,1,1-1.3,1.29A1.29,1.29,0,0,1,262.33,213.27Z"/><circle class="cls-3" cx="282.51" cy="214.56" r="1.3"/><path class="cls-3" d="M302.7,213.27a1.3,1.3,0,1,1-1.29,1.29A1.3,1.3,0,0,1,302.7,213.27Z"/><path class="cls-3" d="M322.89,213.27a1.3,1.3,0,1,1-1.3,1.29A1.3,1.3,0,0,1,322.89,213.27Z"/><path class="cls-3" d="M343.08,213.27a1.3,1.3,0,1,1-1.3,1.29A1.29,1.29,0,0,1,343.08,213.27Z"/><path class="cls-3" d="M363.27,213.27a1.3,1.3,0,1,1-1.3,1.29A1.29,1.29,0,0,1,363.27,213.27Z"/><circle class="cls-3" cx="383.45" cy="214.56" r="1.3"/><path class="cls-3" d="M181.57,193a1.3,1.3,0,1,1-1.29,1.29A1.3,1.3,0,0,1,181.57,193Z"/><path class="cls-3" d="M201.76,193a1.3,1.3,0,1,1-1.29,1.29A1.3,1.3,0,0,1,201.76,193Z"/><circle class="cls-3" cx="221.95" cy="194.26" r="1.3"/><circle class="cls-3" cx="242.14" cy="194.26" r="1.3"/><path class="cls-3" d="M262.33,193a1.3,1.3,0,1,1-1.3,1.29A1.29,1.29,0,0,1,262.33,193Z"/><path class="cls-3" d="M282.51,193a1.3,1.3,0,1,1-1.29,1.29A1.3,1.3,0,0,1,282.51,193Z"/><path class="cls-3" d="M302.7,193a1.3,1.3,0,1,1-1.29,1.29A1.3,1.3,0,0,1,302.7,193Z"/><path class="cls-3" d="M322.89,193a1.3,1.3,0,1,1-1.3,1.29A1.3,1.3,0,0,1,322.89,193Z"/><path class="cls-3" d="M343.08,193a1.3,1.3,0,1,1-1.3,1.29A1.29,1.29,0,0,1,343.08,193Z"/><circle class="cls-3" cx="363.27" cy="194.26" r="1.3"/><path class="cls-3" d="M383.45,193a1.3,1.3,0,1,1-1.29,1.29A1.3,1.3,0,0,1,383.45,193Z"/><path class="cls-3" d="M181.57,172.67a1.3,1.3,0,1,1-1.29,1.3A1.3,1.3,0,0,1,181.57,172.67Z"/><path class="cls-3" d="M201.76,172.67a1.3,1.3,0,1,1-1.29,1.3A1.3,1.3,0,0,1,201.76,172.67Z"/><circle class="cls-3" cx="221.95" cy="173.97" r="1.3"/><circle class="cls-3" cx="242.14" cy="173.97" r="1.3"/><path class="cls-3" d="M262.33,172.67A1.3,1.3,0,1,1,261,174,1.3,1.3,0,0,1,262.33,172.67Z"/><path class="cls-3" d="M282.51,172.67a1.3,1.3,0,1,1-1.29,1.3A1.3,1.3,0,0,1,282.51,172.67Z"/><path class="cls-3" d="M302.7,172.67a1.3,1.3,0,1,1-1.29,1.3A1.3,1.3,0,0,1,302.7,172.67Z"/><path class="cls-3" d="M322.89,172.67a1.3,1.3,0,1,1-1.3,1.3A1.3,1.3,0,0,1,322.89,172.67Z"/><path class="cls-3" d="M343.08,172.67a1.3,1.3,0,1,1-1.3,1.3A1.3,1.3,0,0,1,343.08,172.67Z"/><circle class="cls-3" cx="363.27" cy="173.97" r="1.3"/><circle class="cls-3" cx="383.45" cy="173.97" r="1.3"/><circle class="cls-3" cx="181.57" cy="153.67" r="1.3"/><path class="cls-3" d="M201.76,152.38a1.3,1.3,0,1,1-1.29,1.29A1.3,1.3,0,0,1,201.76,152.38Z"/><path class="cls-3" d="M222,152.38a1.3,1.3,0,1,1-1.3,1.29A1.3,1.3,0,0,1,222,152.38Z"/><circle class="cls-3" cx="242.14" cy="153.67" r="1.3"/><path class="cls-3" d="M262.33,152.38a1.3,1.3,0,1,1-1.3,1.29A1.29,1.29,0,0,1,262.33,152.38Z"/><circle class="cls-3" cx="282.51" cy="153.67" r="1.3"/><path class="cls-3" d="M302.7,152.38a1.3,1.3,0,1,1-1.29,1.29A1.3,1.3,0,0,1,302.7,152.38Z"/><circle class="cls-3" cx="322.89" cy="153.67" r="1.3"/><path class="cls-3" d="M343.08,152.38a1.3,1.3,0,1,1-1.3,1.29A1.29,1.29,0,0,1,343.08,152.38Z"/><path class="cls-3" d="M363.27,152.38a1.3,1.3,0,1,1-1.3,1.29A1.29,1.29,0,0,1,363.27,152.38Z"/><path class="cls-3" d="M383.45,152.38a1.3,1.3,0,1,1-1.29,1.29A1.3,1.3,0,0,1,383.45,152.38Z"/><path class="cls-3" d="M181.57,132.08a1.3,1.3,0,1,1-1.29,1.3A1.3,1.3,0,0,1,181.57,132.08Z"/><path class="cls-3" d="M201.76,132.08a1.3,1.3,0,1,1-1.29,1.3A1.3,1.3,0,0,1,201.76,132.08Z"/><path class="cls-3" d="M222,132.08a1.3,1.3,0,1,1-1.3,1.3A1.3,1.3,0,0,1,222,132.08Z"/><path class="cls-3" d="M242.14,132.08a1.3,1.3,0,1,1-1.3,1.3A1.3,1.3,0,0,1,242.14,132.08Z"/><circle class="cls-3" cx="262.33" cy="133.38" r="1.3"/><circle class="cls-3" cx="282.51" cy="133.38" r="1.3"/><circle class="cls-3" cx="302.7" cy="133.38" r="1.3"/><path class="cls-3" d="M322.89,132.08a1.3,1.3,0,1,1-1.3,1.3A1.3,1.3,0,0,1,322.89,132.08Z"/><path class="cls-3" d="M343.08,132.08a1.3,1.3,0,1,1-1.3,1.3A1.3,1.3,0,0,1,343.08,132.08Z"/><path class="cls-3" d="M363.27,132.08a1.3,1.3,0,1,1-1.3,1.3A1.3,1.3,0,0,1,363.27,132.08Z"/><path class="cls-3" d="M383.45,132.08a1.3,1.3,0,1,1-1.29,1.3A1.3,1.3,0,0,1,383.45,132.08Z"/><path class="cls-3" d="M181.57,111.79a1.3,1.3,0,1,1-1.29,1.29A1.3,1.3,0,0,1,181.57,111.79Z"/><circle class="cls-3" cx="201.76" cy="113.08" r="1.3"/><circle class="cls-3" cx="221.95" cy="113.08" r="1.3"/><path class="cls-3" d="M242.14,111.79a1.3,1.3,0,1,1-1.3,1.29A1.29,1.29,0,0,1,242.14,111.79Z"/><path class="cls-3" d="M262.33,111.79a1.3,1.3,0,1,1-1.3,1.29A1.29,1.29,0,0,1,262.33,111.79Z"/><path class="cls-3" d="M282.51,111.79a1.3,1.3,0,1,1-1.29,1.29A1.3,1.3,0,0,1,282.51,111.79Z"/><circle class="cls-3" cx="302.7" cy="113.08" r="1.3"/><path class="cls-3" d="M322.89,111.79a1.3,1.3,0,1,1-1.3,1.29A1.3,1.3,0,0,1,322.89,111.79Z"/><circle class="cls-3" cx="343.08" cy="113.08" r="1.3"/><path class="cls-3" d="M363.27,111.79a1.3,1.3,0,1,1-1.3,1.29A1.29,1.29,0,0,1,363.27,111.79Z"/><path class="cls-3" d="M383.45,111.79a1.3,1.3,0,1,1-1.29,1.29A1.3,1.3,0,0,1,383.45,111.79Z"/><path class="cls-3" d="M181.57,91.49a1.3,1.3,0,1,1-1.29,1.29A1.3,1.3,0,0,1,181.57,91.49Z"/><path class="cls-3" d="M201.76,91.49a1.3,1.3,0,1,1-1.29,1.29A1.3,1.3,0,0,1,201.76,91.49Z"/><path class="cls-3" d="M222,91.49a1.3,1.3,0,1,1-1.3,1.29A1.3,1.3,0,0,1,222,91.49Z"/><circle class="cls-3" cx="242.14" cy="92.78" r="1.3"/><path class="cls-3" d="M262.33,91.49a1.3,1.3,0,1,1-1.3,1.29A1.29,1.29,0,0,1,262.33,91.49Z"/><circle class="cls-3" cx="282.51" cy="92.78" r="1.3"/><path class="cls-3" d="M302.7,91.49a1.3,1.3,0,1,1-1.29,1.29A1.3,1.3,0,0,1,302.7,91.49Z"/><path class="cls-3" d="M322.89,91.49a1.3,1.3,0,1,1-1.3,1.29A1.3,1.3,0,0,1,322.89,91.49Z"/><path class="cls-3" d="M343.08,91.49a1.3,1.3,0,1,1-1.3,1.29A1.29,1.29,0,0,1,343.08,91.49Z"/><circle class="cls-3" cx="363.27" cy="92.78" r="1.3"/><circle class="cls-3" cx="383.45" cy="92.78" r="1.3"/><path class="cls-3" d="M181.57,71.19a1.3,1.3,0,1,1-1.29,1.3A1.3,1.3,0,0,1,181.57,71.19Z"/><circle class="cls-3" cx="201.76" cy="72.49" r="1.3"/><path class="cls-3" d="M222,71.19a1.3,1.3,0,1,1-1.3,1.3A1.3,1.3,0,0,1,222,71.19Z"/><path class="cls-3" d="M242.14,71.19a1.3,1.3,0,1,1-1.3,1.3A1.3,1.3,0,0,1,242.14,71.19Z"/><path class="cls-3" d="M262.33,71.19a1.3,1.3,0,1,1-1.3,1.3A1.3,1.3,0,0,1,262.33,71.19Z"/><path class="cls-3" d="M282.51,71.19a1.3,1.3,0,1,1-1.29,1.3A1.3,1.3,0,0,1,282.51,71.19Z"/><path class="cls-3" d="M302.7,71.19a1.3,1.3,0,1,1-1.29,1.3A1.3,1.3,0,0,1,302.7,71.19Z"/><path class="cls-3" d="M322.89,71.19a1.3,1.3,0,1,1-1.3,1.3A1.3,1.3,0,0,1,322.89,71.19Z"/><circle class="cls-3" cx="343.08" cy="72.49" r="1.3"/><path class="cls-3" d="M363.27,71.19a1.3,1.3,0,1,1-1.3,1.3A1.3,1.3,0,0,1,363.27,71.19Z"/><path class="cls-3" d="M383.45,71.19a1.3,1.3,0,1,1-1.29,1.3A1.3,1.3,0,0,1,383.45,71.19Z"/><path class="cls-3" d="M181.57,50.9a1.3,1.3,0,1,1-1.29,1.29A1.3,1.3,0,0,1,181.57,50.9Z"/><path class="cls-3" d="M201.76,50.9a1.3,1.3,0,1,1-1.29,1.29A1.3,1.3,0,0,1,201.76,50.9Z"/><path class="cls-3" d="M222,50.9a1.3,1.3,0,1,1-1.3,1.29A1.3,1.3,0,0,1,222,50.9Z"/><path class="cls-3" d="M242.14,50.9a1.3,1.3,0,1,1-1.3,1.29A1.29,1.29,0,0,1,242.14,50.9Z"/><circle class="cls-3" cx="262.33" cy="52.19" r="1.3"/><path class="cls-3" d="M282.51,50.9a1.3,1.3,0,1,1-1.29,1.29A1.3,1.3,0,0,1,282.51,50.9Z"/><circle class="cls-3" cx="302.7" cy="52.19" r="1.3"/><path class="cls-3" d="M322.89,50.9a1.3,1.3,0,1,1-1.3,1.29A1.3,1.3,0,0,1,322.89,50.9Z"/><path class="cls-3" d="M343.08,50.9a1.3,1.3,0,1,1-1.3,1.29A1.29,1.29,0,0,1,343.08,50.9Z"/><path class="cls-3" d="M363.27,50.9a1.3,1.3,0,1,1-1.3,1.29A1.29,1.29,0,0,1,363.27,50.9Z"/><path class="cls-3" d="M383.45,50.9a1.3,1.3,0,1,1-1.29,1.29A1.3,1.3,0,0,1,383.45,50.9Z"/><path class="cls-3" d="M181.57,30.6a1.3,1.3,0,1,1-1.29,1.3A1.3,1.3,0,0,1,181.57,30.6Z"/><path class="cls-3" d="M201.76,30.6a1.3,1.3,0,1,1-1.29,1.3A1.3,1.3,0,0,1,201.76,30.6Z"/><path class="cls-3" d="M222,30.6a1.3,1.3,0,1,1-1.3,1.3A1.3,1.3,0,0,1,222,30.6Z"/><path class="cls-3" d="M242.14,30.6a1.3,1.3,0,1,1-1.3,1.3A1.3,1.3,0,0,1,242.14,30.6Z"/><path class="cls-3" d="M262.33,30.6a1.3,1.3,0,1,1-1.3,1.3A1.3,1.3,0,0,1,262.33,30.6Z"/><path class="cls-3" d="M282.51,30.6a1.3,1.3,0,1,1-1.29,1.3A1.3,1.3,0,0,1,282.51,30.6Z"/><circle class="cls-3" cx="302.7" cy="31.9" r="1.3"/><circle class="cls-3" cx="322.89" cy="31.9" r="1.3"/><path class="cls-3" d="M343.08,30.6a1.3,1.3,0,1,1-1.3,1.3A1.3,1.3,0,0,1,343.08,30.6Z"/><path class="cls-3" d="M363.27,30.6a1.3,1.3,0,1,1-1.3,1.3A1.3,1.3,0,0,1,363.27,30.6Z"/><path class="cls-3" d="M383.45,30.6a1.3,1.3,0,1,1-1.29,1.3A1.3,1.3,0,0,1,383.45,30.6Z"/><circle class="cls-3" cx="181.57" cy="11.6" r="1.3"/><path class="cls-3" d="M201.76,10.31a1.3,1.3,0,1,1-1.29,1.29A1.3,1.3,0,0,1,201.76,10.31Z"/><path class="cls-3" d="M222,10.31a1.28,1.28,0,0,1,1.3,1.29,1.3,1.3,0,1,1-1.3-1.29Z"/><circle class="cls-3" cx="242.14" cy="11.6" r="1.3"/><path class="cls-3" d="M262.33,10.3a1.3,1.3,0,1,1-1.3,1.3A1.3,1.3,0,0,1,262.33,10.3Z"/><circle class="cls-3" cx="282.51" cy="11.6" r="1.3"/><path class="cls-3" d="M302.7,10.3a1.3,1.3,0,1,1-1.29,1.3A1.3,1.3,0,0,1,302.7,10.3Z"/><circle class="cls-3" cx="322.89" cy="11.6" r="1.3"/><path class="cls-3" d="M343.08,10.31a1.3,1.3,0,1,1-1.3,1.29A1.29,1.29,0,0,1,343.08,10.31Z"/><path class="cls-3" d="M363.27,10.31A1.3,1.3,0,1,1,362,11.6,1.29,1.29,0,0,1,363.27,10.31Z"/><circle class="cls-3" cx="383.45" cy="11.6" r="1.3"/><path class="cls-3" d="M171.74,314.75a1.3,1.3,0,1,1-1.3,1.29A1.3,1.3,0,0,1,171.74,314.75Z"/><path class="cls-3" d="M191.93,314.75a1.3,1.3,0,1,1-1.3,1.29A1.29,1.29,0,0,1,191.93,314.75Z"/><path class="cls-3" d="M212.12,314.75a1.3,1.3,0,1,1-1.3,1.29A1.29,1.29,0,0,1,212.12,314.75Z"/><path class="cls-3" d="M232.3,314.75A1.3,1.3,0,1,1,231,316,1.3,1.3,0,0,1,232.3,314.75Z"/><circle class="cls-3" cx="252.49" cy="316.04" r="1.3"/><path class="cls-3" d="M272.68,314.75a1.3,1.3,0,1,1-1.29,1.29A1.3,1.3,0,0,1,272.68,314.75Z"/><circle class="cls-3" cx="292.87" cy="316.04" r="1.3"/><path class="cls-3" d="M313.06,314.75a1.3,1.3,0,1,1-1.3,1.29A1.29,1.29,0,0,1,313.06,314.75Z"/><path class="cls-3" d="M333.24,314.75A1.3,1.3,0,1,1,332,316,1.3,1.3,0,0,1,333.24,314.75Z"/><path class="cls-3" d="M353.43,314.75a1.3,1.3,0,1,1-1.29,1.29A1.3,1.3,0,0,1,353.43,314.75Z"/><path class="cls-3" d="M373.62,314.75a1.3,1.3,0,1,1-1.29,1.29A1.3,1.3,0,0,1,373.62,314.75Z"/><path class="cls-3" d="M171.74,294.45a1.3,1.3,0,1,1-1.29,1.29A1.3,1.3,0,0,1,171.74,294.45Z"/><circle class="cls-3" cx="191.93" cy="295.74" r="1.3"/><path class="cls-3" d="M212.12,294.45a1.3,1.3,0,1,1-1.3,1.29A1.29,1.29,0,0,1,212.12,294.45Z"/><path class="cls-3" d="M232.3,294.45a1.3,1.3,0,1,1-1.29,1.29A1.3,1.3,0,0,1,232.3,294.45Z"/><path class="cls-3" d="M252.49,294.45a1.3,1.3,0,1,1-1.29,1.29A1.3,1.3,0,0,1,252.49,294.45Z"/><path class="cls-3" d="M272.68,294.45a1.3,1.3,0,1,1-1.29,1.29A1.3,1.3,0,0,1,272.68,294.45Z"/><path class="cls-3" d="M292.87,294.45a1.3,1.3,0,1,1-1.3,1.29A1.29,1.29,0,0,1,292.87,294.45Z"/><path class="cls-3" d="M313.06,294.45a1.3,1.3,0,1,1-1.3,1.29A1.29,1.29,0,0,1,313.06,294.45Z"/><circle class="cls-3" cx="333.24" cy="295.74" r="1.3"/><path class="cls-3" d="M353.43,294.45a1.3,1.3,0,1,1-1.29,1.29A1.3,1.3,0,0,1,353.43,294.45Z"/><path class="cls-3" d="M373.62,294.45a1.3,1.3,0,1,1-1.29,1.29A1.3,1.3,0,0,1,373.62,294.45Z"/><path class="cls-3" d="M171.74,274.15a1.3,1.3,0,1,1-1.29,1.3A1.28,1.28,0,0,1,171.74,274.15Z"/><path class="cls-3" d="M191.93,274.15a1.3,1.3,0,1,1-1.3,1.3A1.3,1.3,0,0,1,191.93,274.15Z"/><path class="cls-3" d="M212.12,274.15a1.3,1.3,0,1,1-1.3,1.3A1.3,1.3,0,0,1,212.12,274.15Z"/><circle class="cls-3" cx="232.3" cy="275.45" r="1.3"/><path class="cls-3" d="M252.49,274.15a1.3,1.3,0,1,1-1.29,1.3A1.3,1.3,0,0,1,252.49,274.15Z"/><circle class="cls-3" cx="272.68" cy="275.45" r="1.3"/><path class="cls-3" d="M292.87,274.15a1.3,1.3,0,1,1-1.3,1.3A1.3,1.3,0,0,1,292.87,274.15Z"/><path class="cls-3" d="M313.06,274.15a1.3,1.3,0,1,1-1.3,1.3A1.3,1.3,0,0,1,313.06,274.15Z"/><path class="cls-3" d="M333.25,274.15a1.3,1.3,0,1,1-1.3,1.3A1.3,1.3,0,0,1,333.25,274.15Z"/><circle class="cls-3" cx="353.43" cy="275.45" r="1.3"/><circle class="cls-3" cx="373.62" cy="275.45" r="1.3"/><path class="cls-3" d="M171.74,253.86a1.3,1.3,0,1,1-1.3,1.29A1.3,1.3,0,0,1,171.74,253.86Z"/><circle class="cls-3" cx="191.93" cy="255.15" r="1.3"/><circle class="cls-3" cx="212.12" cy="255.15" r="1.3"/><path class="cls-3" d="M232.3,253.86a1.3,1.3,0,1,1-1.29,1.29A1.3,1.3,0,0,1,232.3,253.86Z"/><path class="cls-3" d="M252.49,253.86a1.3,1.3,0,1,1-1.29,1.29A1.3,1.3,0,0,1,252.49,253.86Z"/><path class="cls-3" d="M272.68,253.86a1.3,1.3,0,1,1-1.29,1.29A1.3,1.3,0,0,1,272.68,253.86Z"/><circle class="cls-3" cx="292.87" cy="255.15" r="1.3"/><path class="cls-3" d="M313.06,253.86a1.3,1.3,0,1,1-1.3,1.29A1.29,1.29,0,0,1,313.06,253.86Z"/><circle class="cls-3" cx="333.24" cy="255.15" r="1.3"/><path class="cls-3" d="M353.43,253.86a1.3,1.3,0,1,1-1.29,1.29A1.3,1.3,0,0,1,353.43,253.86Z"/><path class="cls-3" d="M373.62,253.86a1.3,1.3,0,1,1-1.29,1.29A1.3,1.3,0,0,1,373.62,253.86Z"/><path class="cls-3" d="M171.74,233.56a1.3,1.3,0,1,1-1.29,1.3A1.3,1.3,0,0,1,171.74,233.56Z"/><path class="cls-3" d="M191.93,233.56a1.3,1.3,0,1,1-1.3,1.3A1.3,1.3,0,0,1,191.93,233.56Z"/><path class="cls-3" d="M212.12,233.56a1.3,1.3,0,1,1-1.3,1.3A1.3,1.3,0,0,1,212.12,233.56Z"/><path class="cls-3" d="M232.3,233.56a1.3,1.3,0,1,1-1.29,1.3A1.3,1.3,0,0,1,232.3,233.56Z"/><circle class="cls-3" cx="252.49" cy="234.86" r="1.3"/><circle class="cls-3" cx="272.68" cy="234.86" r="1.3"/><circle class="cls-3" cx="292.87" cy="234.86" r="1.3"/><path class="cls-3" d="M313.06,233.56a1.3,1.3,0,1,1-1.3,1.3A1.3,1.3,0,0,1,313.06,233.56Z"/><path class="cls-3" d="M333.25,233.56a1.3,1.3,0,1,1-1.3,1.3A1.3,1.3,0,0,1,333.25,233.56Z"/><path class="cls-3" d="M353.43,233.56a1.3,1.3,0,1,1-1.29,1.3A1.3,1.3,0,0,1,353.43,233.56Z"/><path class="cls-3" d="M373.62,233.56a1.3,1.3,0,1,1-1.29,1.3A1.3,1.3,0,0,1,373.62,233.56Z"/><circle class="cls-3" cx="171.74" cy="214.56" r="1.3"/><path class="cls-3" d="M191.93,213.27a1.3,1.3,0,1,1-1.3,1.29A1.29,1.29,0,0,1,191.93,213.27Z"/><path class="cls-3" d="M212.12,213.27a1.3,1.3,0,1,1-1.3,1.29A1.29,1.29,0,0,1,212.12,213.27Z"/><circle class="cls-3" cx="232.3" cy="214.56" r="1.3"/><path class="cls-3" d="M252.49,213.27a1.3,1.3,0,1,1-1.29,1.29A1.3,1.3,0,0,1,252.49,213.27Z"/><circle class="cls-3" cx="272.68" cy="214.56" r="1.3"/><path class="cls-3" d="M292.87,213.27a1.3,1.3,0,1,1-1.3,1.29A1.29,1.29,0,0,1,292.87,213.27Z"/><path class="cls-3" d="M313.06,213.27a1.3,1.3,0,1,1-1.3,1.29A1.29,1.29,0,0,1,313.06,213.27Z"/><path class="cls-3" d="M333.24,213.27a1.3,1.3,0,1,1-1.29,1.29A1.3,1.3,0,0,1,333.24,213.27Z"/><path class="cls-3" d="M353.43,213.27a1.3,1.3,0,1,1-1.29,1.29A1.3,1.3,0,0,1,353.43,213.27Z"/><circle class="cls-3" cx="373.62" cy="214.56" r="1.3"/><path class="cls-3" d="M171.74,193a1.3,1.3,0,1,1-1.29,1.29A1.3,1.3,0,0,1,171.74,193Z"/><path class="cls-3" d="M191.93,193a1.3,1.3,0,1,1-1.3,1.29A1.29,1.29,0,0,1,191.93,193Z"/><circle class="cls-3" cx="212.12" cy="194.26" r="1.3"/><circle class="cls-3" cx="232.3" cy="194.26" r="1.3"/><path class="cls-3" d="M252.49,193a1.3,1.3,0,1,1-1.29,1.29A1.3,1.3,0,0,1,252.49,193Z"/><path class="cls-3" d="M272.68,193a1.3,1.3,0,1,1-1.29,1.29A1.3,1.3,0,0,1,272.68,193Z"/><path class="cls-3" d="M292.87,193a1.3,1.3,0,1,1-1.3,1.29A1.29,1.29,0,0,1,292.87,193Z"/><path class="cls-3" d="M313.06,193a1.3,1.3,0,1,1-1.3,1.29A1.29,1.29,0,0,1,313.06,193Z"/><path class="cls-3" d="M333.25,193a1.3,1.3,0,1,1-1.3,1.29A1.29,1.29,0,0,1,333.25,193Z"/><circle class="cls-3" cx="353.43" cy="194.26" r="1.3"/><path class="cls-3" d="M373.62,193a1.3,1.3,0,1,1-1.29,1.29A1.3,1.3,0,0,1,373.62,193Z"/><path class="cls-3" d="M171.74,172.67a1.3,1.3,0,1,1-1.29,1.3A1.28,1.28,0,0,1,171.74,172.67Z"/><path class="cls-3" d="M191.93,172.67a1.3,1.3,0,1,1-1.3,1.3A1.3,1.3,0,0,1,191.93,172.67Z"/><circle class="cls-3" cx="212.12" cy="173.97" r="1.3"/><circle class="cls-3" cx="232.3" cy="173.97" r="1.3"/><path class="cls-3" d="M252.49,172.67a1.3,1.3,0,1,1-1.29,1.3A1.3,1.3,0,0,1,252.49,172.67Z"/><path class="cls-3" d="M272.68,172.67a1.3,1.3,0,1,1-1.29,1.3A1.3,1.3,0,0,1,272.68,172.67Z"/><path class="cls-3" d="M292.87,172.67a1.3,1.3,0,1,1-1.3,1.3A1.3,1.3,0,0,1,292.87,172.67Z"/><path class="cls-3" d="M313.06,172.67a1.3,1.3,0,1,1-1.3,1.3A1.3,1.3,0,0,1,313.06,172.67Z"/><path class="cls-3" d="M333.25,172.67A1.3,1.3,0,1,1,332,174,1.3,1.3,0,0,1,333.25,172.67Z"/><circle class="cls-3" cx="353.43" cy="173.97" r="1.3"/><circle class="cls-3" cx="373.62" cy="173.97" r="1.3"/><circle class="cls-3" cx="171.74" cy="153.67" r="1.3"/><path class="cls-3" d="M191.93,152.38a1.3,1.3,0,1,1-1.3,1.29A1.29,1.29,0,0,1,191.93,152.38Z"/><path class="cls-3" d="M212.12,152.38a1.3,1.3,0,1,1-1.3,1.29A1.29,1.29,0,0,1,212.12,152.38Z"/><circle class="cls-3" cx="232.3" cy="153.67" r="1.3"/><path class="cls-3" d="M252.49,152.38a1.3,1.3,0,1,1-1.29,1.29A1.3,1.3,0,0,1,252.49,152.38Z"/><circle class="cls-3" cx="272.68" cy="153.67" r="1.3"/><path class="cls-3" d="M292.87,152.38a1.3,1.3,0,1,1-1.3,1.29A1.29,1.29,0,0,1,292.87,152.38Z"/><circle class="cls-3" cx="313.06" cy="153.67" r="1.3"/><path class="cls-3" d="M333.24,152.38a1.3,1.3,0,1,1-1.29,1.29A1.3,1.3,0,0,1,333.24,152.38Z"/><path class="cls-3" d="M353.43,152.38a1.3,1.3,0,1,1-1.29,1.29A1.3,1.3,0,0,1,353.43,152.38Z"/><path class="cls-3" d="M373.62,152.38a1.3,1.3,0,1,1-1.29,1.29A1.3,1.3,0,0,1,373.62,152.38Z"/><path class="cls-3" d="M171.74,132.08a1.3,1.3,0,1,1-1.29,1.3A1.3,1.3,0,0,1,171.74,132.08Z"/><path class="cls-3" d="M191.93,132.08a1.3,1.3,0,1,1-1.3,1.3A1.3,1.3,0,0,1,191.93,132.08Z"/><path class="cls-3" d="M212.12,132.08a1.3,1.3,0,1,1-1.3,1.3A1.3,1.3,0,0,1,212.12,132.08Z"/><path class="cls-3" d="M232.3,132.08a1.3,1.3,0,1,1-1.29,1.3A1.3,1.3,0,0,1,232.3,132.08Z"/><circle class="cls-3" cx="252.49" cy="133.38" r="1.3"/><circle class="cls-3" cx="272.68" cy="133.38" r="1.3"/><circle class="cls-3" cx="292.87" cy="133.38" r="1.3"/><path class="cls-3" d="M313.06,132.08a1.3,1.3,0,1,1-1.3,1.3A1.3,1.3,0,0,1,313.06,132.08Z"/><path class="cls-3" d="M333.25,132.08a1.3,1.3,0,1,1-1.3,1.3A1.3,1.3,0,0,1,333.25,132.08Z"/><path class="cls-3" d="M353.43,132.08a1.3,1.3,0,1,1-1.29,1.3A1.3,1.3,0,0,1,353.43,132.08Z"/><path class="cls-3" d="M373.62,132.08a1.3,1.3,0,1,1-1.29,1.3A1.3,1.3,0,0,1,373.62,132.08Z"/><path class="cls-3" d="M171.74,111.79a1.3,1.3,0,1,1-1.3,1.29A1.3,1.3,0,0,1,171.74,111.79Z"/><circle class="cls-3" cx="191.93" cy="113.08" r="1.3"/><circle class="cls-3" cx="212.12" cy="113.08" r="1.3"/><path class="cls-3" d="M232.3,111.79a1.3,1.3,0,1,1-1.29,1.29A1.3,1.3,0,0,1,232.3,111.79Z"/><path class="cls-3" d="M252.49,111.79a1.3,1.3,0,1,1-1.29,1.29A1.3,1.3,0,0,1,252.49,111.79Z"/><path class="cls-3" d="M272.68,111.79a1.3,1.3,0,1,1-1.29,1.29A1.3,1.3,0,0,1,272.68,111.79Z"/><circle class="cls-3" cx="292.87" cy="113.08" r="1.3"/><path class="cls-3" d="M313.06,111.79a1.3,1.3,0,1,1-1.3,1.29A1.29,1.29,0,0,1,313.06,111.79Z"/><circle class="cls-3" cx="333.24" cy="113.08" r="1.3"/><path class="cls-3" d="M353.43,111.79a1.3,1.3,0,1,1-1.29,1.29A1.3,1.3,0,0,1,353.43,111.79Z"/><path class="cls-3" d="M373.62,111.79a1.3,1.3,0,1,1-1.29,1.29A1.3,1.3,0,0,1,373.62,111.79Z"/><path class="cls-3" d="M171.74,91.49a1.3,1.3,0,1,1-1.3,1.29A1.3,1.3,0,0,1,171.74,91.49Z"/><path class="cls-3" d="M191.93,91.49a1.3,1.3,0,1,1-1.3,1.29A1.29,1.29,0,0,1,191.93,91.49Z"/><path class="cls-3" d="M212.12,91.49a1.3,1.3,0,1,1-1.3,1.29A1.29,1.29,0,0,1,212.12,91.49Z"/><circle class="cls-3" cx="232.3" cy="92.78" r="1.3"/><path class="cls-3" d="M252.49,91.49a1.3,1.3,0,1,1-1.29,1.29A1.3,1.3,0,0,1,252.49,91.49Z"/><circle class="cls-3" cx="272.68" cy="92.78" r="1.3"/><path class="cls-3" d="M292.87,91.49a1.3,1.3,0,1,1-1.3,1.29A1.29,1.29,0,0,1,292.87,91.49Z"/><path class="cls-3" d="M313.06,91.49a1.3,1.3,0,1,1-1.3,1.29A1.29,1.29,0,0,1,313.06,91.49Z"/><path class="cls-3" d="M333.25,91.49a1.3,1.3,0,1,1-1.3,1.29A1.29,1.29,0,0,1,333.25,91.49Z"/><circle class="cls-3" cx="353.43" cy="92.78" r="1.3"/><circle class="cls-3" cx="373.62" cy="92.78" r="1.3"/><path class="cls-3" d="M171.74,71.19a1.3,1.3,0,1,1-1.29,1.3A1.3,1.3,0,0,1,171.74,71.19Z"/><circle class="cls-3" cx="191.93" cy="72.49" r="1.3"/><path class="cls-3" d="M212.12,71.19a1.3,1.3,0,1,1-1.3,1.3A1.3,1.3,0,0,1,212.12,71.19Z"/><path class="cls-3" d="M232.3,71.19a1.3,1.3,0,1,1-1.29,1.3A1.3,1.3,0,0,1,232.3,71.19Z"/><path class="cls-3" d="M252.49,71.19a1.3,1.3,0,1,1-1.29,1.3A1.3,1.3,0,0,1,252.49,71.19Z"/><path class="cls-3" d="M272.68,71.19a1.3,1.3,0,1,1-1.29,1.3A1.3,1.3,0,0,1,272.68,71.19Z"/><path class="cls-3" d="M292.87,71.19a1.3,1.3,0,1,1-1.3,1.3A1.3,1.3,0,0,1,292.87,71.19Z"/><path class="cls-3" d="M313.06,71.19a1.3,1.3,0,1,1-1.3,1.3A1.3,1.3,0,0,1,313.06,71.19Z"/><circle class="cls-3" cx="333.25" cy="72.49" r="1.3"/><path class="cls-3" d="M353.43,71.19a1.3,1.3,0,1,1-1.29,1.3A1.3,1.3,0,0,1,353.43,71.19Z"/><path class="cls-3" d="M373.62,71.19a1.3,1.3,0,1,1-1.29,1.3A1.3,1.3,0,0,1,373.62,71.19Z"/><path class="cls-3" d="M171.74,50.9a1.3,1.3,0,1,1-1.3,1.29A1.3,1.3,0,0,1,171.74,50.9Z"/><path class="cls-3" d="M191.93,50.9a1.3,1.3,0,1,1-1.3,1.29A1.29,1.29,0,0,1,191.93,50.9Z"/><path class="cls-3" d="M212.12,50.9a1.3,1.3,0,1,1-1.3,1.29A1.29,1.29,0,0,1,212.12,50.9Z"/><path class="cls-3" d="M232.3,50.9A1.3,1.3,0,1,1,231,52.19,1.3,1.3,0,0,1,232.3,50.9Z"/><circle class="cls-3" cx="252.49" cy="52.19" r="1.3"/><path class="cls-3" d="M272.68,50.9a1.3,1.3,0,1,1-1.29,1.29A1.3,1.3,0,0,1,272.68,50.9Z"/><circle class="cls-3" cx="292.87" cy="52.19" r="1.3"/><path class="cls-3" d="M313.06,50.9a1.3,1.3,0,1,1-1.3,1.29A1.29,1.29,0,0,1,313.06,50.9Z"/><path class="cls-3" d="M333.24,50.9A1.3,1.3,0,1,1,332,52.19,1.3,1.3,0,0,1,333.24,50.9Z"/><path class="cls-3" d="M353.43,50.9a1.3,1.3,0,1,1-1.29,1.29A1.3,1.3,0,0,1,353.43,50.9Z"/><path class="cls-3" d="M373.62,50.9a1.3,1.3,0,1,1-1.29,1.29A1.3,1.3,0,0,1,373.62,50.9Z"/><path class="cls-3" d="M171.74,30.6a1.3,1.3,0,1,1,0,2.59,1.28,1.28,0,0,1-1.29-1.29A1.3,1.3,0,0,1,171.74,30.6Z"/><path class="cls-3" d="M191.93,30.6a1.3,1.3,0,1,1-1.3,1.3A1.3,1.3,0,0,1,191.93,30.6Z"/><path class="cls-3" d="M212.12,30.6a1.3,1.3,0,1,1-1.3,1.3A1.3,1.3,0,0,1,212.12,30.6Z"/><path class="cls-3" d="M232.3,30.6A1.3,1.3,0,1,1,231,31.9,1.3,1.3,0,0,1,232.3,30.6Z"/><path class="cls-3" d="M252.49,30.6a1.3,1.3,0,1,1-1.29,1.3A1.3,1.3,0,0,1,252.49,30.6Z"/><path class="cls-3" d="M272.68,30.6a1.3,1.3,0,1,1-1.29,1.3A1.3,1.3,0,0,1,272.68,30.6Z"/><circle class="cls-3" cx="292.87" cy="31.9" r="1.3"/><circle class="cls-3" cx="313.06" cy="31.9" r="1.3"/><path class="cls-3" d="M333.25,30.6a1.3,1.3,0,1,1-1.3,1.3A1.3,1.3,0,0,1,333.25,30.6Z"/><path class="cls-3" d="M353.43,30.6a1.3,1.3,0,1,1-1.29,1.3A1.3,1.3,0,0,1,353.43,30.6Z"/><path class="cls-3" d="M373.62,30.6a1.3,1.3,0,1,1-1.29,1.3A1.3,1.3,0,0,1,373.62,30.6Z"/><circle class="cls-3" cx="171.74" cy="11.6" r="1.3"/><path class="cls-3" d="M191.93,10.31a1.3,1.3,0,1,1-1.3,1.29A1.29,1.29,0,0,1,191.93,10.31Z"/><path class="cls-3" d="M212.12,10.31a1.28,1.28,0,0,1,1.29,1.29,1.3,1.3,0,1,1-1.29-1.29Z"/><circle class="cls-3" cx="232.3" cy="11.6" r="1.3"/><path class="cls-3" d="M252.49,10.3a1.3,1.3,0,1,1-1.29,1.3A1.3,1.3,0,0,1,252.49,10.3Z"/><circle class="cls-3" cx="272.68" cy="11.6" r="1.3"/><path class="cls-3" d="M292.87,10.3a1.3,1.3,0,1,1-1.3,1.3A1.3,1.3,0,0,1,292.87,10.3Z"/><circle class="cls-3" cx="313.06" cy="11.6" r="1.3"/><path class="cls-3" d="M333.24,10.31A1.3,1.3,0,1,1,332,11.6,1.29,1.29,0,0,1,333.24,10.31Z"/><path class="cls-3" d="M353.43,10.31a1.3,1.3,0,1,1-1.29,1.29A1.3,1.3,0,0,1,353.43,10.31Z"/><circle class="cls-3" cx="373.62" cy="11.6" r="1.3"/></g><circle class="cls-4" cx="277.88" cy="143.01" r="69.1"/><polygon class="cls-5" points="137.77 30.43 156.17 34.48 154.05 15.75 176.18 20.62 181.28 32.9 166.6 29.67 168.72 48.4 150.32 44.35 152.44 63.07 134.04 59.02 136.16 77.75 117.75 73.7 119.87 92.43 101.46 88.39 103.14 103.33 91.46 96.98 88.91 74.47 107.33 78.51 105.2 59.78 123.61 63.83 121.49 45.1 139.89 49.15 137.77 30.43"/><polygon class="cls-5" points="53.26 30.43 71.66 34.48 69.54 15.75 91.67 20.62 96.77 32.9 82.09 29.67 84.21 48.4 65.81 44.35 67.93 63.07 49.53 59.02 51.65 77.75 33.24 73.7 35.36 92.43 16.95 88.39 18.63 103.33 6.95 96.98 4.4 74.47 22.81 78.51 20.69 59.78 39.1 63.83 36.98 45.1 55.38 49.15 53.26 30.43"/><circle class="cls-6" cx="73.6" cy="108.1" r="8.49"/></g></g></svg>