<svg xmlns="http://www.w3.org/2000/svg" viewBox="0 0 124.92 129.61"><defs><style>.cls-1,.cls-4{fill:none;stroke:#233560;stroke-linecap:round;stroke-miterlimit:10;}.cls-2{fill:#dd6c38;}.cls-3{fill:#233560;}.cls-4{stroke-width:0.8px;}.cls-5{fill:#3f4f74;}</style></defs><title>Asset 132</title><g id="Layer_2" data-name="Layer 2"><g id="Layer_1-2" data-name="Layer 1"><path class="cls-1" d="M90.36,84.81a6.45,6.45,0,0,1,.07-.69"/><path class="cls-2" d="M63.48,105c6.12-1.33,14.37,1.09,27.45.29a88.17,88.17,0,0,0-.55,20.34,3.37,3.37,0,0,0,2.86,3c11.92,1.67,23.68-.87,28.63-2.18a3.38,3.38,0,0,0,2.51-3.2c.12-6.52.18-24.29-2.38-35-3.19-13.33-18-18.86-18-18.86s-2.32,8.43-7.54,10.46-4.11-3-4.11-3a54.08,54.08,0,0,0-2,7.34,158.8,158.8,0,0,1-24.35,2C62.61,90.48,63.48,105,63.48,105Z"/><path class="cls-3" d="M100.88,26.85a36.7,36.7,0,0,0,1.75-13.54,36.2,36.2,0,0,0-1.07-6.72,33.21,33.21,0,0,0-1-3.25l-.3-.79A1.61,1.61,0,0,0,99.88,2a1.71,1.71,0,0,0-.54-.38,5.24,5.24,0,0,0-.75-.2L97,1s-.06,0-.06,0V1l.08.19.16.4A32.44,32.44,0,0,1,98.3,5a31.51,31.51,0,0,1,1.2,6.87,34.44,34.44,0,0,1-.28,7,32.73,32.73,0,0,1-1.76,6.7,36.81,36.81,0,0,0,1.27-13.59A36.15,36.15,0,0,0,97.42,5.2,30.61,30.61,0,0,0,96.28,2l-.16-.39L96,1.39A1,1,0,0,1,96,1a1,1,0,0,1,1.1-1l.29.06.21.05.42.1.84.2a5.84,5.84,0,0,1,.91.27,2.63,2.63,0,0,1,.86.62,2.8,2.8,0,0,1,.52.89l.3.82c.4,1.1.73,2.22,1,3.35a31.17,31.17,0,0,1,1,6.92,34.26,34.26,0,0,1-.52,6.94A32.29,32.29,0,0,1,100.88,26.85Z"/><path class="cls-4" d="M76.19,17.66s-2.78,4.45-3,5.51"/><path class="cls-3" d="M68.17,54.33c.16,1.39.29,2.8.55,4.17a16.31,16.31,0,0,0,.45,2c.21.64.48,1.31,1,1.35A5.57,5.57,0,0,0,72,61.69a20,20,0,0,0,2-.59c1.31-.46,2.6-1,3.87-1.57,2.55-1.13,5-2.4,7.51-3.71a24.2,24.2,0,0,0,3.52-2.17.55.55,0,0,0,.13-.14l.11-.23.21-.47.36-1q.33-1,.63-2A21.1,21.1,0,0,1,90,51.9c-.08.35-.16.69-.26,1l-.16.52-.09.25a1.62,1.62,0,0,1-.19.29,23.26,23.26,0,0,1-3.49,2.49,64.66,64.66,0,0,1-7.5,4,41.34,41.34,0,0,1-4,1.55,18.17,18.17,0,0,1-2.08.55,5.27,5.27,0,0,1-2.28.06,1.57,1.57,0,0,1-1-.85,5,5,0,0,1-.37-1.07,15.58,15.58,0,0,1-.34-2.12A37.38,37.38,0,0,1,68.17,54.33Z"/><path class="cls-4" d="M70.12,33s-7.37,6.72-6.7,7.95,4.81,2.65,4.83,3.27c0,.17,0,1.33-.09,3"/><path class="cls-1" d="M87.12,55.22s9,14.08,5.27,21.56"/><path class="cls-1" d="M98.08,50.42s0,7.93,6,19.49"/><circle class="cls-3" cx="96.1" cy="33.79" r="5.76"/><path class="cls-5" d="M91.8,29.8s0,0,.06,0v-.06Z"/><path class="cls-5" d="M92.12,29.62c0-.06,0-.14,0-.15s0,.08,0,.16-.07.06-.08,0-.07,0-.06.09a.33.33,0,0,0,.18-.17S92.11,29.61,92.12,29.62Z"/><path class="cls-5" d="M96.83,28.14h0Z"/><path class="cls-5" d="M99.66,29.39l0,0Z"/><path class="cls-5" d="M100,29.78l0,0A0,0,0,0,0,100,29.78Z"/><path class="cls-5" d="M96.83,28.14l.08,0S96.87,28.15,96.83,28.14Z"/><path class="cls-5" d="M92.59,29.07s0,0,0,0l0,0Z"/><polygon class="cls-5" points="95.45 28.17 95.43 28.17 95.41 28.2 95.45 28.17"/><path class="cls-5" d="M94.42,28.4s0,0,0-.07a.1.1,0,0,1,0,0Z"/><path class="cls-5" d="M92.88,29.06l0,0Z"/><path class="cls-5" d="M96.21,28.15a0,0,0,0,0,0,0Z"/><path class="cls-5" d="M91,30.77h0S91,30.77,91,30.77Z"/><polygon class="cls-5" points="91.88 29.88 91.87 29.89 91.88 29.91 91.88 29.88"/><path class="cls-5" d="M100.62,30.54Z"/><path class="cls-5" d="M99.3,38.37c.11,0-.11.13,0,.08C99.32,38.45,99.42,38.33,99.3,38.37Z"/><path class="cls-5" d="M92.61,29.05l0,0Z"/><polygon class="cls-5" points="99.34 38.45 99.34 38.45 99.36 38.45 99.34 38.45"/><path class="cls-5" d="M101.54,32.54l0,0Z"/><path class="cls-5" d="M101,31v0Z"/><path class="cls-5" d="M101.72,33.39a.15.15,0,0,0,0,.06h0A.07.07,0,0,1,101.72,33.39Z"/><polygon class="cls-5" points="101.72 34.29 101.73 34.27 101.73 34.24 101.72 34.29"/><path class="cls-5" d="M90.17,33.52l0,0S90.17,33.35,90.17,33.52Z"/><path class="cls-5" d="M92.6,29.08a0,0,0,0,1,0,0l0,0Z"/><path class="cls-5" d="M102.05,33.4v0Z"/><path class="cls-5" d="M93.43,39.08h0Z"/><path class="cls-5" d="M102.06,34a.16.16,0,0,0,0,.09h0Z"/><path class="cls-5" d="M90.21,33.48Z"/><path class="cls-5" d="M90.25,32.48c0,.14,0,.08.06.12s0,.07-.09.12a1.87,1.87,0,0,0,0,.27s0,0,0,0,0,.34,0,.47v0a.1.1,0,0,1,.07,0c0,.07,0,.12,0,.15a.08.08,0,0,0,0-.07l0,.07c0,.06,0-.09,0-.09a2.9,2.9,0,0,1,0,.38c-.05,0,0-.23-.06-.1l0-.15c-.08.11,0-.1-.08,0s0,.23,0,.43c0,0,0,0,.07,0,.08.28-.1.24,0,.45,0,0,.11.06.1.21l-.06,0c0,.2.1.1.1.31,0,0,0-.15,0-.12s0,.09.07.19l0,0c.07.2.15.42.24.63,0,0,0,0,0,0,.12.27.23.59.35.85l.08.08s0,.05,0,0,0,0,.07,0,0,.08,0,.05a3.9,3.9,0,0,1,.46.61l0,0c.08.14.18.08.24.23l0,0c.22.27.51.51.68.72.08,0,.25.24.32.18a1.79,1.79,0,0,0,.31.31c.05,0,.12,0,.2,0l0,0,.14,0,0,.08.08,0s0-.06,0-.06a.8.8,0,0,1,.27.19l.31.09s-.06,0-.11,0c.18,0,0,.05.18.07,0,0,0,0,0,0a1.06,1.06,0,0,0,.37.13l0,0a4.13,4.13,0,0,0,.75.17c-.09,0-.06-.08,0-.07l0,0s-.08,0,0,0,.06.07,0,.07h.12s0,0,0,0,.2.07.28,0v0a4.13,4.13,0,0,0,.61,0s.09,0,.15-.06a4.68,4.68,0,0,0,.53,0c.13,0,0,0,.09-.07s.2,0,.11,0a3.12,3.12,0,0,0,.57-.16s-.07,0-.06,0,.12,0,.12,0h0c.29-.13.75-.14,1-.33h0l.22-.16c.12,0,0,.06,0,0,.24-.18.4-.23.59-.39s.53-.4.74-.53h0c0-.07.06,0,.1-.08s-.07,0-.05,0a8.23,8.23,0,0,0,1.09-1.32c.11-.18-.06-.16.12-.37v.09a6.76,6.76,0,0,0,.4-1.2s0,0,0,.07a.57.57,0,0,0,0-.32c0-.06,0,0,0,0s0-.22,0-.26,0,0,0,0,0-.26,0-.21c0-.15,0-.29,0-.41s0-.27,0-.29.06-.27,0-.37,0-.08,0,0,0-.21-.07-.18c.07-.22-.12-.4,0-.53a6.32,6.32,0,0,0-.31-.87c.08,0,.11.3.17.27-.09-.27-.23-.39-.31-.65,0-.07,0,0,.06,0a5.62,5.62,0,0,0-.38-.69.14.14,0,0,1,0,0s0-.1-.07-.08l0,0c0,.09-.18-.11-.2-.11s-.12-.21,0-.16c0,0-.05,0-.07,0s0-.07,0,0c-.11-.14-.11-.06-.2-.19s0,0,.06,0a.7.7,0,0,1-.22-.21s0,0,0,0c-.14-.19-.32-.24-.47-.44.09,0-.05-.08,0-.13l-.11-.08,0,.06a2.94,2.94,0,0,1-.26-.2l.08,0-.17-.13.08.09c-.11-.05,0,.07-.14-.05a.51.51,0,0,1-.12-.13h0a.5.5,0,0,1-.19-.1s.05,0,.05,0-.24-.15-.33-.14.05,0,0,0h-.06s0,0,0-.06,0,.09-.14,0h0a3.89,3.89,0,0,0-.5-.25c0-.07.15,0,.11,0-.24-.1-.52-.15-.76-.23l0,0c-.06.06-.17-.09-.3-.09,0,0,0,0,0,0A4.13,4.13,0,0,0,97,28l0,0a3.58,3.58,0,0,0-.37-.06s-.09,0-.06,0c-.33-.13-.64,0-.94,0,0,0,.09,0,.06,0l-.26,0s0,0,.1,0a.49.49,0,0,1-.17.05c.11,0,0-.06-.06-.07s0,0,0,0,0,.07-.19.06v0a1.52,1.52,0,0,1-.2.06s.07,0,.07-.06-.19.1-.28.1a.84.84,0,0,1,.14-.06.24.24,0,0,0-.19,0h0l-.17,0h0c-.1.14-.26.08-.39.21.13-.12,0,0,0-.09s-.12,0-.1,0-.14,0-.23.12-.08,0-.08,0,0,0,0,0-.37.12-.55.28-.17.2-.31.32,0-.07,0-.07a.61.61,0,0,0-.23.15s0,0-.05,0,0,.07-.1.12a.54.54,0,0,1,0-.1l-.19.22s0-.07,0-.1-.2.19-.2.25l.06,0s0,0,0,0,.11-.07.13-.06l0,.05c.11,0,.2-.18.31-.26v.08l.08-.13s.07,0,0,.06.06-.06.15-.08,0,0,0,0L93,29s0,0,0,.05c.16-.06.21-.18.28-.18v0c.2-.14,0-.06.13-.18l.16,0v0s.06,0,.06,0,0,0,0-.06.29-.15.34-.09-.11,0,0-.05.13-.07.24-.08-.11.07,0,.06.19-.06.27-.09.18-.07.32-.13.28,0,.42,0h0c0-.05.16-.08.26-.09s0,0-.07.06h.1a.19.19,0,0,1,.11,0l0,0a1.79,1.79,0,0,1,.42-.05s-.13-.1,0-.13c0,0,0,.06,0,.07a.13.13,0,0,1,.09,0l-.07,0c.07,0,0,0,.1,0s0,0,0,0-.06,0-.08,0a.39.39,0,0,1,.18,0s0,0,.05,0,0,0,.12.06.11,0,.11,0,.05,0,.06,0,.31,0,.24,0h0a2.85,2.85,0,0,1,.66.12v0a3.26,3.26,0,0,0,.38.06s.08.06.06.07a.43.43,0,0,1,.24.08c-.1,0,0,0-.1,0a.63.63,0,0,0,.28.11c-.06,0,.07.08.13.09l-.07-.06.17.08-.05,0c.2.17.47.13.59.32.07,0-.11-.1,0-.1a1.49,1.49,0,0,1,.2.23c.12.11.17,0,.3.14,0,0,0-.08.11,0s.07.16,0,.12,0,0,0,0-.08,0,0,0h0c0,.05.16.16.12.15s0,0,0,0c.1.12.19.15.29.28,0,0,0-.06,0,0,.15.18.1.05.21.16s-.07,0,.06.12,0,0,0,0c.13.07.15.22.2.28l-.06,0a.32.32,0,0,1,.08.09V30.3s0,.06,0,.07,0-.06.1,0,.14.13.11.18c-.1-.16,0,0-.13-.08a.35.35,0,0,1,.07.09h0c.06.17.09,0,.19.2,0,0,0,.06,0,.08s0-.05.07,0,.08.1.12.15l0-.06s.07.06.11.13,0-.06,0,0,.06.21.14.31,0,0,0,.08,0,.16.11.29c0-.06,0-.06.08,0l-.12-.22.11.13c0-.07-.08-.14-.09-.18s0,0,.05,0,.11.18.12.3l-.08,0c0,.18.15.29.19.52v-.08s0,.14.07.21,0,0,0,.08,0,.17.09.18l0,.11c0,.19.12.2.13.39,0-.06-.05,0-.08-.09,0,.06,0,.12,0,.11s0,.17,0,.23,0,0,0,.1h0s0,.1.06,0c-.1.19,0,.53-.09.69s0,.3,0,.42,0,0,0,0c-.06.16.06.12,0,.3s0-.11,0-.05,0,.23-.11.34v0c-.06.08,0,.23-.09.38h0a1.2,1.2,0,0,1-.1.46c0-.06,0-.07,0-.06s.07,0,0,.14-.09.12-.13.11l0-.12c-.07,0-.07.15-.11.21l0,0c-.08.18,0,.21-.14.39h0c0,.13-.08.07-.11.19h-.07a2.41,2.41,0,0,1-.18.37c0-.09.09-.23.12-.33a1,1,0,0,0-.14.27.16.16,0,0,1,0-.09.68.68,0,0,1-.18.33c-.07-.1-.27.29-.42.29a2.86,2.86,0,0,1-.64.54c.14,0-.07.06,0,.12s-.08.06-.09.06l-.21.08c-.06,0,0-.06,0-.07s-.08,0-.18,0,0,.07-.1.11l.13,0c-.17.17-.21,0-.38.18l.05-.06a3.12,3.12,0,0,0-.45.29s-.06,0,0,0a3.07,3.07,0,0,1-.77.29l0,0s-.08.07-.14.06,0,0,0,0a.68.68,0,0,1-.2.06l.06,0c-.27,0-.4.13-.62.16,0-.06-.21-.06-.32-.07h0c-.31,0-.53,0-.82,0s-.59-.12-.85-.24c0,0,0,0-.08,0s-.19,0-.16-.07h0c0-.07-.16-.09-.26-.14l0,.06c-.23-.19-.7-.27-.78-.44a1.8,1.8,0,0,1-.21-.08l0,0c-.15-.12-.23-.16-.42-.3h.06c-.1-.09-.2,0-.3-.09V38c-.18-.14-.29-.36-.5-.48a.06.06,0,0,1,.06,0c-.08-.08-.24-.35-.28-.26s-.14-.19-.24-.28h.05a.55.55,0,0,1-.21-.17s0,0,0,0c0-.11-.08-.06-.14-.19l0,0c-.06-.1-.07-.08-.13-.13a.35.35,0,0,1-.07-.24.18.18,0,0,1-.1-.11s0,0,0,0c-.07-.19-.16-.25-.18-.4s0,0,0,0a1.42,1.42,0,0,1,.09.26s0-.13.08-.06a1.09,1.09,0,0,1-.21-.35v0h0a.21.21,0,0,0,0-.07s0-.06,0-.1,0-.14,0-.2,0-.07-.06,0l0,.05v0h0s0,.09,0,.15a.26.26,0,0,1-.06-.16l-.09-.07c0-.1,0-.27,0-.3a2.64,2.64,0,0,0-.18-.56c0-.06,0-.07,0-.09a.34.34,0,0,0,0,.08c0-.1,0-.32-.09-.35s0,.08,0-.11l0,0c.08-.37-.13-.62,0-1,0,0,0,0,0,0a4.54,4.54,0,0,1,.42-1.4.34.34,0,0,0,0-.23h0l0-.15c.07-.19.24-.25.33-.49h0c.06-.08.15-.25.17-.22a.06.06,0,0,1,0-.06h0a1.28,1.28,0,0,1,.11-.2c.12-.13,0,.07.22-.11s.12-.25.08-.24-.07.07-.09.06l.05-.08c0-.06-.05-.16-.22,0l-.07.14-.06,0,.08-.1a.17.17,0,0,0-.09.14.09.09,0,0,0-.07,0l0,.15s0-.08-.07,0,.08,0,0,.09-.08,0-.11.09,0,0,0-.05-.11.17-.1.22-.13.22-.18.19a.64.64,0,0,1,0,.2c0-.15-.13.23-.19.16a3.57,3.57,0,0,1-.14.5v0a1.28,1.28,0,0,1-.1.15c.05,0,0,.18,0,.26s0-.08-.11-.06,0,.2,0,.18,0,.06-.1.1,0,.08,0,.16-.07,0-.08.16S90.25,32.48,90.25,32.48Zm.32,3.3h0l0-.06Zm.11.26-.05-.11s0,0,0,0S90.67,36,90.68,36Zm.07-.64a.1.1,0,0,1,0,.07l0-.07h0Z"/><polygon class="cls-5" points="90.68 35.34 90.67 35.33 90.67 35.35 90.69 35.37 90.68 35.34"/><polygon class="cls-5" points="96.79 28.13 96.8 28.14 96.79 28.13 96.79 28.13"/><polygon class="cls-5" points="93.14 38.95 93.14 38.94 93.12 38.93 93.14 38.95"/><path class="cls-5" d="M95.28,28h0Z"/><path class="cls-5" d="M94.64,28.13h0Z"/><path class="cls-5" d="M94.14,28.25v0h0Z"/><path class="cls-5" d="M101.21,30.81h0S101.24,30.83,101.21,30.81Z"/><path class="cls-5" d="M99.54,29.09l.07,0S99.55,29.07,99.54,29.09Z"/><polygon class="cls-5" points="102.05 33.38 102.05 33.38 102.05 33.4 102.05 33.38"/><path class="cls-5" d="M99.7,29.19a.28.28,0,0,0-.09-.07Z"/><polygon class="cls-5" points="92.23 29.35 92.21 29.36 92.21 29.37 92.23 29.35"/><path class="cls-5" d="M92.21,29.37l0,0Z"/><path class="cls-5" d="M92.16,29.44l0-.05A.09.09,0,0,0,92.16,29.44Z"/><path class="cls-5" d="M92.78,29v0S92.77,28.94,92.78,29Z"/><path class="cls-5" d="M93,28.83a1,1,0,0,0-.18.09h0S92.92,28.88,93,28.83Z"/><path class="cls-5" d="M93.77,28.59l-.15.06s.07,0,0,0C93.84,28.64,93.57,28.68,93.77,28.59Z"/><path class="cls-5" d="M94.26,28.42c-.08,0,0,0,0,0S94.33,28.41,94.26,28.42Z"/><path class="cls-5" d="M97.92,28.42l0,0C98,28.47,97.91,28.44,97.92,28.42Z"/><path class="cls-5" d="M98.66,28.52l0-.05h0Z"/><polygon class="cls-5" points="98.91 28.95 98.88 28.94 98.99 28.99 98.91 28.95"/><path class="cls-5" d="M101.7,34.13l0,0S101.69,34.05,101.7,34.13Z"/><path class="cls-5" d="M101,36.68s-.09.07-.09.12S101,36.71,101,36.68Z"/><polygon class="cls-5" points="93.95 38.94 94.01 38.95 93.91 38.92 93.95 38.94"/><path class="cls-5" d="M89.85,28s0,0,.07,0V27.9Z"/><path class="cls-5" d="M90.28,27.69c0-.08.1-.18,0-.17s-.07.1-.1.21-.1.08-.11.06-.09.07-.1.12a.67.67,0,0,0,.27-.24S90.28,27.68,90.28,27.69Z"/><path class="cls-5" d="M97.17,25.51h0Z"/><path class="cls-5" d="M101.34,27.32l0,0Z"/><path class="cls-5" d="M101.89,27.88l0,0S101.88,27.88,101.89,27.88Z"/><path class="cls-5" d="M97.17,25.51l.12,0S97.23,25.52,97.17,25.51Z"/><path class="cls-5" d="M91,26.93,91,27l0,0Z"/><polygon class="cls-5" points="95.15 25.53 95.11 25.53 95.08 25.55 95.15 25.53"/><path class="cls-5" d="M93.63,25.86s0-.05.05-.07l-.07,0S93.62,25.85,93.63,25.86Z"/><path class="cls-5" d="M91.39,26.86l0,0Z"/><path class="cls-5" d="M96.26,25.49a0,0,0,0,0,0,0A0,0,0,0,0,96.26,25.49Z"/><path class="cls-5" d="M88.67,29.43h0Z"/><polygon class="cls-5" points="89.93 28.07 89.91 28.09 89.92 28.11 89.93 28.07"/><path class="cls-5" d="M102.78,29Z"/><path class="cls-5" d="M100.82,40.55c.15,0-.17.17,0,.09C100.83,40.63,101,40.47,100.82,40.55Z"/><path class="cls-5" d="M91,26.91l0,0Z"/><polygon class="cls-5" points="100.86 40.64 100.86 40.64 100.88 40.63 100.86 40.64"/><path class="cls-5" d="M104.14,32s0,0,0,0A.06.06,0,0,0,104.14,32Z"/><path class="cls-5" d="M103.3,29.65l0,.06Z"/><path class="cls-5" d="M104.37,33.2a.25.25,0,0,0,0,.08h0S104.37,33.23,104.37,33.2Z"/><polygon class="cls-5" points="104.36 34.52 104.38 34.5 104.38 34.46 104.36 34.52"/><path class="cls-5" d="M87.51,33.4s0,0,0-.06S87.51,33.16,87.51,33.4Z"/><path class="cls-5" d="M91,27a0,0,0,0,1,0,0l0,0Z"/><path class="cls-5" d="M104.7,33.23v0Z"/><path class="cls-5" d="M92.23,41.45l0,0Z"/><path class="cls-5" d="M104.71,34.1l0,.12,0,0Z"/><path class="cls-5" d="M87.55,33.34Z"/><path class="cls-5" d="M87.66,31.9c0,.21,0,.11,0,.16,0,.25-.06.11-.11.18s0,.28,0,.4,0,0,0,0c0,.17,0,.48,0,.68v0s.06,0,.07,0,0,.17,0,.2a.2.2,0,0,0,0-.09v.1c0,.09,0-.13,0-.13,0,.19,0,.41,0,.55s0-.34-.06-.14l0-.23c-.08.17,0-.14-.08,0s0,.34,0,.63c0,.07,0,0,.07,0,.08.42-.1.34,0,.65a.39.39,0,0,1,.11.31l-.06-.06c0,.28.1.15.12.45,0,0-.06-.22-.06-.18,0,.21.06.13.09.28l0,0c.09.29.2.61.33.93,0,0-.06-.07,0,0s.17.41.25.63l.26.6.11.12s0,.07,0,0c.07.14,0,0,.09,0s0,.11,0,.07c.18.22.49.64.66.89l0,0c.13.2.23.15.34.34l0,0c.33.38.75.75,1,1,.1,0,.37.34.46.28a3.22,3.22,0,0,0,.45.42c.09.07.17,0,.29.09l0,0,.18,0,.06.09.12,0s-.08-.07-.07-.07a1.94,1.94,0,0,1,.41.26l.44.15a.37.37,0,0,1-.15,0c.25.06,0,.06.25.11,0,0,0,0,0,0a2.3,2.3,0,0,0,.53.19l0,0a8.34,8.34,0,0,0,1.09.24c-.13,0-.09-.08,0-.07l0,.06c.07,0-.12,0,0-.05s.08.07,0,.07H95s0,0,0,0,.3.08.41,0v0a6.56,6.56,0,0,0,.88,0s.13,0,.22-.06.49,0,.77,0,0,0,.13-.08.3,0,.16,0a5,5,0,0,0,.82-.21s-.1,0-.07,0,.17,0,.16,0h0a7.63,7.63,0,0,0,1.4-.48h0l.33-.21c.16-.08-.08.07,0,0,.35-.23.57-.34.85-.55A5.18,5.18,0,0,0,102,40h0c0-.09.09-.07.15-.11s-.09,0-.06,0A10.35,10.35,0,0,0,103.65,38c.15-.27,0-.21.2-.52v.12c.11-.29.22-.58.34-.86a7.26,7.26,0,0,0,.25-.88s0,.05,0,.1a.85.85,0,0,0,.07-.46c0-.09,0,0,.06-.07s0-.31.06-.37,0,0,0,.06,0-.38,0-.31c0-.22,0-.42.06-.6s0-.38,0-.42.06-.39,0-.53c0,0,0-.12,0-.07,0-.16,0-.3-.07-.27.06-.31-.15-.58-.07-.76a9.93,9.93,0,0,0-.43-1.27c.08,0,.16.44.21.41-.12-.39-.29-.58-.41-1,0-.1,0,0,.07.07a8,8,0,0,0-.54-1l.05.06c0-.06-.08-.14-.1-.12l0,0c0,.12-.22-.19-.25-.18.14.05-.17-.31,0-.21,0,0-.07-.08-.08-.06s0-.09,0,0c-.15-.21-.14-.11-.28-.29,0,0,.05,0,.08,0a1.06,1.06,0,0,1-.3-.3s0,0,0,0c-.2-.27-.43-.37-.66-.65.12,0-.07-.11-.05-.16a1,1,0,0,0-.16-.12l0,.07a3.14,3.14,0,0,1-.38-.29l.11.07-.25-.2.13.13c-.15-.09,0,.07-.2-.09,0,0-.12-.12-.18-.19h0a.64.64,0,0,1-.26-.15s.05,0,0-.05-.34-.22-.45-.23,0,0,0,0h-.08c-.06-.05-.07-.06-.05-.07-.2-.12,0,.1-.2-.07l.06,0a4.85,4.85,0,0,0-.73-.35c0-.08.22.07.15,0-.35-.15-.74-.25-1.09-.36l.06,0c-.07.06-.25-.12-.43-.13,0,0,.06,0,0,0a5.24,5.24,0,0,0-.88-.14h0l-.54-.08s-.14,0-.09,0a7.05,7.05,0,0,0-1.37,0s.12,0,.08,0l-.37.05s.05,0,.13,0a.58.58,0,0,1-.23.06c.16,0,0-.06-.08-.06s0,0,0,0c-.2,0,0,.07-.28.08v0a1.38,1.38,0,0,1-.29.08s.1,0,.1-.07a3.84,3.84,0,0,1-.41.13l.21-.08a.59.59,0,0,0-.28,0h0l-.25.05h.07c-.15.16-.37.11-.58.27.21-.14,0-.05,0-.09s-.16,0-.14,0-.2,0-.34.16-.12,0-.11,0,0,0,0,0a7.74,7.74,0,0,0-.81.41c-.24.18-.26.25-.47.42s0-.08,0-.08a1.06,1.06,0,0,0-.33.22s0,0-.06,0,0,.09-.16.17A.33.33,0,0,1,91,27l-.29.3s0-.08.07-.13c-.11.11-.3.27-.31.34l.09-.06s0,0,0,0,.16-.11.17-.1l-.07.06c.13,0,.3-.25.46-.37l0,.1.13-.17s.09,0,0,.07c.13-.06.1-.09.21-.13s0,0,0,0l.1-.09s0,0,0,.06c.22-.1.31-.25.41-.26h0c.29-.18,0,0,.21-.22l.21,0v-.06s.09,0,.09,0,0,0,0-.07.42-.21.49-.16-.17,0,0-.05.19-.09.35-.11c0,.05-.17.08,0,.06s.29-.1.41-.14.27-.09.47-.17l.61-.08h0c0-.05.24-.09.39-.11s0,0-.11.07l.14,0a.41.41,0,0,1,.17,0l0,0a3.66,3.66,0,0,1,.62-.07s-.2-.1.06-.12c0,0,0,.05,0,.06a.41.41,0,0,1,.12,0l-.1,0c.11,0,.06,0,.15,0s.06,0,0,0-.08,0-.11,0a1.08,1.08,0,0,1,.26,0s0,0,.07,0,.07,0,.18.05.16,0,.17,0,.06,0,.08,0,.46,0,.36,0h0a5.45,5.45,0,0,1,1,.18h0c.2,0,.42.11.56.12s.12.07.09.07a.9.9,0,0,1,.35.13c-.14,0,0,0-.14-.05a1.1,1.1,0,0,0,.4.17c-.08,0,.11.1.2.12l-.11-.07a1.56,1.56,0,0,1,.26.11l-.07,0c.31.23.67.23.87.48.1,0-.16-.14-.06-.12a2.71,2.71,0,0,1,.3.3c.19.16.23.06.43.23,0,0,0-.09.14,0s.13.2,0,.14l0-.05c-.05,0-.11-.08-.07,0h0c.06.07.25.22.19.21.11.07.06,0,0-.06.15.17.28.22.43.41,0,0,0-.07,0-.05.23.27.13.09.3.25s-.08,0,.1.16,0,.06-.06,0a1.26,1.26,0,0,1,.31.41l-.08-.08a.75.75,0,0,1,.12.14v-.08c0,.06.07.1.06.11s0-.08.12,0,.19.2.16.26c-.15-.24,0,0-.17-.14a.85.85,0,0,1,.11.14l0,0c.11.24.11.07.26.3,0,0,0,.08,0,.12s0-.07.08,0a1.19,1.19,0,0,0,.16.23l0-.09s.09.09.15.2-.06-.1-.05-.05.1.29.22.45,0,0,0,.1.06.23.17.42c0-.07,0-.08.09.06l-.16-.34.13.2c0-.1-.1-.21-.13-.27.08.09.06.09.07,0,0,.17.14.27.17.45l-.08,0a7.41,7.41,0,0,1,.27.77v-.12s.06.21.11.31,0,.07,0,.12,0,.25.1.27v.15c0,.28.15.3.16.57,0-.07-.05.05-.09-.13,0,.09,0,.17,0,.17s.06.25,0,.33a.27.27,0,0,1,.06.15h0s0,.16.06.07c-.1.27,0,.77-.1,1s0,.43,0,.61c0,0,0,0,0,0-.07.24.06.16,0,.43s0-.15,0-.06-.05.33-.15.5v0c-.07.13-.06.34-.14.57,0,0,0,0,0,0a2.49,2.49,0,0,1-.18.67c0-.08,0-.1,0-.08s.07,0,0,.19-.12.18-.17.18a1.42,1.42,0,0,0,.08-.18c-.08.07-.1.23-.16.31v0c-.13.26-.09.29-.24.56l0,0c0,.18-.1.11-.16.27l-.08,0a5.2,5.2,0,0,1-.29.53,4.8,4.8,0,0,1,.22-.47,1.77,1.77,0,0,0-.22.39.54.54,0,0,1,.07-.13,1.23,1.23,0,0,1-.28.46c-.06-.1-.39.44-.59.48a5,5,0,0,1-.93.8c.18,0-.1.08,0,.14a.71.71,0,0,1-.13.09l-.3.13c-.08,0,.07-.07,0-.09-.2.12-.1,0-.24.09,0,0,0,.08-.16.14l.18-.06c-.25.22-.28.07-.55.27l.08-.08c-.14.1-.55.29-.68.4s-.08,0,0,0a5.8,5.8,0,0,1-1.13.41l0,0c-.07,0-.11.08-.21.07s0,0,0,0a1.16,1.16,0,0,1-.29.08l.08,0c-.39.05-.58.17-.91.2,0-.07-.32,0-.47-.06h0c-.46,0-.78,0-1.2,0-.26-.09-.88-.17-1.27-.32.06,0,0,0-.1,0s-.27,0-.24-.09l0,0c-.05-.08-.25-.12-.39-.19l-.06.06c-.34-.24-1-.42-1.16-.62a2.59,2.59,0,0,1-.29-.14l0,0-.62-.44.07,0c-.14-.12-.26-.06-.4-.18v-.08c-.27-.2-.45-.5-.73-.7,0,0,0,0,.07,0-.12-.1-.36-.49-.4-.39s-.21-.27-.34-.41h.05a1,1,0,0,1-.27-.27c0-.05,0-.06,0,0-.07-.16-.1-.09-.2-.28l.07.05a.61.61,0,0,0-.17-.2.66.66,0,0,1-.13-.34.41.41,0,0,1-.14-.18s0,0,0,0a2.76,2.76,0,0,1-.26-.58s0,0,0,0c.08.22.15.39.14.38s0-.19.07-.08a2.12,2.12,0,0,1-.28-.52v0l0,0,0-.11,0-.14a1.28,1.28,0,0,0-.07-.31s-.06-.1-.06,0,0,0,0,.08l0,0h0l.07.22a.4.4,0,0,1-.08-.24L88,36a2.55,2.55,0,0,1,0-.42,6.45,6.45,0,0,0-.22-.83.14.14,0,0,1,0-.13s0,.1,0,.12c0-.16,0-.48-.11-.51,0-.21,0,.11,0-.17l0,0c.08-.55-.13-.92.06-1.52a.15.15,0,0,1,0,.07,7.53,7.53,0,0,1,.6-2.06.71.71,0,0,0,.09-.33l.06,0,0-.2c.12-.28.32-.41.47-.75l0,0c.08-.11.22-.36.24-.32a.1.1,0,0,1,0-.09h0a2.75,2.75,0,0,1,.17-.29c.18-.18,0,.09.28-.19.09-.11.21-.34.16-.31s-.1.1-.12.08l.07-.1c0-.06,0-.19-.26,0l-.11.2-.07,0,.12-.14a.39.39,0,0,0-.15.2.21.21,0,0,0-.09.05l-.09.2s0-.11-.08,0,.11,0,0,.11-.09,0-.14.15,0,0,0-.07-.16.24-.16.31-.2.32-.24.28a1.43,1.43,0,0,1-.1.29c0-.2-.18.33-.23.25a6.61,6.61,0,0,1-.24.71.1.1,0,0,1,0-.07c-.06.13-.1.16-.14.24s0,.24,0,.36,0-.12-.1-.08,0,.29,0,.25c-.08.11-.05.1-.12.15s0,.11,0,.23-.08,0-.1.24S87.66,31.9,87.66,31.9Zm.41,4.78h0l0-.09Zm.15.38-.06-.17s0,0,0,0S88.21,37,88.22,37.06Zm0-.89c0,.06,0,.08,0,.09l0-.1h0Z"/><path class="cls-5" d="M88.12,36.08v0Z"/><path class="cls-5" d="M97.12,25.49h0Z"/><polygon class="cls-5" points="91.82 41.25 91.82 41.24 91.78 41.24 91.82 41.25"/><path class="cls-5" d="M94.92,25.37h0Z"/><path class="cls-5" d="M94,25.55l-.13,0Z"/><path class="cls-5" d="M93.26,25.74v0h0Z"/><path class="cls-5" d="M103.51,29.47l0,0C103.57,29.55,103.55,29.51,103.51,29.47Z"/><path class="cls-5" d="M101.11,26.94l.1,0S101.12,26.93,101.11,26.94Z"/><polygon class="cls-5" points="104.7 33.2 104.7 33.2 104.7 33.23 104.7 33.2"/><path class="cls-5" d="M101.34,27.1l-.13-.11A.69.69,0,0,0,101.34,27.1Z"/><polygon class="cls-5" points="90.48 27.34 90.45 27.36 90.45 27.37 90.48 27.34"/><path class="cls-5" d="M90.45,27.37l0,0Z"/><path class="cls-5" d="M90.37,27.47l.06-.07S90.38,27.44,90.37,27.47Z"/><path class="cls-5" d="M91.27,26.76v0Z"/><path class="cls-5" d="M91.52,26.59c-.06,0-.17.07-.25.13v0S91.48,26.65,91.52,26.59Z"/><path class="cls-5" d="M92.69,26.16l-.23.1c.05,0,.11,0,0,0C92.76,26.2,92.4,26.3,92.69,26.16Z"/><path class="cls-5" d="M93.4,25.9c-.12.06,0,0,0,0S93.5,25.89,93.4,25.9Z"/><path class="cls-5" d="M98.78,25.9l0,0C98.85,26,98.76,25.92,98.78,25.9Z"/><path class="cls-5" d="M99.83,26.13l-.08-.07h-.06Z"/><polygon class="cls-5" points="100.25 26.66 100.21 26.64 100.36 26.71 100.25 26.66"/><path class="cls-5" d="M104.35,34.28l.05,0C104.39,34.19,104.34,34.17,104.35,34.28Z"/><path class="cls-5" d="M103.25,38a.44.44,0,0,0-.14.18A1.29,1.29,0,0,0,103.25,38Z"/><polygon class="cls-5" points="92.93 41.39 93.01 41.41 92.87 41.36 92.93 41.39"/><polyline class="cls-3" points="89.92 28.06 71.83 22.78 71.28 24.69 89.3 28.81"/><path class="cls-5" d="M89.28,28.91s0,0,0-.05l0,0Z"/><path class="cls-5" d="M88.92,28.73c-.07,0-.15,0-.12.09s.09,0,.17-.05.09,0,.08.05.08,0,.12,0a.4.4,0,0,0-.26-.07S88.92,28.74,88.92,28.73Z"/><path class="cls-5" d="M83.51,27.42h0Z"/><path class="cls-5" d="M80.15,26.62h0S80.14,26.61,80.15,26.62Z"/><path class="cls-5" d="M79.58,26.44h0Z"/><path class="cls-5" d="M83.51,27.42l-.09,0S83.46,27.4,83.51,27.42Z"/><path class="cls-5" d="M88.15,28.68h0Z"/><polygon class="cls-5" points="85 27.72 85.03 27.73 85.05 27.71 85 27.72"/><path class="cls-5" d="M86.14,28s0,0-.06.05a.08.08,0,0,1,.07,0A.08.08,0,0,0,86.14,28Z"/><path class="cls-5" d="M87.93,28.46h0Z"/><path class="cls-5" d="M84.19,27.52h0Z"/><path class="cls-5" d="M88.67,27.5Z"/><polygon class="cls-5" points="89.92 28.07 89.9 28.07 89.89 28.09 89.92 28.07"/><path class="cls-5" d="M78.54,26.15h0Z"/><path class="cls-5" d="M72.28,23.09c-.09-.07.19,0,0-.08C72.33,23,72.16,23,72.28,23.09Z"/><path class="cls-5" d="M88.12,28.66h0Z"/><polygon class="cls-5" points="72.32 23.01 72.32 23.01 72.31 23 72.32 23.01"/><path class="cls-5" d="M76.11,25.61s0,0,0,0S76.13,25.63,76.11,25.61Z"/><path class="cls-5" d="M77.91,26.08h0Z"/><path class="cls-5" d="M75.16,25.46a.11.11,0,0,0-.06,0h0A.06.06,0,0,1,75.16,25.46Z"/><polygon class="cls-5" points="74.19 25.23 74.2 25.24 74.23 25.25 74.19 25.23"/><path class="cls-5" d="M85.75,26.66l0,.05S85.92,26.71,85.75,26.66Z"/><path class="cls-5" d="M88.15,28.65s0,0,0,0h0S88.16,28.66,88.15,28.65Z"/><path class="cls-5" d="M75.05,25.76l-.15,0Z"/><path class="cls-5" d="M78.85,24.66h0S78.86,24.65,78.85,24.66Z"/><path class="cls-5" d="M74.44,25.62l-.08-.05h0Z"/><path class="cls-5" d="M85.78,26.71Z"/><path class="cls-5" d="M86.81,26.91c-.14,0-.08,0-.12.05s-.07-.06-.12-.1-.21,0-.29,0,0,0,0,0-.34-.09-.49-.08a0,0,0,0,0,0,0,.11.11,0,0,1,0,.08c-.07,0-.13,0-.14,0a.06.06,0,0,0,.06,0h-.07c0-.06.1,0,.11,0a1.93,1.93,0,0,1-.4-.07c0-.06.24.05.12,0l.15.06c-.1-.11.09,0,0-.08s-.24,0-.45-.11c0,0,0,0,0,.05-.31,0-.19-.18-.43-.18a.27.27,0,0,1-.25,0l.07,0c-.2-.06-.14,0-.34-.05,0,0,.16,0,.14,0s-.11,0-.21,0v-.05L83.38,26s.07,0,0-.05a5.5,5.5,0,0,1-.92-.3h-.12s0,0,0,0,0,0-.07,0-.08-.05,0-.05a2.48,2.48,0,0,1-.79-.2h0c-.16-.06-.21,0-.35-.05h0a7.32,7.32,0,0,1-1-.33c-.07,0-.34-.13-.39-.06a2.37,2.37,0,0,0-.4-.21c-.08,0-.13,0-.23,0v0H79l0-.07-.09,0s.07,0,.06.05a.58.58,0,0,1-.33-.15l-.33-.06s.07,0,.11,0c-.19,0,0-.05-.19-.06,0,0,0,0,0,0a1.48,1.48,0,0,0-.39-.13l0,0c-.24-.08-.51-.14-.78-.22.09,0,0,.09,0,.07l0-.05s.08,0,0,0-.06-.07,0-.07l-.13,0s0,0,0,0-.2-.1-.29-.08h0L76,23.79s-.1,0-.17,0a4.61,4.61,0,0,0-.53-.19c-.14,0,0,0-.12,0s-.19-.09-.09-.09a5.08,5.08,0,0,0-.6-.13s.06,0,0,0-.12-.05-.11-.06h0c-.35,0-.74-.33-1-.33h0l-.29,0c-.12-.05.09,0,0-.06-.31,0-.47-.14-.72-.17a.53.53,0,0,0-.21-.12l-.49-.13c0,.14-.08.27-.11.4a1.82,1.82,0,0,1-.08.19h0c0,.07,0,.08-.06.12s0-.06,0,0c-.06.23-.13.47-.21.7l-.32.93.54.14c.21.05.15-.11.41,0l-.09,0c.44,0,.88.21,1.31.26,0,0,0,0-.07,0a.62.62,0,0,0,.33.05c.07,0,0,0,0,0s.23,0,.27.05,0,0,0,0,.27.07.22,0c.15.05.3.05.43.1s.26.08.3,0,.27.11.37.11.08,0,0,.05c.11,0,.22,0,.21,0,.19.13.43,0,.53.16.34,0,.66.09,1,.15,0,.06-.34-.07-.34,0a5,5,0,0,1,.76.1c.07,0,0,0-.08,0,.29,0,.56.13.82.15h-.06c.05,0,.12,0,.12,0h0c-.07-.06.22,0,.23-.06s.25.08.09.15c0,0,.08,0,.08,0s.06,0,0,0c.19,0,.13,0,.29,0,0,0,0,0-.06,0a1,1,0,0,1,.32,0s0,0,0,0a4.36,4.36,0,0,1,.68.11c-.09,0,.08,0,.09.09l.14,0,0,0a3,3,0,0,1,.34.06H80l.24,0-.13,0c.13,0,0-.07.16,0a.4.4,0,0,1,.18.07h0a.45.45,0,0,1,.22,0s0,.05,0,.07.29,0,.38,0,0,0,0,0L81,27s.06,0,0,.05c.17,0,0-.08.16,0h0c.2.06.4.07.58.13s-.16,0-.11,0c.27,0,.58.07.83.14l0,0c0-.06.18.08.32.08,0,0-.05,0,0,0a3.94,3.94,0,0,0,.65.11h0c.1,0,.28.07.39.11s.1,0,.07,0c.33.19.69.09,1,.26,0,0-.1,0-.07,0l.27,0s0,0-.08-.06a.4.4,0,0,1,.19,0c-.13,0,0,0,0,.08s0,0,0,0,0-.06.22,0h0a1.8,1.8,0,0,1,.22,0c0,.05-.08,0-.09,0s.23,0,.31,0h-.16a.37.37,0,0,0,.19.08h0l.18.06,0,0c.15-.07.28,0,.47,0-.19,0,0,0-.06.07s.11.05.09.06.14.06.27,0,.09,0,.06.06,0,0,0-.05c.19,0,.4.15.66.14s.27,0,.47,0-.07,0-.07,0a1.11,1.11,0,0,0,.29.07s0,0,0,0,.06,0,.16,0a.19.19,0,0,1-.09,0l.3,0s-.07,0-.1,0a.94.94,0,0,0,.33,0l-.07,0s0,0,0,0-.14,0-.14-.06h.07c0-.1-.29-.05-.43-.09l.08-.05-.16,0s0-.06,0-.05c-.1-.05-.1,0-.18-.05h-.09s0,0,0,0c-.17-.08-.3,0-.36-.08h0c-.25,0,0,0-.23,0l-.1-.13,0,0s-.07,0-.06,0,0,0,0,0-.34-.06-.36-.13.12.05,0,0-.16,0-.26-.08.14,0,0,0-.22-.07-.31-.08-.22,0-.38,0a2.9,2.9,0,0,0-.44-.15h0c0,.05-.19,0-.31,0s0,0,.1,0l-.1,0a.2.2,0,0,1-.14,0l0,0a2.12,2.12,0,0,1-.46-.08s.11.13-.08.11c0,0,0,0,0,0h-.09l.08,0c-.08,0-.05,0-.11,0s0,0,0-.05,0,0,.08,0a.43.43,0,0,1-.18-.09s0,0-.07,0,0,0-.11-.08-.13,0-.14,0,0,0-.06,0-.33-.07-.26,0h0c-.24,0-.48-.14-.72-.17v0a3.65,3.65,0,0,0-.42-.05s-.09-.05-.07-.06a.83.83,0,0,1-.27-.06c.11,0,0,0,.11,0a.58.58,0,0,0-.32-.07c.06,0-.1-.07-.16-.08l.09,0-.21,0,0,0c-.27-.12-.54,0-.73-.16-.08,0,.15.06.07.08a2.31,2.31,0,0,1-.29-.15c-.17-.06-.18,0-.37,0,0,0,0,.08-.11.06s-.14-.11-.06-.1,0,0,0,0,.1,0,0,0h0c-.06,0-.24-.07-.19-.09-.11,0,0,0,0,0-.16-.06-.26-.06-.43-.11,0,0,0,0,0,0-.25-.08-.12,0-.3,0s0-.06-.13-.07,0-.05,0-.06a1.24,1.24,0,0,1-.38-.11H79l-.13,0,0,0s-.09,0-.08,0,0,.07-.09.08-.2,0-.21-.08c.2.06,0-.05.16,0l-.12,0h0c-.18-.09-.1,0-.3,0,0,0,0-.06-.07-.06s0,.05,0,.05-.15,0-.21,0l.07,0s-.09,0-.19,0,.09,0,.06,0-.22-.1-.37-.1,0,0,0-.08-.16-.07-.33-.08c0,.05.05,0-.07.05l.27,0h-.18c.08,0,.18,0,.22,0s-.08,0,0,0-.23,0-.35-.09l0-.08c-.19-.08-.36,0-.61-.12l.08,0s-.15,0-.24,0,0-.05-.07-.07-.18-.05-.22,0l-.1-.06c-.2-.06-.25,0-.45,0,.07,0,0-.06.12-.05-.06,0-.12,0-.13,0s-.19,0-.24,0,0,0-.12,0a0,0,0,0,1,0,0s-.12,0-.06,0c-.18-.13-.57-.12-.73-.24l-.45-.08s0,0,0,0c-.17-.07-.13.05-.33,0s.12,0,.06,0-.25,0-.38-.12h0c-.1-.06-.27,0-.44-.07v0a1.91,1.91,0,0,1-.52,0c.06,0,.07,0,0,0s0,.06-.14,0-.15-.07-.15-.12l.14,0c-.06-.06-.18,0-.25-.06v0c-.2,0-.27,0-.42,0h0c-.1,0-.09,0-.11,0a.06.06,0,0,0,0-.06l.08,0a1.32,1.32,0,0,1,0-.39c0,.08,0,.3,0,.36a1,1,0,0,0,0-.3.22.22,0,0,1,0,.11,1.27,1.27,0,0,1,0-.41c.1.06.15-.41.27-.51a1.74,1.74,0,0,1,.12-.42.46.46,0,0,0,.17.06c-.1-.12.09,0,.1-.07s.11,0,.11,0l.22.12s-.08,0-.08,0c.17.05.06.05.17.11s.07,0,.16,0l-.12-.08c.25,0,.18.13.43.16H73a2,2,0,0,0,.59.1s0,.05,0,0c.29.1.67.12.88.23h0c.05,0,.1,0,.16,0s0,0,0,0a.79.79,0,0,1,.23,0h-.07a3,3,0,0,0,.69.12c0,.06.2.15.31.19h0c.33.1.57.11.89.18a7.88,7.88,0,0,0,.93.34s0,0,.08,0,.21,0,.18.07h0c0,.07.19.1.3.13l0-.07c.28.2.81.19.94.34l.25,0v0a5.31,5.31,0,0,0,.55.17h-.06c.14,0,.21-.06.34,0l0,.07a3.92,3.92,0,0,0,.74.22s0,0-.06,0c.11,0,.43.17.42.08s.25.08.39.09l0,0a.58.58,0,0,1,.29,0s0,0,0,0c.11.06.1,0,.25.06h-.07a.28.28,0,0,0,.2,0c.09,0,.24.08.25.12a.26.26,0,0,1,.17,0s0,0,0,0c.21.09.33,0,.47.12s0,0,0,0l-.29-.09s.12.09,0,.1a1.47,1.47,0,0,1,.45.06v0h0l.08,0,.11,0s.15.06.22.08.09,0,0-.06h-.09l-.17-.05a.34.34,0,0,1,.19,0l.11,0c.08.08.25.16.27.2a2,2,0,0,0,.64.09c.06,0,.06,0,.08.06h-.1c.13,0,.36.1.4,0s-.1,0,.11.08h0c.37.2.69.06,1.1.29,0,0,0,0,0,0,.49.19,1.06.26,1.54.48a.39.39,0,0,0,.25,0l0,.05h.16c.23,0,.34.21.63.22l0,0c.09,0,.31.07.28.1a.07.07,0,0,1,.08,0v0l.25,0c.18.06,0,.07.21.16.1,0,.3,0,.27,0s-.1,0-.1-.07l.1,0c0-.06.12-.11-.09-.22h-.16l0-.05.13,0c-.07-.06-.12,0-.18,0a.1.1,0,0,0-.06-.05h-.17s.09,0,0-.07.05.08-.07.06,0-.07-.13-.07,0,0,0,0-.21-.05-.26,0-.27-.07-.24-.13a.57.57,0,0,1-.22,0c.15,0-.27-.08-.21-.15-.12,0-.36-.07-.54-.08,0,0,0,0,0,0a.65.65,0,0,1-.17-.09s-.19,0-.28,0,.09-.05.07-.11-.21,0-.19,0-.07,0-.1-.1-.09,0-.18,0,0-.08-.16-.1S86.81,26.91,86.81,26.91ZM83.38,26h0l.07,0ZM83.09,26l.13,0s0,0,0,0S83.13,26,83.09,26Zm.53.44c-.05,0-.06,0-.06,0l.08,0h0Z"/><polygon class="cls-5" points="83.72 26.38 83.73 26.38 83.71 26.36 83.69 26.37 83.72 26.38"/><path class="cls-5" d="M83.55,27.43h0Z"/><polygon class="cls-5" points="79.17 24.73 79.17 24.74 79.2 24.74 79.17 24.73"/><path class="cls-5" d="M85.11,27.93l0,0Z"/><path class="cls-5" d="M85.8,28.1l.09,0Z"/><path class="cls-5" d="M86.33,28.24h0Z"/><path class="cls-5" d="M77.88,26.36h0Z"/><path class="cls-5" d="M80.41,26.84h-.08S80.41,26.86,80.41,26.84Z"/><polygon class="cls-5" points="75.07 25.76 75.07 25.76 75.05 25.76 75.07 25.76"/><path class="cls-5" d="M80.21,26.81l.12,0Z"/><polygon class="cls-5" points="88.62 28.79 88.65 28.8 88.65 28.79 88.62 28.79"/><path class="cls-5" d="M88.65,28.79h0Z"/><path class="cls-5" d="M88.74,28.79h-.06A.06.06,0,0,0,88.74,28.79Z"/><path class="cls-5" d="M87.92,28.61h0A0,0,0,0,0,87.92,28.61Z"/><path class="cls-5" d="M87.71,28.56a.84.84,0,0,0,.19.07h0S87.76,28.55,87.71,28.56Z"/><path class="cls-5" d="M86.86,28.18l.18.05s-.07-.05,0,0C86.84,28.1,87.09,28.24,86.86,28.18Z"/><path class="cls-5" d="M86.31,28c.1,0,0,0,0,0S86.24,28,86.31,28Z"/><path class="cls-5" d="M82.3,27.11l0,0C82.25,27.07,82.32,27.09,82.3,27.11Z"/><polygon class="cls-5" points="81.49 27.13 81.56 27.16 81.6 27.14 81.49 27.13"/><polygon class="cls-5" points="81.1 26.77 81.14 26.77 81.01 26.75 81.1 26.77"/><path class="cls-5" d="M74.37,25.24v.05C74.43,25.29,74.45,25.24,74.37,25.24Z"/><path class="cls-5" d="M71.49,24.63s0,0,0,0h0Z"/><polygon class="cls-5" points="78.31 24.86 78.25 24.86 78.36 24.88 78.31 24.86"/><polygon class="cls-4" points="71.49 24.73 70.12 33.03 71.57 33.31 72.48 24.96 71.49 24.73"/><path d="M104.2,47h0Z"/><path d="M104.2,47h0Z"/><path class="cls-4" d="M68.15,47.67s4.83,2.9,6.53,3.17,5.33.58,5.33.58-4.11,2.4-6,2.34-5.84.25-5.84.25"/><path class="cls-4" d="M69.21,48.28l-.15,1.54s3.75,2.34,5.62,2.29a19.48,19.48,0,0,0,3.65-.49"/><path class="cls-1" d="M63.62,95.06c-3.09.14-4.28-1-8.47-.71C50.8,94.71,15.46,90,14.88,90.7s-7.38,2-10.28,1.45S.8,85.3.51,84.42C.28,83.71,4,82.81,7.22,82.64A.75.75,0,0,0,7.69,82a18.49,18.49,0,0,1-.18-2.79c0-.65,1.48-3,1.94-2.82.68.34-.36,3.38.29,5a4.48,4.48,0,0,0,.79,1.37c2.68.86.63,3.09,4.35,3.42,4.06.37,27.53-1.37,33.32-1.23a32.78,32.78,0,0,1,11,2.46s-1-.14,2.46-.68,4.41-.55,4.41-.55"/><path class="cls-1" d="M90.93,105.25c-1.47,6.72-1,16.15-.55,20.34a3.37,3.37,0,0,0,2.86,3c11.93,1.67,23.68-.87,28.63-2.18a3.38,3.38,0,0,0,2.51-3.2c.12-6.52.18-24.29-2.38-35-3.19-13.33-18-18.86-18-18.86s-2.32,8.43-7.54,10.45-4.11-3-4.11-3-1.84,4.88-2,7.33"/><path class="cls-1" d="M107.12,98.88S103.75,104,94.47,105c-15.16,1.54-24.33-1.45-31,0,0,0-.87-14.49,2.6-18.83a168.32,168.32,0,0,0,31.65-3.26C104.92,81.49,108,86.2,108,86.2"/><path class="cls-4" d="M80.23,49.17s1.27,2.15.6,4"/><path class="cls-3" d="M102.17,7.2a33.59,33.59,0,0,1,.88,7.19,34,34,0,0,1-2.17,12.46c.16.12.32.23.48.36l.2.17.26.23.24.22.14.15.23.25.25.3a4.22,4.22,0,0,1,.27.36l.23.33a.21.21,0,0,0,0,.06c.06.1.13.21.18.31a1.51,1.51,0,0,1,.15.28l.09.15a5.65,5.65,0,0,1,.29.67v0q.14.34.24.69c0,.05,0,.1,0,.15a2.82,2.82,0,0,1,.07.31v0c0,.13.06.26.08.38a7.53,7.53,0,0,1,.11.83c0,.11,0,.22,0,.33a7.79,7.79,0,0,1,0,1.28c0,.09,0,.18,0,.28s0,.2,0,.31,0,.14,0,.21,0,.26-.08.38-.07.26-.11.39a3,3,0,0,1-.14.39,1.18,1.18,0,0,1-.07.2.37.37,0,0,1,0,.11,1.43,1.43,0,0,1-.08.22,8.35,8.35,0,0,1-1.18,1.92l-.11.13c-.08.09-.16.19-.25.28l-.41.41-.2.19-.27.22-.21.17-.29.21-.19.12c-.15.1-.3.2-.46.29l-.23.12-.13.06-.32.16c-.25.11-.5.21-.76.3l-.2.06-.21.06c-.1,0-.21.06-.31.09l-.72.14a2.07,2.07,0,0,0-.1.43,4.49,4.49,0,1,0,5.81,6.77A4.53,4.53,0,0,0,104.21,47h0a5.91,5.91,0,0,0,6.88-6,4.49,4.49,0,0,0,5-6.91,5.9,5.9,0,0,0,2.38-10,5.73,5.73,0,0,0-2.73-1.43,4.47,4.47,0,0,0-1-3.7,5.35,5.35,0,0,0-5-8.37,4.49,4.49,0,0,0-7.57-3.31Z"/><path class="cls-5" d="M102.11,7.13c0,.06,0,0,.13-.07l.07-.12Z"/><path class="cls-5" d="M103.14,6.51c.17-.13.38-.25.24-.24a2.7,2.7,0,0,0-.4.29c-.16.09-.27.16-.26.12s-.24.15-.29.24a8,8,0,0,0,.7-.45C103.2,6.45,103.15,6.49,103.14,6.51Z"/><path class="cls-5" d="M115.53,14.93l0-.11Z"/><path class="cls-5" d="M118.05,23.76c-.06-.05-.09-.06-.1-.06S118.06,23.78,118.05,23.76Z"/><path class="cls-5" d="M119.23,25.11l0-.09Z"/><path class="cls-5" d="M115.53,14.93l0,.29S115.54,15.07,115.53,14.93Z"/><path class="cls-5" d="M105.45,5.87h0Z"/><path class="cls-5" d="M112.9,11.26l-.07,0h-.08Z"/><path class="cls-5" d="M109.62,10.22a.3.3,0,0,0,.06.16,1.42,1.42,0,0,1,0-.2S109.63,10.19,109.62,10.22Z"/><path class="cls-5" d="M106.25,6.15l-.1,0Z"/><path class="cls-5" d="M114.73,13v0S114.74,13,114.73,13Z"/><path class="cls-5" d="M102.68,11.38h0S102.68,11.35,102.68,11.38Z"/><path class="cls-5" d="M102.18,7.2l0,.06h0Z"/><path class="cls-5" d="M120.17,28.19v0Z"/><path class="cls-5" d="M103.69,48.1c.18-.29-.21.52.06.08C103.72,48.21,103.88,47.73,103.69,48.1Z"/><path class="cls-5" d="M105.55,5.88h0Z"/><path class="cls-5" d="M103.75,48.18h0l0,0Z"/><path class="cls-5" d="M115.88,33.9l.15,0Z"/><path class="cls-5" d="M120,30.09l0,.14Z"/><path class="cls-5" d="M116.84,36.79a1.21,1.21,0,0,0,0,.2v0A1.31,1.31,0,0,1,116.84,36.79Z"/><polygon class="cls-5" points="115.74 39.55 115.78 39.52 115.84 39.44 115.74 39.55"/><path class="cls-5" d="M102.36,20.77l.06-.14C102.39,20.68,102.45,20.22,102.36,20.77Z"/><path class="cls-5" d="M105.45,5.89h0S105.43,5.89,105.45,5.89Z"/><path class="cls-5" d="M117.16,36.93a4.18,4.18,0,0,1-.07.51A3.31,3.31,0,0,0,117.16,36.93Z"/><path class="cls-5" d="M101,40.46l.09-.07Z"/><path class="cls-5" d="M116.6,38.89l-.17.24,0,.06Z"/><path class="cls-5" d="M102.43,20.63h0Z"/><path class="cls-5" d="M102.72,17.4c0,.47,0,.22.06.33,0,.56-.06.25-.11.44,0,.35,0,.62,0,.88,0,0,0,.07,0,0,0,.37-.15,1.09-.17,1.52l0,.05c0-.06.06-.07.08-.05a1.51,1.51,0,0,1-.09.46.54.54,0,0,0,0-.2l0,.22c-.08.19,0-.3,0-.3a11.52,11.52,0,0,1-.2,1.24c-.06.06.15-.76,0-.33l.12-.5c-.15.37.06-.3-.09,0-.14.66-.11.74-.28,1.39,0,.16,0,0,0,.12-.18.93-.29.69-.42,1.38a1.73,1.73,0,0,1-.15.74v-.18a8.69,8.69,0,0,1-.28,1c0-.12.14-.49.1-.4-.18.4-.07.3-.17.63L101,26c-.06.16-.11.33-.17.5s-.31.52.09.63a7.1,7.1,0,0,1,.88.7s-.14-.1,0,0a7.22,7.22,0,0,1,1.7,2.39l.18.3c0,.08,0,.15,0,.07.13.33,0,0,.12.16h0v0h0v.05c.06.17,0,.22,0,.11a6.46,6.46,0,0,1,.36,1l0,.08a.1.1,0,0,1,0-.07v0a5.91,5.91,0,0,1,.18,1.35l0-.13a6.38,6.38,0,0,1,0,1.06v-.09a7.08,7.08,0,0,1-.56,2.69v0c-.06.14-.12.28-.19.41s-.54,1-.53,1.07a11.57,11.57,0,0,1-.9,1c-.16.17-.21.29-.42.51l0,0-.27.31-.2.09-.22.18c.09-.06.2-.13.2-.1a3.43,3.43,0,0,1-.92.56l-.39.24h0l-.5.26a2.8,2.8,0,0,1,.29-.17c-.49.27-.11,0-.56.23.06,0,0,0,0,0-.25.08-.78.27-1.2.36l.07,0-.63.12c-.26,0-.2.32-.25.38l0,.16s0,0,0,0a7.16,7.16,0,0,0-1,.93c.22-.24.21-.14,0,.06l-.1.06c-.08.15.18-.22,0,.09s-.17.16-.07,0c-.07.12-.16.23-.22.35s0-.07,0-.1a3.71,3.71,0,0,0-.41.87l0,0a4.43,4.43,0,0,0-.22,2s.07.3.14.51A4.42,4.42,0,0,0,96,48.93c.29.35.11.09.25.23,0,.06.44.53.19.3A4.1,4.1,0,0,0,98,50.55c-.09,0-.2-.1-.13-.09a1.56,1.56,0,0,1,.34.17h0a5.68,5.68,0,0,0,1.78.29,3.46,3.46,0,0,0,1.61-.35l0,0a4.93,4.93,0,0,0,.8-.47c.36-.22-.2.16.08,0a4.73,4.73,0,0,0,1.52-1.81,2.09,2.09,0,0,0,.26-.5,3.19,3.19,0,0,0,.11-.33l0-.19,0-.1s0,0,0,0l.12,0,.48,0c.31,0,.61,0,.85,0l0,0a3.58,3.58,0,0,1,.42,0s-.24,0-.1,0a6.3,6.3,0,0,0,4.56-3.21c.3-.64.07-.4.39-1.22l0,.25a7.21,7.21,0,0,0,.2-1.05,4.93,4.93,0,0,0,0-.54v-.16s0-.06,0,0l.08,0,.26.06a3.31,3.31,0,0,0,.54.06,4.07,4.07,0,0,0,1-.07,1.13,1.13,0,0,1-.21.06,2.72,2.72,0,0,0,1-.28c.21-.07.06,0,.19,0a5.87,5.87,0,0,0,.79-.43s-.06,0-.11.08c.17-.09.73-.53.56-.45a5,5,0,0,0,.93-1.06c.11-.25.43-.79.39-.9.07.07.32-.86.28-1.2,0,.11,0-.29.06-.16,0-.38,0-.72-.06-.65a5.37,5.37,0,0,0-.47-1.72c-.15-.3-.26-.36-.23-.41l.23-.09a3,3,0,0,0,.36-.16,6.14,6.14,0,0,0,1.27-.82c0,.09-.89.63-.83.65a6.61,6.61,0,0,0,1.79-1.62c.16-.18-.07.12-.11.19a5.79,5.79,0,0,0,1.2-2.35l0,.17c.06-.16.12-.37.08-.36l0,.16c-.1.25.06-.65,0-.69.06.29.11-.81.17-.36,0-.11,0-.25,0-.22,0-.16,0-.21,0-.05a7.78,7.78,0,0,0-.09-.91s0,.1,0,.16c0-.27-.12-.53-.21-1,0,0,0,0,0,.1a6.54,6.54,0,0,0-.92-2c.19.17-.14-.26-.14-.32s-.19-.23-.3-.34c0,.05.06.1.1.16a9.14,9.14,0,0,0-.79-.76l.24.18c-.19-.17-.39-.32-.59-.47l.32.28c-.34-.23,0,.07-.42-.25.09.05-.33-.22-.5-.34h0l-.64-.28c-.06,0,.08,0,0-.06l-.55-.16c-.26-.08-.41-.06-.36-.21,0,.06,0,.05,0,0a.33.33,0,0,1,0-.12c0-.18,0-.21.05-.18,0-.55-.06.18,0-.48,0,.05,0,0,0,.13a4.8,4.8,0,0,0-.41-1.83c0-.19.21.49.18.29a4.4,4.4,0,0,0-.38-.75,2.62,2.62,0,0,0-.24-.34l-.22-.27.23-.39.22-.44c0,.05,0,.09-.07.14,0-.13.29-.56.37-1,0,.1,0,.14,0,.11a4.87,4.87,0,0,0,.13-2l0,.1a5.11,5.11,0,0,0-.24-1.25c0-.1-.12-.3-.1-.16a5.27,5.27,0,0,0-1.88-2.52c.1.07.24.16.17.1a4.7,4.7,0,0,0-.73-.46c0,.06.09.07.23.19l-.51-.25c.35.16,0,0-.12-.13,0,0,0,0,0,0-.39-.22-.09,0-.65-.21h0a6.83,6.83,0,0,0-.68-.13c-.09-.06.25,0,.27,0-.34-.07-.69,0-1-.09a4.26,4.26,0,0,1,.5,0,2.31,2.31,0,0,0-.63-.09H110s-.23.11-.19,0l0-.31a2.56,2.56,0,0,0-.17-.77c.19.54.06.08.11.11,0-.15-.07-.37,0-.31a3.52,3.52,0,0,0-.36-.79s-.15-.26-.08-.22c-.21-.31,0,.08,0,.07a4.34,4.34,0,0,0-1.46-1.52,4.41,4.41,0,0,0-1.36-.5c-.2-.07.18,0,.18,0a3,3,0,0,0-.92-.18c.07,0,0,0-.1,0-.26,0-.17,0-.52,0a1.46,1.46,0,0,1,.26-.06,4.27,4.27,0,0,0-.93.14c-.09,0,.18-.07.3-.1a2.8,2.8,0,0,0-1,.31l.23-.07c-.13,0-.08,0,0,0a.78.78,0,0,1,.46-.09l-.22.06A9.7,9.7,0,0,1,105.49,6l-.19,0a3.62,3.62,0,0,1,.47,0c.1,0,.16.07-.07,0a2.78,2.78,0,0,1,.56.11s0,0,0,0l.31.06c-.07,0,0,0-.15,0a4.07,4.07,0,0,1,1,.43l0,0c.68.4.09,0,.61.29l.24.34.08,0c.06.06.17.17.14.16.22.21,0,0,.12.06.24.31.65.87.61,1s-.15-.34.07,0c0,.14.21.43.27.79-.06-.09-.15-.42-.07-.07a2.59,2.59,0,0,1,.17,1s0,0,0,.12v.15c0,.05,0,.15.08.11a7.49,7.49,0,0,1,.81,0,7.18,7.18,0,0,1,1.37.3h0a2.76,2.76,0,0,1,.87.31s-.09,0-.27-.07l.3.15a1.43,1.43,0,0,1,.35.17h-.09a4.27,4.27,0,0,1,1.12.91s-.24-.4.19,0c0,0,0,.07-.12-.05a1.58,1.58,0,0,1,.19.22l-.18-.17c.15.21.11.09.24.25,0,0,.08.13,0,.13a2,2,0,0,0-.16-.21,2.61,2.61,0,0,1,.32.52s0,0,.13.12c.21.38,0,.15.15.37s.15.36.19.35a.4.4,0,0,1,0,.2c.11.2.27,1,.26.75v0h0a5.16,5.16,0,0,1-.05,2.28h0a6.5,6.5,0,0,1-.42,1.23c-.06.12-.17.26-.16.2l-.24.41a3.86,3.86,0,0,1,.3.39c-.24-.27.07.13-.25-.29.3.4.31.46.57.86-.1-.12.11.31.18.5a1.61,1.61,0,0,0-.09-.29,4.1,4.1,0,0,1,.22.61l-.08-.1a8.21,8.21,0,0,1,.2,1.19,3.21,3.21,0,0,1,0,.54c0,.12,0,.24,0,.37l.35.11c.1,0,0,0-.15-.07s-.15-.22-.16-.09c.26.1.47.15.62.23l.34.16a6,6,0,0,1,1,.46c-.05,0-.08-.14.29.11s.35.37.15.21L118,23.7c-.11-.08-.26-.17-.13-.06l.05,0c.16.12.58.5.46.43.23.21.12.07,0-.09a7.3,7.3,0,0,1,.9,1c0-.08-.08-.15,0-.08.41.68.23.26.49.74.11.29-.09-.08.15.41.1.31,0,.08-.08,0a3.67,3.67,0,0,1,.33,1.15A1.82,1.82,0,0,0,120,27a1.53,1.53,0,0,1,.09.4v-.16a1.6,1.6,0,0,1,0,.28c0,.15,0-.13.11.18a2.3,2.3,0,0,1,0,.69c0-.64,0,.07-.07-.47a1.47,1.47,0,0,1,0,.38s0,0,0-.06c0,.6.07.28,0,.91,0-.09-.06.14-.08.24,0-.25.07-.12,0,.12s-.09.43-.15.63l.08-.23a2.1,2.1,0,0,1-.15.56s.08-.25,0-.16a5.19,5.19,0,0,1-.51,1c-.12.16,0,0-.16.13a5.35,5.35,0,0,1-.64.82c.12-.09.15-.11-.08.18.19-.21.36-.44.53-.66l-.31.45a5.37,5.37,0,0,0,.42-.56c-.12.24-.11.21,0,.12a7.89,7.89,0,0,1-.74.83l0-.07a6.17,6.17,0,0,1-1.54,1.05l.24-.1a3.13,3.13,0,0,1-.68.32s0,0-.09,0l-.29.07c-.41-.15.32.71.28.66,0,.11.09.22.12.33a4.24,4.24,0,0,1,.43,1.27c-.06-.18,0,.1-.12-.3a2.55,2.55,0,0,0,.07.38,3.61,3.61,0,0,1,0,.75.86.86,0,0,1,0,.35s0,0,0,0,0,.36,0,.16a4.68,4.68,0,0,1-1.07,2.05,4.45,4.45,0,0,1-1,.91s0,0,.06,0c-.5.25-.26.26-.87.47-.32.07.31-.14.12-.09s-.73.26-1.17.23l.1,0a4.61,4.61,0,0,1-1.33,0s0,0,0,0a1.5,1.5,0,0,1-.36,0l-.26-.07c-.05,0,0,.18,0,.25a5,5,0,0,1,0,.9c0-.17,0-.24,0-.15s.08-.06,0,.41a2.1,2.1,0,0,1-.19.5c0-.14.07-.29.1-.43-.1.21-.13.55-.22.76v0a5.48,5.48,0,0,1-.56,1.28l0-.06c-.17.37-.21.26-.42.6l-.12,0a4.9,4.9,0,0,1-1,1,7.83,7.83,0,0,0,.8-.82c-.17.19-.62.6-.72.7.08-.07.17-.16.25-.22a3.57,3.57,0,0,1-1,.75c0-.07-.28.09-.65.23a3,3,0,0,1-1,.24,4.39,4.39,0,0,1-1.09.12l-.56,0-.35-.05c-.07,0-.2,0-.21,0s0,.11-.07.17a2.07,2.07,0,0,1-.08.35l-.07.28c.19-.33-.09.28,0,.25a2.36,2.36,0,0,1-.14.34,6.58,6.58,0,0,1-.42.61c-.12.12.11-.2.08-.2-.3.43-.15.16-.38.42.07,0-.08.17-.31.37l.32-.27c-.49.55-.48.41-1.07.85l.18-.15a5.58,5.58,0,0,1-1.61.73c-.07,0-.16,0,0,0a5.3,5.3,0,0,1-1.44.06,3.69,3.69,0,0,1-1.24-.39H98a1.8,1.8,0,0,1-.46-.23s.07,0,0,0a2.27,2.27,0,0,1-.55-.39l.16.11A4.89,4.89,0,0,1,95.76,48s-.19-.68-.21-1h0a4.45,4.45,0,0,1,.31-2.66,5.35,5.35,0,0,1,.82-1.07l.67-.57a.18.18,0,0,0,.09-.16l0-.11,0-.14s0,0,0,0l.17,0c-.16,0,0,0,.19-.09s.63-.2.6-.14l-.08,0a3.45,3.45,0,0,0,1-.32l0-.09a3.42,3.42,0,0,0,.63-.25h0a12.66,12.66,0,0,0,2-1.45,6.8,6.8,0,0,0,.5-.59l0,0a7.37,7.37,0,0,0,1-1.51l0,.17a7.42,7.42,0,0,0,.33-1l.11-.1,0-.08v0a6.62,6.62,0,0,0,.55-2.29s0,0,0,.17c0-.38.09-1.49,0-1.34a4.26,4.26,0,0,0-.15-1.27l0,.06-.14-.4v0a.21.21,0,0,0,0-.1l0,.06c0-.11-.07-.22-.13-.43s0-.11,0,.05c-.1-.4-.13-.29-.27-.76l.08.16-.06-.2v0h0v0a2.74,2.74,0,0,0-.19-.34,6.12,6.12,0,0,1-.34-.78,2.4,2.4,0,0,1-.32-.43s.06,0,.08.07a8.51,8.51,0,0,0-.94-1.19.12.12,0,0,0,0-.08,6.15,6.15,0,0,1,.62.74s-.24-.39,0-.13c-.25-.28-.69-.7-1-1l0-.05,0,0a1.68,1.68,0,0,0-.21-.18,2,2,0,0,0-.27-.24,1.05,1.05,0,0,0-.23-.2l-.11-.08s0,0,0,0,0-.25-.07,0c0,0,0,0,0,.08l0,0h0l.41.31a3,3,0,0,1-.45-.32c-.08,0,0-.12,0-.2.16-.26.38-.8.44-.87a13,13,0,0,0,.5-2,.88.88,0,0,1,.1-.28,2.64,2.64,0,0,0-.05.3,7.1,7.1,0,0,0,.23-1.21c.14-.46,0,.28.13-.37v.09c.36-1.26.28-2.11.57-3.53a1,1,0,0,1,0,.17,38.47,38.47,0,0,0,.26-5,3.16,3.16,0,0,0-.07-.8l0-.1-.08-.48c-.09-.68,0-1.19-.16-2.05l0,.12c0-.31-.15-1-.11-.93a.53.53,0,0,1,0-.22h0l-.17-.75c-.09-.59.11.07-.05-.78a3.33,3.33,0,0,0-.26-.76,1,1,0,0,1,0,.34l-.07-.28c-.08,0-.2-.24-.09.47l.15.48v.16L102.17,8a1.93,1.93,0,0,0,.13.55.71.71,0,0,0,0,.21l.15.47c0,.06-.09-.21,0,.12s0-.23.11.15a1,1,0,0,0,0,.45s0,0-.06-.13c.06.25.1.65.15.78s.11.84,0,.82a5.5,5.5,0,0,1,.11.66c-.11-.41.06.86,0,.75a13.52,13.52,0,0,1,.13,1.67.52.52,0,0,1,0-.14c0,.31,0,.4,0,.6a3.59,3.59,0,0,1,.09.78c-.06.38-.06-.23-.12-.11s0,.66.07.53a1.12,1.12,0,0,1-.08.4c.07.05,0,.27,0,.51-.06.42-.07.1-.08.56C102.72,17.81,102.72,17.4,102.72,17.4Zm-.89,10.37h0l-.16-.15Zm.63.67a3.25,3.25,0,0,0-.26-.3s0,0,.08.05S102.38,28.32,102.46,28.44Zm-1.24-1.55c.13.08.16.12.17.14l-.21-.15h0Z"/><path class="cls-5" d="M101,26.82s0,0,0,0,0,0,0,0h0Z"/><path class="cls-5" d="M115.51,14.8v0Z"/><polygon class="cls-5" points="101.72 39.81 101.73 39.81 101.78 39.75 101.72 39.81"/><path class="cls-5" d="M112.55,10.88l-.06,0Z"/><path class="cls-5" d="M110.38,10.39h0Z"/><path class="cls-5" d="M109.73,9.44l0,0h0Z"/><path class="cls-5" d="M120.27,30.06v.07C120.22,30.28,120.25,30.18,120.27,30.06Z"/><path class="cls-5" d="M117.34,23.11l.23.11C117.45,23.14,117.35,23.09,117.34,23.11Z"/><polygon class="cls-5" points="117.16 36.88 117.16 36.87 117.16 36.93 117.16 36.88"/><path class="cls-5" d="M117.89,23.43a2.17,2.17,0,0,0-.32-.21Z"/><path class="cls-5" d="M103.92,6.05l-.08,0h0Z"/><path class="cls-5" d="M103.83,6.09l-.08,0Z"/><path class="cls-5" d="M103.56,6.2l.19-.08A1.21,1.21,0,0,0,103.56,6.2Z"/><path class="cls-5" d="M106.2,6h0S106.2,6,106.2,6Z"/><path class="cls-5" d="M106.87,6.17a3.44,3.44,0,0,0-.62-.21h0A5.81,5.81,0,0,1,106.87,6.17Z"/><path class="cls-5" d="M109,8.06a3.72,3.72,0,0,0-.33-.45c0,.08.12.19,0,0C109,8.19,108.53,7.46,109,8.06Z"/><path class="cls-5" d="M109.57,9.68c-.07-.3,0,0,0,0C109.58,9.85,109.6,9.9,109.57,9.68Z"/><path class="cls-5" d="M114.79,18.58v0C114.66,18.74,114.79,18.55,114.79,18.58Z"/><path class="cls-5" d="M115.78,20.75l0-.23-.06-.1C115.72,20.53,115.75,20.64,115.78,20.75Z"/><path class="cls-5" d="M115.63,22.2v.09l0,.29C115.61,22.42,115.63,22.27,115.63,22.2Z"/><path class="cls-5" d="M116,39.11l.08,0C116.2,38.94,116.18,38.89,116,39.11Z"/><path class="cls-5" d="M110.1,44.22a3.28,3.28,0,0,0-.31.42A3.11,3.11,0,0,0,110.1,44.22Z"/><polygon class="cls-5" points="99.91 41.5 99.75 41.59 100.07 41.42 99.91 41.5"/><path class="cls-3" d="M73.54,10.24a4.45,4.45,0,0,0,6.35,6.23,4.52,4.52,0,0,0,1,1.47,4.44,4.44,0,0,0,6.28-.24.86.86,0,0,0,.13-.14,4.44,4.44,0,0,0,3.82,3,4.38,4.38,0,0,0,1.37,2.55,4.62,4.62,0,0,0,.85.62,4.57,4.57,0,0,0,1,1.43c.14.12.28.24.42.34a8.53,8.53,0,0,1,2.62,0,34.07,34.07,0,0,0,1.22-17,33.52,33.52,0,0,0-1.46-5.43,4.49,4.49,0,0,0-4.67-.39l-.15-.15a2.9,2.9,0,0,0-4.7,1.15A4.46,4.46,0,0,0,81,5.93a2.9,2.9,0,0,0-3.47,2.94A4.45,4.45,0,0,0,73.54,10.24Z"/><path class="cls-5" d="M73.47,10.17s0,0,.11-.05l0-.1Z"/><path class="cls-5" d="M74.18,9.66c.11-.11.24-.24.13-.22s-.14.12-.24.27-.18.13-.18.1-.16.13-.19.2a3,3,0,0,0,.47-.38S74.19,9.64,74.18,9.66Z"/><path class="cls-5" d="M83.52,3.33l-.08,0Z"/><path class="cls-5" d="M90.23,1.87l-.08,0S90.24,1.88,90.23,1.87Z"/><path class="cls-5" d="M91.46,2.12l-.07,0Z"/><path class="cls-5" d="M83.52,3.33l.19-.06S83.61,3.29,83.52,3.33Z"/><path class="cls-5" d="M75.71,8.82l-.11,0,.11,0Z"/><path class="cls-5" d="M81.22,5.66l0,.06v0Z"/><path class="cls-5" d="M78.88,6.46c.05,0,.05-.08.06-.11a.41.41,0,0,1-.09.1Z"/><path class="cls-5" d="M76.32,8.88h0Z"/><path class="cls-5" d="M82.28,4.18h0Z"/><path class="cls-5" d="M72.18,13Z"/><path class="cls-5" d="M73.55,10.24l0,0v0Z"/><path class="cls-5" d="M93.68,2.51h0C93.61,2.53,93.65,2.52,93.68,2.51Z"/><path class="cls-5" d="M98.41,21.24c.09-.24,0,.41.08,0C98.47,21.32,98.5,20.93,98.41,21.24Z"/><path class="cls-5" d="M75.78,8.81l.11,0Z"/><path class="cls-5" d="M98.49,21.28h0v0Z"/><path class="cls-5" d="M97.62,4.85v0Z"/><path class="cls-5" d="M95,2.36h0Z"/><path class="cls-5" d="M98.23,6.91a1,1,0,0,0,0,.15V7A.86.86,0,0,1,98.23,6.91Z"/><polygon class="cls-5" points="98.67 9.11 98.67 9.06 98.65 8.99 98.67 9.11"/><path class="cls-5" d="M76.35,17.86l-.1-.05S75.94,17.8,76.35,17.86Z"/><path class="cls-5" d="M75.72,8.84l.06,0-.07,0S75.7,8.84,75.72,8.84Z"/><path class="cls-5" d="M98.56,6.93l.08.35C98.61,7.18,98.59,7.05,98.56,6.93Z"/><path class="cls-5" d="M89.35,20.15l-.07,0Z"/><path class="cls-5" d="M98.85,8.32c0,.07,0,.14,0,.21s0,0,0,0Z"/><path class="cls-5" d="M76.25,17.8h0Z"/><path class="cls-5" d="M74,17c.29.21.17.05.25.07.35.22.14.14.25.24s.44.16.62.24c0,0,0,0,0,0a4.27,4.27,0,0,0,1.12.24h0s-.06-.06,0-.07a2.09,2.09,0,0,1,.34,0,.44.44,0,0,0-.15,0h.16c.15.06-.22,0-.22,0,.32,0,.69,0,.93,0,.06,0-.57.05-.24.07a2.41,2.41,0,0,1-.38,0c.29.08-.23,0,0,.07a4.27,4.27,0,0,0,1.07-.1c.1-.05,0,0,.06-.08.66-.23.58,0,1-.3a1.16,1.16,0,0,1,.46-.33l-.08.11a1,1,0,0,0,.3-.24.46.46,0,0,1,.1-.1,1.31,1.31,0,0,1,.15-.12s-.23.22-.17.17a.38.38,0,0,0,.15-.1l0,0a.22.22,0,0,1,.06-.1v.08a3.48,3.48,0,0,0,.32.51,4.84,4.84,0,0,0,.57.63s-.12-.07,0,0a5.56,5.56,0,0,0,1.9,1.18l.27,0c.06,0,.11,0,0,0,.26.07,0,0,.15,0s.2.07.1.06A7.3,7.3,0,0,0,85,19.15l-.09,0a8,8,0,0,0,.75-.28l-.06,0a4.18,4.18,0,0,0,1-.56,3.9,3.9,0,0,0,.43-.36l.1-.09,0,0,.07-.05v.08s0,0,0,0l.12.26c.09.18.2.35.25.35a3,3,0,0,0,.59.85,3.06,3.06,0,0,0,.42.28l0,0,.28.14.11.14.19.1c-.08,0-.15-.11-.13-.12.29.17.71.4.71.42a5.09,5.09,0,0,0,.77.19,1.09,1.09,0,0,1-.26,0c.42.06.07.07.46.1,0,0,0,0,0,0l.15,0a2.59,2.59,0,0,0,.13.51l-.05-.05A4.49,4.49,0,0,0,92,22.8c-.14-.19-.07-.18.06,0v.09c.11.07-.11-.16.08,0s.07.16,0,.07l.22.2s0,0-.07,0a2.76,2.76,0,0,0,.54.43v0l.36.25,0,0s0,0,0,0h0l.08.15a4.36,4.36,0,0,0,.37.59s.16.16.29.26a3.5,3.5,0,0,0,.42.46l.25.22s.12.15.22.12l.21,0c.31-.06.09-.05.23-.09s.47,0,.24,0a10,10,0,0,1,1.36,0c-.07,0-.15,0-.11-.05s.28,0,.26.06h0l.34,0,.12,0s.08,0,.08,0l.08-.24c.08-.2.16-.41.23-.61a5.78,5.78,0,0,0,.33-1.11v0l.12-.63c.08-.29,0,.18.06,0,.11-.69.26-1.07.34-1.64a17.09,17.09,0,0,0,.42-2.13l0,0c0-.16,0-.19.06-.3s0,.16,0,.07c.14-1.31.31-2.7.34-4,0-.5-.12-.28-.07-.9l0,.17c-.07-1-.07-2-.21-3a.46.46,0,0,1,0,.16,2.39,2.39,0,0,0-.11-.76c0-.15,0,0,0-.13s-.11-.51-.09-.62,0,0,0,.09c0-.13-.08-.62-.1-.49,0-.36-.13-.68-.16-1s-.09-.62-.17-.67c.07,0-.07-.64-.16-.85,0,.07,0-.2,0-.12-.06-.26-.13-.49-.15-.44,0-.49-.3-.92-.28-1.21-.25-.75-.5-1.43-.75-2.08.08,0,.26.73.32.68-.13-.33-.21-.52-.34-.83a4.65,4.65,0,0,0-.8-.47c-.15-.09.11,0,.17,0a4.65,4.65,0,0,0-1.87-.49.59.59,0,0,1,.14,0c-.12,0-.28,0-.27,0h.12c.18,0-.48.07-.5.11.2-.11-.59,0-.28-.11-.08,0-.18,0-.15.06s-.16,0,0,0a6,6,0,0,0-.63.19s.07,0,.1-.07l-.66.29s0,0,.06,0c-.15.06-.13.1-.22,0l-.27-.21a4.63,4.63,0,0,0-.71-.38c.2,0-.19-.1-.2-.16A2,2,0,0,0,91,1.69l.13.05a4.58,4.58,0,0,0-.8-.06l.22,0a3.31,3.31,0,0,0-.55,0h.31c-.29.06,0,.06-.35.09l-.43.07h0l-.45.22c-.06,0,0-.08,0-.07a3.32,3.32,0,0,0-.66.55s0-.07,0-.06l-.06.11c-.1.08-.12.1-.12.06-.26.31.13-.06-.19.3l0-.08a2.32,2.32,0,0,0-.39.71c-.09,0-.19-.12-.34-.2s0,0,.13,0,.1.06.09,0a4.83,4.83,0,0,0-1.82-.56l.12,0c-.1.06-.45-.09-.77,0,.08,0,.1,0,.08,0a4.07,4.07,0,0,0-1.46.3l.07,0a3.68,3.68,0,0,0-.85.36c-.06.05-.19.14-.09.11a4.35,4.35,0,0,0-1.59,1.63c0-.07.09-.19.05-.13a4.8,4.8,0,0,0-.26.57s0-.07.13-.17c0,.07-.08.24-.13.38.07-.26,0,0-.09,0s0,0,0,0c-.25-.1,0,0-.46,0l0,0a4.52,4.52,0,0,0-.49,0c-.08,0,.17,0,.18-.07-.25,0-.47.15-.7.18a2.35,2.35,0,0,1,.35-.11,1.19,1.19,0,0,0-.46.08h0a2.74,2.74,0,0,0-.4.15l.1,0c-.23.23-.56.35-.8.7.24-.33,0-.07,0-.13s-.21.19-.19.15a2.21,2.21,0,0,0-.34.53s-.1.19-.11.14c-.1.25,0,0,.06,0-.07.19-.17.41-.24.66a2.7,2.7,0,0,0-.08.41v.15s0,.1,0,.09a2.46,2.46,0,0,0-.47,0l-.5.06c-.16,0,.12-.06.12-.06a2.46,2.46,0,0,0-.67.09s0,0-.08,0-.11.08-.35.13a.61.61,0,0,1,.16-.11,5.65,5.65,0,0,0-.62.28c-.07,0,.11-.09.19-.13a2.28,2.28,0,0,0-.66.38l.15-.07c-.08,0-.06,0,0-.05s.3-.13.31-.12l-.14.08c.18,0,.6-.28.93-.34L75.64,9,76,8.85c.07,0,.12,0,0,.07.23,0,.2-.06.4-.05,0,0,0,0,0,0l.23,0s0,0-.1,0a3.89,3.89,0,0,1,.81,0h0c.34,0,.35,0,.33,0s0,0,0-.23l.13-.26,0-.06c0-.06,0-.17,0-.15,0-.22,0,0,0-.1s.26-.74.36-.75-.16.22,0-.06c.11,0,.18-.3.38-.47,0,.09-.19.26,0,.09s.36-.34.53-.46c0-.06.37-.28.72-.4a3.54,3.54,0,0,1,1-.08h0a.56.56,0,0,1,.26,0c.07,0,.19.06.23,0l.08-.23s0,.06,0,.27l.11-.29a.72.72,0,0,1,.08-.27l0,.07a3,3,0,0,1,.53-.89s-.29.19,0-.16c0,0,.06,0,0,.1a.76.76,0,0,1,.13-.16l-.09.15c.14-.13,0-.09.15-.2s.09-.06.09,0a.79.79,0,0,0-.13.13,2.67,2.67,0,0,1,.34-.28s0,0,.06-.11.11,0,.26-.15.22-.15.2-.19a.33.33,0,0,1,.14,0c.13-.11.67-.36.49-.31h0A3.87,3.87,0,0,1,85,3V3a5.64,5.64,0,0,1,.93,0c.1,0,.22.07.17.08a1.73,1.73,0,0,1,.6.17c-.24-.06.07,0-.24-.06.29.1.35.15.67.26-.11,0,.16.12.35.23l-.21-.15a4.41,4.41,0,0,1,.47.28l0,0v.07h-.05l.07,0c.06-.13.1-.25.15-.36l.1-.21A3.72,3.72,0,0,1,88.22,3a1.38,1.38,0,0,1,.52-.5c.11-.14-.27.2-.19.07a2.08,2.08,0,0,1,.6-.32c.36-.15.31-.23.72-.31-.06,0-.12-.05.19-.12s.37.05.19.07-.11,0-.1,0-.22.05-.1,0l0,0c.15,0,.54,0,.45,0,.21,0,.09,0-.07,0a3,3,0,0,1,.93.19s-.1-.06,0,0c.51.24.24.07.59.24.16.15-.1,0,.22.21s0,.07-.07,0a1.56,1.56,0,0,1,.2.16c.09.06.16.23.27.21.28-.12.33-.13.44-.17l-.16.09a2,2,0,0,1,.26-.12H93c.1,0,.19-.07.19,0s-.1,0,.11-.13.42-.13.48-.09c-.45.08.06,0-.31.12l.26-.06s0,0,0,0c.43,0,.19-.1.64-.14-.06,0,.1,0,.17,0-.18,0-.08,0,.08-.07s.32,0,.47,0a1,1,0,0,0-.17,0,1.59,1.59,0,0,1,.41,0s-.18,0-.11,0a3.22,3.22,0,0,1,.79.21c.14.06,0,0,.12.1a3.39,3.39,0,0,1,.66.33c-.07-.08-.09-.09.15,0a5.6,5.6,0,0,0-.55-.27l.37.13a3.75,3.75,0,0,0-.45-.2c.18,0,.16.05.09,0a7.17,7.17,0,0,1,.69.4L97,3.11c.12.11.07,0,.12.17l.12.29a6.81,6.81,0,0,1,.25.7l0-.18a5.37,5.37,0,0,1,.18.51s0,.11,0,.19.12.41.19.44l0,.26c.11.46.22.5.32.94-.06-.13,0,.08-.12-.21a.77.77,0,0,0,.08.28c0,.09.14.39.14.54a.47.47,0,0,1,.09.23s0,0,0,0,.08.25.08.1c0,.47.26,1.27.25,1.69s.13.71.17,1c0,0,0,0,0-.05,0,.41.12.24.14.71,0,.24,0-.25,0-.1s.08.57,0,.89v-.08c0,.24.08.58.1,1h0a8.7,8.7,0,0,1,.13,1.16c0-.12,0-.17-.06-.1s.06-.05.08.29a1.61,1.61,0,0,1-.07.39v-.32a2.81,2.81,0,0,0,0,.58l0,0c0,.49.07.49,0,1l0-.05c0,.29,0,.24,0,.53l-.06.08c0,.19,0,.67,0,1,0-.2,0-.6,0-.84a6.13,6.13,0,0,0,0,.73,1.93,1.93,0,0,1,0-.24,4.55,4.55,0,0,1,0,.91c-.1-.07-.12,1-.24,1.23a19.43,19.43,0,0,1-.33,2.06c.13-.25,0,.22.05.19a.82.82,0,0,1-.05.26l-.16.53c0,.12,0-.17,0-.16-.08.38-.07.15-.15.4,0-.05,0,.14,0,.36l.11-.3c-.08.55-.18.45-.27,1v-.17c0,.28-.27,1-.28,1.3,0,0-.07.1,0,0l-.29,1c0,.09,0,.08-.21.05l-.46-.06h.06a2.63,2.63,0,0,1-.39,0s0,0,0,0l-.52,0,.15,0a3.6,3.6,0,0,0-.85.07c-.12,0-.25.07-.27.06l-.29-.21s-.32-.4-.46-.61h0a5.76,5.76,0,0,1-.54-.82c-.18-.26-.32-.25-.44-.36l-.42-.27a4.7,4.7,0,0,1-1.16-1.78c0,.11,0,0-.1-.11s-.16-.43-.09-.41v-.08c0-.12,0-.22,0-.33l-.35,0-.2,0-.05.07a4.42,4.42,0,0,1-1.91-1,3.29,3.29,0,0,1-.41-.33l0,0a5.56,5.56,0,0,1-.7-1l.08.08c-.08-.14-.14-.19-.21-.3a1.69,1.69,0,0,1-.23-.42l0,0a.14.14,0,0,0-.09,0c-.08.09-.16.19-.25.28l-.17.15a4.19,4.19,0,0,1-.33.26,8.18,8.18,0,0,1-.69.45.17.17,0,0,1,.09-.08c-.22.15-.94.32-.83.37s-.56.14-.86.17l0,0a1.45,1.45,0,0,1-.61.09c-.09,0-.07,0,0,0-.28-.06-.23,0-.56-.06h.13a1.71,1.71,0,0,0-.43-.05,1.25,1.25,0,0,1-.54-.23.72.72,0,0,1-.36-.12s0,0,.08,0a3.52,3.52,0,0,1-.88-.58.09.09,0,0,0,0-.05,4,4,0,0,0,.53.4s-.23-.21,0-.11a2.73,2.73,0,0,1-.79-.56.08.08,0,0,1,0,0l0,0-.13-.13-.15-.2a4.19,4.19,0,0,0-.27-.43s-.12-.14-.06,0l.08.11,0,0h0a3.46,3.46,0,0,0,.23.31.91.91,0,0,1-.26-.33.89.89,0,0,1-.17-.15c0-.09-.06-.17-.08-.25l-.14-.38-.24.15-.34.3L79,17c-.21.14-.42.25-.54.35a.39.39,0,0,1-.21,0,1.83,1.83,0,0,0,.2-.1c-.24.14-.76.26-.81.32-.34,0,.18-.08-.28,0l.06,0a10.24,10.24,0,0,1-1.21,0A2.58,2.58,0,0,1,75,17.22c.06,0,.09.05.1.07a4.31,4.31,0,0,1-2.37-2.51,3.59,3.59,0,0,0-.2-.52l0-.08-.12-.33a6.14,6.14,0,0,1,.09-1.44l0,.07a1.94,1.94,0,0,1,.18-.64.21.21,0,0,1,0-.15h0a5.27,5.27,0,0,1,.19-.51c.23-.35,0,.09.37-.41.12-.19.35-.54.28-.49s-.16.18-.18.17l.13-.17c0-.08,0-.26-.35.13a2.69,2.69,0,0,0-.19.32l-.09.09.17-.27a1.2,1.2,0,0,0-.22.36.76.76,0,0,0-.1.12,2.47,2.47,0,0,0-.11.36s0-.18-.09,0,.12-.13,0,.14-.1.1-.13.3c0,0,0,0,0-.1a2.61,2.61,0,0,0-.11.58c-.09.18-.07.63-.14.6a2.79,2.79,0,0,1,0,.51c-.1-.31,0,.64,0,.56a6.57,6.57,0,0,0,.44,1.18.16.16,0,0,1-.06-.09c.1.22.11.28.17.43.06,0,.26.3.41.43s-.16-.1-.15,0,.34.36.31.26c.12.19.12.15.16.26s.15.15.32.23,0,.11.31.3C74.24,17.14,74,17,74,17Zm6.77.91h0a1.33,1.33,0,0,0-.12-.12Zm.52.45L81,18.15s0,0,.07,0S81.18,18.27,81.26,18.34Zm-.78-1.19a.6.6,0,0,1,.08.13l-.11-.14h0Z"/><path class="cls-5" d="M80.33,17l0,0,0,.06,0,0Z"/><path class="cls-5" d="M83.43,3.37h0Z"/><polygon class="cls-5" points="88.7 19.74 88.7 19.73 88.65 19.7 88.7 19.74"/><path class="cls-5" d="M80.94,5.84h0Z"/><path class="cls-5" d="M79.39,6,79.17,6Z"/><path class="cls-5" d="M78.32,6.62v0h0Z"/><path class="cls-5" d="M95,2.08h0Z"/><path class="cls-5" d="M89.52,1.85l.18-.07C89.6,1.81,89.52,1.83,89.52,1.85Z"/><polygon class="cls-5" points="98.56 6.89 98.55 6.89 98.56 6.93 98.56 6.89"/><path class="cls-5" d="M90,1.73a1.08,1.08,0,0,0-.27.05Z"/><polygon class="cls-5" points="74.67 9.22 74.61 9.24 74.61 9.25 74.67 9.22"/><path class="cls-5" d="M74.61,9.25l-.06,0Z"/><path class="cls-5" d="M74.44,9.37l.11-.08A.31.31,0,0,0,74.44,9.37Z"/><path class="cls-5" d="M76.25,8.74v0Z"/><path class="cls-5" d="M76.75,8.7a2.52,2.52,0,0,0-.47,0h0C76.34,8.69,76.64,8.72,76.75,8.7Z"/><path class="cls-5" d="M77.83,7.66a2.87,2.87,0,0,0-.15.37c0-.06.08-.14,0,0C77.91,7.6,77.64,8.15,77.83,7.66Z"/><path class="cls-5" d="M78.57,6.67c-.16.15,0,0,0,0S78.69,6.58,78.57,6.67Z"/><path class="cls-5" d="M86.2,3.13l0,0C86.33,3.19,86.18,3.15,86.2,3.13Z"/><path class="cls-5" d="M87.68,3.47l0,0h0s0,0,0,0l.06,0Z"/><path class="cls-5" d="M88.44,2.8l0,.06a1.8,1.8,0,0,1,.18-.2Z"/><path class="cls-5" d="M98.56,8.72l0-.06C98.57,8.55,98.52,8.54,98.56,8.72Z"/><path class="cls-5" d="M99.12,15.35a.9.9,0,0,0,0,.38C99.1,15.58,99.12,15.43,99.12,15.35Z"/><polygon class="cls-5" points="90.44 20.21 90.56 20.22 90.33 20.17 90.44 20.21"/></g></g></svg>