<svg width="20" height="20" viewBox="0 0 20 20" fill="none" xmlns="http://www.w3.org/2000/svg">
<g id="Chrome_Icon">
<g id="Layer 2">
<g id="Layer 1">
<g id="Chrome Icon">
<path id="Vector" d="M16.36 3.64C15.5361 2.75576 14.5425 2.04653 13.4385 1.55463C12.3345 1.06272 11.1427 0.798223 9.93427 0.776901C8.72584 0.75558 7.52549 0.977876 6.40483 1.43053C5.28417 1.88318 4.26617 2.55691 3.41154 3.41154C2.55692 4.26616 1.88318 5.28417 1.43053 6.40483C0.977876 7.52549 0.75558 8.72584 0.776902 9.93427C0.798223 11.1427 1.06273 12.3345 1.55463 13.4385C2.04653 14.5425 2.75576 15.5361 3.64 16.36C4.46395 17.2442 5.45755 17.9535 6.56154 18.4454C7.66554 18.9373 8.8573 19.2018 10.0657 19.2231C11.2742 19.2444 12.4745 19.0221 13.5952 18.5695C14.7158 18.1168 15.7338 17.4431 16.5885 16.5885C17.4431 15.7338 18.1168 14.7158 18.5695 13.5952C19.0221 12.4745 19.2444 11.2742 19.2231 10.0657C19.2018 8.8573 18.9373 7.66554 18.4454 6.56154C17.9535 5.45755 17.2442 4.46394 16.36 3.64V3.64ZM10 2.05C11.0442 2.04821 12.0784 2.25317 13.043 2.65308C14.0075 3.05298 14.8834 3.63991 15.62 4.38C16.0965 4.8637 16.5067 5.40845 16.84 6H10C9.08344 5.99919 8.19371 6.30931 7.47623 6.87966C6.75875 7.45002 6.25594 8.24688 6.05 9.14L3.73 5.14C3.93307 4.88172 4.15006 4.63468 4.38 4.4C5.11495 3.65629 5.99006 3.06568 6.95471 2.66231C7.91936 2.25894 8.95441 2.05082 10 2.05V2.05ZM13 10.05C13 10.6433 12.8241 11.2234 12.4944 11.7167C12.1648 12.2101 11.6962 12.5946 11.1481 12.8216C10.5999 13.0487 9.99667 13.1081 9.41473 12.9924C8.83279 12.8766 8.29824 12.5909 7.87868 12.1713C7.45912 11.7518 7.1734 11.2172 7.05765 10.6353C6.94189 10.0533 7.0013 9.45013 7.22836 8.90195C7.45543 8.35377 7.83994 7.88524 8.33329 7.55559C8.82664 7.22595 9.40666 7.05 10 7.05C10.7871 7.04989 11.5426 7.35909 12.1038 7.91093C12.665 8.46277 12.9869 9.21305 13 10V10.05ZM2.05 10C2.03918 8.63207 2.38376 7.28477 3.05 6.09L6.47 12C6.82659 12.6179 7.34193 13.1291 7.96261 13.4808C8.58329 13.8324 9.28672 14.0117 10 14C10.4176 14.0036 10.833 13.9395 11.23 13.81L8.91 17.81C7.0195 17.5484 5.2862 16.6154 4.02671 15.1815C2.76722 13.7476 2.0656 11.9085 2.05 10V10ZM15.62 15.62C14.1508 17.0925 12.1601 17.9262 10.08 17.94L13.48 12.06C13.9382 11.2629 14.1117 10.3337 13.9717 9.42499C13.8318 8.5163 13.3868 7.68226 12.71 7.06H17.36C17.9402 8.50936 18.0837 10.0968 17.7728 11.6267C17.4618 13.1567 16.71 14.5621 15.61 15.67L15.62 15.62Z" fill="#FFFDFA"/>
</g>
</g>
</g>
</g>
</svg>
