<svg width="20" height="20" viewBox="0 0 20 20" fill="none" xmlns="http://www.w3.org/2000/svg">
<g id="Layer 2" filter="url(#filter0_d)">
<g id="Layer 1">
<g id="Right Hand">
<path id="Vector" d="M18.46 7.66C18.2798 7.44976 18.0557 7.28168 17.8034 7.16763C17.5511 7.05358 17.2768 6.99636 17 7H10.69L11.45 4.88C11.5116 4.71736 11.5355 4.54287 11.5199 4.36966C11.5043 4.19645 11.4496 4.02903 11.36 3.88C11.2742 3.74095 11.1591 3.62235 11.0226 3.53252C10.8861 3.44269 10.7316 3.38381 10.57 3.36C10.3803 3.34546 10.1897 3.34546 10 3.36C9.59869 3.34487 9.19884 3.41656 8.82779 3.57016C8.45673 3.72376 8.1232 3.95566 7.85 4.25C7.69637 4.43787 7.5592 4.63861 7.44 4.85L7.31 5C6.79308 5.71974 6.17698 6.36277 5.48 6.91C5.27265 7.07114 5.10786 7.28056 5 7.52C4.65649 7.18787 4.19781 7.00153 3.72 7H2.85C2.35935 7 1.88879 7.19491 1.54185 7.54185C1.19491 7.88879 1 8.35935 1 8.85V14.85C1.00264 15.3389 1.19872 15.8069 1.54538 16.1517C1.89203 16.4965 2.36108 16.69 2.85 16.69H3.72C4.20514 16.6762 4.66521 16.4714 5 16.12C5.10725 16.2881 5.25503 16.4266 5.42976 16.5227C5.6045 16.6188 5.80058 16.6695 6 16.67H12.46C12.7051 16.6632 12.9463 16.6075 13.1696 16.5062C13.3928 16.4049 13.5935 16.26 13.76 16.08L14.13 15.65C14.399 15.3202 14.5812 14.9283 14.66 14.51L15.16 11.25H17C17.2701 11.2478 17.5366 11.1878 17.7816 11.074C18.0265 10.9601 18.2442 10.7951 18.42 10.59C18.768 10.1812 18.9591 9.66187 18.9591 9.125C18.9591 8.58813 18.768 8.0688 18.42 7.66H18.46ZM4.8 14.83C4.8 15.1164 4.68621 15.3911 4.48368 15.5937C4.28114 15.7962 4.00643 15.91 3.72 15.91H2.85C2.70733 15.9113 2.56582 15.8844 2.43363 15.8307C2.30144 15.777 2.1812 15.6977 2.07985 15.5972C1.9785 15.4968 1.89806 15.3773 1.84316 15.2456C1.78826 15.1139 1.75999 14.9727 1.76 14.83V8.83C1.76524 8.54439 1.88239 8.27226 2.08624 8.07215C2.29009 7.87204 2.56435 7.75995 2.85 7.76H3.72C3.86267 7.75999 4.00393 7.78826 4.13562 7.84316C4.26731 7.89806 4.38681 7.9785 4.48723 8.07985C4.58765 8.1812 4.66699 8.30144 4.72068 8.43363C4.77436 8.56582 4.80132 8.70733 4.8 8.85V14.83ZM17 10.49H14.5L13.9 14.4C13.8382 14.6752 13.7189 14.9342 13.55 15.16L13.17 15.59C12.9794 15.7844 12.722 15.8988 12.45 15.91H6C5.88596 15.91 5.77659 15.8647 5.69594 15.7841C5.6153 15.7034 5.57 15.594 5.57 15.48V8.2C5.57701 8.06652 5.61072 7.9358 5.66911 7.81557C5.72751 7.69534 5.80942 7.58803 5.91 7.5C6.67015 6.93387 7.34387 6.26015 7.91 5.5C8.05484 5.25024 8.21516 5.00977 8.39 4.78C8.58842 4.55037 8.8365 4.36892 9.11544 4.24937C9.39439 4.12982 9.69688 4.07532 10 4.09C10.1531 4.07872 10.3069 4.07872 10.46 4.09C10.514 4.09952 10.5652 4.12094 10.61 4.15269C10.6547 4.18444 10.6918 4.22574 10.7186 4.2736C10.7454 4.32145 10.7612 4.37466 10.7649 4.42939C10.7686 4.48411 10.7601 4.53897 10.74 4.59L9.74 7.32C9.71873 7.36623 9.71 7.41724 9.71468 7.46792C9.71937 7.51859 9.7373 7.56714 9.76669 7.60868C9.79608 7.65023 9.83588 7.68331 9.8821 7.70461C9.92832 7.7259 9.97932 7.73466 10.03 7.73H17.03C17.3706 7.75311 17.6881 7.91028 17.9131 8.16707C18.138 8.42386 18.252 8.75934 18.23 9.1C18.2436 9.27268 18.2223 9.44633 18.1673 9.61059C18.1123 9.77486 18.0248 9.92637 17.91 10.0561C17.7953 10.1858 17.6555 10.2911 17.4992 10.3656C17.3428 10.4402 17.1731 10.4825 17 10.49Z" fill="#55595C" stroke="#56595C" stroke-width="0.25" stroke-miterlimit="10"/>
</g>
</g>
</g>
<defs>
<filter id="filter0_d" x="-3.125" y="3.2241" width="26.2091" height="21.591" filterUnits="userSpaceOnUse" color-interpolation-filters="sRGB">
<feFlood flood-opacity="0" result="BackgroundImageFix"/>
<feColorMatrix in="SourceAlpha" type="matrix" values="0 0 0 0 0 0 0 0 0 0 0 0 0 0 0 0 0 0 127 0"/>
<feOffset dy="4"/>
<feGaussianBlur stdDeviation="2"/>
<feColorMatrix type="matrix" values="0 0 0 0 0 0 0 0 0 0 0 0 0 0 0 0 0 0 0.25 0"/>
<feBlend mode="normal" in2="BackgroundImageFix" result="effect1_dropShadow"/>
<feBlend mode="normal" in="SourceGraphic" in2="effect1_dropShadow" result="shape"/>
</filter>
</defs>
</svg>
